<svg xmlns="http://www.w3.org/2000/svg" width="100" height="40" viewBox="0 0 100 40"><title>Download-Pirate-Heijn-Expo</title><g fill="none" fill-rule="evenodd"><g fill-rule="nonzero"><path fill="#28189B" d="M9.535 0c-.367 0-.73 0-1.095.002-.306.002-.61.008-.919.013C6.85.023 6.18.082 5.517.19a6.665 6.665 0 0 0-1.9.627A6.438 6.438 0 0 0 .193 5.521a12.993 12.993 0 0 0-.179 2.002c-.01.307-.01.615-.015.921V31.56c.005.31.006.61.015.921.008.671.068 1.34.18 2.002.11.663.32 1.306.624 1.905a6.2 6.2 0 0 0 1.179 1.614 6.3 6.3 0 0 0 1.618 1.179 6.7 6.7 0 0 0 1.901.63c.663.11 1.333.168 2.004.177.31.007.613.011.919.011.366.002.728.002 1.095.002h80.6c.36 0 .724 0 1.084-.002.304 0 .617-.004.922-.01.67-.01 1.338-.068 2-.178a6.804 6.804 0 0 0 1.908-.63A6.277 6.277 0 0 0 97.666 38a6.395 6.395 0 0 0 1.182-1.614c.302-.6.51-1.242.619-1.905.111-.661.173-1.33.185-2.002.004-.31.004-.61.004-.921.008-.364.008-.725.008-1.094V9.536c0-.366 0-.73-.008-1.092 0-.306 0-.614-.004-.92a13.507 13.507 0 0 0-.185-2.003 6.618 6.618 0 0 0-.62-1.903 6.466 6.466 0 0 0-2.798-2.8A6.768 6.768 0 0 0 94.14.191c-.661-.11-1.33-.169-2-.176-.305-.005-.618-.011-.922-.013C90.859 0 90.494 0 90.135 0h-80.6z"/><path fill="#4630EB" d="M8.445 39.125c-.305 0-.602-.004-.904-.01a12.687 12.687 0 0 1-1.87-.164 5.884 5.884 0 0 1-1.656-.548 5.406 5.406 0 0 1-1.397-1.016 5.32 5.32 0 0 1-1.02-1.397 5.722 5.722 0 0 1-.544-1.657 12.414 12.414 0 0 1-.166-1.875c-.007-.21-.015-.913-.015-.913v-23.1s.009-.692.015-.895a12.37 12.37 0 0 1 .165-1.872 5.755 5.755 0 0 1 .544-1.662c.26-.518.603-.99 1.015-1.398A5.565 5.565 0 0 1 5.667 1.05c.62-.1 1.248-.155 1.876-.163l.902-.012h82.769l.913.013c.623.007 1.244.061 1.858.162a5.938 5.938 0 0 1 1.671.548 5.594 5.594 0 0 1 2.415 2.42c.26.52.441 1.076.535 1.649.104.624.162 1.255.174 1.887.003.283.003.588.003.89.008.375.008.732.008 1.092v20.929c0 .363 0 .718-.008 1.075 0 .325 0 .623-.004.93-.011.62-.069 1.24-.17 1.853a5.739 5.739 0 0 1-.54 1.67 5.48 5.48 0 0 1-1.016 1.386 5.413 5.413 0 0 1-1.4 1.022 5.862 5.862 0 0 1-1.668.55c-.618.101-1.243.156-1.869.163-.293.007-.6.011-.897.011l-1.084.002-81.69-.002z"/><path fill="#FFF" d="M37.826 8.731a2.64 2.64 0 0 1 2.808 2.965c0 1.906-1.03 3.002-2.808 3.002h-2.155V8.73h2.155zm-1.228 5.123h1.125a1.876 1.876 0 0 0 1.967-2.146 1.881 1.881 0 0 0-1.967-2.134h-1.125v4.28zm5.082-1.41a2.133 2.133 0 1 1 4.248 0 2.134 2.134 0 1 1-4.247 0zm3.334 0c0-.976-.439-1.547-1.208-1.547-.773 0-1.207.571-1.207 1.547 0 .984.434 1.55 1.207 1.55.77 0 1.208-.57 1.208-1.55zm6.559 2.254h-.922l-.93-3.317h-.071l-.926 3.317h-.913l-1.242-4.503h.902l.806 3.436h.067l.926-3.436h.852l.926 3.436h.07l.803-3.436h.889zm2.281-4.503h.855v.715h.066a1.347 1.347 0 0 1 1.344-.802 1.465 1.465 0 0 1 1.559 1.675v2.915h-.889v-2.692c0-.724-.314-1.084-.972-1.084a1.033 1.033 0 0 0-1.075 1.141v2.635h-.888v-4.503zm5.24-1.758h.888v6.261h-.888zm2.124 4.007a2.133 2.133 0 1 1 4.247 0 2.134 2.134 0 1 1-4.247 0zm3.333 0c0-.976-.439-1.547-1.208-1.547-.773 0-1.207.571-1.207 1.547 0 .984.434 1.55 1.207 1.55.77 0 1.208-.57 1.208-1.55zm1.849.98c0-.81.604-1.278 1.676-1.344l1.22-.07v-.389c0-.475-.315-.744-.922-.744-.497 0-.84.182-.939.5h-.86c.09-.773.818-1.27 1.84-1.27 1.128 0 1.765.563 1.765 1.514v3.077h-.855v-.633h-.07a1.517 1.517 0 0 1-1.353.707 1.36 1.36 0 0 1-1.501-1.348zm2.895-.384v-.377l-1.1.07c-.62.042-.9.253-.9.65 0 .405.351.64.834.64a1.062 1.062 0 0 0 1.166-.983zm2.053-.596c0-1.423.732-2.324 1.87-2.324a1.484 1.484 0 0 1 1.38.79h.067V8.437h.888v6.26h-.851v-.71h-.07a1.563 1.563 0 0 1-1.415.785c-1.145 0-1.869-.901-1.869-2.328zm.918 0c0 .955.45 1.53 1.203 1.53.75 0 1.212-.583 1.212-1.526 0-.938-.468-1.53-1.212-1.53-.748 0-1.203.58-1.203 1.526zm7.071-3.581a.576.576 0 1 1 .576.542.547.547 0 0 1-.576-.542zm.132 1.332h.886v4.503h-.886v-4.503zm2.32 0h.855v.715h.066a1.347 1.347 0 0 1 1.344-.802 1.465 1.465 0 0 1 1.559 1.675v2.915h-.889v-2.692c0-.724-.314-1.084-.972-1.084a1.033 1.033 0 0 0-1.075 1.141v2.635h-.888v-4.503z"/></g><path fill="#FFF" d="M7.872 27.612c.041.5.217 1.002.676 1.675.546.799 1.484 1.238 2.169.534.462-.476 5.456-9.206 7.863-12.514a.717.717 0 0 1 1.175 0c2.407 3.308 7.401 12.038 7.863 12.514.685.704 1.623.265 2.168-.534.537-.786.686-1.338.686-1.927 0-.401-7.778-14.877-8.561-16.082-.754-1.159-.984-1.41-2.258-1.451h-.972c-1.274.04-1.504.292-2.257 1.451-.767 1.18-8.241 15.085-8.552 16.039v.295z"/><path fill="#FFF" fill-rule="nonzero" d="M35.792 30.88V18.591h7.522v2.195h-5.23v2.756h4.754v2.107h-4.754v3.037h5.23v2.194h-7.522zm9.26 0l3.125-4.81-2.938-4.494h2.293l2.02 3.125h.034l2.02-3.125H53.9l-2.94 4.494 3.125 4.81h-2.36l-2.14-3.335h-.034l-2.14 3.335h-2.36zm10.732 3.95V21.576h2.105v.895h.034l.085-.131a3.186 3.186 0 0 1 .73-.623c.17-.106.4-.2.688-.282.289-.082.597-.123.925-.123 1.064 0 1.995.442 2.794 1.326.797.884 1.197 2.08 1.197 3.59 0 1.522-.385 2.721-1.155 3.599-.77.878-1.704 1.317-2.802 1.317-.328 0-.63-.041-.908-.123a2.554 2.554 0 0 1-.67-.29 3.712 3.712 0 0 1-.442-.333 1.757 1.757 0 0 1-.272-.29l-.068-.123h-.034v4.845h-2.207zm2.207-9.567v1.913c0 .539.176.992.527 1.36.35.37.82.554 1.409.554a1.98 1.98 0 0 0 1.587-.738c.414-.491.62-1.2.62-2.124 0-.924-.204-1.633-.611-2.124-.408-.492-.94-.738-1.596-.738-.589 0-1.059.185-1.41.554-.35.368-.526.816-.526 1.343zm12.09 5.88c-1.223 0-2.23-.432-3.023-1.298-.792-.866-1.188-2.072-1.188-3.617 0-1.521.407-2.721 1.222-3.599.815-.878 1.812-1.317 2.989-1.317 1.177 0 2.173.44 2.988 1.317.815.878 1.223 2.078 1.223 3.6 0 1.544-.396 2.75-1.189 3.616-.792.866-1.8 1.299-3.022 1.299zm0-2.053c.634 0 1.132-.249 1.494-.746.362-.498.543-1.203.543-2.116s-.184-1.618-.551-2.115c-.368-.498-.864-.747-1.486-.747-.623 0-1.118.246-1.486.738-.368.491-.552 1.2-.552 2.124 0 .925.181 1.633.543 2.124.363.492.86.738 1.495.738z"/></g></svg>