<?xml version="1.0" encoding="UTF-8"?>
<svg width="2491px" height="2429px" viewBox="0 0 2491 2429" version="1.1" xmlns="http://www.w3.org/2000/svg" xmlns:xlink="http://www.w3.org/1999/xlink">
    <!-- Generator: Sketch Beta 62 (91388) - https://sketch.com -->
    <title>Artboard</title>
    <desc>Created with Sketch Beta.</desc>
    <g id="Artboard" stroke="none" stroke-width="1" fill="none" fill-rule="evenodd">
        <g id="github-icon-1" fill="#FFFFFF" fill-rule="nonzero">
            <path d="M1245.16602,0 C557.568359,0 0,557.470703 0,1245.16602 C0,1795.32227 356.777344,2262.06055 851.523438,2426.70898 C913.75,2438.23242 936.601562,2399.69727 936.601562,2366.80664 C936.601562,2337.11914 935.439453,2239.02344 934.912109,2134.98047 C588.496094,2210.30273 515.400391,1988.06641 515.400391,1988.06641 C458.759766,1844.14062 377.148438,1805.87891 377.148438,1805.87891 C264.179688,1728.59375 385.664063,1730.17578 385.664063,1730.17578 C510.703125,1738.96484 576.542969,1858.49609 576.542969,1858.49609 C687.597656,2048.85742 867.832031,1993.81836 938.886719,1962.01172 C950.058594,1881.52344 982.333984,1826.60156 1017.93945,1795.50781 C741.376953,1764.01367 450.634766,1657.24609 450.634766,1180.13672 C450.634766,1044.19922 499.277344,933.115234 578.935547,845.917969 C566.005859,814.550781 523.388672,687.910156 590.996094,516.396484 C590.996094,516.396484 695.556641,482.929687 933.505859,644.033203 C1032.82227,616.435547 1139.3457,602.607422 1245.16602,602.138672 C1350.98633,602.607422 1457.58789,616.435547 1557.09961,644.033203 C1794.76562,482.929687 1899.17969,516.396484 1899.17969,516.396484 C1966.95312,687.910156 1924.31641,814.550781 1911.38672,845.917969 C1991.2207,933.115234 2039.53125,1044.18945 2039.53125,1180.13672 C2039.53125,1658.37891 1748.24219,1763.69141 1470.97656,1794.51172 C1515.63477,1833.1543 1555.42969,1908.93555 1555.42969,2025.09766 C1555.42969,2191.69922 1553.98438,2325.79102 1553.98438,2366.80664 C1553.98438,2399.94141 1576.39648,2438.76953 1639.52148,2426.54297 C2133.99414,2261.70898 2490.32227,1795.13672 2490.32227,1245.16602 C2490.32227,557.470703 1932.83203,0 1245.16602,0" id="Path"></path>
            <path d="M466.357422,1773.76953 C463.623047,1779.95117 453.876953,1781.80664 445.019531,1777.56836 C435.986328,1773.50586 430.908203,1765.06836 433.837891,1758.85742 C436.523437,1752.49023 446.269531,1750.71289 455.283203,1754.99023 C464.335937,1759.04297 469.492187,1767.55859 466.357422,1773.76953 M527.607422,1828.41797 C521.669922,1833.92578 510.058594,1831.36719 502.177734,1822.66602 C494.033203,1813.98437 492.509766,1802.38281 498.535156,1796.78711 C504.658203,1791.28906 515.917969,1793.85742 524.082031,1802.54883 C532.226562,1811.32812 533.808594,1822.86133 527.597656,1828.42773 M569.628906,1898.33984 C561.992188,1903.64258 549.511719,1898.67187 541.806641,1887.59766 C534.179688,1876.5332 534.179688,1863.25195 541.972656,1857.92969 C549.707031,1852.60742 561.992188,1857.39258 569.804688,1868.37891 C577.421875,1879.63867 577.421875,1892.91992 569.619141,1898.34961 M640.683594,1979.32617 C633.857422,1986.8457 619.326172,1984.83398 608.681641,1974.56055 C597.802734,1964.52148 594.765625,1950.27344 601.611328,1942.74414 C608.515625,1935.20508 623.134766,1937.32422 633.857422,1947.50977 C644.667969,1957.5293 647.96875,1971.88477 640.693359,1979.32617 M732.519531,2006.66992 C729.521484,2016.41602 715.517578,2020.84961 701.416016,2016.70898 C687.333984,2012.44141 678.115234,2001.01562 680.957031,1991.16211 C683.886719,1981.34766 697.949219,1976.72852 712.158203,1981.16211 C726.220703,1985.41016 735.458984,1996.74805 732.529297,2006.66992 M837.050781,2018.26172 C837.402344,2028.53516 825.439453,2037.05078 810.634766,2037.23633 C795.742187,2037.55859 783.701172,2029.24805 783.544922,2019.15039 C783.544922,2008.7793 795.234375,2000.3418 810.117188,2000.09766 C824.921875,1999.80469 837.050781,2008.05664 837.050781,2018.26172 M939.726562,2014.32617 C941.503906,2024.3457 931.210938,2034.63867 916.513672,2037.37305 C902.060547,2040.00977 888.681641,2033.82812 886.835938,2023.89648 C885.039062,2013.62305 895.527344,2003.33984 909.951172,2000.67383 C924.677734,1998.11523 937.851562,2004.14063 939.726563,2014.32617" id="Shape"></path>
        </g>
    </g>
</svg>