<svg xmlns="http://www.w3.org/2000/svg" width="2491" height="2429" viewBox="0 0 2491 2429"><title>Artboard</title><g fill="#FFF"><path d="M1245.166 0C557.568 0 0 557.47 0 1245.166c0 550.156 356.777 1016.895 851.523 1181.543 62.227 11.523 85.079-27.012 85.079-59.902 0-29.688-1.163-127.784-1.69-231.827-346.416 75.323-419.512-146.914-419.512-146.914-56.64-143.925-138.252-182.187-138.252-182.187-112.968-77.285 8.516-75.703 8.516-75.703 125.04 8.789 190.879 128.32 190.879 128.32 111.055 190.361 291.289 135.322 362.344 103.516 11.172-80.489 43.447-135.41 79.052-166.504-276.562-31.494-567.304-138.262-567.304-615.371 0-135.938 48.642-247.022 128.3-334.219-12.93-31.367-55.546-158.008 12.061-329.522 0 0 104.56-33.466 342.51 127.637 99.316-27.597 205.84-41.426 311.66-41.894 105.82.468 212.422 14.297 311.934 41.894 237.666-161.103 342.08-127.637 342.08-127.637 67.773 171.514 25.136 298.155 12.207 329.522 79.834 87.197 128.144 198.271 128.144 334.219 0 478.242-291.289 583.554-568.554 614.375 44.658 38.642 84.453 114.424 84.453 230.586 0 166.601-1.446 300.693-1.446 341.709 0 33.134 22.412 71.963 85.537 59.736 494.473-164.834 850.801-631.406 850.801-1181.377C2490.322 557.471 1932.832 0 1245.166 0"/><path d="M466.357 1773.77c-2.734 6.181-12.48 8.037-21.337 3.798-9.034-4.062-14.112-12.5-11.182-18.71 2.685-6.368 12.432-8.145 21.445-3.868 9.053 4.053 14.21 12.569 11.074 18.78m61.25 54.648c-5.937 5.508-17.548 2.95-25.43-5.752-8.144-8.682-9.667-20.283-3.642-25.879 6.123-5.498 17.383-2.93 25.547 5.762 8.145 8.78 9.727 20.312 3.516 25.879m42.03 69.912c-7.636 5.303-20.116.332-27.821-10.742-7.627-11.065-7.627-24.346.166-29.668 7.734-5.323 20.02-.537 27.832 10.449 7.617 11.26 7.617 24.54-.186 29.97m71.065 80.977c-6.827 7.52-21.358 5.508-32.002-4.765-10.88-10.04-13.916-24.288-7.07-31.817 6.904-7.539 21.523-5.42 32.245 4.766 10.811 10.02 14.112 24.375 6.836 31.816m91.827 27.344c-2.999 9.746-17.002 14.18-31.104 10.039-14.082-4.268-23.3-15.693-20.459-25.547 2.93-9.814 16.992-14.433 31.201-10 14.063 4.248 23.301 15.586 20.371 25.508m104.522 11.592c.351 10.273-11.612 18.789-26.416 18.974-14.893.323-26.934-7.988-27.09-18.086 0-10.37 11.69-18.808 26.572-19.052 14.805-.293 26.934 7.959 26.934 18.164m102.676-3.936c1.777 10.02-8.516 20.313-23.213 23.047-14.453 2.637-27.832-3.545-29.678-13.477-1.797-10.273 8.691-20.556 23.115-23.222 14.727-2.559 27.9 3.467 29.776 13.652"/></g></svg>