<?xml version="1.0" encoding="UTF-8"?>
<svg width="3240px" height="948px" viewBox="0 0 3240 948" version="1.1" xmlns="http://www.w3.org/2000/svg" xmlns:xlink="http://www.w3.org/1999/xlink">
    <!-- Generator: Sketch Beta 62 (91388) - https://sketch.com -->
    <title>PirateHein</title>
    <desc>Created with Sketch Beta.</desc>
    <g id="PirateHein" stroke="none" stroke-width="1" fill="none" fill-rule="evenodd">
        <path d="M193.880076,674 L193.879368,536.5 L257.942576,536.5 C307.442576,536.5 343.542771,525.046357 366.243162,502.139072 L366.926951,501.441406 C389.583201,478.06901 400.911326,446.265625 400.911326,406.03125 C400.911326,379.729167 396.093618,356.682292 386.458201,336.890625 C376.822784,317.098958 361.523305,301.669271 340.559764,290.601562 C319.596222,279.533854 292.057159,274 257.942576,274 L257.942576,274 L103.255076,274 L103.255076,674 L193.880076,674 Z M309.114472,379.046896 L309.114472,413.110104 C309.114472,432.641354 296.786044,466.235104 252.083222,466.235104 C207.3804,466.235104 195.833222,432.641354 195.833222,413.110104 L195.831907,379.046896 L309.114472,379.046896 Z" id="PH" fill="#FFFFFF" fill-rule="nonzero"></path>
        <rect id="Rectangle" fill="#FF8A00" x="1697" y="124" width="1453" height="700" rx="60"></rect>
        <g id="Line" transform="translate(99.083201, 326.000000)" stroke="#181818" stroke-linejoin="round" stroke-width="40">
            <path d="M289.775521,18.2213621 C240.745558,41.8135084 194.483699,53.6609736 150.989942,53.7637577 C107.496186,53.8665418 57.6422577,47.7452492 1.428158,35.3998797" transform="translate(145.601839, 35.993196) rotate(-7.000000) translate(-145.601839, -35.993196) "></path>
        </g>
        <path d="M1921.35,664.5 L1921.35,523.7 C1921.35,473.1 1946.1,443.4 1988.45,443.4 C2025.85,443.4 2046.75,463.75 2046.75,505 L2046.75,664.5 L2116.05,664.5 L2116.05,501.7 C2116.05,434.05 2073.7,387.3 2009.9,387.3 C1959.85,387.3 1937.3,409.3 1926.85,430.2 L1921.35,430.2 L1921.35,279.5 L1852.05,279.5 L1852.05,664.5 L1921.35,664.5 Z M2295.9,672.2 C2370.7,672.2 2403.15,629.85 2418.55,600.7 L2361.9,571 C2352.55,591.9 2336.6,612.8 2298.1,612.8 C2259.6,612.8 2230.45,585.85 2228.8,548.45 L2427.35,548.45 L2427.35,524.8 C2427.35,441.2 2375.1,384 2294.8,384 C2214.5,384 2157.85,441.2 2157.85,528.1 C2157.85,615 2214.5,672.2 2295.9,672.2 Z M2356.95,496.75 L2229.35,496.75 C2233.75,466.5 2256.85,443.4 2294.25,443.4 C2330,443.4 2353.65,465.4 2356.95,496.75 Z M2504.9,359.8 C2532.4,359.8 2553.85,340.55 2553.85,312.5 C2553.85,284.45 2532.4,265.2 2504.9,265.2 C2477.4,265.2 2455.95,284.45 2455.95,312.5 C2455.95,340.55 2477.4,359.8 2504.9,359.8 Z M2539.55,664.5 L2539.55,391.7 L2470.25,391.7 L2470.25,664.5 L2539.55,664.5 Z M2638,359.8 C2665.5,359.8 2686.95,340.55 2686.95,312.5 C2686.95,284.45 2665.5,265.2 2638,265.2 C2610.5,265.2 2589.05,284.45 2589.05,312.5 C2589.05,340.55 2610.5,359.8 2638,359.8 Z M2612.15,774.5 C2648.45,774.5 2672.65,750.3 2672.65,712.9 L2672.65,391.7 L2603.35,391.7 L2603.35,701.9 C2603.35,712.9 2597.85,718.4 2587.95,718.4 L2540.65,718.4 L2540.65,774.5 L2612.15,774.5 Z M2803.55,664.5 L2803.55,523.7 C2803.55,473.1 2828.3,443.4 2870.65,443.4 C2908.05,443.4 2928.95,463.75 2928.95,505 L2928.95,664.5 L2998.25,664.5 L2998.25,501.7 C2998.25,434.05 2955.9,387.3 2892.1,387.3 C2842.05,387.3 2818.95,409.3 2807.95,432.4 L2802.45,432.4 L2802.45,391.7 L2734.25,391.7 L2734.25,664.5 L2803.55,664.5 Z" id="heijn" fill="#181818" fill-rule="nonzero"></path>
        <path d="M499.325,369.3 C526.825,369.3 548.275,350.05 548.275,322 C548.275,293.95 526.825,274.7 499.325,274.7 C471.825,274.7 450.375,293.95 450.375,322 C450.375,350.05 471.825,369.3 499.325,369.3 Z M533.975,674 L533.975,401.2 L464.675,401.2 L464.675,674 L533.975,674 Z M664.875,674 L664.875,515.6 C664.875,477.1 690.175,458.4 725.375,458.4 L766.075,458.4 L766.075,400.1 L737.475,400.1 C702.825,400.1 679.725,410.55 669.275,439.7 L663.775,439.7 L663.775,401.2 L595.575,401.2 L595.575,674 L664.875,674 Z M885.425,681.7 C936.025,681.7 954.175,654.2 959.125,642.1 L966.825,642.1 L966.825,674 L1032.825,674 L1032.825,498.55 C1032.825,430.35 987.725,393.5 916.225,393.5 C845.275,393.5 808.425,429.25 795.225,470.5 L859.025,491.95 C863.975,467.2 880.475,448.5 915.125,448.5 C950.325,448.5 965.725,468.3 965.725,493.6 L965.725,509 L890.925,509 C829.325,509 785.325,538.15 785.325,594.25 C785.325,650.35 829.325,681.7 885.425,681.7 Z M899.725,625.6 C870.025,625.6 854.625,611.85 854.625,592.6 C854.625,573.9 870.025,560.7 895.875,560.7 L965.725,560.7 L965.725,565.1 C965.725,601.4 938.225,625.6 899.725,625.6 Z M1262.725,674 L1262.725,617.9 L1209.925,617.9 C1200.025,617.9 1194.525,612.4 1194.525,601.4 L1194.525,457.3 L1269.325,457.3 L1269.325,401.2 L1194.525,401.2 L1194.525,316.5 L1125.225,316.5 L1125.225,401.2 L1057.025,401.2 L1057.025,457.3 L1125.225,457.3 L1125.225,612.4 C1125.225,649.8 1149.425,674 1185.725,674 L1262.725,674 Z M1431.575,681.7 C1506.375,681.7 1538.825,639.35 1554.225,610.2 L1497.575,580.5 C1488.225,601.4 1472.275,622.3 1433.775,622.3 C1395.275,622.3 1366.125,595.35 1364.475,557.95 L1563.025,557.95 L1563.025,534.3 C1563.025,450.7 1510.775,393.5 1430.475,393.5 C1350.175,393.5 1293.525,450.7 1293.525,537.6 C1293.525,624.5 1350.175,681.7 1431.575,681.7 Z M1492.625,506.25 L1365.025,506.25 C1369.425,476 1392.525,452.9 1429.925,452.9 C1465.675,452.9 1489.325,474.9 1492.625,506.25 Z" id="irate" fill="#FFFFFF" fill-rule="nonzero"></path>
    </g>
</svg>