<svg xmlns="http://www.w3.org/2000/svg" width="948" height="948" viewBox="0 0 948 948"><title>PirateHein</title><g fill="none" fill-rule="evenodd"><path fill="#FFF" fill-rule="nonzero" d="M173.88 674V536.5h64.063c49.5 0 85.6-11.454 108.3-34.36l.684-.699c22.656-23.372 33.984-55.175 33.984-95.41 0-26.302-4.817-49.349-14.453-69.14-9.635-19.792-24.935-35.222-45.898-46.29C299.596 279.535 272.057 274 237.943 274H83.255v400h90.625zm115.234-294.953v34.063c0 19.531-12.328 53.125-57.03 53.125-44.704 0-56.25-33.594-56.25-53.125l-.002-34.063h113.282z"/><rect width="390" height="498" x="460.712" y="225" fill="#FF8A00" rx="27"/><path stroke="#181818" stroke-linejoin="round" stroke-width="40" d="M365.618 326.783c-45.79 29.392-90.262 46.79-133.42 52.192-43.156 5.402-93.385 5.402-150.684 0"/><path fill="#181818" fill-rule="nonzero" d="M594.662 674V533.2c0-50.6 24.75-80.3 67.1-80.3 37.4 0 58.3 20.35 58.3 61.6V674h69.3V511.2c0-67.65-42.35-114.4-106.15-114.4-50.05 0-72.6 22-83.05 42.9h-5.5V289h-69.3v385h69.3z"/></g></svg>