<svg xmlns="http://www.w3.org/2000/svg" width="3240" height="948" viewBox="0 0 3240 948"><title>PirateHein</title><g fill="none" fill-rule="evenodd"><path fill="#FFF" fill-rule="nonzero" d="M193.88 674V536.5h64.063c49.5 0 85.6-11.454 108.3-34.36l.684-.699c22.656-23.372 33.984-55.175 33.984-95.41 0-26.302-4.817-49.349-14.453-69.14-9.635-19.792-24.935-35.222-45.898-46.29C319.596 279.535 292.057 274 257.943 274H103.255v400h90.625zm115.234-294.953v34.063c0 19.531-12.328 53.125-57.03 53.125-44.704 0-56.25-33.594-56.25-53.125l-.002-34.063h113.282z"/><rect width="1453" height="700" x="1697" y="124" fill="#FF8A00" rx="60"/><path stroke="#181818" stroke-linejoin="round" stroke-width="40" d="M385.618 326.783c-45.79 29.392-90.262 46.79-133.42 52.192-43.156 5.402-93.385 5.402-150.684 0"/><path fill="#181818" fill-rule="nonzero" d="M1921.35 664.5V523.7c0-50.6 24.75-80.3 67.1-80.3 37.4 0 58.3 20.35 58.3 61.6v159.5h69.3V501.7c0-67.65-42.35-114.4-106.15-114.4-50.05 0-72.6 22-83.05 42.9h-5.5V279.5h-69.3v385h69.3zm374.55 7.7c74.8 0 107.25-42.35 122.65-71.5L2361.9 571c-9.35 20.9-25.3 41.8-63.8 41.8s-67.65-26.95-69.3-64.35h198.55V524.8c0-83.6-52.25-140.8-132.55-140.8-80.3 0-136.95 57.2-136.95 144.1 0 86.9 56.65 144.1 138.05 144.1zm61.05-175.45h-127.6c4.4-30.25 27.5-53.35 64.9-53.35 35.75 0 59.4 22 62.7 53.35zM2504.9 359.8c27.5 0 48.95-19.25 48.95-47.3 0-28.05-21.45-47.3-48.95-47.3-27.5 0-48.95 19.25-48.95 47.3 0 28.05 21.45 47.3 48.95 47.3zm34.65 304.7V391.7h-69.3v272.8h69.3zM2638 359.8c27.5 0 48.95-19.25 48.95-47.3 0-28.05-21.45-47.3-48.95-47.3-27.5 0-48.95 19.25-48.95 47.3 0 28.05 21.45 47.3 48.95 47.3zm-25.85 414.7c36.3 0 60.5-24.2 60.5-61.6V391.7h-69.3v310.2c0 11-5.5 16.5-15.4 16.5h-47.3v56.1h71.5zm191.4-110V523.7c0-50.6 24.75-80.3 67.1-80.3 37.4 0 58.3 20.35 58.3 61.6v159.5h69.3V501.7c0-67.65-42.35-114.4-106.15-114.4-50.05 0-73.15 22-84.15 45.1h-5.5v-40.7h-68.2v272.8h69.3z"/><path fill="#FFF" fill-rule="nonzero" d="M499.325 369.3c27.5 0 48.95-19.25 48.95-47.3 0-28.05-21.45-47.3-48.95-47.3-27.5 0-48.95 19.25-48.95 47.3 0 28.05 21.45 47.3 48.95 47.3zm34.65 304.7V401.2h-69.3V674h69.3zm130.9 0V515.6c0-38.5 25.3-57.2 60.5-57.2h40.7v-58.3h-28.6c-34.65 0-57.75 10.45-68.2 39.6h-5.5v-38.5h-68.2V674h69.3zm220.55 7.7c50.6 0 68.75-27.5 73.7-39.6h7.7V674h66V498.55c0-68.2-45.1-105.05-116.6-105.05-70.95 0-107.8 35.75-121 77l63.8 21.45c4.95-24.75 21.45-43.45 56.1-43.45 35.2 0 50.6 19.8 50.6 45.1V509h-74.8c-61.6 0-105.6 29.15-105.6 85.25s44 87.45 100.1 87.45zm14.3-56.1c-29.7 0-45.1-13.75-45.1-33 0-18.7 15.4-31.9 41.25-31.9h69.85v4.4c0 36.3-27.5 60.5-66 60.5zm363 48.4v-56.1h-52.8c-9.9 0-15.4-5.5-15.4-16.5V457.3h74.8v-56.1h-74.8v-84.7h-69.3v84.7h-68.2v56.1h68.2v155.1c0 37.4 24.2 61.6 60.5 61.6h77zm168.85 7.7c74.8 0 107.25-42.35 122.65-71.5l-56.65-29.7c-9.35 20.9-25.3 41.8-63.8 41.8s-67.65-26.95-69.3-64.35h198.55V534.3c0-83.6-52.25-140.8-132.55-140.8-80.3 0-136.95 57.2-136.95 144.1 0 86.9 56.65 144.1 138.05 144.1zm61.05-175.45h-127.6c4.4-30.25 27.5-53.35 64.9-53.35 35.75 0 59.4 22 62.7 53.35z"/></g></svg>