<?xml version="1.0" encoding="UTF-8"?>
<svg width="100px" height="40px" viewBox="0 0 100 40" version="1.1" xmlns="http://www.w3.org/2000/svg" xmlns:xlink="http://www.w3.org/1999/xlink">
    <!-- Generator: Sketch Beta 62 (91388) - https://sketch.com -->
    <title>Download-Pirate-Heijn-Expo</title>
    <desc>Created with Sketch Beta.</desc>
    <g id="Download-Pirate-Heijn-Expo" stroke="none" stroke-width="1" fill="none" fill-rule="evenodd">
        <g id="Download_on_the_App_Store_Badge_NL_RGB_blk_100317" fill-rule="nonzero">
            <g id="Group">
                <g id="Path">
                    <path d="M9.53468,-0.00013 C9.16798,-0.00013 8.80568,-0.00013 8.43995,0.002 C8.1338,0.004 7.83009,0.00981 7.521,0.0147 C6.84951368,0.0226018036 6.17960647,0.0816762599 5.5171,0.19141 C4.85552408,0.303532628 4.21467252,0.51491574 3.61622,0.81841 C3.01849941,1.12447171 2.47234502,1.52216753 1.99757,1.99707 C1.5203025,2.47063699 1.12246318,3.01801638 0.81935,3.61816 C0.515400242,4.21710912 0.304640498,4.8589383 0.19435,5.52148 C0.0830109412,6.18318491 0.0230983806,6.85252054 0.01515,7.52348 C0.00587,7.83008 0.00489,8.1377 0,8.44434 L0,31.5586 C0.00489,31.8691 0.00587,32.1699 0.01515,32.4805 C0.023100818,33.1514262 0.0830133796,33.8207284 0.19435,34.4824 C0.304335953,35.145329 0.515108158,35.7875266 0.81935,36.3867 C1.12232555,36.9849029 1.52022081,37.5300662 1.99757,38.001 C2.47054482,38.478014 3.01705224,38.8759804 3.61622,39.1797 C4.21466797,39.4840065 4.85545044,39.6966478 5.5171,39.8105 C6.1797191,39.9193547 6.84955741,39.9784532 7.521,39.9873 C7.83009,39.9941 8.1338,39.998 8.43995,39.998 C8.80567,40 9.168,40 9.53468,40 L90.13477,40 C90.49417,40 90.85937,40 91.21877,39.998 C91.52347,39.998 91.83597,39.9941 92.14067,39.9873 C92.8108431,39.9789237 93.4794204,39.9198215 94.14067,39.8105 C94.8044541,39.6958464 95.4475338,39.4832614 96.04887,39.1797 C96.6474974,38.8758046 97.1935003,38.4778491 97.66607,38.001 C98.1421876,37.5282218 98.5409324,36.9834573 98.84767,36.3867 C99.1496289,35.7870908 99.3583947,35.1449445 99.46677,34.4824 C99.5782848,33.8206376 99.6403233,33.1514843 99.65237,32.4805 C99.65627,32.1699 99.65627,31.8691 99.65627,31.5586 C99.66407,31.1953 99.66407,30.834 99.66407,30.4648 L99.66407,9.53613 C99.66407,9.16992 99.66407,8.80664 99.65627,8.44434 C99.65627,8.1377 99.65627,7.83008 99.65237,7.52344 C99.6403258,6.85242244 99.5782873,6.18323567 99.46677,5.52144 C99.3580927,4.8592816 99.149339,4.21750328 98.84767,3.61812 C98.2303943,2.41519608 97.2515733,1.4360254 96.04887,0.81832 C95.447532,0.51556738 94.8043835,0.30424041 94.14067,0.19132 C93.4795349,0.0811027831 92.8108879,0.0220077649 92.14067,0.01456 C91.83597,0.00968 91.52347,0.00382 91.21877,0.00187 C90.85937,-0.00013 90.49417,-0.00013 90.13477,-0.00013 L9.53468,-0.00013 Z" fill="#28189B"></path>
                    <path d="M8.44483,39.125 C8.14015,39.125 7.84283,39.1211 7.54054,39.1143 C6.91432177,39.1061407 6.28956717,39.051625 5.6714,38.9512 C5.0949903,38.8519282 4.53660424,38.6672645 4.01466,38.4033 C3.4975017,38.1415227 3.02581177,37.7982729 2.61766,37.3867 C2.20360033,36.9799753 1.85887673,36.508244 1.59715,35.9902 C1.33253926,35.4687891 1.14941288,34.9098996 1.05415,34.333 C0.951274358,33.7131149 0.895614374,33.0863132 0.88765,32.458 C0.88131,32.2471 0.87301,31.5449 0.87301,31.5449 L0.87301,8.44434 C0.87301,8.44434 0.88185,7.75293 0.8877,7.5498 C0.895325827,6.92248205 0.950662148,6.2966531 1.05323,5.67773 C1.14866872,5.09925008 1.33193687,4.53874887 1.59669,4.01563 C1.85745482,3.49794385 2.20026458,3.02586029 2.61183,2.61768 C3.02293283,2.20562142 3.49613161,1.86060412 4.01417,1.59521 C4.53491467,1.3320936 5.09224545,1.14873255 5.66749,1.05127 C6.28768733,0.949836139 6.91461084,0.894996084 7.543,0.88721 L8.44532,0.875 L91.21387,0.875 L92.12697,0.8877 C92.7496433,0.895099198 93.3708718,0.949450006 93.98537,1.05029 C94.5664379,1.14897507 95.129577,1.33361553 95.65627,1.59814 C96.6940885,2.13298605 97.5385415,2.97916295 98.07127,4.01807 C98.3317973,4.53757756 98.5122386,5.09350676 98.60647,5.66699 C98.7102592,6.29099138 98.7683469,6.92173834 98.78027,7.5542 C98.78317,7.8374 98.78317,8.1416 98.78317,8.44434 C98.79107,8.81934 98.79107,9.17627 98.79107,9.53613 L98.79107,30.4648 C98.79107,30.8281 98.79107,31.1826 98.78317,31.54 C98.78317,31.8652 98.78317,32.1631 98.77927,32.4697 C98.767605,33.0908757 98.7104857,33.7103642 98.60837,34.3232 C98.5150597,34.9042612 98.3329304,35.4675131 98.06837,35.9932 C97.8047931,36.5056211 97.4620491,36.9732662 97.05277,37.3789 C96.644251,37.7926846 96.1717287,38.1379427 95.65337,38.4014 C95.128136,38.6673937 94.5658259,38.8527403 93.98537,38.9512 C93.3672496,39.052161 92.742435,39.1066802 92.11617,39.1143 C91.82327,39.1211 91.51657,39.125 91.21877,39.125 L90.13477,39.127 L8.44483,39.125 Z" fill="#4630EB"></path>
                </g>
            </g>
            <g id="_Group_4" transform="translate(35.000000, 8.000000)" fill="#FFFFFF">
                <g id="Group">
                    <path d="M2.82619,0.731 C3.61513656,0.674384181 4.38789226,0.974547428 4.93176129,1.54887182 C5.47563032,2.12319621 5.73328587,2.91114479 5.63381,3.69584 C5.63381,5.60209 4.60354,6.69784 2.82619,6.69784 L0.67092,6.69784 L0.67092,0.731 L2.82619,0.731 Z M1.59767,5.854 L2.72267,5.854 C3.28649194,5.88770201 3.83548652,5.66555901 4.21721851,5.24925179 C4.5989505,4.83294457 4.77277961,4.26679442 4.69044,3.708 C4.76678901,3.15152453 4.59045658,2.59004622 4.20967108,2.17713398 C3.82888557,1.76422175 3.28349567,1.5430863 2.72267,1.57421 L1.59767,1.57421 L1.59767,5.854 Z" id="Shape"></path>
                    <path d="M6.68068,4.44434 C6.60346713,3.63722505 6.99048366,2.85611193 7.67941593,2.42859737 C8.36834819,2.0010828 9.24008181,2.0010828 9.92901407,2.42859737 C10.6179463,2.85611193 11.0049629,3.63722505 10.92775,4.44434 C11.0064319,5.25232226 10.6197687,6.03495038 9.93022554,6.4633853 C9.24068243,6.89182022 8.36774757,6.89182022 7.67820446,6.4633853 C6.98866134,6.03495038 6.60199806,5.25232226 6.68068,4.44434 Z M10.01369,4.44434 C10.01369,3.46827 9.5752,2.89747 8.80568,2.89747 C8.03322,2.89747 7.59868,3.46827 7.59868,4.44435 C7.59868,5.42824 8.03325,5.99464 8.80568,5.99464 C9.57522,5.99464 10.01369,5.42432 10.01369,4.44434 L10.01369,4.44434 Z" id="Shape"></path>
                    <polygon id="Path" points="16.57326 6.69775 15.65139 6.69775 14.72073 3.38134 14.65042 3.38134 13.72366 6.69775 12.81057 6.69775 11.56936 2.19482 12.47073 2.19482 13.27737 5.63082 13.34378 5.63082 14.26956 2.19482 15.1221 2.19482 16.04788 5.63082 16.11819 5.63082 16.92092 2.19482 17.80959 2.19482"></polygon>
                    <path d="M18.85353,2.19482 L19.709,2.19482 L19.709,2.91015 L19.77541,2.91015 C20.0063449,2.38347794 20.5459729,2.06130747 21.11916,2.1079 C21.5629768,2.07453177 21.9978859,2.2447899 22.3010908,2.57060207 C22.6042957,2.89641424 22.7428931,3.34242376 22.67775,3.7827 L22.67775,6.6977 L21.78908,6.6977 L21.78908,4.00586 C21.78908,3.28223 21.47463,2.92236 20.8174,2.92236 C20.5163658,2.90833912 20.2242202,3.02648257 20.0175546,3.24581678 C19.810889,3.465151 19.710315,3.76380101 19.7422,4.06347 L19.7422,6.69775 L18.85353,6.69775 L18.85353,2.19482 Z" id="Path"></path>
                    <polygon id="Path" points="24.09377 0.437 24.98244 0.437 24.98244 6.69774 24.09377 6.69774"></polygon>
                    <path d="M26.21779,4.44434 C26.1406364,3.63717225 26.527714,2.85603936 27.2166974,2.4285182 C27.9056808,2.00099704 28.7774592,2.00099704 29.4664426,2.4285182 C30.155426,2.85603936 30.5425036,3.63717225 30.46535,4.44434 C30.543932,5.25235119 30.1571979,6.03495719 29.4676205,6.46337324 C28.7780432,6.89178929 27.9050968,6.89178929 27.2155195,6.46337324 C26.5259421,6.03495719 26.139208,5.25235119 26.21779,4.44434 L26.21779,4.44434 Z M29.5508,4.44434 C29.5508,3.46827 29.11231,2.89747 28.34279,2.89747 C27.57033,2.89747 27.13579,3.46827 27.13579,4.44435 C27.13579,5.42824 27.57036,5.99464 28.34279,5.99464 C29.11232,5.99464 29.5508,5.42432 29.5508,4.44434 L29.5508,4.44434 Z" id="Shape"></path>
                    <path d="M31.4009,5.42432 C31.4009,4.61377 32.00442,4.14649 33.0757,4.08008 L34.29543,4.00977 L34.29543,3.6211 C34.29543,3.14551 33.98098,2.87696 33.37356,2.87696 C32.87747,2.87696 32.53372,3.05909 32.43508,3.37745 L31.57473,3.37745 C31.66555,2.60401 32.39309,2.10792 33.41457,2.10792 C34.54348,2.10792 35.1802,2.66992 35.1802,3.6211 L35.1802,6.69776 L34.32473,6.69776 L34.32473,6.06495 L34.25442,6.06495 C33.9638686,6.52707633 33.4471736,6.79716323 32.90188,6.77195 C32.5196161,6.81171181 32.1383711,6.68791066 31.8523958,6.43115244 C31.5664205,6.17439423 31.4024061,5.80864331 31.4009,5.42432 L31.4009,5.42432 Z M34.29543,5.03955 L34.29543,4.66309 L33.19582,4.7334 C32.5757,4.7749 32.29445,4.98584 32.29445,5.38281 C32.29445,5.78808 32.64601,6.02392 33.12945,6.02392 C33.4156361,6.05288986 33.7013264,5.96447505 33.9211204,5.77891559 C34.1409144,5.59335613 34.2759916,5.32654106 34.29543,5.03955 Z" id="Shape"></path>
                    <path d="M36.34816,4.44434 C36.34816,3.02149 37.07961,2.12012 38.2173,2.12012 C38.7917768,2.09365013 39.3298275,2.40147287 39.59816,2.91012 L39.66457,2.91012 L39.66457,0.437 L40.55324,0.437 L40.55324,6.69774 L39.70168,6.69774 L39.70168,5.98631 L39.63137,5.98631 C39.3427542,6.49073698 38.7980745,6.79335648 38.21731,6.77195 C37.0718,6.772 36.34816,5.87061 36.34816,4.44434 Z M37.26616,4.44434 C37.26616,5.39942 37.71636,5.97413 38.46929,5.97413 C39.21829,5.97413 39.6812,5.39113 39.6812,4.44825 C39.6812,3.50977 39.21343,2.91846 38.46929,2.91846 C37.72121,2.91846 37.26613,3.49707 37.26613,4.44434 L37.26616,4.44434 Z" id="Shape"></path>
                    <path d="M44.33742,0.86328 C44.3233967,0.627766113 44.4544851,0.4075328 44.6681927,0.307570102 C44.8819002,0.207607403 45.1349678,0.248149912 45.3067526,0.409870128 C45.4785374,0.571590343 45.5342664,0.821752626 45.4473725,1.04109914 C45.3604786,1.26044566 45.1485509,1.40457597 44.91262,1.40478 C44.7637021,1.41237359 44.618132,1.35888293 44.5095618,1.25667369 C44.4009916,1.15446446 44.3388202,1.01238484 44.33742,0.86328 L44.33742,0.86328 Z M44.46926,2.19482 L45.355,2.19482 L45.355,6.69775 L44.46926,6.69775 L44.46926,2.19482 Z" id="Shape"></path>
                    <path d="M46.78859,2.19482 L47.64406,2.19482 L47.64406,2.91015 L47.71047,2.91015 C47.9414049,2.38347794 48.4810329,2.06130747 49.05422,2.1079 C49.4980368,2.07453177 49.9329459,2.2447899 50.2361508,2.57060207 C50.5393557,2.89641424 50.6779531,3.34242376 50.61281,3.7827 L50.61281,6.6977 L49.72414,6.6977 L49.72414,4.00586 C49.72414,3.28223 49.40969,2.92236 48.75246,2.92236 C48.4514258,2.90833912 48.1592802,3.02648257 47.9526146,3.24581678 C47.745949,3.465151 47.645375,3.76380101 47.67726,4.06347 L47.67726,6.69775 L46.78859,6.69775 L46.78859,2.19482 Z" id="Path"></path>
                </g>
            </g>
        </g>
        <path d="M7.87231727,27.6121064 C7.91322796,28.1122306 8.08869077,28.6137939 8.54849393,29.2871509 C9.09384042,30.0857411 10.0321742,30.5245889 10.7166313,29.8205147 C11.1785114,29.3453672 16.1729115,20.6149822 18.5798553,17.3067574 C18.868841,16.8983875 19.4658571,16.8983875 19.7550083,17.3067574 C22.1619521,20.6149822 27.1563522,29.3453672 27.6182324,29.8205147 C28.3025238,30.5245889 29.2410232,30.0857411 29.7863697,29.2871509 C30.3232702,28.5008889 30.4723173,27.9488617 30.4723173,27.3598502 C30.4723173,26.9586715 22.69405,12.4831975 21.9107251,11.2782921 C21.1574008,10.1193797 20.9272763,9.86730714 19.6533387,9.82665239 L18.6814845,9.82665239 C17.4074516,9.86730714 17.1774463,10.1193797 16.423973,11.2782921 C15.6570817,12.4581689 8.18251387,26.3630207 7.87231727,27.3168764 L7.87231727,27.6121064 Z" id="Path" fill="#FFFFFF"></path>
        <g id="Group" transform="translate(35.000000, 18.000000)" fill="#FFFFFF" fill-rule="nonzero">
            <path d="M0.791745619,12.8802966 L0.791745619,0.591356587 L8.31388451,0.591356587 L8.31388451,2.78588106 L3.08405551,2.78588106 L3.08405551,5.54200983 L7.83844553,5.54200983 L7.83844553,7.64877034 L3.08405551,7.64877034 L3.08405551,10.685914 L8.31388451,10.685914 L8.31388451,12.8802966 L0.791745619,12.8802966 Z M10.0524526,12.8802966 L13.1767465,8.07015079 L10.2392274,3.57589852 L12.5315372,3.57589852 L14.5520502,6.70080609 L14.586059,6.70080609 L16.6067091,3.57589852 L18.8988819,3.57589852 L15.9613627,8.07015079 L19.0856565,12.8802966 L16.725466,12.8802966 L14.586059,9.54484062 L14.5520502,9.54484062 L12.4126432,12.8802966 L10.0524526,12.8802966 Z M20.7836334,16.830384 L20.7836334,3.57589852 L22.8891686,3.57589852 L22.8891686,4.47111932 L22.9231775,4.47111932 L23.0080626,4.33954427 C23.0420715,4.28680081 23.1296993,4.19620118 23.2712203,4.0674618 C23.4127412,3.93858062 23.5683868,3.82160927 23.738157,3.71626416 C23.9079273,3.61091904 24.1372131,3.51734196 24.4258774,3.43539111 C24.7145417,3.35344027 25.0229531,3.31246484 25.3512487,3.31246484 C26.4153983,3.31246484 27.3463921,3.75426213 28.1445043,4.63799846 C28.9424794,5.52159301 29.3415354,6.71824546 29.3415354,8.2280976 C29.3415354,9.74957591 28.956604,10.9492058 28.1868783,11.8269872 C27.4171525,12.7047687 26.483279,13.1437303 25.3852577,13.1437303 C25.056962,13.1437303 24.7541731,13.1027549 24.4767536,13.0208041 C24.1994714,12.9388532 23.9759451,12.8422987 23.8061748,12.7311404 C23.6362675,12.6199822 23.489124,12.5088239 23.3646076,12.397524 C23.2400911,12.2863657 23.1495835,12.1898112 23.0929477,12.1078603 L23.0250671,11.9850758 L22.9910582,11.9850758 L22.9910582,16.830384 L20.7836334,16.830384 Z M22.9910582,7.26255218 L22.9910582,9.1760618 C22.9910582,9.7145554 23.166588,10.167979 23.5175106,10.5366159 C23.8684331,10.9053947 24.3381125,11.0897132 24.9268231,11.0897132 C25.5720324,11.0897132 26.1012274,10.8438608 26.5144081,10.3522974 C26.9275889,9.86073419 27.1341107,9.15266758 27.1341107,8.2280976 C27.1341107,7.3035276 26.9304687,6.59546097 26.5229104,6.10389771 C26.115352,5.61233443 25.5832772,5.3664819 24.9268231,5.3664819 C24.3381125,5.3664819 23.8684331,5.55080041 23.5175106,5.9195792 C23.166588,6.28821621 22.9910582,6.7358266 22.9910582,7.26255218 Z M35.0806753,13.1437303 C33.8581374,13.1437303 32.8507608,12.7107236 32.058271,11.8445684 C31.2659183,10.978555 30.869742,9.77297021 30.869742,8.2280976 C30.869742,6.70661921 31.2773004,5.50698932 32.0922799,4.62920789 C32.9072594,3.75142645 33.9035284,3.31246484 35.0806753,3.31246484 C36.2579594,3.31246484 37.2540912,3.75142645 38.0692078,4.62920789 C38.8841873,5.50698932 39.2917456,6.70661921 39.2917456,8.2280976 C39.2917456,9.77297021 38.8955693,10.978555 38.1032167,11.8445684 C37.3107269,12.7107236 36.3033503,13.1437303 35.0806753,13.1437303 Z M35.0806753,11.0897132 C35.7146396,11.0897132 36.2127056,10.8410251 36.5750101,10.3435068 C36.9371775,9.84613049 37.1183297,9.14104129 37.1183297,8.2280976 C37.1183297,7.31515385 36.9344349,6.61006467 36.5665078,6.11268828 C36.1985809,5.6151701 35.7033948,5.3664819 35.0806753,5.3664819 C34.4580929,5.3664819 33.9629068,5.61233443 33.5949798,6.10389771 C33.2270528,6.59546097 33.0431579,7.3035276 33.0431579,8.2280976 C33.0431579,9.15266758 33.2243102,9.86073419 33.5864776,10.3522974 C33.9487822,10.8438608 34.446848,11.0897132 35.0806753,11.0897132 Z" id="Shape"></path>
        </g>
    </g>
</svg>