<?xml version="1.0" encoding="UTF-8"?>
<svg width="948px" height="948px" viewBox="0 0 948 948" version="1.1" xmlns="http://www.w3.org/2000/svg" xmlns:xlink="http://www.w3.org/1999/xlink">
    <!-- Generator: Sketch Beta 62 (91388) - https://sketch.com -->
    <title>PirateHein</title>
    <desc>Created with Sketch Beta.</desc>
    <g id="PirateHein" stroke="none" stroke-width="1" fill="none" fill-rule="evenodd">
        <path d="M173.880076,674 L173.879368,536.5 L237.942576,536.5 C287.442576,536.5 323.542771,525.046357 346.243162,502.139072 L346.926951,501.441406 C369.583201,478.06901 380.911326,446.265625 380.911326,406.03125 C380.911326,379.729167 376.093618,356.682292 366.458201,336.890625 C356.822784,317.098958 341.523305,301.669271 320.559764,290.601562 C299.596222,279.533854 272.057159,274 237.942576,274 L237.942576,274 L83.2550761,274 L83.2550761,674 L173.880076,674 Z M289.114472,379.046896 L289.114472,413.110104 C289.114472,432.641354 276.786044,466.235104 232.083222,466.235104 C187.3804,466.235104 175.833222,432.641354 175.833222,413.110104 L175.831907,379.046896 L289.114472,379.046896 Z" id="PH" fill="#FFFFFF" fill-rule="nonzero"></path>
        <rect id="Rectangle" fill="#FF8A00" x="460.712368" y="225" width="390" height="498" rx="27"></rect>
        <g id="Line" transform="translate(79.083201, 326.000000)" stroke="#181818" stroke-linejoin="round" stroke-width="40">
            <path d="M289.775521,18.2213621 C240.745558,41.8135084 194.483699,53.6609736 150.989942,53.7637577 C107.496186,53.8665418 57.6422577,47.7452492 1.428158,35.3998797" transform="translate(145.601839, 35.993196) rotate(-7.000000) translate(-145.601839, -35.993196) "></path>
        </g>
        <path d="M594.662368,674 L594.662368,533.2 C594.662368,482.6 619.412368,452.9 661.762368,452.9 C699.162368,452.9 720.062368,473.25 720.062368,514.5 L720.062368,674 L789.362368,674 L789.362368,511.2 C789.362368,443.55 747.012368,396.8 683.212368,396.8 C633.162368,396.8 610.612368,418.8 600.162368,439.7 L594.662368,439.7 L594.662368,289 L525.362368,289 L525.362368,674 L594.662368,674 Z" id="h" fill="#181818" fill-rule="nonzero"></path>
    </g>
</svg>