<?xml version="1.0" encoding="UTF-8"?>
<svg width="1024px" height="1024px" viewBox="0 0 1024 1024" version="1.1" xmlns="http://www.w3.org/2000/svg" xmlns:xlink="http://www.w3.org/1999/xlink">
    <title>Github</title>
    <defs>
        <linearGradient x1="50%" y1="0%" x2="50%" y2="100%" id="linearGradient-1">
            <stop stop-color="#A94DB4" offset="0%"></stop>
            <stop stop-color="#4B277A" offset="100%"></stop>
        </linearGradient>
        <path d="M330.749668,100 L693.250332,100 C773.487019,100 802.58278,108.354305 831.916113,124.041943 C861.249447,139.729582 884.270418,162.750553 899.958057,192.083887 C915.645695,221.41722 924,250.512981 924,330.749668 L924,693.250332 C924,773.487019 915.645695,802.58278 899.958057,831.916113 C884.270418,861.249447 861.249447,884.270418 831.916113,899.958057 C802.58278,915.645695 773.487019,924 693.250332,924 L330.749668,924 C250.512981,924 221.41722,915.645695 192.083887,899.958057 C162.750553,884.270418 139.729582,861.249447 124.041943,831.916113 C108.354305,802.58278 100,773.487019 100,693.250332 L100,330.749668 C100,250.512981 108.354305,221.41722 124.041943,192.083887 C139.729582,162.750553 162.750553,139.729582 192.083887,124.041943 C221.41722,108.354305 250.512981,100 330.749668,100 Z" id="path-2"></path>
        <filter x="-4.2%" y="-4.2%" width="108.5%" height="109.7%" filterUnits="objectBoundingBox" id="filter-4">
            <feOffset dx="0" dy="10" in="SourceAlpha" result="shadowOffsetOuter1"></feOffset>
            <feGaussianBlur stdDeviation="10" in="shadowOffsetOuter1" result="shadowBlurOuter1"></feGaussianBlur>
            <feColorMatrix values="0 0 0 0 0   0 0 0 0 0   0 0 0 0 0  0 0 0 0.33 0" type="matrix" in="shadowBlurOuter1" result="shadowMatrixOuter1"></feColorMatrix>
            <feOffset dx="0" dy="0" in="SourceAlpha" result="shadowOffsetOuter2"></feOffset>
            <feGaussianBlur stdDeviation="10" in="shadowOffsetOuter2" result="shadowBlurOuter2"></feGaussianBlur>
            <feColorMatrix values="0 0 0 0 0   0 0 0 0 0   0 0 0 0 0  0 0 0 0.0534973145 0" type="matrix" in="shadowBlurOuter2" result="shadowMatrixOuter2"></feColorMatrix>
            <feMerge>
                <feMergeNode in="shadowMatrixOuter1"></feMergeNode>
                <feMergeNode in="shadowMatrixOuter2"></feMergeNode>
            </feMerge>
        </filter>
        <linearGradient x1="50.0360378%" y1="6.27564128%" x2="50%" y2="100%" id="linearGradient-5">
            <stop stop-color="#FFFFFF" offset="0%"></stop>
            <stop stop-color="#FFFFFF" stop-opacity="0.806929155" offset="100%"></stop>
        </linearGradient>
        <path d="M401.784023,924 C401.784023,913.36353 401.367546,878.217696 401.178556,840.941068 C277.029967,867.927609 250.833925,788.304538 250.833925,788.304538 C230.535054,736.73865 201.287182,723.030202 201.287182,723.030202 C160.801436,695.340391 204.339012,695.907203 204.339012,695.907203 C249.150518,699.056157 272.746205,741.881943 272.746205,741.881943 C312.54599,810.084807 377.138395,790.365353 402.602977,778.969636 C406.606755,750.132207 418.173611,730.454736 430.933899,719.314433 C331.819417,708.030679 227.623216,669.777874 227.623216,498.83861 C227.623216,450.134774 245.055746,410.335483 273.603657,379.094352 C268.969915,367.856082 253.696765,322.483141 277.925917,261.033036 C277.925917,261.033036 315.398331,249.042515 400.674585,306.762858 C436.267605,296.87514 474.443478,291.920784 512.36737,291.75284 C550.291258,291.920784 588.495131,296.87514 624.158146,306.762858 C709.332904,249.042515 746.752824,261.033036 746.752824,261.033036 C771.041469,322.483141 755.761323,367.856082 751.12758,379.094352 C779.738486,410.335483 797.052023,450.131274 797.052023,498.83861 C797.052023,670.183742 692.659834,707.915219 593.293363,718.957553 C609.297975,732.802459 623.55968,759.953448 623.55968,801.572135 C623.55968,861.262323 623.04171,909.304879 623.04171,924" id="path-6"></path>
        <filter x="-27.5%" y="-17.7%" width="155.0%" height="150.8%" filterUnits="objectBoundingBox" id="filter-7">
            <feMorphology radius="10" operator="erode" in="SourceAlpha" result="shadowSpreadOuter1"></feMorphology>
            <feOffset dx="0" dy="51" in="shadowSpreadOuter1" result="shadowOffsetOuter1"></feOffset>
            <feGaussianBlur stdDeviation="51" in="shadowOffsetOuter1" result="shadowBlurOuter1"></feGaussianBlur>
            <feColorMatrix values="0 0 0 0 0   0 0 0 0 0   0 0 0 0 0  0 0 0 0.5 0" type="matrix" in="shadowBlurOuter1" result="shadowMatrixOuter1"></feColorMatrix>
            <feOffset dx="0" dy="10" in="SourceAlpha" result="shadowOffsetOuter2"></feOffset>
            <feGaussianBlur stdDeviation="20.5" in="shadowOffsetOuter2" result="shadowBlurOuter2"></feGaussianBlur>
            <feColorMatrix values="0 0 0 0 0   0 0 0 0 0   0 0 0 0 0  0 0 0 0.144869077 0" type="matrix" in="shadowBlurOuter2" result="shadowMatrixOuter2"></feColorMatrix>
            <feMerge>
                <feMergeNode in="shadowMatrixOuter1"></feMergeNode>
                <feMergeNode in="shadowMatrixOuter2"></feMergeNode>
            </feMerge>
        </filter>
        <filter x="-20.6%" y="-11.4%" width="141.3%" height="138.1%" filterUnits="objectBoundingBox" id="filter-8">
            <feGaussianBlur stdDeviation="19.5" in="SourceAlpha" result="shadowBlurInner1"></feGaussianBlur>
            <feOffset dx="0" dy="-10" in="shadowBlurInner1" result="shadowOffsetInner1"></feOffset>
            <feComposite in="shadowOffsetInner1" in2="SourceAlpha" operator="arithmetic" k2="-1" k3="1" result="shadowInnerInner1"></feComposite>
            <feColorMatrix values="0 0 0 0 0.341176471   0 0 0 0 0.17254902   0 0 0 0 0.505882353  0 0 0 1 0" type="matrix" in="shadowInnerInner1" result="shadowMatrixInner1"></feColorMatrix>
            <feGaussianBlur stdDeviation="10" in="SourceAlpha" result="shadowBlurInner2"></feGaussianBlur>
            <feOffset dx="0" dy="10" in="shadowBlurInner2" result="shadowOffsetInner2"></feOffset>
            <feComposite in="shadowOffsetInner2" in2="SourceAlpha" operator="arithmetic" k2="-1" k3="1" result="shadowInnerInner2"></feComposite>
            <feColorMatrix values="0 0 0 0 1   0 0 0 0 1   0 0 0 0 1  0 0 0 1 0" type="matrix" in="shadowInnerInner2" result="shadowMatrixInner2"></feColorMatrix>
            <feMerge>
                <feMergeNode in="shadowMatrixInner1"></feMergeNode>
                <feMergeNode in="shadowMatrixInner2"></feMergeNode>
            </feMerge>
        </filter>
    </defs>
    <g id="Github" stroke="none" stroke-width="1" fill="none" fill-rule="evenodd">
        <mask id="mask-3" fill="white">
            <use xlink:href="#path-2"></use>
        </mask>
        <g id="Mask">
            <use fill="black" fill-opacity="1" filter="url(#filter-4)" xlink:href="#path-2"></use>
            <use fill="url(#linearGradient-1)" fill-rule="evenodd" xlink:href="#path-2"></use>
        </g>
        <g id="Path" fill-rule="nonzero" mask="url(#mask-3)">
            <use fill="black" fill-opacity="1" filter="url(#filter-7)" xlink:href="#path-6"></use>
            <use fill="url(#linearGradient-5)" xlink:href="#path-6"></use>
            <use fill="black" fill-opacity="1" filter="url(#filter-8)" xlink:href="#path-6"></use>
        </g>
    </g>
</svg>