<?xml version="1.0" encoding="UTF-8"?>
<svg width="1024px" height="1024px" viewBox="0 0 1024 1024" version="1.1" xmlns="http://www.w3.org/2000/svg" xmlns:xlink="http://www.w3.org/1999/xlink">
    <title>Optimage-big-sur-icon-alt</title>
    <defs>
        <linearGradient x1="50%" y1="0.746336183%" x2="50%" y2="40.1316581%" id="linearGradient-1">
            <stop stop-color="#A6D2F5" offset="0%"></stop>
            <stop stop-color="#D7EDFF" offset="100%"></stop>
        </linearGradient>
        <path d="M330.749668,100 L693.250332,100 C773.487019,100 802.58278,108.354305 831.916113,124.041943 C861.249447,139.729582 884.270418,162.750553 899.958057,192.083887 C915.645695,221.41722 924,250.512981 924,330.749668 L924,693.250332 C924,773.487019 915.645695,802.58278 899.958057,831.916113 C884.270418,861.249447 861.249447,884.270418 831.916113,899.958057 C802.58278,915.645695 773.487019,924 693.250332,924 L330.749668,924 C250.512981,924 221.41722,915.645695 192.083887,899.958057 C162.750553,884.270418 139.729582,861.249447 124.041943,831.916113 C108.354305,802.58278 100,773.487019 100,693.250332 L100,330.749668 C100,250.512981 108.354305,221.41722 124.041943,192.083887 C139.729582,162.750553 162.750553,139.729582 192.083887,124.041943 C221.41722,108.354305 250.512981,100 330.749668,100 Z" id="path-2"></path>
        <filter x="-4.2%" y="-4.2%" width="108.5%" height="109.7%" filterUnits="objectBoundingBox" id="filter-4">
            <feOffset dx="0" dy="10" in="SourceAlpha" result="shadowOffsetOuter1"></feOffset>
            <feGaussianBlur stdDeviation="10" in="shadowOffsetOuter1" result="shadowBlurOuter1"></feGaussianBlur>
            <feColorMatrix values="0 0 0 0 0   0 0 0 0 0   0 0 0 0 0  0 0 0 0.33 0" type="matrix" in="shadowBlurOuter1" result="shadowMatrixOuter1"></feColorMatrix>
            <feOffset dx="0" dy="0" in="SourceAlpha" result="shadowOffsetOuter2"></feOffset>
            <feGaussianBlur stdDeviation="10" in="shadowOffsetOuter2" result="shadowBlurOuter2"></feGaussianBlur>
            <feColorMatrix values="0 0 0 0 0   0 0 0 0 0   0 0 0 0 0  0 0 0 0.0534973145 0" type="matrix" in="shadowBlurOuter2" result="shadowMatrixOuter2"></feColorMatrix>
            <feMerge>
                <feMergeNode in="shadowMatrixOuter1"></feMergeNode>
                <feMergeNode in="shadowMatrixOuter2"></feMergeNode>
            </feMerge>
        </filter>
        <linearGradient x1="50%" y1="0%" x2="50%" y2="93.6514557%" id="linearGradient-5">
            <stop stop-color="#2392F5" offset="0%"></stop>
            <stop stop-color="#324DE1" offset="100%"></stop>
        </linearGradient>
        <path d="M221.92439,413.567669 C222.274471,417.4939 222.677902,420.741997 223.134683,423.311961 C234.620264,487.932699 291.079991,537 359,537 C427.441245,537 484.245634,487.176699 495.121785,421.82148 C495.491476,419.599995 495.821368,416.842925 496.111461,413.550269 C496.836939,405.315691 503.733526,399 512,399 C520.282035,399 527.194427,405.321756 527.932217,413.570863 C528.295623,417.634099 528.715516,420.987697 529.191895,423.631657 C540.806583,488.094462 597.192041,537 665,537 C733.632725,537 790.56339,486.897525 801.211992,421.272577 C801.551377,419.181022 801.855503,416.604373 802.124369,413.54263 C802.847033,405.312996 809.738698,399 818,399 C826.259716,399 833.149903,405.312102 833.871836,413.540207 C834.134493,416.53373 834.43111,419.056906 834.761688,421.109735 C842.800229,471.027658 877.613107,511.987898 924,528.789232 L924,747 C924,844.754401 844.754401,924 747,924 L277,924 C179.245599,924 100,844.754401 100,747 L100,528.788995 L100,528.788995 C145.01315,512.485173 179.127341,473.432705 188.453933,425.52145 C189.052838,422.44484 189.575083,418.466599 190.02067,413.586725 C190.775086,405.324603 197.703506,399 206,399 C214.279429,399 221.18907,405.320958 221.92439,413.567669 Z" id="path-6"></path>
        <filter x="-4.4%" y="-7.0%" width="108.9%" height="113.9%" filterUnits="objectBoundingBox" id="filter-7">
            <feGaussianBlur stdDeviation="20" in="SourceAlpha" result="shadowBlurInner1"></feGaussianBlur>
            <feOffset dx="0" dy="24" in="shadowBlurInner1" result="shadowOffsetInner1"></feOffset>
            <feComposite in="shadowOffsetInner1" in2="SourceAlpha" operator="arithmetic" k2="-1" k3="1" result="shadowInnerInner1"></feComposite>
            <feColorMatrix values="0 0 0 0 1   0 0 0 0 1   0 0 0 0 1  0 0 0 0.277066104 0" type="matrix" in="shadowInnerInner1" result="shadowMatrixInner1"></feColorMatrix>
            <feGaussianBlur stdDeviation="20" in="SourceAlpha" result="shadowBlurInner2"></feGaussianBlur>
            <feOffset dx="0" dy="-33" in="shadowBlurInner2" result="shadowOffsetInner2"></feOffset>
            <feComposite in="shadowOffsetInner2" in2="SourceAlpha" operator="arithmetic" k2="-1" k3="1" result="shadowInnerInner2"></feComposite>
            <feColorMatrix values="0 0 0 0 0   0 0 0 0 0   0 0 0 0 0  0 0 0 0.281110857 0" type="matrix" in="shadowInnerInner2" result="shadowMatrixInner2"></feColorMatrix>
            <feMerge>
                <feMergeNode in="shadowMatrixInner1"></feMergeNode>
                <feMergeNode in="shadowMatrixInner2"></feMergeNode>
            </feMerge>
        </filter>
    </defs>
    <g id="Optimage-big-sur-icon-alt" stroke="none" stroke-width="1" fill="none" fill-rule="evenodd">
        <mask id="mask-3" fill="white">
            <use xlink:href="#path-2"></use>
        </mask>
        <g id="Mask">
            <use fill="black" fill-opacity="1" filter="url(#filter-4)" xlink:href="#path-2"></use>
            <use fill="url(#linearGradient-1)" fill-rule="evenodd" xlink:href="#path-2"></use>
        </g>
        <g id="Path" mask="url(#mask-3)">
            <use fill="url(#linearGradient-5)" fill-rule="evenodd" xlink:href="#path-6"></use>
            <use fill="black" fill-opacity="1" filter="url(#filter-7)" xlink:href="#path-6"></use>
        </g>
    </g>
</svg>