<svg xmlns="http://www.w3.org/2000/svg" xmlns:xlink="http://www.w3.org/1999/xlink" width="1024" height="1024" viewBox="0 0 1024 1024"><defs><path id="b" d="M230.75 0h362.5c80.237 0 109.333 8.354 138.666 24.042C761.25 39.73 784.27 62.75 799.958 92.084 815.646 121.417 824 150.513 824 230.75v362.5c0 80.237-8.354 109.333-24.042 138.666-15.688 29.333-38.709 52.354-68.042 68.042C702.583 815.646 673.487 824 593.25 824h-362.5c-80.237 0-109.333-8.354-138.666-24.042C62.75 784.27 39.73 761.25 24.042 731.916 8.354 702.583 0 673.487 0 593.25v-362.5c0-80.237 8.354-109.333 24.042-138.666C39.73 62.75 62.75 39.73 92.084 24.042 121.417 8.354 150.513 0 230.75 0z"/><filter id="a" width="108.5%" height="109.7%" x="-4.2%" y="-4.2%" filterUnits="objectBoundingBox"><feOffset dy="10" in="SourceAlpha" result="shadowOffsetOuter1"/><feGaussianBlur in="shadowOffsetOuter1" result="shadowBlurOuter1" stdDeviation="10"/><feColorMatrix in="shadowBlurOuter1" result="shadowMatrixOuter1" values="0 0 0 0 0 0 0 0 0 0 0 0 0 0 0 0 0 0 0.33 0"/><feOffset in="SourceAlpha" result="shadowOffsetOuter2"/><feGaussianBlur in="shadowOffsetOuter2" result="shadowBlurOuter2" stdDeviation="10"/><feColorMatrix in="shadowBlurOuter2" result="shadowMatrixOuter2" values="0 0 0 0 0 0 0 0 0 0 0 0 0 0 0 0 0 0 0.0534973145 0"/><feMerge><feMergeNode in="shadowMatrixOuter1"/><feMergeNode in="shadowMatrixOuter2"/></feMerge></filter><radialGradient id="e" cx="38.683%" cy="50%" r="71.139%" fx="38.683%" fy="50%" gradientTransform="matrix(.40167 .81888 -.57307 .57397 .518 -.104)"><stop offset="0%" stop-color="#FDFCFC" stop-opacity=".277"/><stop offset="100%" stop-color="#D0A9A9" stop-opacity="0"/></radialGradient><linearGradient id="f" x1="47.884%" x2="59.505%" y1="41.881%" y2="63.177%"><stop offset="0%" stop-color="#891515" stop-opacity="0"/><stop offset="100%" stop-color="#901818" stop-opacity=".169"/></linearGradient><linearGradient id="g" x1="100%" x2="89.279%" y1="32.235%" y2="39.614%"><stop offset="0%" stop-color="#137524" stop-opacity=".15"/><stop offset="100%" stop-color="#FFF" stop-opacity="0"/></linearGradient><path id="d" d="M445.725 66.652s-189.946 0-237.62 12.388c-25.526 7.132-46.544 28.15-53.677 54.052-12.388 47.674-12.388 146.403-12.388 146.403s0 99.103 12.388 146.026c7.133 25.902 27.776 46.545 53.678 53.678 48.049 12.763 237.619 12.763 237.619 12.763s190.322 0 237.994-12.388c25.902-7.132 46.545-27.4 53.302-53.677 12.765-47.299 12.765-146.027 12.765-146.027s.374-99.104-12.765-146.778c-6.757-25.901-27.4-46.544-53.302-53.301-47.672-13.14-237.994-13.14-237.994-13.14zm-60.438 121.626l158.04 91.217-158.04 90.841V188.278z"/><filter id="c" width="124.7%" height="135.3%" x="-11.4%" y="-10.6%" filterUnits="objectBoundingBox"><feOffset dx="6" dy="30" in="SourceAlpha" result="shadowOffsetOuter1"/><feGaussianBlur in="shadowOffsetOuter1" result="shadowBlurOuter1" stdDeviation="20"/><feColorMatrix in="shadowBlurOuter1" values="0 0 0 0 0 0 0 0 0 0 0 0 0 0 0 0 0 0 0.15 0"/></filter><filter id="h" width="120.4%" height="129.2%" x="-9.2%" y="-7.5%" filterUnits="objectBoundingBox"><feMorphology in="SourceAlpha" radius="4" result="shadowSpreadInner1"/><feGaussianBlur in="shadowSpreadInner1" result="shadowBlurInner1" stdDeviation="20"/><feOffset in="shadowBlurInner1" result="shadowOffsetInner1"/><feComposite in="shadowOffsetInner1" in2="SourceAlpha" k2="-1" k3="1" operator="arithmetic" result="shadowInnerInner1"/><feColorMatrix in="shadowInnerInner1" values="0 0 0 0 0.245286564 0 0 0 0 1 0 0 0 0 0.223723323 0 0 0 0.15 0"/></filter><radialGradient id="i" cx="33.501%" cy="-10.033%" r="133.886%" fx="33.501%" fy="-10.033%" gradientTransform="matrix(.40315 .8174 -.57202 .57608 .143 -.316)"><stop offset="0%" stop-color="#401515" stop-opacity="0"/><stop offset="68.782%" stop-color="#3D1313" stop-opacity=".101"/><stop offset="100%" stop-color="#4E1414"/></radialGradient><filter id="j" width="129.6%" height="142.3%" x="-14.8%" y="-21.2%" filterUnits="objectBoundingBox"><feGaussianBlur in="SourceGraphic" stdDeviation="30"/></filter><radialGradient id="k" cx="50%" cy="50%" r="50%" fx="50%" fy="50%" gradientTransform="matrix(0 1 -1.03965 0 1.02 0)"><stop offset="0%" stop-color="#FFF" stop-opacity="0"/><stop offset="72.26%" stop-color="#FFF" stop-opacity="0"/><stop offset="100%" stop-color="#FFF" stop-opacity=".113"/></radialGradient><filter id="l" width="115.8%" height="122.6%" x="-7.9%" y="-11.3%" filterUnits="objectBoundingBox"><feGaussianBlur in="SourceGraphic" stdDeviation="16"/></filter><radialGradient id="m" cx="12.291%" cy="57.989%" r="58.338%" fx="12.291%" fy="57.989%" gradientTransform="matrix(.38076 .90162 -.79371 .43253 .536 .218)"><stop offset="0%" stop-color="#FFF"/><stop offset="100%" stop-color="#FFF" stop-opacity="0"/></radialGradient><filter id="n" width="195.7%" height="208.8%" x="-47.9%" y="-54.4%" filterUnits="objectBoundingBox"><feGaussianBlur in="SourceGraphic" stdDeviation="60"/></filter><radialGradient id="o" cx="39.307%" cy="10.281%" r="103.156%" fx="39.307%" fy="10.281%" gradientTransform="scale(.40671 1) rotate(55.609 .68 .646)"><stop offset="0%" stop-color="#FFF"/><stop offset="100%" stop-color="#FFF" stop-opacity="0"/></radialGradient><filter id="p" width="137.6%" height="192.4%" x="-18.8%" y="-46.2%" filterUnits="objectBoundingBox"><feGaussianBlur in="SourceGraphic" stdDeviation="50"/></filter><filter id="q" width="195.7%" height="208.8%" x="-47.9%" y="-54.4%" filterUnits="objectBoundingBox"><feGaussianBlur in="SourceGraphic" stdDeviation="60"/></filter><radialGradient id="r" cx="39.307%" cy="10.281%" r="99.633%" fx="39.307%" fy="10.281%" gradientTransform="scale(.45772 1) rotate(58.692 .626 .517)"><stop offset="0%" stop-color="#FFF"/><stop offset="100%" stop-color="#FFF" stop-opacity="0"/></radialGradient><filter id="s" width="155.1%" height="220.5%" x="-27.6%" y="-60.2%" filterUnits="objectBoundingBox"><feGaussianBlur in="SourceGraphic" stdDeviation="50"/></filter><linearGradient id="t" x1="0%" x2="0%" y1="0%" y2="100%"><stop offset="0%" stop-color="#FFA2A2"/><stop offset="100%" stop-color="#FFF"/></linearGradient><path id="u" d="M609.326 512.376l-158.039 90.841V421.159z"/><filter id="v" width="113.3%" height="111.5%" x="-6.6%" y="-5.8%" filterUnits="objectBoundingBox"><feGaussianBlur in="SourceAlpha" result="shadowBlurInner1" stdDeviation="10"/><feOffset dy="1" in="shadowBlurInner1" result="shadowOffsetInner1"/><feComposite in="shadowOffsetInner1" in2="SourceAlpha" k2="-1" k3="1" operator="arithmetic" result="shadowInnerInner1"/><feColorMatrix in="shadowInnerInner1" values="0 0 0 0 0 0 0 0 0 0 0 0 0 0 0 0 0 0 0.19998361 0"/></filter></defs><g fill="none" fill-rule="evenodd"><g transform="translate(100 100)"><use fill="#000" filter="url(#a)" xlink:href="#b"/><use fill="#FFEBE9" xlink:href="#b"/></g><g transform="translate(66 232.881)"><use fill="#000" filter="url(#c)" xlink:href="#d"/><use fill="red" xlink:href="#d"/><use fill="url(#e)" xlink:href="#d"/><use fill="url(#f)" xlink:href="#d"/><use fill="url(#g)" xlink:href="#d"/><use fill="#000" filter="url(#h)" xlink:href="#d"/><path fill="url(#i)" d="M445.725 66.652s-189.946 0-237.62 12.388c-25.526 7.132-46.544 28.15-53.677 54.052-12.388 47.674-12.388 146.403-12.388 146.403s0 99.103 12.388 146.026c7.133 25.902 27.776 46.545 53.678 53.678 48.049 12.763 237.619 12.763 237.619 12.763s190.322 0 237.994-12.388c25.902-7.132 46.545-27.4 53.302-53.677 12.765-47.299 12.765-146.027 12.765-146.027s.374-99.104-12.765-146.778c-6.757-25.901-27.4-46.544-53.302-53.301-47.672-13.14-237.994-13.14-237.994-13.14zm-60.438 121.626l158.04 91.217-158.04 90.841V188.278z" filter="url(#j)" opacity=".1"/><path fill="url(#k)" d="M445.725 66.652s-189.946 0-237.62 12.388c-25.526 7.132-46.544 28.15-53.677 54.052-12.388 47.674-12.388 146.403-12.388 146.403s0 99.103 12.388 146.026c7.133 25.902 27.776 46.545 53.678 53.678 48.049 12.763 237.619 12.763 237.619 12.763s190.322 0 237.994-12.388c25.902-7.132 46.545-27.4 53.302-53.677 12.765-47.299 12.765-146.027 12.765-146.027s.374-99.104-12.765-146.778c-6.757-25.901-27.4-46.544-53.302-53.301-47.672-13.14-237.994-13.14-237.994-13.14z" filter="url(#l)"/><g opacity=".786"><path fill="url(#m)" d="M340.452 139.86c51.383 0 98.964 11.486 137.872 31.018-18.754-3.355-38.396-5.136-58.627-5.136-131.515 0-238.129 75.247-238.129 168.068 0 56.556 39.581 106.588 100.259 137.05-103.168-18.431-179.504-84.39-179.504-162.933 0-92.82 106.614-168.067 238.13-168.067z" filter="url(#n)" transform="translate(.677 21.26)"/><path fill="url(#o)" d="M12.931 223.05c23.88-117.31 220.87-204.426 439.993-194.58C672.045 38.318 830.32 141.399 806.44 258.709c-6.998 34.378-28.863 66.164-61.796 93.676C767.205 234.849 626.6 119.06 426.987 92.237 225.787 65.201 40.36 138.723 11.01 256.675c-.995-11.024-.392-22.257 1.922-33.624z" filter="url(#p)" transform="rotate(-4 714.428 190.984)"/></g><g opacity=".568"><path fill="url(#m)" d="M340.452 160.86c51.383 0 98.964 11.486 137.872 31.018-18.754-3.355-38.396-5.136-58.627-5.136-131.515 0-238.129 75.247-238.129 168.068 0 56.556 39.581 106.588 100.259 137.05-103.168-18.431-179.504-84.39-179.504-162.933 0-92.82 106.614-168.067 238.13-168.067z" filter="url(#q)" opacity=".786" transform="matrix(-1 0 0 1 892.677 .26)"/><path fill="url(#r)" d="M291 50c150.221 0 272 94.09 272 210.157 0 3.923-.14 7.821-.414 11.692-41.593-81.134-144.034-138.511-263.815-138.511-132.755 0-244.21 70.48-275.132 165.662A164.774 164.774 0 0 1 19 260.157C19 144.09 140.779 50 291 50z" filter="url(#s)" opacity=".786" transform="scale(-1 1) rotate(-11 -153.988 4810.033)"/></g></g><use fill="url(#t)" xlink:href="#u"/><use fill="#000" filter="url(#v)" xlink:href="#u"/></g></svg>