<svg xmlns="http://www.w3.org/2000/svg" width="256" height="256" viewBox="0 0 256 256">
  <path fill="#FF9300" fill-rule="evenodd" d="M207.150529,173.650699 L62.9718623,236.689036 L49.5225623,256 L48,256 L48,204.165306 L49.5225623,204.165306 L62.9362116,225.036221 L195.669328,169.188184 L64.480315,118.197608 L49.5212598,143.706648 L48,143.706648 L48,77.1175641 L48.0037055,77.1026774 C48.0012352,76.8123769 48,76.5212478 48,76.2292902 C48,53.2710398 55.1308342,34.8303143 69.3927165,20.9065606 C83.3616487,7.2688116 101.637607,0.309972295 124.22112,0.0298464327 C124.694732,0.023971759 126.478568,0.0160558138 126.626815,0.0139310768 C129.202889,-0.0229902426 131.732943,0.0134774434 134.216977,0.123334135 C141.63443,0.451371918 148.911547,1.3420852 155.815585,3.13464407 C161.049292,4.47906322 167.325393,6.54701822 174.841886,10.1881534 C182.358379,13.8292886 187.619845,15.6498289 190.626442,15.6498289 C193.521684,15.6498289 195.804437,14.7535629 197.474768,12.9610041 C199.1451,11.1684452 200.704053,6.85516511 202.151674,0.0210344232 L207.162644,0.0210344232 L209,75.9803367 L202.151674,75.9803367 C198.922366,56.9343987 190.988409,41.6138519 178.349565,30.0182367 C174.756021,26.7213093 171.079225,23.893089 167.319166,21.5335717 C159.156642,16.4114127 144.024168,9.44290677 133.267191,7.62268075 C131.942867,7.3985871 128.642096,7.01175498 126.539574,6.84692605 C124.966067,6.71715732 122.847692,6.71715732 122.161417,6.71715732 C111.59706,6.71715732 102.247744,9.58689557 94.113189,15.3264582 C85.9786339,21.0660208 81.9114173,29.7283789 81.9114173,41.3137923 C81.9114173,52.8992057 86.2955598,61.7741369 95.0639764,67.9388523 C103.832393,74.1035677 116.298148,79.4710411 132.461614,84.0414336 C148.625081,88.611826 160.351342,92.5975736 167.640748,95.9987959 C174.930155,99.4000182 181.849705,103.864055 188.399606,109.391042 C201.499409,120.445014 208.049213,137.557157 208.049213,160.727984 L208.049213,174 L207.150529,173.650699 Z"/>
</svg>
