<?xml version="1.0" encoding="UTF-8"?>
<svg width="23px" height="21px" viewBox="0 0 23 21" version="1.1" xmlns="http://www.w3.org/2000/svg" xmlns:xlink="http://www.w3.org/1999/xlink">
    <!-- Generator: Sketch Beta 62 (91388) - https://sketch.com -->
    <title>Combined Shape</title>
    <desc>Created with Sketch Beta.</desc>
    <defs>
        <linearGradient x1="50%" y1="0%" x2="50%" y2="100%" id="linearGradient-1">
            <stop stop-color="#FFFFFF" stop-opacity="0.360085227" offset="0%"></stop>
            <stop stop-color="#000000" stop-opacity="0.0473393794" offset="100%"></stop>
        </linearGradient>
        <path d="M11.154521,21.7887174 C10.1324807,21.1622225 9.24000952,20.7072683 8.47710738,20.4238547 C7.62943834,20.1089507 6.32689139,19.7774159 4.56946653,19.4292503 C3.95400082,17.9156273 3.43712718,16.7946901 3.0188456,16.0664387 C2.60056402,15.3381872 1.86452999,14.2777427 0.81074353,12.8851052 C1.30598569,11.5786417 1.62826712,10.4900842 1.77758781,9.61943247 C1.9269085,8.74878078 2.01900263,7.42121791 2.0538702,5.63674386 C3.48708439,4.82423573 4.53429393,4.15015944 5.19549881,3.61451497 C5.8567037,3.07887051 6.73412102,2.19379963 7.8277508,0.959302331 C9.67350829,1.1680674 10.8975914,1.27244993 11.5,1.27244993 L11.5,1.27244993 C12.1024086,1.27244993 13.3264917,1.1680674 15.1722492,0.959302331 C16.265879,2.19379963 17.1432963,3.07887051 17.8045012,3.61451497 C18.4657061,4.15015944 19.5129156,4.82423573 20.9461298,5.63674386 C20.9809974,7.42121791 21.0730915,8.74878078 21.2224122,9.61943247 C21.3717329,10.4900842 21.6940143,11.5786417 22.1892565,12.8851052 C21.13547,14.2777427 20.399436,15.3381872 19.9811544,16.0664387 C19.5628728,16.7946901 19.0459992,17.9156273 18.4305335,19.4292503 C16.6731086,19.7774159 15.3705617,20.1089507 14.5228926,20.4238547 C13.6752236,20.7387587 12.6675927,21.2654413 11.5,22.0039023 Z" id="path-2"></path>
    </defs>
    <g id="Page-1" stroke="none" stroke-width="1" fill="none" fill-rule="evenodd">
        <g id="Sparkle-Icon" transform="translate(0.000000, -1.000000)">
            <g id="Combined-Shape">
                <use fill="" xlink:href="#path-2"></use>
                <path stroke="url(#linearGradient-1)" stroke-width="0.5" d="M11.4981648,21.7095195 C10.1854832,20.9076658 9.31300281,20.4676913 8.5641675,20.1895034 C7.72947749,19.879421 6.45832135,19.5523994 4.75010121,19.2101228 C4.15135435,17.745816 3.6461293,16.6566235 3.2356317,15.9419245 C2.82503593,15.2270545 2.11128448,14.1943027 1.09332751,12.8441533 C1.56792662,11.5766393 1.87753,10.5156648 2.02399026,9.6616916 C2.17072961,8.80609109 2.26362269,7.5134234 2.30116666,5.78372304 C3.68675273,4.99360887 4.70359451,4.3347486 5.3528664,3.8087711 C6.00388024,3.28138244 6.86293597,2.41968139 7.92872372,1.22225964 C9.71671032,1.42289087 10.9071496,1.52244993 11.5,1.52244993 C12.0928874,1.52244993 13.2834385,1.42287842 15.0715264,1.22239499 C16.1371717,2.41978939 16.9961606,3.28141549 17.6471336,3.8087711 C18.2964871,4.33481471 19.3135029,4.99377448 20.6991051,5.78412672 C20.7364006,7.51374755 20.8292888,8.80619837 20.9760097,9.6616916 C21.1224792,10.5157187 21.4321125,11.5767732 21.9065302,12.8446157 C20.888626,14.1944322 20.1749383,15.2270993 19.7643683,15.9419245 C19.3538449,16.6566684 18.8485822,17.7459527 18.2495664,19.2103845 C16.5415195,19.5524404 15.2704703,19.8794404 14.4358325,20.1895034 C13.6073668,20.4972735 12.627905,21.003367 11.4981648,21.7095195 Z" stroke-linejoin="square" fill-opacity="0.10003278" fill="#000000"></path>
            </g>
        </g>
    </g>
</svg>