<svg xmlns="http://www.w3.org/2000/svg" xmlns:xlink="http://www.w3.org/1999/xlink" width="1024" height="1024" viewBox="0 0 1024 1024"><title>Add-to-Contacts@SVG</title><defs><path id="a" d="M0 0h1024v1024H0z"/><linearGradient id="d" x1="50%" x2="50%" y1="31.422%" y2="0%"><stop offset="0%" stop-opacity="0"/><stop offset="100%" stop-opacity=".12"/></linearGradient><linearGradient id="e" x1="64.357%" x2="0%" y1="50%" y2="50%"><stop offset="0%" stop-opacity="0"/><stop offset="100%" stop-opacity=".12"/></linearGradient><path id="c" d="M896 767h128v256H896z"/><path id="f" d="M896 511h128v256H896z"/><path id="g" d="M896 255h128v256H896z"/><path id="h" d="M896 0h128v256H896z"/></defs><g fill="none" fill-rule="evenodd"><mask id="b" fill="#fff"><use xlink:href="#a"/></mask><use fill="#FFF" xlink:href="#a"/><g mask="url(#b)"><use fill="#4CD964" xlink:href="#c"/><use fill="url(#d)" xlink:href="#c"/><use fill="url(#e)" xlink:href="#c"/><use fill="#FF9500" xlink:href="#f"/><use fill="url(#e)" xlink:href="#f"/><use fill="url(#d)" xlink:href="#f"/><g><use fill="#5AC8FA" xlink:href="#g"/><use fill="url(#d)" xlink:href="#g"/><use fill="url(#e)" xlink:href="#g"/></g><g><use fill="#D0CDC7" xlink:href="#h"/><use fill="url(#e)" xlink:href="#h"/></g><path fill="#DFDDD6" d="M0 0h896v1024H0z"/><path fill="#B8B1AB" fill-rule="nonzero" d="M448 835a330.507 330.507 0 0 1-5.376-.044l.07.001a329.391 329.391 0 0 1-21.466-1.047 325.77 325.77 0 0 1-21-2.407 323.356 323.356 0 0 1-25.384-4.796 321.775 321.775 0 0 1-24.399-6.651l-.01-.003-.046-.015a321.455 321.455 0 0 1-42.56-16.845 322.663 322.663 0 0 1-30.743-16.887 324.236 324.236 0 0 1-28.545-19.96 325.502 325.502 0 0 1-33.34-30l-.99-1.027C158.337 677.099 124 598.059 124 511c0-178.94 145.06-324 324-324s324 145.06 324 324c0 87.058-34.336 166.097-90.205 224.313-.006-.005-.005-.003-.005-.002l-.498.525c-.405.42-.81.838-1.217 1.255l1.715-1.78a326.026 326.026 0 0 1-3.968 4.064c-.417.426-.838.847-1.26 1.268-.801.79-1.602 1.58-2.408 2.365-.369.366-.743.728-1.117 1.09-.804.77-1.61 1.54-2.42 2.307-.419.402-.842.8-1.266 1.197a510.178 510.178 0 0 1-3.692 3.402 481.054 481.054 0 0 1-3.68 3.29 458.145 458.145 0 0 1-3.736 3.238 436.698 436.698 0 0 1-3.824 3.214 426.63 426.63 0 0 1-3.874 3.155c-.943.753-1.889 1.503-2.84 2.248l-.407.322a412.488 412.488 0 0 1-3.644 2.802l-.306.236-.625.472a409.778 409.778 0 0 1-4.012 2.973 406.194 406.194 0 0 1-4.006 2.875 398.655 398.655 0 0 1-3.998 2.78 388.381 388.381 0 0 1-4.08 2.746 374.94 374.94 0 0 1-3.9 2.542 366.547 366.547 0 0 1-4.327 2.728 365.49 365.49 0 0 1-4.343 2.643 360.543 360.543 0 0 1-4.263 2.506 355.679 355.679 0 0 1-4.368 2.477 353.833 353.833 0 0 1-4.493 2.456 350.774 350.774 0 0 1-4.389 2.311 346.74 346.74 0 0 1-4.513 2.288 344.625 344.625 0 0 1-4.558 2.221 341.83 341.83 0 0 1-4.527 2.12 339.057 339.057 0 0 1-4.612 2.072 337.091 337.091 0 0 1-9.326 3.928 333.08 333.08 0 0 1-9.4 3.617 329.701 329.701 0 0 1-9.078 3.178l-.12.04a320.847 320.847 0 0 1-4.846 1.57l-.01.003a321.403 321.403 0 0 1-40.219 9.888 323.972 323.972 0 0 1-41.578 4.68 328.358 328.358 0 0 1-10.381.333c-1.789.03-3.58.044-5.376.044zm0-620c-163.476 0-296 132.524-296 296 0 75.262 28.09 143.964 74.356 196.194C259.464 655.14 346.206 618 448 618c101.796 0 188.54 37.141 221.65 89.19C715.91 654.964 744 586.263 744 511c0-163.476-132.524-296-296-296zm0 110c59.647 0 108 53.726 108 120s-48.353 120-108 120-108-53.726-108-120 48.353-120 108-120z"/></g></g></svg>