<svg xmlns="http://www.w3.org/2000/svg" width="638" height="404" viewBox="0 0 638 404"><g fill="none" fill-rule="evenodd"><path fill="#4293F7" fill-rule="nonzero" d="M108.493 273.85c-9.9 0-18.48-3.08-25.52-9.02-7.26-6.16-10.78-14.08-10.78-23.76v-.88c0-15.62 9.46-24.64 22-29.04 8.8-3.3 16.94-4.4 26.18-4.4h10.56c5.72 0 8.58-2.86 8.58-7.48 0-7.7-6.16-13.64-17.16-13.64-9.68 0-17.16 5.72-19.58 14.96l-28.16-6.38c1.32-7.48 4.4-13.86 9.46-19.14 4.84-5.28 10.78-9.24 17.82-11.66 6.82-2.42 14.08-3.74 22-3.74 27.06-.22 47.08 15.18 47.08 44.22v50.16c0 6.6.44 12.54.88 17.6h-29.7c-.44-2.86-.66-7.26-.66-13.64h-.44c-7.48 10.34-18.26 15.84-32.56 15.84zm9.24-23.32c6.6 0 11.88-2.2 15.84-6.38 3.96-3.96 5.94-9.02 5.94-14.74v-2.64h-19.14c-3.96 0-7.48 1.1-10.78 3.3-3.52 2.2-5.28 5.28-5.28 9.24 0 7.26 5.94 11.22 13.42 11.22zm184.14 21.12h-31.9v-60.72c0-12.54-6.38-21.34-18.92-21.34-6.6 0-11.44 1.98-14.74 6.16-3.3 4.18-5.06 9.02-5.06 14.96v60.94h-31.9V104.89h31.9v70.18h.22c4.4-5.94 10.56-10.34 16.5-12.32 5.94-1.98 10.12-2.64 13.64-2.64 13.42 0 24.2 5.06 30.58 13.42 6.38 8.14 9.68 18.48 9.68 30.14v67.98z"/><circle cx="462.188" cy="202" r="112.2" fill="#4293F7"/><path fill="#FFF" fill-rule="nonzero" d="M435.382 147.466v51.094h-16.728v-51.094h-18.729v-15.183h54.186v15.183h-18.729zm27.754 17.91c0-6.273 1.546-12 4.728-17.274 3.091-5.273 7.364-9.455 12.637-12.455 5.364-3 11.183-4.455 17.456-4.455s12.091 1.455 17.365 4.455c5.182 2.91 9.364 7 12.455 12.273 3.091 5.183 4.637 11.001 4.637 17.274 0 4.728-.91 9.183-2.728 13.456-1.91 4.273-4.273 7.91-7.364 10.91-3.182 3.09-6.819 5.545-11.092 7.273-4.273 1.818-8.727 2.727-13.455 2.727-6.364 0-12.092-1.455-17.365-4.546-5.364-2.909-9.455-7-12.637-12.273-3.091-5.273-4.637-11-4.637-17.365zm17.092-.09c0 5 1.637 9.363 5.092 13.09 3.363 3.637 7.546 5.547 12.455 5.547 5 0 9.182-1.91 12.546-5.546 3.364-3.728 5.091-8.092 5.091-13.092.182-9.637-7.727-18.728-17.637-18.547-3.182 0-6.273.91-9 2.637-2.728 1.727-4.82 4-6.274 6.819-1.545 2.818-2.273 5.818-2.273 9.091zm-58.998 70.149h36.548v6.546c0 8.455-3.182 16.183-8.637 21.728-5.364 5.546-13.546 9.001-23.001 9.001-6.455 0-12.365-1.455-17.729-4.455-5.273-2.909-9.364-7-12.364-12.182-3.091-5.273-4.546-11.092-4.546-17.547 0-4.546.91-8.91 2.728-13.183 1.818-4.09 4.182-7.727 7.273-10.91 3.182-3.09 6.818-5.454 11.091-7.364 4.364-1.818 8.82-2.727 13.547-2.727 7.182 0 13.637 1.91 18 4.637 2.183 1.454 4.183 3.09 5.91 5 3.455 3.727 5.364 7.364 6.455 11.183l-16.273 4.273c-.455-2-1.728-4.092-3.91-6.365-2.182-2.09-5.91-3.636-10.364-3.636-5 0-9.183 1.818-12.637 5.364-3.364 3.546-5 8.091-5 13.637 0 5.364 1.636 10 5 13.728 3.273 3.637 7.637 5.546 12.819 5.546 3.364 0 6.364-.818 9.091-2.546 2.728-1.636 4.455-3.727 5.091-6.273H421.23v-13.455zm42.458 3.091c0-6.273 1.545-12 4.727-17.274 3.091-5.273 7.364-9.455 12.637-12.455 5.364-3 11.183-4.455 17.456-4.455s12.092 1.455 17.365 4.455c5.182 2.91 9.364 7 12.455 12.273 3.091 5.183 4.637 11.001 4.637 17.274 0 4.728-.91 9.183-2.728 13.456-1.909 4.273-4.273 7.91-7.364 10.91-3.182 3.09-6.818 5.545-11.091 7.273-4.273 1.818-8.728 2.727-13.456 2.727-6.364 0-12.091-1.455-17.365-4.546-5.364-2.909-9.455-7-12.637-12.273-3.09-5.273-4.636-11-4.636-17.365zm17.092-.09c0 5 1.636 9.363 5.09 13.09 3.365 3.637 7.547 5.547 12.456 5.547 5 0 9.183-1.91 12.546-5.546 3.364-3.728 5.092-8.092 5.092-13.092.182-9.637-7.728-18.728-17.638-18.547-3.182 0-6.273.91-9 2.637-2.728 1.727-4.819 4-6.274 6.819-1.545 2.818-2.272 5.818-2.272 9.091z"/></g></svg>