<svg xmlns="http://www.w3.org/2000/svg" width="503" height="225" viewBox="0 0 503 225"><style>.a{fill:#FFF;}</style><title>  ah TO GO</title><g fill="none"><path d="M36.3 184.1C26.4 184.1 17.8 181 10.8 175 3.5 168.9 0 161 0 151.3L0 150.4C0 134.8 9.5 125.8 22 121.4 30.8 118.1 38.9 117 48.2 117L58.7 117C64.5 117 67.3 114.1 67.3 109.5 67.3 101.8 61.2 95.8 50.2 95.8 40.5 95.8 33 101.6 30.6 110.8L2.4 104.4C3.7 96.9 6.8 90.6 11.9 85.3 16.7 80 22.7 76 29.7 73.6 36.5 71.2 43.8 69.9 51.7 69.9 78.8 69.7 98.8 85.1 98.8 114.1L98.8 164.3C98.8 170.9 99.2 176.8 99.7 181.9L70 181.9C69.5 179 69.3 174.6 69.3 168.2L68.9 168.2C61.4 178.6 50.6 184.1 36.3 184.1ZM45.5 160.7C52.1 160.7 57.4 158.5 61.4 154.4 65.3 150.4 67.3 145.3 67.3 139.6L67.3 137 48.2 137C44.2 137 40.7 138.1 37.4 140.3 33.9 142.5 32.1 145.6 32.1 149.5 32.1 156.8 38.1 160.7 45.5 160.7ZM229.7 181.9L197.8 181.9 197.8 121.1C197.8 108.6 191.4 99.8 178.9 99.8 172.3 99.8 167.4 101.8 164.1 106 160.8 110.1 159.1 115 159.1 120.9L159.1 181.9 127.2 181.9 127.2 15.1 159.1 15.1 159.1 85.3 159.3 85.3C163.7 79.3 169.8 74.9 175.8 73 181.7 71 185.9 70.3 189.4 70.3 202.8 70.3 213.6 75.4 220 83.7 226.4 91.9 229.7 102.2 229.7 113.9L229.7 181.9Z" class="a"/><path d="M390 0C452 0 502.2 50.2 502.2 112.2 502.2 174.2 452 224.4 390 224.4 328 224.4 277.8 174.2 277.8 112.2 277.8 50.2 328 0 390 0ZM353.9 114.5C349.2 114.5 344.8 115.5 340.4 117.3 336.1 119.2 332.5 121.5 329.3 124.6 326.2 127.8 323.9 131.5 322 135.5 320.2 139.8 319.3 144.2 319.3 148.7 319.3 155.2 320.8 161 323.9 166.3 326.9 171.5 330.9 175.5 336.2 178.5 341.6 181.5 347.5 182.9 353.9 182.9 363.4 182.9 371.6 179.5 376.9 173.9 382.4 168.4 385.6 160.6 385.6 152.2L385.6 152.2 385.6 145.6 349 145.6 349 159.1 368.1 159.1C367.5 161.6 365.8 163.7 363 165.4 360.3 167.1 357.3 167.9 353.9 167.9 348.8 167.9 344.4 166 341.1 162.4 337.8 158.6 336.1 154 336.1 148.6 336.1 143.1 337.8 138.5 341.1 135 344.6 131.5 348.8 129.6 353.8 129.6 358.2 129.6 361.9 131.2 364.1 133.3 366.3 135.5 367.6 137.6 368 139.6L368 139.6 384.3 135.4C383.2 131.5 381.3 127.9 377.9 124.2 376.1 122.3 374.1 120.6 371.9 119.2 367.6 116.5 361.1 114.5 353.9 114.5ZM426.3 114.5C420 114.5 414.2 116 408.9 119 403.6 122 399.3 126.2 396.2 131.5 393 136.7 391.5 142.5 391.5 148.7 391.5 155.1 393 160.8 396.1 166.1 399.3 171.4 403.4 175.5 408.8 178.4 414 181.5 419.8 182.9 426.1 182.9 430.9 182.9 435.3 182 439.6 180.2 443.9 178.5 447.5 176 450.7 172.9 453.8 169.9 456.1 166.3 458 162 459.9 157.7 460.8 153.3 460.8 148.5 460.8 142.3 459.2 136.5 456.1 131.3 453 126 448.9 121.9 443.7 119 438.4 116 432.6 114.5 426.3 114.5ZM426.1 130.1C436 129.9 444 139 443.8 148.6 443.8 153.6 442 158 438.7 161.7 435.3 165.4 431.1 167.3 426.1 167.3 421.2 167.3 417 165.4 413.7 161.7 410.2 158 408.6 153.6 408.6 148.6 408.6 145.4 409.3 142.4 410.9 139.5 412.3 136.7 414.4 134.5 417.1 132.7 419.9 131 423 130.1 426.1 130.1ZM425.8 41.4C419.5 41.4 413.7 42.8 408.3 45.8 403 48.8 398.8 53 395.7 58.3 392.5 63.6 390.9 69.3 390.9 75.6 390.9 81.9 392.5 87.7 395.6 92.9 398.8 98.2 402.9 102.3 408.2 105.2 413.5 108.3 419.2 109.8 425.6 109.8 430.3 109.8 434.8 108.9 439 107 443.3 105.3 446.9 102.9 450.1 99.8 453.2 96.8 455.6 93.1 457.5 88.8 459.3 84.6 460.2 80.1 460.2 75.4 460.2 69.1 458.7 63.3 455.6 58.1 452.5 52.8 448.3 48.8 443.1 45.8 437.9 42.8 432 41.4 425.8 41.4ZM381.9 42.5L327.7 42.5 327.7 57.7 346.5 57.7 346.5 108.8 363.2 108.8 363.2 57.7 381.9 57.7 381.9 42.5ZM425.6 56.9C435.5 56.8 443.4 65.8 443.2 75.5 443.2 80.5 441.5 84.8 438.1 88.6 434.8 92.2 430.6 94.1 425.6 94.1 420.7 94.1 416.5 92.2 413.1 88.6 409.7 84.8 408 80.5 408 75.5 408 72.2 408.8 69.2 410.3 66.4 411.8 63.6 413.9 61.3 416.6 59.6 419.3 57.8 422.4 56.9 425.6 56.9Z" class="a"/></g></svg>
13787,126.179105 396.222677,131.452175 C393.040652,136.725245 391.495097,142.45289 391.495097,148.726025 C391.495097,155.090075 393.040652,160.81772 396.131762,166.09079 C399.313787,171.36386 403.404962,175.455035 408.768947,178.364315 C414.042017,181.455425 419.769662,182.910065 426.133712,182.910065 C430.861292,182.910065 435.316127,182.000915 439.589132,180.182615 C443.862137,178.45523 447.498737,176.000525 450.680762,172.909415 C453.771872,169.90922 456.135662,166.27262 458.044877,161.999615 C459.863177,157.72661 460.772327,153.271775 460.772327,148.544195 C460.772327,142.27106 459.226772,136.4525 456.135662,131.270345 C453.044552,125.997275 448.862462,121.9061 443.680307,118.99682 C438.407237,115.996625 432.588677,114.541985 426.315542,114.541985 Z M426.133712,130.08845 C436.043447,129.90662 443.953052,138.99812 443.771222,148.63511 C443.771222,153.635435 442.043837,157.999355 438.679982,161.72687 C435.316127,165.36347 431.134037,167.272685 426.133712,167.272685 C421.224302,167.272685 417.042212,165.36347 413.678357,161.72687 C410.223587,157.999355 408.587117,153.635435 408.587117,148.63511 C408.587117,145.36217 409.314437,142.361975 410.859992,139.54361 C412.314632,136.725245 414.405677,134.45237 417.133127,132.724985 C419.860577,130.9976 422.951687,130.08845 426.133712,130.08845 Z M425.764305,41.391985 C419.49117,41.391985 413.67261,42.846625 408.308625,45.84682 C403.035555,48.847015 398.76255,53.029105 395.67144,58.302175 C392.489415,63.575245 390.94386,69.30289 390.94386,75.576025 C390.94386,81.940075 392.489415,87.66772 395.580525,92.94079 C398.76255,98.21386 402.853725,102.305035 408.21771,105.214315 C413.49078,108.305425 419.218425,109.760065 425.582475,109.760065 C430.310055,109.760065 434.76489,108.850915 439.037895,107.032615 C443.3109,105.30523 446.9475,102.850525 450.129525,99.759415 C453.220635,96.75922 455.584425,93.12262 457.49364,88.849615 C459.31194,84.57661 460.22109,80.121775 460.22109,75.394195 C460.22109,69.12106 458.675535,63.3025 455.584425,58.120345 C452.493315,52.847275 448.311225,48.7561 443.12907,45.84682 C437.856,42.846625 432.03744,41.391985 425.764305,41.391985 Z M381.918195,42.482965 L327.732855,42.482965 L327.732855,57.66577 L346.461345,57.66577 L346.461345,108.76 L363.189705,108.76 L363.189705,57.66577 L381.918195,57.66577 L381.918195,42.482965 Z M425.582475,56.93845 C435.49221,56.75662 443.401815,65.84812 443.219985,75.48511 C443.219985,80.485435 441.4926,84.849355 438.128745,88.57687 C434.76489,92.21347 430.5828,94.122685 425.582475,94.122685 C420.673065,94.122685 416.490975,92.21347 413.12712,88.57687 C409.67235,84.849355 408.03588,80.485435 408.03588,75.48511 C408.03588,72.21217 408.7632,69.211975 410.308755,66.39361 C411.763395,63.575245 413.85444,61.30237 416.58189,59.574985 C419.30934,57.8476 422.40045,56.93845 425.582475,56.93845 Z" id="Combined-Shape" fill="#FFFFFF"></path>
    </g>
</svg>