<svg xmlns="http://www.w3.org/2000/svg" width="482" height="501" viewBox="0 0 482 501"><title>Слой 2_2</title><g fill="none" fill-rule="nonzero"><path fill="#D6D8E5" d="M297.97 396.44l-60-34.65c-4.33-2.5-3.78-6.86 1.21-9.75l38.89-22.45 75.69 43.7-38.89 22.45c-5 2.89-12.56 3.2-16.9.7z" opacity=".4"/><path fill="#B1B4C4" d="M302.37 393.87l-60-34.66c-4.32-2.5-3.78-6.86 1.22-9.75L282.44 327l75.69 43.7-38.88 22.46c-5 2.89-12.56 3.2-16.88.71z"/><path fill="#B1B4C4" d="M358.14 370.71v-2.29l-3.5 2.02zM239.42 355.08v-2.33l3.59 1.49z"/><path fill="#D6D8E5" d="M302.37 391.57l-60-34.65c-4.32-2.5-3.78-6.86 1.22-9.75l38.88-22.45 75.69 43.7-38.88 22.45c-5.03 2.89-12.59 3.2-16.91.7z"/><path fill="#9EA1AF" d="M282.64 324.82l-9.36-31.08 76.52 43.89 8.34 30.79z"/><path fill="#9EA1AF" d="M355.97 369.7l2.21-1.28-3.29-2.63z"/><path fill="#B1B4C4" d="M280.23 325.99l-9.37-31.08 76.53 43.89 8.53 30.9z"/><path fill="#C4C7D6" d="M474.48 422.08l-296.2-171c-4.15-2.4-7.52-8.84-7.52-14.38V7.59c0-5.54 3.37-8.09 7.52-5.69l296.2 171c4.15 2.4 7.52 8.83 7.52 14.37V416.4c-.03 5.54-3.37 8.08-7.52 5.68z"/><path fill="#C4C7D6" d="M476 424.45l3.28-1.9-1.42-9.73z"/><path fill="#B1B4C4" d="M170.23 3.31l3.23-1.86 4.64 2.65s-4.94.75-5.06.72c-.12-.03-2.81-1.51-2.81-1.51z"/><path fill="#E4E7F2" d="M471.76 423.65l-296.19-171c-4.16-2.39-7.52-8.83-7.52-14.37V9.16c0-5.54 3.36-8.09 7.52-5.69l296.19 171c4.16 2.4 7.52 8.83 7.52 14.37V418c0 5.5-3.31 8.05-7.52 5.65z"/><path fill="#D6D8E5" d="M471.24 424L175.05 253c-4.16-2.4-7.53-8.83-7.53-14.37V9.46c0-5.54 3.37-8.09 7.53-5.69l296.19 171c4.15 2.39 7.52 8.83 7.52 14.37v229.12c0 5.54-3.37 8.09-7.52 5.74z"/><path fill="#FFF" d="M474.69 410l-303.4-175.15.15-224.48c0-2.29 1.62-3.23 3.61-2.08l296.19 171a7.97 7.97 0 0 1 2.54 2.69c.63 1.09.99 2.3 1.06 3.55L474.69 410z"/><path fill="#D6D8E5" d="M382.07 495.7c12.86 0 23.29-6.02 23.29-13.44s-10.43-13.44-23.29-13.44-23.29 6.02-23.29 13.44 10.43 13.44 23.29 13.44zM104.99 501c12.863 0 23.29-6.02 23.29-13.44s-10.427-13.44-23.29-13.44-23.29 6.02-23.29 13.44S92.127 501 104.99 501zM24.26 379.03c12.863 0 23.29-6.02 23.29-13.44s-10.427-13.44-23.29-13.44S.97 358.17.97 365.59s10.427 13.44 23.29 13.44z" opacity=".4"/><path fill="#FFCEA9" d="M88.67 397.64s.66 9.88 2 11.29c1.34 1.41 5.67 2.4 5.67 2.4l3.38 5.55s-3.13-17.66-3.75-18.08c-.62-.42-7.3-1.16-7.3-1.16z"/><path fill="#EDEDED" d="M95.16 386.67a3.708 3.708 0 0 0-2.621-.19c-.866.27-1.606.84-2.079 1.61-1.24 2.06-2.53 9.11-2.65 10.32 0 0 1.74 2.41 4.36 2l2.99-13.74z"/><path fill="#38226D" d="M105.16 485.24a7.27 7.27 0 0 0 5.46-.66c1.32 0 8.46-3 9.43-.45.85 2.25-2.24 4.33-3.89 4.73-3.61.87-6.28 2.67-7.73 3-1.08.22-2.48.37-3.34-.48-1.03-1.03-.94-4.8.07-6.14z"/><path fill="#9C73FF" d="M108.43 491.21c1.45-.3 4.12-2.1 7.73-3 1.38-.33 3.77-1.85 4-3.65.32 2.07-2.47 3.9-4 4.28-3.61.87-6.28 2.67-7.73 3-1.08.22-2.48.37-3.34-.48a2.027 2.027 0 0 1-.47-.86 4.37 4.37 0 0 0 1.821.81c.661.12 1.342.09 1.989-.1z"/><path fill="#38226D" d="M94.04 481.77c1.836.51 3.798.27 5.46-.66 1.31 0 8.46-3 9.43-.45.85 2.25-2.24 4.33-3.9 4.73-3.6.87-6.27 2.67-7.72 3-1.08.23-2.48.37-3.34-.47-1-1.04-.94-4.81.07-6.15z"/><path fill="#9C73FF" d="M97.31 487.74c1.45-.3 4.12-2.1 7.72-3 1.39-.34 3.77-1.86 4-3.66.32 2.07-2.47 3.91-4 4.28-3.6.87-6.27 2.67-7.72 3-1.08.23-2.48.37-3.34-.47a2.09 2.09 0 0 1-.47-.87c.534.41 1.157.69 1.819.81.662.13 1.344.1 1.991-.09z"/><path fill="#006DFF" d="M93.25 461.68c.308-2.65.857-5.27 1.64-7.82 0 0-.49-6.75-.73-13.15-.28-7.27-2.8-13.66-.81-19.46l22.12 4.92s-1.07 29-1.37 32.53a64.648 64.648 0 0 1-1 8.13c-1.03 5.63-2.13 18.17-2.13 18.17-2.37 1.37-5.84.24-5.84.24s0-15.75.13-19.8c.19-5 .34-4.57.34-4.57l-.74-12.32-.48-6.13s-.63 4.5-1 8.52c-.35 3.5-1.2 6.67-2.14 13.19-.82 5.66-1.67 17.19-1.67 17.19-2.37 1.38-5.56.43-5.56.43s-1.41-15.16-.76-20.07z"/><path fill="#FFCEA9" d="M96.35 386.79c1.7.09 3 .53 3.19 0 .186-.88.316-1.77.39-2.66-.2-.5-.37-1-.37-1-2.14-1.32-2.82-3.64-3.1-6.34-.48-4.61 2-8.64 6.62-9.12 4.33-.46 7.52 2.59 8.38 6.77.45 2.07 1.37 6 .13 9.37-.69 1.9-1.58 3.41-2.46 3.7-.861-.02-1.719-.1-2.57-.23l-.38 2.1c-.16.82-.1 1.26 1.54 2.26 1.64 1-2.48 3.08-5.17 2.88-2.69-.2-5.7-1.82-6.53-3.56-.93-1.96-.84-4.22.33-4.17z"/><path fill="#F4F4F4" d="M98.82 387.05c-.48 1.18.72 2.62 3.93 3.63 3.21 1.01 3.5-.29 3.5-.29 2.134.96 4.213 2.03 6.23 3.21 1.92 1.34 2.77 5.23 3 11.81.3 7.6.33 18.88.08 20.83 0 0-3.6 3.58-8.2 3.2-4.6-.38-12.31-4.44-14.19-7.59 0-6.67.83-7.75-.25-11.6-2.47-8.79-3.77-12.39-2.57-18.23 1-4.82 2.37-5.42 4.28-5.37 1.403.06 2.801.19 4.19.4z"/><path fill="#FFCEA9" d="M111.54 432.09l-2.34-26.48 4.94-2.62 1.92 1.62-.59 23.78v1.49s.11 2-3.66 4.39c0 0-.06-.63-.12-1.21l-.09-1-.06.03z"/><path fill="#EDEDED" d="M110.97 392c2.55 0 4.17 1.3 4.8 5.23.63 3.93 1 7.14 1 7.14a6.853 6.853 0 0 1-4.54 2.25c-3.09.35-4-1.22-4-1.22s-.33-4.08-.5-6.85c-.17-2.77.07-6.55 3.24-6.55z"/><path fill="#3A2C6D" d="M111.31 373.82s4-6.05-4.65-7.29c-6.23-.89-10.23 3.11-10.69 7.45-.44 4.15 2.11 8.46 4 10.17 1.812.46 3.729.23 5.38-.65.1-1.13.14-2.27.12-3.4 0 0-3.08-6.39 5.84-6.28z"/><path fill="#D6D8E5" d="M445.97 368.55L206.63 230.37c-4.93-2.84-8.93-10.48-8.93-17.06V37.09c0-6.58 4-9.6 8.93-6.75l239.34 138.17c4.93 2.85 8.93 10.49 8.93 17.06V361.8c-.01 6.57-4.01 9.6-8.93 6.75z" opacity=".4"/><path fill="#FFF" d="M432.55 343.8L193.23 205.63c-4.94-2.85-8.93-10.49-8.93-17.07V12.34c0-6.58 4-9.6 8.93-6.75l239.32 138.17c4.93 2.85 8.93 10.49 8.93 17.07v176.22c0 6.58-4 9.6-8.93 6.75z"/><path fill="#006DFF" d="M441.48 174.7L184.3 26.21V12.34c0-6.58 4-9.6 8.93-6.75l239.32 138.17c4.93 2.85 8.93 10.49 8.93 17.07v13.87z"/><path fill="#FFF" d="M202.136 27.21c1.219-.7 1.219-2.98-.002-5.1-1.22-2.11-3.199-3.26-4.418-2.55-1.22.7-1.219 2.99.001 5.1 1.221 2.12 3.199 3.26 4.419 2.55zM227.14 41.29c1.23-.7 1.23-3 .01-5.12s-3.2-3.27-4.43-2.57c-1.22.7-1.23 3-.01 5.12s3.21 3.28 4.43 2.57zM214.19 34.17c1.22-.7 1.22-2.99 0-5.1-1.22-2.11-3.2-3.26-4.42-2.55-1.22.7-1.219 2.99.002 5.1 1.22 2.11 3.198 3.26 4.418 2.55z"/><path fill="#FCA70D" d="M220.91 194.8l-12.5-7.22v-51.55l12.5 7.21zM267.35 221.61l-12.51-7.22v-87.64l12.51 7.22z"/><path fill="#006DFF" d="M244.13 208.21l-12.5-7.22V131.9l12.5 7.22zM290.56 235.01l-12.5-7.21V106.13l12.5 7.21z"/><path fill="#E9EAF2" d="M419.16 202.02l-99.13-57.23v-14.43l99.13 57.23zM419.16 220.58l-99.13-57.23v-7.22l99.13 57.23zM419.16 234.33l-99.13-57.23v-7.22l99.13 57.23zM405.76 240.34l-85.73-49.49v-7.22l85.73 49.5zM393.26 246.88l-73.23-42.28v-7.22l73.23 42.28zM362.01 258.73l-30.37-17.53v-7.21l30.37 17.52z"/><path fill="#FCA70D" d="M328.96 239.66l-8.93-5.16v-7.22l8.93 5.16z"/><path fill="#E9EAF2" d="M362.01 276.26l-30.37-17.53v-7.22l30.37 17.53z"/><path fill="#006DFF" d="M328.96 257.19l-8.93-5.16v-7.22l8.93 5.16z"/><path fill="#E9EAF2" d="M416.48 290.18l-30.36-17.53v-7.21l30.36 17.52z"/><path fill="#006DFF" d="M383.44 271.11l-8.93-5.16v-7.22l8.93 5.16z"/><path fill="#E9EAF2" d="M416.48 307.71l-30.36-17.53v-7.22l30.36 17.53z"/><path fill="#FCA70D" d="M383.44 288.63l-8.93-5.15v-7.22l8.93 5.16z"/><path fill="#D6D8E5" d="M163.4 353.59l-86.41-50.26 8.47-5.81 86.4 50.26z" opacity=".4"/><path fill="#C4C7D6" d="M168.09 346.12l-72.33-41.76c-4.94-2.85-8.93-10.49-8.93-17.06V170.88c0-6.58 4-9.6 8.93-6.75l72.33 41.76c4.93 2.85 8.93 10.49 8.93 17.06v116.42c0 6.63-4 9.63-8.93 6.75z"/><path fill="#C4C7D6" d="M168.58 349.79l5.57-3.34-5.62-8.83zM85.27 166.5l5.07-3.06-.18 8.16z"/><path fill="#D6D8E5" d="M162.97 349.22L90.6 307.45c-4.93-2.84-8.93-10.45-8.93-17.06V174c0-6.57 4-9.6 8.93-6.75L162.97 209c4.93 2.85 8.93 10.49 8.93 17.07v116.39c-.04 6.54-4.04 9.6-8.93 6.76z"/><path fill="#006DFF" d="M158.47 239.4l-63.41-36.61v-18.55l63.41 36.6zM112.92 250.23l-16.96-9.8v-18.56l16.96 9.8zM135.25 263.12l-16.97-9.8v-18.56l16.97 9.8zM157.57 276l-16.96-9.79v-18.56l16.96 9.79zM112.92 278.07l-16.96-9.8v-18.56l16.96 9.8zM135.25 290.96l-16.97-9.8V262.6l16.97 9.8zM157.57 303.85l-16.96-9.8v-18.56l16.96 9.8zM112.92 305.91l-16.96-9.8v-18.56l16.96 9.8zM135.25 318.8l-16.97-9.8v-18.56l16.97 9.8zM157.57 331.69l-16.96-9.8v-18.56l16.96 9.8z"/><path fill="#D6D8E5" d="M416.4 467.69l-34.64-20 8.08-4.66 34.64 20z" opacity=".4"/><path fill="#E28C10" d="M428.26 461.03l-35.72-20.63 4.47-40.72 26.79 15.46z"/><path fill="#FCA70D" d="M418.98 466.18l-35.72-20.62 4.47-40.73 26.79 15.47z"/><path fill="#EF990F" d="M418.98 466.18l9.28-5.15-4.46-45.89-9.28 5.16z"/><path fill="#E28C10" d="M387.73 404.83l9.28-5.15-1.09 9.88z"/><path fill="#7C5522" d="M407.81 416.34l-1.65-1c0-3.84-2.26-8.28-5-9.88-2.74-1.6-5 .22-5 4.06l-1.65-.95c0-4.9 3-7.15 6.69-5 3.69 2.15 6.61 7.87 6.61 12.77zM416.52 411l-1.65-.95c0-3.85-2.26-8.28-5-9.88-2.74-1.6-5 .21-5 4.06l-1.65-.95c0-4.9 3-7.15 6.69-5 3.69 2.15 6.61 7.84 6.61 12.72z"/><g><path fill="#FFCEA9" d="M396.28 381.29c2 .57 3.1 2.76 4.83 7.43a38.74 38.74 0 0 1 2.08 13.16c-.55 4.4-2.37 7.82-6.78 11.39l-2.1-3.85s4.31-3.81 4.75-8.21c.25-2.47-2.65-10.8-2.65-11 0-.2-.13-8.92-.13-8.92z"/><path fill="#38226D" d="M379.03 482.72c-.67.21-1.37.26-2.06.17a4.84 4.84 0 0 1-1.94-.71c-1.08 0-7.4-2.47-8.2-.37-.69 1.84 1.84 3.54 3.19 3.87 2.95.72 5.14 2.19 6.33 2.44.45.16.94.21 1.41.14.48-.07.93-.25 1.32-.53.89-.83.78-3.91-.05-5.01z"/><path fill="#9C73FF" d="M376.36 487.61c-1.19-.25-3.38-1.72-6.33-2.44-1.13-.27-3.09-1.51-3.28-3-.27 1.69 2 3.2 3.28 3.5 2.95.72 5.14 2.19 6.33 2.44.45.16.94.21 1.41.14.48-.07.93-.25 1.32-.53.18-.2.31-.44.39-.7-.44.33-.95.56-1.49.66-.54.11-1.1.08-1.63-.07z"/><path fill="#38226D" d="M395.09 474.37c-.58.2-1.19.26-1.8.17-.6-.09-1.18-.33-1.67-.69-1 0-7.5-2.38-8.27-.35-.67 1.77 1.77 3.41 3.07 3.72 2.84.69 4.95 2.11 6.09 2.35.44.15.9.2 1.36.14.46-.07.89-.24 1.27-.51.83-.8.74-3.77-.05-4.83z"/><path fill="#9C73FF" d="M392.51 479.08c-1.14-.24-3.25-1.66-6.09-2.35-1.09-.26-3-1.46-3.16-2.88-.25 1.63 1.95 3.08 3.16 3.37 2.84.69 4.95 2.11 6.09 2.35.44.15.9.2 1.36.14.46-.07.89-.24 1.27-.51.18-.19.3-.43.37-.68-.42.32-.91.54-1.43.64-.52.09-1.06.07-1.57-.08z"/><path fill="#FFCEA9" d="M397.21 458.33c0-2.43-.42-4.84-1.24-7.12 0 0 .83-9.75 1.45-16.15.91-9.44 2.36-10.37 1.95-16.1-.38-5.32-3.4-8.77-4.19-12.37l-15.41 1.22s-1.34 4.36-3.07 13.06c-1.73 8.7-1.84 19.05-1.68 32.76.05 3.53-.6 6.6-.39 15.4.14 5.92.47 13.16.47 13.16 2.26 1.94 3.82.51 3.82.51s3.95-17.52 4.53-21.55c.42-2.23.23-4.52-.54-6.65 0 0 1.16-5.51 2-9.84 1.05-5.28 3.63-16.69 3.63-16.69s-.44 17.53.33 21c.77 3.47.9 6.46 1.55 11.16.79 5.69 1.15 14 1.15 14 2.35 1.49 3.39.34 3.39.34s2.25-11.17 2.25-16.14z"/><path fill="#006DFF" d="M395.18 406.59c1.61 1.65 4.28 6.68 4.28 14.29 0 8.56-1.25 6.82-1.84 16.26l-.6 9.43s-12.87 6.14-22.05.44c-.82-1.78.31-21.61 1.91-28.66 1.6-7.05 2.73-10.51 2.73-10.51s11.84 3.16 15.57-1.25z"/><path fill="#FFCEA9" d="M395.36 381.2c-3.28-.19-3.59.35-3.86-.81-.09-.42-.27-3.31-.27-3.31.3-.38.58-.79.82-1.21 1.5-.92 2.67-2.28 3.35-3.9.69-1.62.84-3.41.45-5.13a8.347 8.347 0 0 0-2.62-4.42 8.347 8.347 0 0 0-4.71-2.07c-4.36-.46-7.56 2.6-8.41 6.8-.46 2.07-.94 6.31.35 9.7.73 1.92 1.4 3.27 3.14 3.2.58-.05 1.15-.15 1.71-.3.09.8.13 1.6.1 2.4-.05.84.1 1.27-1.55 2.28-1.65 1.01 2.49 3.09 5.18 2.89 2.69-.2 5.73-1.84 6.57-3.58.92-1.95 1.3-2.44-.25-2.54z"/><path fill="#EDEDED" d="M397.78 395.75s3.71-.84 5.41-2.49c0 0-2.21-6.95-3.62-8.7-1.41-1.75-2.78 9.48-2.78 9.48l.99 1.71z"/><path fill="#F4F4F4" d="M392.11 381.13c.6.76.67 1.71-1.67 2.3-1.7.49-3.52.35-5.13-.39-1.85.78-3.62 1.72-5.3 2.81-2 6.57-.38 7.41-1.22 12.12.32 2.37.72 8.48.82 9.87 4.46 3.12 13.53 2.06 15.57-1.25.03-1.11.13-2.21.31-3.3 2.13-7.9 3.8-10 3.2-16-.34-3.41-.6-5.12-2.41-6-1.38-.24-2.78-.29-4.17-.16z"/><path fill="#FFCEA9" d="M351.06 406.84c1.02.22 2.02.51 3 .86.91.48 1.89.82 2.91 1 1.1.18 2.81-.39 5.77-1.79 3.24-1.66 6.17-3.86 8.66-6.51a76.41 76.41 0 0 0 7.57-10.8c1.28-2.34 2.91-2.93 4.32-2.47 1.69.56 1.9 2.23 0 5.39a59.639 59.639 0 0 1-8.66 11.34 32.337 32.337 0 0 1-9 6.37 27.99 27.99 0 0 1-7.6 2.64c-.93.2-1.56.58-3.27 1.18-1.7.62-3.53.82-5.32.59-1.49-.29-2-.63-2.06-1-.06-.37.25-.62.94-.57 1.1.17 2.21.14 3.3-.08 0 0-1.52-.05-2.44-.16-.81-.09-1.6-.29-2.36-.6-.73-.31-1-1.45-.27-1.41.73.04 1.24.25 2.59.39.72.09 1.44.09 2.16 0-.9-.15-1.78-.36-2.64-.65-.71-.19-1.35-.58-1.84-1.13-.25-.29-.18-1 .68-.83 1.04.37 2.13.61 3.23.72 1.11 0 1.89-.09 1.75-.27-.14-.18-.79-.14-1.64-.62-.85-.48-1.32-1.37-1-1.8.32-.43.32-.12 1.22.21z"/><path fill="#EDEDED" d="M381.5 396.31c-2.59-.38-4.98-1.59-6.81-3.45l4.12-5.72s2.32-2.93 5.38-1.27c0 0 2.32.25 0 5.08-.79 1.84-1.69 3.63-2.69 5.36z"/><path fill="#3A2C6D" d="M379.31 364.67c.17-.98.71-1.86 1.52-2.45.8-.58 1.8-.83 2.79-.69a7.21 7.21 0 0 1 4.9-1.18c3.91.4 6.47 2.94 7.66 6.86.58 1.96.96 3.97 1.15 6 1.18 8.71 4.34 15.63 1.38 18.21s-11.06 4.23-14.44 2.58c-3.38-1.65 2.79-16.64-3.92-25-1.57-1.95-1.72-3.34-1.04-4.33z"/></g><g><path fill="#38226D" d="M11.97 361.45c1.53 1.24 3.78.11 3.89.22a68.571 68.571 0 0 0 5.63 4.69c1 .75 2.43 1.75 2.16 3.18-.48 2.57-4.59 1.78-6.14 1-1.55-.78-2.82-2.09-4.29-3-1-.65-2.08-1-2.24-2.31-.15-.81.67-3.81.99-3.78z"/><path fill="#9C73FF" d="M10.97 364.69c.2 1.27 1.22 1.62 2.26 2.26 1.49.93 2.8 2.27 4.35 3.05 1.55.78 5 1.45 6-.39-.54 2.48-4.59 1.7-6.12.93-1.53-.77-2.82-2.09-4.29-3-1-.65-2.08-1-2.24-2.31a2.01 2.01 0 0 1 .04-.54z"/><path fill="#38226D" d="M25.16 356.53c1.52 1.24 4.19-.12 4.31 0a59.527 59.527 0 0 0 5 4.54c.95.75 2.44 1.75 2.17 3.18-.48 2.57-4.6 1.78-6.15 1-1.55-.78-2.82-2.09-4.29-3-1-.65-2.08-1-2.24-2.31-.08-.8.93-3.44 1.2-3.41z"/><path fill="#9C73FF" d="M24.03 359.58c.2 1.27 1.22 1.62 2.26 2.27 1.49.92 2.8 2.26 4.35 3 1.55.74 5 1.44 6-.39-.54 2.48-4.59 1.7-6.12.92-1.53-.78-2.82-2.09-4.29-3-1.05-.65-2.08-1-2.24-2.31a2.08 2.08 0 0 1 .04-.49z"/><path fill="#006DFF" d="M11.83 305.15c.08 2.31.8 12.32 1.12 17.62.32 5.3.39 11.8.39 11.8s-.91 3.87-1.51 8.41 0 18.87 0 18.87c.584.37 1.262.57 1.955.57.693 0 1.371-.2 1.955-.57 0 0 2.44-11.47 3.57-16.64s1.33-8.14 1.91-11.35c.71-3.87 2.24-21.95 2.24-21.95h.62l1.63 20.41a22.785 22.785 0 0 0-1 4.64c-.44 3.32.47 20.05.47 20.05.651.36 1.389.54 2.134.51a4.09 4.09 0 0 0 2.086-.68s4.08-22.16 4.08-25.53c0-2.23-.39-31.63-.39-31.63l-21.26 5.47z"/><path fill="#FFCEA9" d="M17.36 260.57s.26 5 .15 5.47c-.11.47-2.31 1.92-2.95 2.45-.64.53 3.48 4.59 5.48 5.51 2 .92 8.34-1.5 8.46-4.62.12-3.12-1.09-5.73-2.06-5.87-.97-.14-9.08-2.94-9.08-2.94zM31.14 269.9c.29-2.22-1.17-4.32.25-6.09 5 4.87 4.33 17.74 5.46 26 3.68 3.86 11.09 7.65 13.17 8.59.38.18.71.36.64.77a9.297 9.297 0 01-1.69 3.75c-4.9-2.12-8.43-3.33-14.56-9.15a13.964 13.964 0 01-1.55-2c-1.79-5.29-2.23-18.04-1.72-21.87z"/><path fill="#F4F4F4" d="M16.8 266.91s3.65 5.44 8.74 5.95c1.61-1.58 1.75-7.21-.47-9 0 0 2-1.65 3.44-1.33a7.213 7.213 0 0 1 3.14 4 32.987 32.987 0 0 1 1.8 11.64c-.09 5.34 0 21.64 0 21.64s-.72 3.45-5.32 6c-4.6 2.55-8 2.82-11.15 2.09-2.58-.6-4.71-1.51-5.6-3.38.23-3.74 1.9-13.5 1.28-18.2-.62-4.7-1.62-8.21-1.88-12-.26-3.79.5-3.72 2.41-5.08a30.592 30.592 0 0 1 3.61-2.33z"/><path fill="#FFCEA9" d="M28.74 253.07c-.6-3.9-3.41-6.86-7.43-6.64a7.75 7.75 0 0 0-4.444 1.68 7.758 7.758 0 0 0-2.434 8.72 7.751 7.751 0 0 0 2.928 3.74c.142.59.353 1.17.63 1.71 1.42 1.66 5.73 2.69 7 2.51a3.705 3.705 0 0 0 2.007-.82c.573-.46.992-1.09 1.203-1.8 1.29-3.07.87-7.17.54-9.1z"/><path fill="#3A2C6D" d="M17.36 260.57l.37-3.41s-2.76-7.16 3.79-5.82c4.34.92 5.43 1.31 6.75-1.6 1.32-2.91-3.33-5.53-8.86-4.8a7.63 7.63 0 0 0-4.936 2.54 7.619 7.619 0 0 0-1.914 5.21c.15 2.14.72 6.48 4.8 7.88z"/><path fill="#FFCEA9" d="M9.66 272.07c1.91-.54.46-.09 1.91-.54 5 4.86 4.34 13.21 5.47 21.45 2.74 4.53 12.93 10.67 12.93 10.67.13.87-.18 1.13-1.28 2.91a44.09 44.09 0 0 1-15.13-9.76c-.24-.23-.59-.29-.69-.6-1.77-5.26-3.71-20.3-3.21-24.13z"/><path fill="#F4F4F4" d="M54.92 282.23l-7.4 25.27-16.21 6.48 5.91-24.62z"/><path fill="#FFCEA9" d="M27.39 303.83c.24-.86.87-.65 1.57-.43.762.3 1.597.38 2.4.21.626-.31 1.205-.7 1.72-1.17.327-.19.7-.3 1.08-.3 0 .21-.37 1.5-.37 1.5h3.92a.595.595 0 01.372.04c.117.05.214.14.276.25a.61.61 0 01-.088.71h.24c.73-.17 1 .95.31 1.12l-.6.09c.48.18.6 1 0 1.08h-.19a.57.57 0 01-.26 0h-.11a.637.637 0 01-.102.49.729.729 0 01-.187.18.533.533 0 01-.241.09c-1.74.22-4.29.91-5.86-.52a9.6 9.6 0 01-3.15-.85c-.99-.49-1.02-1.46-.73-2.49zM45.14 301.76h.24a.593.593 0 01-.222-.3.6.6 0 01-.005-.37.575.575 0 01.215-.3.566.566 0 01.352-.12c.37 0 4-.76 4-.76l.44-1.5c0-.09.63.3.65.31.318.2.587.46.787.78.201.31.329.67.373 1.04a3.998 3.998 0 01-1 2.83 3.67 3.67 0 01-2.48 1.07l-1.26.08a.633.633 0 01-.625-.37.624.624 0 01-.055-.25h-.18a.57.57 0 01-.26 0h-.14c-.62 0-.67-.78-.25-1.06h-.6c-.79.08-.73-1.08.02-1.08z"/><path fill="#EDEDED" d="M33.2 273.2a3.966 3.966 0 002.65-1.2c-.14-1.87-2.53-9-7.34-9.49a8.883 8.883 0 013 3.63 47.584 47.584 0 011.69 7.06zM8.8 282.57s4.78 1.65 8.15-1.12c.37-.64-2-8.78-2-8.78s-2-4.17-5.15-2.51c-3.15 1.66-1 12.41-1 12.41z"/></g></g></svg>