<svg xmlns="http://www.w3.org/2000/svg" width="193" height="258" viewBox="0 0 193 258"><g fill="#FFF" fill-rule="evenodd"><path fill-opacity=".783" d="M158.467 169.42c.972.949 1.95 1.904 2.928 2.863l.979.96.489.48.978.961 1.464 1.443.973.963c13.59 13.466 26.052 26.706 26.052 32.64 0 4.709-6.923 12.052-20.768 22.03-10.918 6.165-20.02 12.552-27.303 19.164-7.284 6.612-16.93 8.506-28.938 5.684l-.021-.226.026.054c.458-59.64 2.39-98.194 5.796-115.663.071-.364.141-.729.21-1.093 14.485 9.792 26.863 19.705 37.135 29.74z"/><path fill-opacity=".326" d="M152.526 62.086l.004-.076c-1.193 20.432.018 35.129 3.636 44.09 2.087 5.17 4.46 9.418 6.888 13.582l.73 1.248c3.654 6.233 7.381 12.463 10.402 21.51 3.255 9.75 4.688 25.465 4.298 47.142a377.86 377.86 0 0 0-8.403-8.697l-.804-.807-1.012-1.013-1.019-1.014-.968-.961-.243-.24-.243-.241-.974-.963-.244-.24-.244-.24-1.467-1.443a2328.208 2328.208 0 0 0-4.396-4.304c-10.213-9.977-22.51-19.835-36.89-29.573l.014-.026c9.318-18.99 15.762-34.223 19.33-45.7 2.668-8.578 6.537-19.256 11.605-32.034z"/><path fill-opacity=".495" d="M158.467 47.468c-8.069 19.434-13.917 34.985-17.545 46.652-3.57 11.477-10.013 26.71-19.331 45.7l-.469.953c5.11-26.204 3.667-53.783 0-59.013l-.076-.105C142.09 66.643 154.5 55.292 158.27 47.602l.196-.134z"/><path fill-opacity=".798" d="M109.858 39.338c0 1.633-.067 3.24-.199 4.822l.199-.113c-16.657 9.48-29.19 16.458-37.603 20.938-8.947 4.764-16.45 6.15-23.832 7.448l-1.135.2-.567.1-1.134.202c-2.08.375-4.163.777-6.28 1.28-3.404.807-7.134 2.499-10.748 4.87a7486.487 7486.487 0 0 1 30.046-33.896C76.995 24.556 80.939 1.318 92.427.97c11.488-.347 17.43 24.858 17.43 38.368z"/><path fill-opacity=".336" d="M93.98.967c12.217 4.299 22.142 8.594 29.773 12.885 11.448 6.437 32.59 16.952 35.557 27.731 1.96 7.12-10.795 20.478-38.263 40.071l.075.106c-3.666-5.23-9.877-5.23-13.542-13.203-1.872-4.071-.846-9.384 1.041-16.807.385-1.51.797-4.078 1.237-7.703l-.199.113c.132-1.582.199-3.189.199-4.822 0-12.89-5.409-36.422-15.882-38.257l.004-.114z"/><path fill-opacity=".349" d="M115.31 256.402l.01.162c-.026.12-2.718-.001-8.075-.363-5.357-.363-22.357-4.406-51.001-12.132l37.612-20.968c7.754 9.015 14.905 20.116 21.454 33.301z"/><path fill-opacity=".648" d="M11.406 101.189c-2.39 8.936 2.433 22.868 14.473 41.796 15.627 25.315 27.228 42.446 34.805 51.391 11.365 13.42 17.5 11.612 30.623 25.86 8.748 9.5 16.754 21.566 24.02 36.2.457-59.64 2.389-98.194 5.795-115.663 5.11-26.204 3.667-53.783 0-59.013-3.666-5.23-9.877-5.23-13.542-13.203-1.872-4.071-.846-9.384 1.041-16.807.385-1.51.797-4.078 1.237-7.703-16.657 9.48-29.19 16.458-37.603 20.938-12.617 6.719-22.364 6.719-32.947 9.23-10.584 2.51-24.315 13.569-27.902 26.974z"/><path fill-opacity=".947" d="M11.318 184.312l49.777 10.546.066.076c5.057 5.858 9.086 8.712 13.207 11.426l.774.508c4.654 3.047 9.511 6.144 16.165 13.368.924 1.004 1.84 2.036 2.747 3.097-6.597 4.505-14.367 9.047-23.31 13.627a312.522 312.522 0 0 1-15.672 7.48l-2.001.88c-7.85 3.42-17.016.469-21.396-6.887-5.958-10.005-10.354-18.295-13.188-24.87-3.94-9.141-6.329-18.891-7.169-29.25z"/><path fill-opacity=".777" d="M25.88 142.985c15.626 25.315 27.227 42.446 34.804 51.391l.41.481-49.776-10.545.037.439c-2.582-2.406-5.71-6-9.38-10.782a7 7 0 0 1 .145-8.708l.182-.212.495-.556a3601.1 3601.1 0 0 0 7.365-8.286c2.852-3.22 8.091-7.628 15.717-13.222z"/></g></svg>