<svg xmlns="http://www.w3.org/2000/svg" width="19" height="26" viewBox="0 0 19 26"><title>AppyThings Logo Simple</title><g fill="none" fill-rule="evenodd"><path fill="#B51615" d="M15.371 6.249c-.12 2.06.002 3.54.367 4.443.546 1.355 1.288 2.082 1.816 3.662.351 1.054.492 2.799.421 5.234-1.61-1.22-2.708-2.174-3.29-2.86-.583-.685-1.512-1.62-2.786-2.804 1.413-2.65 2.31-4.601 2.689-5.853.379-1.251.64-1.859.783-1.822z"/><path fill="#A92119" d="M12.206 14.186c.965-1.958 1.63-3.525 1.995-4.701.366-1.176.955-2.743 1.769-4.701l-4.9 3.312 1.136 6.09z"/><path fill="#D5361F" d="M19.382 21.136c0 .474-.698 1.214-2.093 2.22-1.1.62-2.017 1.265-2.751 1.93-.734.667-1.738.852-3.012.556-.309-4.09-.46-6.174-.455-6.254.124-1.791.433-3.68.929-5.664 1.558 1.036 2.881 2.086 3.97 3.15 1.632 1.594 3.412 3.35 3.412 4.062z"/><path fill="#A22E29" d="M9.47.097c1.232.434 2.232.867 3.001 1.299 1.154.649 3.284 1.708 3.583 2.795.2.724-1.111 2.088-3.933 4.093-1.05-.088-1.776-.719-2.178-1.892-.402-1.174-.56-3.272-.472-6.295z"/><path fill="#D7413A" d="M2.602 8.284c.967-1.1 2.068-2.344 3.304-3.73C7.759 2.474 8.156.133 9.314.098c1.158-.035 1.757 2.505 1.757 3.866 0 .908-.203 1.738-.608 2.49l-7.861 1.83z"/><path fill="#D05C61" d="M1.14 18.574l5.675 1.202 2.91 2.559c-.715.51-1.58 1.025-2.596 1.545-.58.297-1.174.578-1.78.842a1.713 1.713 0 0 1-2.157-.694c-.6-1.008-1.043-1.844-1.329-2.506a9.291 9.291 0 0 1-.722-2.948z"/><path fill="#D5361F" d="M.199 17.532c.494.643.89 1.073 1.189 1.29.55.398 1.251.628 2.169.93.611.203 1.727.4 3.346.595-.992-1.759-1.751-3.032-2.278-3.82a8.883 8.883 0 0 0-2.017-2.118c-.769.564-1.297 1.008-1.584 1.333l-.792.89a.705.705 0 0 0-.033.9z"/><path fill="#A92D2C" d="M5.668 24.596c2.887.779 4.6 1.186 5.14 1.223.54.036.81.048.813.036l-.034-.537-1.862-2.983-4.057 2.261z"/><path fill="#D01711" d="M1.15 10.197c-.242.9.245 2.305 1.458 4.212 1.575 2.552 2.744 4.278 3.507 5.18 1.146 1.352 1.764 1.17 3.086 2.605.882.958 1.689 2.174 2.421 3.648.046-6.01.24-9.895.584-11.656.515-2.64.37-5.42 0-5.947-.37-.527-.995-.527-1.365-1.33-.188-.41-.085-.946.105-1.694.04-.152.08-.41.125-.776a169.222 169.222 0 0 1-3.79 2.11c-1.271.677-2.253.677-3.32.93-1.066.253-2.45 1.367-2.812 2.718z"/></g></svg>