<svg width="10" height="10" version="1.1" viewBox="0 0 10 10" xmlns="http://www.w3.org/2000/svg">
    <path d="M26.448,14.705l-6.721,-6.427l-9.64747e-09,-9.19803e-09c-0.342382,-0.326432 -0.865822,-0.370537 -1.258,-0.106l1.14714e-07,-7.75527e-08c-0.461565,0.312043 -0.58327,0.938913 -0.272,1.401l3.074,4.572l-15.323,0.851l-3.08043e-08,9.72538e-10c-0.554218,0.0174975 -0.989315,0.480964 -0.971818,1.03518c0.0167215,0.529639 0.442179,0.955096 0.971818,0.971818l15.323,0.851l-3.074,4.572l6.17851e-09,-8.93271e-09c-0.31637,0.457399 -0.202044,1.08466 0.255355,1.40103c0.395662,0.273669 0.929639,0.229249 1.27465,-0.106033l6.72,-6.427l-2.59869e-08,2.48761e-08c0.714933,-0.684373 0.739706,-1.81873 0.0553335,-2.53367c-0.0180395,-0.018845 -0.0364884,-0.0372939 -0.0553334,-0.0553334" transform="scale(0.3125)" fill="#FFF"></path>
</svg>