<svg xmlns="http://www.w3.org/2000/svg" width="101" height="101" viewBox="0 0 101 101"><title>  dribbble-icon</title><g fill="none"><path d="M0.5 50.5C0.5 41.4 2.7 33.1 7.2 25.4 11.7 17.7 17.7 11.7 25.4 7.2 33.1 2.7 41.4 0.5 50.5 0.5 59.6 0.5 67.9 2.7 75.6 7.2 83.3 11.7 89.3 17.7 93.8 25.4 98.3 33.1 100.5 41.4 100.5 50.5 100.5 59.6 98.3 67.9 93.8 75.6 89.3 83.3 83.3 89.3 75.6 93.8 67.9 98.3 59.6 100.5 50.5 100.5 41.4 100.5 33.1 98.3 25.4 93.8 17.7 89.3 11.7 83.3 7.2 75.6 2.7 67.9 0.5 59.6 0.5 50.5ZM8.8 50.5C8.8 60.9 12.3 70.1 19.3 78 22.5 71.7 27.6 65.8 34.5 60.1 41.4 54.4 48.2 50.9 54.8 49.4 53.8 47.1 52.8 45 51.9 43.1 40.4 46.8 28 48.6 14.7 48.6 12.1 48.6 10.2 48.6 8.9 48.5 8.9 48.8 8.9 49.1 8.9 49.5 8.8 49.9 8.8 50.2 8.8 50.5ZM10.1 40.2C11.6 40.3 13.7 40.4 16.6 40.4 27.7 40.4 38.3 38.9 48.3 35.9 43.2 26.9 37.7 19.4 31.6 13.4 26.3 16.1 21.8 19.8 18.1 24.5 14.3 29.2 11.6 34.5 10.1 40.2ZM25 83.4C32.5 89.3 41 92.2 50.5 92.2 55.4 92.2 60.3 91.3 65.2 89.4 63.9 78 61.3 67 57.4 56.3 51.3 57.6 45.1 61 38.9 66.4 32.6 71.8 28 77.5 25 83.4ZM40.3 10.2C46.2 16.3 51.6 23.8 56.6 32.9 65.7 29.1 72.5 24.3 77.1 18.4 69.4 12 60.5 8.8 50.5 8.8 47.1 8.8 43.7 9.3 40.3 10.2ZM60.2 40C61.2 42.1 62.3 44.8 63.6 48.1 68.5 47.6 73.9 47.4 79.7 47.4 83.8 47.4 87.9 47.5 92 47.7 91.5 38.6 88.2 30.6 82.2 23.5 77.9 30 70.5 35.5 60.2 40ZM66.1 55.1C69.5 65 71.8 75.1 73 85.5 78.3 82.1 82.6 77.7 85.9 72.4 89.2 67.1 91.2 61.3 91.9 55.1 87 54.8 82.6 54.6 78.6 54.6 74.9 54.6 70.8 54.8 66.1 55.1Z" fill="#FFF"/></g></svg>
