<svg xmlns="http://www.w3.org/2000/svg" width="101" height="101" viewBox="0 0 101 101"><title>dribbble-icon</title><path fill="#FFF" d="M.5 50.5c0-9.1 2.2-17.4 6.7-25.1 4.5-7.7 10.5-13.7 18.2-18.2C33.1 2.7 41.4.5 50.5.5c9.1 0 17.4 2.2 25.1 6.7 7.7 4.5 13.7 10.5 18.2 18.2 4.5 7.7 6.7 16 6.7 25.1 0 9.1-2.2 17.4-6.7 25.1-4.5 7.7-10.5 13.7-18.2 18.2-7.7 4.5-16 6.7-25.1 6.7-9.1 0-17.4-2.2-25.1-6.7-7.7-4.5-13.7-10.5-18.2-18.2C2.7 67.9.5 59.6.5 50.5zm8.3 0c0 10.4 3.5 19.6 10.5 27.5 3.2-6.3 8.3-12.2 15.2-17.9 6.9-5.7 13.7-9.2 20.3-10.7-1-2.3-2-4.4-2.9-6.3-11.5 3.7-23.9 5.5-37.2 5.5-2.6 0-4.5 0-5.8-.1v1c-.1.4-.1.7-.1 1zm1.3-10.3c1.5.1 3.6.2 6.5.2 11.1 0 21.7-1.5 31.7-4.5-5.1-9-10.6-16.5-16.7-22.5-5.3 2.7-9.8 6.4-13.5 11.1-3.8 4.7-6.5 10-8 15.7zM25 83.4c7.5 5.9 16 8.8 25.5 8.8 4.9 0 9.8-.9 14.7-2.8C63.9 78 61.3 67 57.4 56.3c-6.1 1.3-12.3 4.7-18.5 10.1-6.3 5.4-10.9 11.1-13.9 17zm15.3-73.2c5.9 6.1 11.3 13.6 16.3 22.7 9.1-3.8 15.9-8.6 20.5-14.5-7.7-6.4-16.6-9.6-26.6-9.6-3.4 0-6.8.5-10.2 1.4zM60.2 40c1 2.1 2.1 4.8 3.4 8.1 4.9-.5 10.3-.7 16.1-.7 4.1 0 8.2.1 12.3.3-.5-9.1-3.8-17.1-9.8-24.2-4.3 6.5-11.7 12-22 16.5zm5.9 15.1A144 144 0 0 1 73 85.5c5.3-3.4 9.6-7.8 12.9-13.1 3.3-5.3 5.3-11.1 6-17.3-4.9-.3-9.3-.5-13.3-.5-3.7 0-7.8.2-12.5.5z"/></svg>