<?xml version="1.0" encoding="UTF-8"?>
<svg width="26" height="26" version="1.1" viewBox="0 0 26 26" xmlns="http://www.w3.org/2000/svg" xmlns:xlink="http://www.w3.org/1999/xlink">
    <!--Generated by IJSVG (https://github.com/iconjar/IJSVG)-->
    <path d="M16,20l-9.44356e-08,-1.43672e-11c-2.21024,-0.000336299 -4.00173,-1.79237 -4.00139,-4.00261c2.81176e-05,-0.184796 0.0128559,-0.369368 0.0383911,-0.552391c0.142,-1.051 0.747,-2.011 1.601,-2.641c1.79,-1.32 3.934,-0.902 5.224,0.436l1.55252e-08,1.65004e-08c0.0898164,0.0954579 0.139261,0.221937 0.138,0.353v2.407c0,0.734 0.083,1.411 0.229,2.035l-8.10261e-09,-3.25871e-08c0.0365259,0.1469 0.00453565,0.302439 -0.087,0.423l-9.63346e-08,1.23187e-07c-0.75649,0.967351 -1.91399,1.53542 -3.142,1.542m0,-16c-6.62,-8.38018e-10 -12,5.38 -12,12c0,6.62 5.38,12 12,12c2.5,0 4.88,-0.75 6.87,-2.18c0.45,-0.32 0.55,-0.94 0.23,-1.39l-3.57617e-08,-5.01822e-08c-0.318595,-0.447064 -0.939284,-0.551209 -1.38635,-0.232614c-0.0012191,0.000868776 -0.00243623,0.0017403 -0.00365139,0.00261458c-1.65,1.18 -3.63,1.8 -5.71,1.8c-5.51,0 -10,-4.49 -10,-10c0,-5.51 4.49,-10 10,-10c5.51,0 10,4.49 10,10c0,2.43 -0.98,4 -2.5,4c-1.52,0 -2.5,-1.57 -2.5,-4v-5c0,-0.55 -0.45,-1 -1,-1l3.90838e-08,-4.23707e-10c-0.485154,0.00525955 -0.895006,0.36134 -0.968,0.841l2.41761e-07,1.43985e-07c-0.917318,-0.546326 -1.96433,-0.836739 -3.032,-0.841c-3.31,0 -6,2.69 -6,6c0,3.31 2.69,6 6,6l1.34229e-07,-3.31443e-10c1.57117,-0.00387962 3.07784,-0.625225 4.195,-1.73c0.791,1.095 1.93,1.73 3.305,1.73c2.69,0 4.5,-2.41 4.5,-6c0,-6.62 -5.38,-12 -12,-12" transform="scale(0.8125)" fill="#FFF"></path>
</svg>