<svg xmlns="http://www.w3.org/2000/svg" width="446" height="528" viewBox="0 0 446 528"><title>Group</title><g fill="#FFAE00"><path d="M54.5 0v59.2l201.8.4c101.2 1.5 104 133.8 1.7 133h-42.6v-101h-59.2v101H54v59.2h102.2v101h59.2v-101h27.1s14.2-.1 14.9-.1C438.3 251.8 436.6 0 256.8.3 197.8.4 130.3.3 54.5 0zM24.3 466.5h13.9c9 0 15.1-5.3 15.1-13.5 0-8.6-6.1-13.7-15.1-13.7H24.3v27.2zm16.3 20.4H24.2v38.2H.5V418.8h40.1c21.6 0 36.4 14.2 36.4 34 0 20.1-14.8 34.1-36.4 34.1zm150.7 38.2h-69.6V418.8h23.7v83.7h45.9v22.6zm85.1 2.4c-23.4 0-42.2-14.1-42.2-40.8v-67.9h23.7v66c0 12.9 7.2 19.3 18.5 19.3 11.2 0 18.4-6.4 18.4-19.3v-66h23.7v67.9c0 26.7-18.7 40.8-42.1 40.8zm167.5-82.6l-21.3 6c-.7-5-4.8-13.4-17.7-13.4-8.8 0-14.5 5.6-14.5 11.4 0 5.1 3.1 8.9 10.5 10.2l14.2 2.7c20.3 3.8 30.8 16.8 30.8 32 0 16.6-14 33.6-39.3 33.6-29.4 0-42-19.1-43.5-34.1l21.7-5.2c.9 9.7 7.5 18.3 22.1 18.3 9.3 0 15-4.5 15-11.1 0-5.4-4.4-9.3-11.4-10.7l-14.6-2.7c-18-3.4-28.9-15.4-28.9-31.2 0-20.1 17.7-34.2 38.1-34.2 26.5 0 36.6 15.9 38.8 28.4z"/></g></svg>