<svg xmlns="http://www.w3.org/2000/svg" width="638" height="404" viewBox="0 0 638 404"><path fill="#E7442D" d="M164.2 270.6c.6 1.6.1 2.4-1.6 2.4H142c-.9 0-1.6-.2-2.4-.7-.9-.5-1.4-1-1.6-1.7l-31.2-69L94 217.8v52.6c0 .7-.3 1.3-.9 1.8-.7.5-1.3.8-1.9.8H72.8c-1.8 0-2.6-.9-2.6-2.6V133c0-.7.2-1.3.8-1.9.5-.6 1.1-.9 1.8-.9h18.4c.6 0 1.2.3 1.9.9.6.6.9 1.2.9 1.9v46.6l37.6-47.2c1.2-1.5 2.7-2.2 4.6-2.2h25c1.6 0 1.9.7 1 2.2l-38.6 48.2 40.6 90zm22.7 2.4c-1.9 0-2.8-.9-2.8-2.6V133c0-1.7.9-2.6 2.8-2.6h18.2c1.8 0 2.8.9 2.8 2.6v137.4c0 1.7-1 2.6-2.8 2.6h-18.2zm207.9 0c-.9.1-1.5-.1-2-.7-.6-.6-.8-1.2-.8-1.9V252c0-1.6.9-2.5 2.8-2.8 2.9-.4 5.6-1.3 8.2-2.6 2.5-1.3 4.7-3 6.7-5.1 1.9-2.1 3.4-4.5 4.5-7.2 1-2.7 1.6-5.6 1.6-8.7V178c0-6.4 1.1-12.4 3.5-18 2.3-5.6 5.4-10.5 9.5-14.8 4-4.3 8.7-7.7 14.2-10.3 5.4-2.6 11.3-4.1 17.6-4.5 1.8 0 2.8.9 2.8 2.6v18.4c0 .7-.3 1.3-.8 1.9-.6.6-1.2.9-2 .9-6.1.7-11 3.2-15 7.7-4.1 4.5-6 9.8-6 16.1v47.6c0 6.3-1.2 12.2-3.5 17.8-2.4 5.6-5.5 10.5-9.5 14.8-4.1 4.3-8.8 7.7-14.2 10.3-5.5 2.6-11.4 4.1-17.6 4.5zm175.7-2.4c.6 1.6.1 2.4-1.6 2.4h-20.6c-.9 0-1.6-.2-2.4-.7-.9-.5-1.4-1-1.6-1.7l-31.2-69-12.8 16.2v52.6c0 .7-.3 1.3-.9 1.8-.7.5-1.3.8-1.9.8h-18.4c-1.8 0-2.6-.9-2.6-2.6V133c0-.7.2-1.3.8-1.9.5-.6 1.1-.9 1.8-.9h18.4c.6 0 1.2.3 1.9.9.6.6.9 1.2.9 1.9v46.6l37.6-47.2c1.2-1.5 2.7-2.2 4.6-2.2h25c1.6 0 1.9.7 1 2.2l-38.6 48.2 40.6 90zM307.2 125.5c10.6 0 20.5 2 29.9 6 9.3 4 17.4 9.5 24.4 16.5 6.9 6.9 12.4 15 16.4 24.4 4 9.3 6 19.2 6 29.8 0 10.7-2 20.6-6 29.9-4 9.3-9.5 17.5-16.4 24.4-7 7-15.1 12.5-24.4 16.5-9.4 4-19.3 6-29.9 6-10.6 0-20.6-2-29.9-6-9.3-4-17.5-9.5-24.4-16.5-7-6.9-12.4-15.1-16.5-24.4-4-9.3-6-19.2-6-29.9 0-10.6 2-20.5 6-29.8 4.1-9.4 9.5-17.5 16.5-24.4 6.9-7 15.1-12.5 24.4-16.5 9.3-4 19.3-6 29.9-6zm0 25.6c-7 0-13.7 1.3-19.9 4-6.2 2.6-11.7 6.3-16.2 10.9-4.6 4.7-8.3 10.1-11 16.4-2.7 6.2-4.1 12.8-4.1 19.8 0 7.1 1.4 13.7 4.1 19.9 2.7 6.3 6.4 11.7 11 16.3 4.5 4.6 10 8.2 16.2 10.9 6.2 2.8 12.9 4.1 19.9 4.1 7 0 13.6-1.3 19.9-4.1 6.2-2.7 11.6-6.3 16.2-10.9 4.6-4.6 8.2-10 11-16.3 2.7-6.2 4-12.8 4-19.9 0-7-1.3-13.6-4-19.8-2.8-6.3-6.4-11.7-11-16.4-4.6-4.6-10-8.3-16.2-10.9-6.3-2.7-12.9-4-19.9-4z"/></svg>