<?xml version="1.0" encoding="UTF-8"?>
<svg width="26" height="26" version="1.1" viewBox="0 0 26 26" xmlns="http://www.w3.org/2000/svg" xmlns:xlink="http://www.w3.org/1999/xlink">
    <!--Generated by IJSVG (https://github.com/iconjar/IJSVG)-->
    <path d="M26.5,7h-21h-6.55671e-08c-0.828427,3.62117e-08 -1.5,0.671573 -1.5,1.5c0,0 0,1.77636e-15 0,1.77636e-15v0.869c0,0.305 0.139,0.593 0.377,0.782l10.704,8.526l5.98443e-08,4.80425e-08c0.536869,0.430994 1.30113,0.430994 1.838,-9.60851e-08l10.704,-8.525c0.238,-0.19 0.377,-0.478 0.377,-0.782v-0.87l7.10543e-15,-1.77636e-15c0,-0.828427 -0.671573,-1.5 -1.5,-1.5c-2.22622e-08,0 -3.75821e-08,0 -5.98443e-08,0m1.5,5.168v11.332v0c0,0.828427 -0.671573,1.5 -1.5,1.5h-21h-6.55671e-08c-0.828427,-3.62117e-08 -1.5,-0.671573 -1.5,-1.5c0,0 0,-3.55271e-15 0,-3.55271e-15v-11.332l6.54827e-09,1.11565e-05c-0.000165162,-0.276142 0.223559,-0.500134 0.499701,-0.500299c0.113482,-6.78741e-05 0.223611,0.0384701 0.31229,0.109281l6.078,4.841l-1.82896e-08,-1.46166e-08c0.215718,0.172396 0.250836,0.487025 0.0784399,0.702743c-0.00468322,0.00586005 -0.00949772,0.011614 -0.0144398,0.0172574l-4.95399,5.66201l5.834,-5.105l-3.87544e-08,3.39509e-08c0.181918,-0.15937 0.451826,-0.165686 0.641,-0.0150001l1.983,1.58c0.454,0.36 0.998,0.541 1.542,0.541c0.544,0 1.088,-0.181 1.542,-0.541l1.983,-1.58l8.21738e-09,-6.52318e-09c0.18931,-0.15028 0.458926,-0.143971 0.641,0.015l5.834,5.105l-4.954,-5.662l1.53917e-08,1.76201e-08c-0.181668,-0.20797 -0.160346,-0.523833 0.0476236,-0.705501c0.005682,-0.0049634 0.0114756,-0.00979756 0.0173764,-0.0144988l6.077,-4.841l-1.51467e-08,1.20953e-08c0.215784,-0.172313 0.530399,-0.137072 0.702712,0.078712c0.0708128,0.0886775 0.109353,0.198806 0.109288,0.312288" transform="scale(0.8125)" fill="#FFF"></path>
</svg>