<svg xmlns="http://www.w3.org/2000/svg" width="1061" height="807" viewBox="0 0 1061 807"><title>Nugget</title><path fill="#FFD100" fill-rule="nonzero" d="M1058.2 603.79c-7.14 44.85-32.24 85.81-67.17 114.78-2.42 1.91-4.87 3.81-7.33 5.71 0 0-.13 0-.19.12a184.056 184.056 0 0 1-82.75 35.3c-55.19 8.24-110.924-8.37-166.678-11.26-99.92-5.21-196.206 33.35-294.642 51-98.436 17.66-214.359 7.61-276.678-70.5-.373-.43-.722-.88-1.047-1.35-19.752-25.28-32.253-55.36-47.819-83.51a356.994 356.994 0 0 0-8.354-14.46c-27.686-44.84-68.37-81.57-89.435-129.8a185.748 185.748 0 0 1 1.998-152.04c19.942-42.19 55.012-75.04 89.207-106.78 2.226-2.03 4.377-4.07 6.584-6.1 29.368-27.25 58.761-54.51 88.179-81.8 16.175-14.94 32.349-30.01 49.152-44.29 22.282-18.99 45.402-36.87 70.673-51.65 61.463-36.3 119.881-32.17 186.672-43.49 77.143-13.11 156.15-24.54 231.219 5.17C783.557 36.12 821.18 65.7 858.09 94.81c5.98 4.73 11.95 9.39 17.91 14.13 33.77 26.63 67.44 53.27 100.72 80.53 7.27 5.95 14.59 12.06 21.41 18.57 10.59 10.1 19.99 21.23 26.03 34.45 7.27 15.81 9.11 33.46 10.88 50.73 2.47 24.32 4.94 48.57 7.38 72.77 1.49 14.4 2.9 28.8 4.38 43.13 3.34 32.65 6.66 65.27 9.97 97.85 3.22 32.23 6.49 64.84 1.43 96.82z"/></svg>