<?xml version="1.0" encoding="UTF-8"?>
<svg width="3240px" height="948px" viewBox="0 0 3240 948" version="1.1" xmlns="http://www.w3.org/2000/svg" xmlns:xlink="http://www.w3.org/1999/xlink">
    <title>Pirate-Hein</title>
    <defs>
        <path d="M90.933974,391.176471 L90.9333112,262.5 L90.9333112,262.5 L154.996519,262.5 C204.496519,262.5 240.596715,251.046357 263.297105,228.139072 L263.980894,227.441406 C286.637144,204.06901 297.965269,172.265625 297.965269,132.03125 C297.965269,105.729167 293.147561,82.6822917 283.512144,62.890625 C273.876728,43.0989583 258.577249,27.6692708 237.613707,16.6015625 C216.650165,5.53385417 189.111103,0 154.996519,0 L9.13254891,0 C4.25944817,8.95174082e-16 0.309019497,3.95042868 0.309019497,8.82352941 L0.309019497,391.176471 C0.309019497,396.049571 4.25944817,400 9.13254891,400 L82.1104901,400 C86.9835908,400.000045 90.9340195,396.049617 90.9340195,391.176516 C90.9340195,391.176501 90.9340195,391.176486 90.933974,391.176471 Z" id="path-1"></path>
    </defs>
    <g id="Pirate-Hein" stroke="none" stroke-width="1" fill="none" fill-rule="evenodd" transform="translate(0.000000, 0.000000)">
        <g id="Line" transform="translate(99.083201, 326.000000)" stroke="#181818" stroke-linejoin="round" stroke-width="40">
            <path d="M289.775521,18.2213621 C240.745558,41.8135084 194.483699,53.6609736 150.989942,53.7637577 C107.496186,53.8665418 57.6422577,47.7452492 1.428158,35.3998797" transform="translate(145.601839, 35.993196) rotate(-7.000000) translate(-145.601839, -35.993196) "></path>
        </g>
        <g id="Group-2" transform="translate(196.000000, 150.000000)">
            <g id="Group" transform="translate(0.000000, 124.000000)">
                <mask id="mask-2" fill="white">
                    <use xlink:href="#path-1"></use>
                </mask>
                <use id="Mask" fill="#FFFFFF" fill-rule="nonzero" xlink:href="#path-1"></use>
                <path d="M271.648935,36.2268566 L293.256105,69.8888557 C263.88275,88.7432051 234.851814,102.973619 206.168766,112.523504 L206.168415,139.110104 C206.168415,158.641354 193.839987,192.235104 149.137165,192.235104 C104.434344,192.235104 92.8871653,158.641354 92.8871653,139.110104 L92.887197,129.163623 C63.675967,129.748587 32.1269137,128.464735 -1.77152876,125.325004 L-3.52941176,125.160721 L0.225390882,85.3373423 C56.158476,90.6110711 104.952742,90.6110711 146.548665,85.4039238 C186.153573,80.44602 227.411998,64.411863 270.34735,37.0591902 L271.648935,36.2268566 Z" id="Path" fill="#000000" mask="url(#mask-2)"></path>
            </g>
            <text id="irate-Heijn" font-family="SpaceGrotesk-Bold, Space Grotesk" font-size="550" font-weight="bold" fill="#FFFFFF">
                <tspan x="322" y="522">irate Heijn</tspan>
            </text>
        </g>
    </g>
</svg>