<svg xmlns="http://www.w3.org/2000/svg" xmlns:xlink="http://www.w3.org/1999/xlink" width="507" height="680" viewBox="0 0 507 680"><title>Pirate-Heijn-Logo-Dark</title><defs><path id="a" d="M154.55 665V446.25h108.907c84.15 0 145.52-19.471 184.111-58.414l1.163-1.186c38.515-39.733 57.773-93.798 57.773-162.197 0-44.713-8.19-83.893-24.57-117.539-16.38-33.646-42.39-59.876-78.028-78.691C368.268 9.408 321.452 0 263.457 0H15.488c-8.284 0-15 6.716-15 15v650c0 8.284 6.716 15 15 15h124.063c8.284 0 15-6.716 15-15zm195.9-486.42v57.907c0 33.203-20.959 90.313-96.954 90.313-75.994 0-95.625-57.11-95.625-90.313l-.002-57.907h192.58z"/></defs><g fill="none" fill-rule="evenodd"><path fill="#181818" d="M99.516 69.7h324.7v275.4h-324.7z"/><g transform="translate(.5)"><mask id="b" fill="#fff"><use xlink:href="#a"/></mask><use fill="#FF8A00" fill-rule="nonzero" xlink:href="#a"/><path fill="#181818" fill-rule="nonzero" d="M471.076 88.739l29.485 61.275c-87.695 42.197-171.258 63.597-250.598 63.784-75.848.18-162.043-10.309-258.696-31.368l-2.932-.642L2.92 115.371c93.285 20.487 175.617 30.596 246.882 30.427 67.853-.16 140.792-18.667 218.905-55.925l2.368-1.134z" mask="url(#b)" transform="rotate(-7 244.448 151.27)"/></g></g></svg>