<svg xmlns="http://www.w3.org/2000/svg" xmlns:xlink="http://www.w3.org/1999/xlink" width="1024" height="1024" viewBox="0 0 1024 1024"><title>Pirate-Heijn-App</title><defs><path id="a" d="M154.588 665l-.001-218.75h108.907c84.15 0 145.52-19.471 184.111-58.414l1.163-1.186c38.515-39.733 57.773-93.798 57.773-162.197 0-44.713-8.19-83.893-24.57-117.539-16.38-33.646-42.39-59.876-78.028-78.691C368.305 9.408 321.49 0 263.494 0H15.525c-8.284 0-15 6.716-15 15v650c0 8.284 6.716 15 15 15h124.063c8.284 0 15-6.716 15-15z"/></defs><g fill="none" fill-rule="evenodd"><path fill="#FF8A00" stroke="#000" stroke-opacity=".101" stroke-width="23" d="M335.869 11.5h352.262c113.532 0 154.863 11.415 196.412 33.635 40.663 21.747 72.575 53.659 94.322 94.322 22.22 41.549 33.635 82.88 33.635 196.412h0v352.262c0 113.532-11.415 154.863-33.635 196.412-21.747 40.663-53.659 72.575-94.322 94.322-41.549 22.22-82.88 33.635-196.412 33.635h0-352.262c-113.532 0-154.863-11.415-196.412-33.635-40.663-21.747-72.575-53.659-94.322-94.322-22.22-41.549-33.635-82.88-33.635-196.412h0V335.869c0-113.532 11.415-154.863 33.635-196.412 21.747-40.663 53.659-72.575 94.322-94.322 41.549-22.22 82.88-33.635 196.412-33.635h0z"/><g transform="translate(293.463 172)"><mask id="b" fill="#fff"><use xlink:href="#a"/></mask><use fill="#FFF" fill-rule="nonzero" xlink:href="#a"/><path fill="#000" d="M461.803 61.586l36.732 57.225c-49.934 32.052-99.287 56.244-148.048 72.479v45.197c0 33.203-20.959 90.313-96.954 90.313-75.995 0-95.625-57.11-95.625-90.313v-16.909c-49.659.995-103.292-1.188-160.92-6.525l-2.988-.28 6.383-67.7c95.086 8.966 178.037 8.966 248.75.114C316.46 136.758 386.6 109.5 459.59 63l2.213-1.415z" mask="url(#b)"/></g></g></svg>