<?xml version="1.0" encoding="UTF-8"?>
<svg width="1024px" height="1024px" viewBox="0 0 1024 1024" version="1.1" xmlns="http://www.w3.org/2000/svg" xmlns:xlink="http://www.w3.org/1999/xlink">
    <title>Pirate-Heijn-App-Dark</title>
    <defs>
        <path d="M154.587756,665 L154.586629,446.25 L154.586629,446.25 L263.494083,446.25 C347.644083,446.25 409.014415,426.778808 447.605079,387.836423 L448.767521,386.650391 C487.283146,346.917318 506.540958,292.851562 506.540958,224.453125 C506.540958,179.739583 498.350854,140.559896 481.970646,106.914062 C465.590437,73.2682292 439.581323,47.0377604 403.943302,28.2226562 C368.305281,9.40755208 321.488875,0 263.494083,0 L15.5253331,0 C7.2410619,3.29815278e-15 0.525333145,6.71572875 0.525333145,15 L0.525333145,665 C0.525333145,673.284271 7.2410619,680 15.5253331,680 L139.587833,680 C147.872104,680.000077 154.587833,673.284349 154.587833,665.000077 C154.587833,665.000052 154.587833,665.000026 154.587756,665 Z" id="path-1"></path>
    </defs>
    <g id="Pirate-Heijn-App-Dark" stroke="none" stroke-width="1" fill="none" fill-rule="evenodd">
        <path d="M335.868961,11.5 L688.131039,11.5 C801.663226,11.5 842.994366,22.9145694 884.5434,45.135236 C925.205966,66.8818142 957.118186,98.7940338 978.864764,139.4566 C1001.08543,181.005634 1012.5,222.336774 1012.5,335.868961 L1012.5,335.868961 L1012.5,688.131039 C1012.5,801.663226 1001.08543,842.994366 978.864764,884.5434 C957.118186,925.205966 925.205966,957.118186 884.5434,978.864764 C842.994366,1001.08543 801.663226,1012.5 688.131039,1012.5 L688.131039,1012.5 L335.868961,1012.5 C222.336774,1012.5 181.005634,1001.08543 139.4566,978.864764 C98.7940338,957.118186 66.8818142,925.205966 45.135236,884.5434 C22.9145694,842.994366 11.5,801.663226 11.5,688.131039 L11.5,688.131039 L11.5,335.868961 C11.5,222.336774 22.9145694,181.005634 45.135236,139.4566 C66.8818142,98.7940338 98.7940338,66.8818142 139.4566,45.135236 C181.005634,22.9145694 222.336774,11.5 335.868961,11.5 L335.868961,11.5 Z" id="Rectangle" stroke-opacity="0.100524476" stroke="#000000" stroke-width="23" fill="#000000"></path>
        <g id="Group" transform="translate(293.463148, 172.000000)">
            <mask id="mask-2" fill="white">
                <use xlink:href="#path-1"></use>
            </mask>
            <use id="Mask" fill="#FF8A00" fill-rule="nonzero" xlink:href="#path-1"></use>
            <path d="M461.803189,61.5856563 L498.535379,118.811055 C448.600676,150.863449 399.248085,175.055152 350.486903,191.289957 L350.486306,236.487177 C350.486306,269.690302 329.527978,326.799677 253.533181,326.799677 C177.538384,326.799677 157.908181,269.690302 157.908181,236.487177 L157.908235,219.57816 C108.249144,220.572598 54.6157533,218.390049 -3.01159889,213.052506 L-6,212.773225 L0.3831645,145.073482 C95.4694092,154.038821 178.419662,154.038821 249.132731,145.186671 C316.461075,136.758234 386.600397,109.500167 459.590495,63.0006234 L461.803189,61.5856563 Z" id="Path" fill="#000000" mask="url(#mask-2)"></path>
        </g>
    </g>
</svg>