<svg xmlns="http://www.w3.org/2000/svg" xmlns:xlink="http://www.w3.org/1999/xlink" width="2821" height="510" viewBox="0 0 2821 510"><title>Pirate-Heijn-Orange</title><defs><path id="a" d="M90.934 391.176V262.5h64.063c49.5 0 85.6-11.454 108.3-34.36l.684-.699c22.656-23.372 33.984-55.175 33.984-95.41 0-26.302-4.817-49.349-14.453-69.14-9.635-19.792-24.935-35.222-45.898-46.29C216.65 5.535 189.11 0 154.997 0H9.133A8.824 8.824 0 0 0 .309 8.824v382.352A8.824 8.824 0 0 0 9.133 400H82.11a8.823 8.823 0 0 0 8.824-8.823z"/></defs><g fill="none" fill-rule="evenodd"><g transform="translate(0 2)"><mask id="b" fill="#fff"><use xlink:href="#a"/></mask><use fill="#FF8A00" fill-rule="nonzero" xlink:href="#a"/><path fill="#000" d="M271.649 36.227l21.607 33.662c-29.373 18.854-58.404 33.085-87.087 42.635v26.586c0 19.531-12.329 53.125-57.032 53.125-44.703 0-56.25-33.594-56.25-53.125v-9.946c-29.211.585-60.76-.7-94.659-3.839l-1.757-.164L.225 85.337c55.933 5.274 104.728 5.274 146.324.067 39.605-4.958 80.863-20.992 123.798-48.345l1.302-.832z" mask="url(#b)"/></g><path fill="#FF8A00" fill-rule="nonzero" d="M387.45 95.3c13.933 0 25.575-4.4 34.925-13.2 9.35-8.8 14.025-20.167 14.025-34.1s-4.675-25.3-14.025-34.1C413.025 5.1 401.383.7 387.45.7c-13.933 0-25.575 4.4-34.925 13.2-9.35 8.8-14.025 20.167-14.025 34.1s4.675 25.3 14.025 34.1c9.35 8.8 20.992 13.2 34.925 13.2zM422.1 400V127.2h-69.3V400h69.3zm130.9 0V241.6c0-18.7 5.5-32.908 16.5-42.625 11-9.717 25.667-14.575 44-14.575h40.7v-58.3h-28.6c-17.967 0-32.542 3.117-43.725 9.35s-19.342 16.317-24.475 30.25h-5.5v-38.5h-68.2V400H553zm220.55 7.7c22 0 38.775-4.217 50.325-12.65 11.55-8.433 19.342-17.417 23.375-26.95h7.7V400h66V224.55c0-33.733-10.358-59.675-31.075-77.825-20.717-18.15-49.225-27.225-85.525-27.225-33.367 0-60.042 7.15-80.025 21.45-19.983 14.3-33.642 32.817-40.975 55.55l63.8 21.45c2.567-13.2 8.433-23.742 17.6-31.625 9.167-7.883 22-11.825 38.5-11.825 16.867 0 29.517 4.125 37.95 12.375 8.433 8.25 12.65 19.158 12.65 32.725V235h-74.8c-31.9 0-57.475 7.425-76.725 22.275-19.25 14.85-28.875 35.842-28.875 62.975 0 27.133 9.442 48.492 28.325 64.075 18.883 15.583 42.808 23.375 71.775 23.375zm14.3-56.1c-14.3 0-25.392-3.025-33.275-9.075-7.883-6.05-11.825-14.025-11.825-23.925 0-9.533 3.667-17.233 11-23.1 7.333-5.867 17.417-8.8 30.25-8.8h69.85v4.4c0 17.967-6.142 32.542-18.425 43.725-12.283 11.183-28.142 16.775-47.575 16.775zm363 48.4v-56.1h-52.8c-10.267 0-15.4-5.5-15.4-16.5V183.3h74.8v-56.1h-74.8V42.5h-69.3v84.7h-68.2v56.1h68.2v155.1c0 18.7 5.5 33.642 16.5 44.825s25.667 16.775 44 16.775h77zm168.85 7.7c56.467 0 97.35-23.833 122.65-71.5l-56.65-29.7c-5.5 12.467-13.108 22.55-22.825 30.25-9.717 7.7-23.375 11.55-40.975 11.55-19.433 0-35.658-6.05-48.675-18.15-13.017-12.1-19.892-27.5-20.625-46.2h198.55V260.3c0-27.5-5.5-51.975-16.5-73.425-11-21.45-26.492-38.042-46.475-49.775-19.983-11.733-43.175-17.6-69.575-17.6-26.767 0-50.508 5.958-71.225 17.875-20.717 11.917-36.85 28.783-48.4 50.6-11.55 21.817-17.325 47.025-17.325 75.625s5.867 53.808 17.6 75.625 28.05 38.683 48.95 50.6c20.9 11.917 44.733 17.875 71.5 17.875zm61.05-175.45h-127.6c2.2-15.767 9.075-28.6 20.625-38.5 11.55-9.9 26.308-14.85 44.275-14.85 17.6 0 31.992 4.95 43.175 14.85 11.183 9.9 17.692 22.733 19.525 38.5zM1716.25 400V239.95h145.2V400h72.6V15h-72.6v158.95h-145.2V15h-72.6v385h72.6zm402.05 7.7c56.467 0 97.35-23.833 122.65-71.5l-56.65-29.7c-5.5 12.467-13.108 22.55-22.825 30.25-9.717 7.7-23.375 11.55-40.975 11.55-19.433 0-35.658-6.05-48.675-18.15-13.017-12.1-19.892-27.5-20.625-46.2h198.55V260.3c0-27.5-5.5-51.975-16.5-73.425-11-21.45-26.492-38.042-46.475-49.775-19.983-11.733-43.175-17.6-69.575-17.6-26.767 0-50.508 5.958-71.225 17.875-20.717 11.917-36.85 28.783-48.4 50.6-11.55 21.817-17.325 47.025-17.325 75.625s5.867 53.808 17.6 75.625 28.05 38.683 48.95 50.6c20.9 11.917 44.733 17.875 71.5 17.875zm61.05-175.45h-127.6c2.2-15.767 9.075-28.6 20.625-38.5 11.55-9.9 26.308-14.85 44.275-14.85 17.6 0 31.992 4.95 43.175 14.85 11.183 9.9 17.692 22.733 19.525 38.5zM2327.3 95.3c13.933 0 25.575-4.4 34.925-13.2 9.35-8.8 14.025-20.167 14.025-34.1s-4.675-25.3-14.025-34.1C2352.875 5.1 2341.233.7 2327.3.7c-13.933 0-25.575 4.4-34.925 13.2-9.35 8.8-14.025 20.167-14.025 34.1s4.675 25.3 14.025 34.1c9.35 8.8 20.992 13.2 34.925 13.2zm34.65 304.7V127.2h-69.3V400h69.3zm98.45-304.7c13.933 0 25.575-4.4 34.925-13.2 9.35-8.8 14.025-20.167 14.025-34.1s-4.675-25.3-14.025-34.1C2485.975 5.1 2474.333.7 2460.4.7c-13.933 0-25.575 4.4-34.925 13.2-9.35 8.8-14.025 20.167-14.025 34.1s4.675 25.3 14.025 34.1c9.35 8.8 20.992 13.2 34.925 13.2zM2434.55 510c18.333 0 33-5.592 44-16.775s16.5-26.125 16.5-44.825V127.2h-69.3v310.2c0 11-5.133 16.5-15.4 16.5h-47.3V510h71.5zm191.4-110V259.2c0-25.3 5.867-45.008 17.6-59.125 11.733-14.117 28.233-21.175 49.5-21.175 19.067 0 33.55 5.133 43.45 15.4 9.9 10.267 14.85 25.667 14.85 46.2V400h69.3V237.2c0-22.367-4.4-42.167-13.2-59.4-8.8-17.233-21.267-30.708-37.4-40.425-16.133-9.717-34.65-14.575-55.55-14.575-41.8 0-69.85 15.033-84.15 45.1h-5.5v-40.7h-68.2V400h69.3z"/></g></svg>