<?xml version="1.0" encoding="UTF-8"?>
<svg width="2821px" height="510px" viewBox="0 0 2821 510" version="1.1" xmlns="http://www.w3.org/2000/svg" xmlns:xlink="http://www.w3.org/1999/xlink">
    <title>Pirate-Heijn</title>
    <defs>
        <path d="M90.933974,391.176471 L90.9333112,262.5 L90.9333112,262.5 L154.996519,262.5 C204.496519,262.5 240.596715,251.046357 263.297105,228.139072 L263.980894,227.441406 C286.637144,204.06901 297.965269,172.265625 297.965269,132.03125 C297.965269,105.729167 293.147561,82.6822917 283.512144,62.890625 C273.876728,43.0989583 258.577249,27.6692708 237.613707,16.6015625 C216.650165,5.53385417 189.111103,0 154.996519,0 L9.13254891,0 C4.25944817,8.95174082e-16 0.309019497,3.95042868 0.309019497,8.82352941 L0.309019497,391.176471 C0.309019497,396.049571 4.25944817,400 9.13254891,400 L82.1104901,400 C86.9835908,400.000045 90.9340195,396.049617 90.9340195,391.176516 C90.9340195,391.176501 90.9340195,391.176486 90.933974,391.176471 Z" id="path-1"></path>
    </defs>
    <g id="Pirate-Heijn" stroke="none" stroke-width="1" fill="none" fill-rule="evenodd">
        <g id="Group-2" transform="translate(0.000000, -122.000000)">
            <g id="Group" transform="translate(0.000000, 124.000000)">
                <mask id="mask-2" fill="white">
                    <use xlink:href="#path-1"></use>
                </mask>
                <use id="Mask" fill="#FFFFFF" fill-rule="nonzero" xlink:href="#path-1"></use>
                <path d="M271.648935,36.2268566 L293.256105,69.8888557 C263.88275,88.7432051 234.851814,102.973619 206.168766,112.523504 L206.168415,139.110104 C206.168415,158.641354 193.839987,192.235104 149.137165,192.235104 C104.434344,192.235104 92.8871653,158.641354 92.8871653,139.110104 L92.887197,129.163623 C63.675967,129.748587 32.1269137,128.464735 -1.77152876,125.325004 L-3.52941176,125.160721 L0.225390882,85.3373423 C56.158476,90.6110711 104.952742,90.6110711 146.548665,85.4039238 C186.153573,80.44602 227.411998,64.411863 270.34735,37.0591902 L271.648935,36.2268566 Z" id="Path" fill="#000000" mask="url(#mask-2)"></path>
            </g>
            <path d="M387.45,217.3 C401.383333,217.3 413.025,212.9 422.375,204.1 C431.725,195.3 436.4,183.933333 436.4,170 C436.4,156.066667 431.725,144.7 422.375,135.9 C413.025,127.1 401.383333,122.7 387.45,122.7 C373.516667,122.7 361.875,127.1 352.525,135.9 C343.175,144.7 338.5,156.066667 338.5,170 C338.5,183.933333 343.175,195.3 352.525,204.1 C361.875,212.9 373.516667,217.3 387.45,217.3 Z M422.1,522 L422.1,249.2 L352.8,249.2 L352.8,522 L422.1,522 Z M553,522 L553,363.6 C553,344.9 558.5,330.691667 569.5,320.975 C580.5,311.258333 595.166667,306.4 613.5,306.4 L613.5,306.4 L654.2,306.4 L654.2,248.1 L625.6,248.1 C607.633333,248.1 593.058333,251.216667 581.875,257.45 C570.691667,263.683333 562.533333,273.766667 557.4,287.7 L557.4,287.7 L551.9,287.7 L551.9,249.2 L483.7,249.2 L483.7,522 L553,522 Z M773.55,529.7 C795.55,529.7 812.325,525.483333 823.875,517.05 C835.425,508.616667 843.216667,499.633333 847.25,490.1 L847.25,490.1 L854.95,490.1 L854.95,522 L920.95,522 L920.95,346.55 C920.95,312.816667 910.591667,286.875 889.875,268.725 C869.158333,250.575 840.65,241.5 804.35,241.5 C770.983333,241.5 744.308333,248.65 724.325,262.95 C704.341667,277.25 690.683333,295.766667 683.35,318.5 L683.35,318.5 L747.15,339.95 C749.716667,326.75 755.583333,316.208333 764.75,308.325 C773.916667,300.441667 786.75,296.5 803.25,296.5 C820.116667,296.5 832.766667,300.625 841.2,308.875 C849.633333,317.125 853.85,328.033333 853.85,341.6 L853.85,341.6 L853.85,357 L779.05,357 C747.15,357 721.575,364.425 702.325,379.275 C683.075,394.125 673.45,415.116667 673.45,442.25 C673.45,469.383333 682.891667,490.741667 701.775,506.325 C720.658333,521.908333 744.583333,529.7 773.55,529.7 Z M787.85,473.6 C773.55,473.6 762.458333,470.575 754.575,464.525 C746.691667,458.475 742.75,450.5 742.75,440.6 C742.75,431.066667 746.416667,423.366667 753.75,417.5 C761.083333,411.633333 771.166667,408.7 784,408.7 L784,408.7 L853.85,408.7 L853.85,413.1 C853.85,431.066667 847.708333,445.641667 835.425,456.825 C823.141667,468.008333 807.283333,473.6 787.85,473.6 Z M1150.85,522 L1150.85,465.9 L1098.05,465.9 C1087.78333,465.9 1082.65,460.4 1082.65,449.4 L1082.65,449.4 L1082.65,305.3 L1157.45,305.3 L1157.45,249.2 L1082.65,249.2 L1082.65,164.5 L1013.35,164.5 L1013.35,249.2 L945.15,249.2 L945.15,305.3 L1013.35,305.3 L1013.35,460.4 C1013.35,479.1 1018.85,494.041667 1029.85,505.225 C1040.85,516.408333 1055.51667,522 1073.85,522 L1073.85,522 L1150.85,522 Z M1319.7,529.7 C1376.16667,529.7 1417.05,505.866667 1442.35,458.2 L1442.35,458.2 L1385.7,428.5 C1380.2,440.966667 1372.59167,451.05 1362.875,458.75 C1353.15833,466.45 1339.5,470.3 1321.9,470.3 C1302.46667,470.3 1286.24167,464.25 1273.225,452.15 C1260.20833,440.05 1253.33333,424.65 1252.6,405.95 L1252.6,405.95 L1451.15,405.95 L1451.15,382.3 C1451.15,354.8 1445.65,330.325 1434.65,308.875 C1423.65,287.425 1408.15833,270.833333 1388.175,259.1 C1368.19167,247.366667 1345,241.5 1318.6,241.5 C1291.83333,241.5 1268.09167,247.458333 1247.375,259.375 C1226.65833,271.291667 1210.525,288.158333 1198.975,309.975 C1187.425,331.791667 1181.65,357 1181.65,385.6 C1181.65,414.2 1187.51667,439.408333 1199.25,461.225 C1210.98333,483.041667 1227.3,499.908333 1248.2,511.825 C1269.1,523.741667 1292.93333,529.7 1319.7,529.7 Z M1380.75,354.25 L1253.15,354.25 C1255.35,338.483333 1262.225,325.65 1273.775,315.75 C1285.325,305.85 1300.08333,300.9 1318.05,300.9 C1335.65,300.9 1350.04167,305.85 1361.225,315.75 C1372.40833,325.65 1378.91667,338.483333 1380.75,354.25 L1380.75,354.25 Z M1716.25,522 L1716.25,361.95 L1861.45,361.95 L1861.45,522 L1934.05,522 L1934.05,137 L1861.45,137 L1861.45,295.95 L1716.25,295.95 L1716.25,137 L1643.65,137 L1643.65,522 L1716.25,522 Z M2118.3,529.7 C2174.76667,529.7 2215.65,505.866667 2240.95,458.2 L2240.95,458.2 L2184.3,428.5 C2178.8,440.966667 2171.19167,451.05 2161.475,458.75 C2151.75833,466.45 2138.1,470.3 2120.5,470.3 C2101.06667,470.3 2084.84167,464.25 2071.825,452.15 C2058.80833,440.05 2051.93333,424.65 2051.2,405.95 L2051.2,405.95 L2249.75,405.95 L2249.75,382.3 C2249.75,354.8 2244.25,330.325 2233.25,308.875 C2222.25,287.425 2206.75833,270.833333 2186.775,259.1 C2166.79167,247.366667 2143.6,241.5 2117.2,241.5 C2090.43333,241.5 2066.69167,247.458333 2045.975,259.375 C2025.25833,271.291667 2009.125,288.158333 1997.575,309.975 C1986.025,331.791667 1980.25,357 1980.25,385.6 C1980.25,414.2 1986.11667,439.408333 1997.85,461.225 C2009.58333,483.041667 2025.9,499.908333 2046.8,511.825 C2067.7,523.741667 2091.53333,529.7 2118.3,529.7 Z M2179.35,354.25 L2051.75,354.25 C2053.95,338.483333 2060.825,325.65 2072.375,315.75 C2083.925,305.85 2098.68333,300.9 2116.65,300.9 C2134.25,300.9 2148.64167,305.85 2159.825,315.75 C2171.00833,325.65 2177.51667,338.483333 2179.35,354.25 L2179.35,354.25 Z M2327.3,217.3 C2341.23333,217.3 2352.875,212.9 2362.225,204.1 C2371.575,195.3 2376.25,183.933333 2376.25,170 C2376.25,156.066667 2371.575,144.7 2362.225,135.9 C2352.875,127.1 2341.23333,122.7 2327.3,122.7 C2313.36667,122.7 2301.725,127.1 2292.375,135.9 C2283.025,144.7 2278.35,156.066667 2278.35,170 C2278.35,183.933333 2283.025,195.3 2292.375,204.1 C2301.725,212.9 2313.36667,217.3 2327.3,217.3 Z M2361.95,522 L2361.95,249.2 L2292.65,249.2 L2292.65,522 L2361.95,522 Z M2460.4,217.3 C2474.33333,217.3 2485.975,212.9 2495.325,204.1 C2504.675,195.3 2509.35,183.933333 2509.35,170 C2509.35,156.066667 2504.675,144.7 2495.325,135.9 C2485.975,127.1 2474.33333,122.7 2460.4,122.7 C2446.46667,122.7 2434.825,127.1 2425.475,135.9 C2416.125,144.7 2411.45,156.066667 2411.45,170 C2411.45,183.933333 2416.125,195.3 2425.475,204.1 C2434.825,212.9 2446.46667,217.3 2460.4,217.3 Z M2434.55,632 C2452.88333,632 2467.55,626.408333 2478.55,615.225 C2489.55,604.041667 2495.05,589.1 2495.05,570.4 L2495.05,570.4 L2495.05,249.2 L2425.75,249.2 L2425.75,559.4 C2425.75,570.4 2420.61667,575.9 2410.35,575.9 L2410.35,575.9 L2363.05,575.9 L2363.05,632 L2434.55,632 Z M2625.95,522 L2625.95,381.2 C2625.95,355.9 2631.81667,336.191667 2643.55,322.075 C2655.28333,307.958333 2671.78333,300.9 2693.05,300.9 C2712.11667,300.9 2726.6,306.033333 2736.5,316.3 C2746.4,326.566667 2751.35,341.966667 2751.35,362.5 L2751.35,362.5 L2751.35,522 L2820.65,522 L2820.65,359.2 C2820.65,336.833333 2816.25,317.033333 2807.45,299.8 C2798.65,282.566667 2786.18333,269.091667 2770.05,259.375 C2753.91667,249.658333 2735.4,244.8 2714.5,244.8 C2672.7,244.8 2644.65,259.833333 2630.35,289.9 L2630.35,289.9 L2624.85,289.9 L2624.85,249.2 L2556.65,249.2 L2556.65,522 L2625.95,522 Z" id="irateHeijn" fill="#FFFFFF" fill-rule="nonzero"></path>
        </g>
    </g>
</svg>