<?xml version="1.0" encoding="UTF-8"?>
<svg width="507px" height="680px" viewBox="0 0 507 680" version="1.1" xmlns="http://www.w3.org/2000/svg" xmlns:xlink="http://www.w3.org/1999/xlink">
    <title>Pirate-Heijn-Logo-Dark</title>
    <defs>
        <path d="M154.550904,665 L154.549777,446.25 L154.549777,446.25 L263.457231,446.25 C347.607231,446.25 408.977563,426.778808 447.568227,387.836423 L448.730669,386.650391 C487.246294,346.917318 506.504106,292.851562 506.504106,224.453125 C506.504106,179.739583 498.314002,140.559896 481.933794,106.914062 C465.553585,73.2682292 439.544471,47.0377604 403.90645,28.2226562 C368.268429,9.40755208 321.452023,0 263.457231,0 L15.4884813,0 C7.20421004,3.29815278e-15 0.488481291,6.71572875 0.488481291,15 L0.488481291,665 C0.488481291,673.284271 7.20421004,680 15.4884813,680 L139.550981,680 C147.835253,680.000077 154.550981,673.284349 154.550981,665.000077 C154.550981,665.000052 154.550981,665.000026 154.550904,665 Z M350.449454,178.579723 L350.449454,236.487177 C350.449454,269.690302 329.491126,326.799677 253.496329,326.799677 C177.501532,326.799677 157.871329,269.690302 157.871329,236.487177 L157.869094,178.579723 L350.449454,178.579723 Z" id="path-1"></path>
    </defs>
    <g id="Pirate-Heijn-Logo-Dark" stroke="none" stroke-width="1" fill="none" fill-rule="evenodd">
        <g id="Group" transform="translate(0.500000, 0.000000)">
            <rect id="Rectangle" fill="#181818" x="99.0158771" y="69.7" width="324.7" height="275.4"></rect>
            <g id="Line">
                <mask id="mask-2" fill="white">
                    <use xlink:href="#path-1"></use>
                </mask>
                <use id="Mask" fill="#FF8A00" fill-rule="nonzero" xlink:href="#path-1"></use>
                <path d="M471.076199,88.7386272 L500.560571,150.014004 C412.866229,192.210605 329.302976,213.610798 249.96325,213.798293 C174.115409,213.977536 87.9202393,203.489022 -8.7330955,182.429793 L-11.6651857,181.788399 L2.9209229,115.371192 C96.2058092,135.857803 178.537763,145.966895 249.802554,145.798483 C317.65621,145.638132 390.594647,127.131076 468.707557,89.8733879 L471.076199,88.7386272 Z" fill="#181818" fill-rule="nonzero" mask="url(#mask-2)" transform="translate(244.447693, 151.269590) rotate(-7.000000) translate(-244.447693, -151.269590) "></path>
            </g>
        </g>
    </g>
</svg>