<?xml version="1.0" encoding="UTF-8"?>
<svg width="507px" height="680px" viewBox="0 0 507 680" version="1.1" xmlns="http://www.w3.org/2000/svg" xmlns:xlink="http://www.w3.org/1999/xlink">
    <title>Pirate-Heijn-Logo-Light</title>
    <defs>
        <path d="M155.050904,665 L155.049777,446.25 L155.049777,446.25 L263.957231,446.25 C348.107231,446.25 409.477563,426.778808 448.068227,387.836423 L449.230669,386.650391 C487.746294,346.917318 507.004106,292.851562 507.004106,224.453125 C507.004106,179.739583 498.814002,140.559896 482.433794,106.914062 C466.053585,73.2682292 440.044471,47.0377604 404.40645,28.2226562 C368.768429,9.40755208 321.952023,0 263.957231,0 L15.9884813,0 C7.70421004,3.29815278e-15 0.988481291,6.71572875 0.988481291,15 L0.988481291,665 C0.988481291,673.284271 7.70421004,680 15.9884813,680 L140.050981,680 C148.335253,680.000077 155.050981,673.284349 155.050981,665.000077 C155.050981,665.000052 155.050981,665.000026 155.050904,665 Z" id="path-1"></path>
    </defs>
    <g id="Pirate-Heijn-Logo-Light" stroke="none" stroke-width="1" fill="none" fill-rule="evenodd">
        <mask id="mask-2" fill="white">
            <use xlink:href="#path-1"></use>
        </mask>
        <use id="Mask" fill="#FFFFFF" fill-rule="nonzero" xlink:href="#path-1"></use>
        <path d="M462.266337,61.5856563 L498.998527,118.811055 C449.063824,150.863449 399.711233,175.055152 350.950051,191.289957 L350.949454,236.487177 C350.949454,269.690302 329.991126,326.799677 253.996329,326.799677 C178.001532,326.799677 158.371329,269.690302 158.371329,236.487177 L158.371383,219.57816 C108.712292,220.572598 55.0789015,218.390049 -2.54845075,213.052506 L-5.53685185,212.773225 L0.846312646,145.073482 C95.9325573,154.038821 178.88281,154.038821 249.595879,145.186671 C316.924223,136.758234 387.063545,109.500167 460.053644,63.0006234 L462.266337,61.5856563 Z" id="Path" fill="#000000" mask="url(#mask-2)"></path>
    </g>
</svg>