<?xml version="1.0" encoding="UTF-8"?>
<svg width="2821px" height="510px" viewBox="0 0 2821 510" version="1.1" xmlns="http://www.w3.org/2000/svg" xmlns:xlink="http://www.w3.org/1999/xlink">
    <title>Pirate-Heijn-Orange</title>
    <defs>
        <path d="M90.933974,391.176471 L90.9333112,262.5 L90.9333112,262.5 L154.996519,262.5 C204.496519,262.5 240.596715,251.046357 263.297105,228.139072 L263.980894,227.441406 C286.637144,204.06901 297.965269,172.265625 297.965269,132.03125 C297.965269,105.729167 293.147561,82.6822917 283.512144,62.890625 C273.876728,43.0989583 258.577249,27.6692708 237.613707,16.6015625 C216.650165,5.53385417 189.111103,0 154.996519,0 L9.13254891,0 C4.25944817,8.95174082e-16 0.309019497,3.95042868 0.309019497,8.82352941 L0.309019497,391.176471 C0.309019497,396.049571 4.25944817,400 9.13254891,400 L82.1104901,400 C86.9835908,400.000045 90.9340195,396.049617 90.9340195,391.176516 C90.9340195,391.176501 90.9340195,391.176486 90.933974,391.176471 Z" id="path-1"></path>
    </defs>
    <g id="Pirate-Heijn-Orange" stroke="none" stroke-width="1" fill="none" fill-rule="evenodd">
        <g id="Group-2">
            <g id="Group" transform="translate(0.000000, 2.000000)">
                <mask id="mask-2" fill="white">
                    <use xlink:href="#path-1"></use>
                </mask>
                <use id="Mask" fill="#FF8A00" fill-rule="nonzero" xlink:href="#path-1"></use>
                <path d="M271.648935,36.2268566 L293.256105,69.8888557 C263.88275,88.7432051 234.851814,102.973619 206.168766,112.523504 L206.168415,139.110104 C206.168415,158.641354 193.839987,192.235104 149.137165,192.235104 C104.434344,192.235104 92.8871653,158.641354 92.8871653,139.110104 L92.887197,129.163623 C63.675967,129.748587 32.1269137,128.464735 -1.77152876,125.325004 L-3.52941176,125.160721 L0.225390882,85.3373423 C56.158476,90.6110711 104.952742,90.6110711 146.548665,85.4039238 C186.153573,80.44602 227.411998,64.411863 270.34735,37.0591902 L271.648935,36.2268566 Z" id="Path" fill="#000000" mask="url(#mask-2)"></path>
            </g>
            <path d="M387.45,95.3 C401.383333,95.3 413.025,90.9 422.375,82.1 C431.725,73.3 436.4,61.9333333 436.4,48 C436.4,34.0666667 431.725,22.7 422.375,13.9 C413.025,5.1 401.383333,0.7 387.45,0.7 C373.516667,0.7 361.875,5.1 352.525,13.9 C343.175,22.7 338.5,34.0666667 338.5,48 C338.5,61.9333333 343.175,73.3 352.525,82.1 C361.875,90.9 373.516667,95.3 387.45,95.3 Z M422.1,400 L422.1,127.2 L352.8,127.2 L352.8,400 L422.1,400 Z M553,400 L553,241.6 C553,222.9 558.5,208.691667 569.5,198.975 C580.5,189.258333 595.166667,184.4 613.5,184.4 L613.5,184.4 L654.2,184.4 L654.2,126.1 L625.6,126.1 C607.633333,126.1 593.058333,129.216667 581.875,135.45 C570.691667,141.683333 562.533333,151.766667 557.4,165.7 L557.4,165.7 L551.9,165.7 L551.9,127.2 L483.7,127.2 L483.7,400 L553,400 Z M773.55,407.7 C795.55,407.7 812.325,403.483333 823.875,395.05 C835.425,386.616667 843.216667,377.633333 847.25,368.1 L847.25,368.1 L854.95,368.1 L854.95,400 L920.95,400 L920.95,224.55 C920.95,190.816667 910.591667,164.875 889.875,146.725 C869.158333,128.575 840.65,119.5 804.35,119.5 C770.983333,119.5 744.308333,126.65 724.325,140.95 C704.341667,155.25 690.683333,173.766667 683.35,196.5 L683.35,196.5 L747.15,217.95 C749.716667,204.75 755.583333,194.208333 764.75,186.325 C773.916667,178.441667 786.75,174.5 803.25,174.5 C820.116667,174.5 832.766667,178.625 841.2,186.875 C849.633333,195.125 853.85,206.033333 853.85,219.6 L853.85,219.6 L853.85,235 L779.05,235 C747.15,235 721.575,242.425 702.325,257.275 C683.075,272.125 673.45,293.116667 673.45,320.25 C673.45,347.383333 682.891667,368.741667 701.775,384.325 C720.658333,399.908333 744.583333,407.7 773.55,407.7 Z M787.85,351.6 C773.55,351.6 762.458333,348.575 754.575,342.525 C746.691667,336.475 742.75,328.5 742.75,318.6 C742.75,309.066667 746.416667,301.366667 753.75,295.5 C761.083333,289.633333 771.166667,286.7 784,286.7 L784,286.7 L853.85,286.7 L853.85,291.1 C853.85,309.066667 847.708333,323.641667 835.425,334.825 C823.141667,346.008333 807.283333,351.6 787.85,351.6 Z M1150.85,400 L1150.85,343.9 L1098.05,343.9 C1087.78333,343.9 1082.65,338.4 1082.65,327.4 L1082.65,327.4 L1082.65,183.3 L1157.45,183.3 L1157.45,127.2 L1082.65,127.2 L1082.65,42.5 L1013.35,42.5 L1013.35,127.2 L945.15,127.2 L945.15,183.3 L1013.35,183.3 L1013.35,338.4 C1013.35,357.1 1018.85,372.041667 1029.85,383.225 C1040.85,394.408333 1055.51667,400 1073.85,400 L1073.85,400 L1150.85,400 Z M1319.7,407.7 C1376.16667,407.7 1417.05,383.866667 1442.35,336.2 L1442.35,336.2 L1385.7,306.5 C1380.2,318.966667 1372.59167,329.05 1362.875,336.75 C1353.15833,344.45 1339.5,348.3 1321.9,348.3 C1302.46667,348.3 1286.24167,342.25 1273.225,330.15 C1260.20833,318.05 1253.33333,302.65 1252.6,283.95 L1252.6,283.95 L1451.15,283.95 L1451.15,260.3 C1451.15,232.8 1445.65,208.325 1434.65,186.875 C1423.65,165.425 1408.15833,148.833333 1388.175,137.1 C1368.19167,125.366667 1345,119.5 1318.6,119.5 C1291.83333,119.5 1268.09167,125.458333 1247.375,137.375 C1226.65833,149.291667 1210.525,166.158333 1198.975,187.975 C1187.425,209.791667 1181.65,235 1181.65,263.6 C1181.65,292.2 1187.51667,317.408333 1199.25,339.225 C1210.98333,361.041667 1227.3,377.908333 1248.2,389.825 C1269.1,401.741667 1292.93333,407.7 1319.7,407.7 Z M1380.75,232.25 L1253.15,232.25 C1255.35,216.483333 1262.225,203.65 1273.775,193.75 C1285.325,183.85 1300.08333,178.9 1318.05,178.9 C1335.65,178.9 1350.04167,183.85 1361.225,193.75 C1372.40833,203.65 1378.91667,216.483333 1380.75,232.25 L1380.75,232.25 Z M1716.25,400 L1716.25,239.95 L1861.45,239.95 L1861.45,400 L1934.05,400 L1934.05,15 L1861.45,15 L1861.45,173.95 L1716.25,173.95 L1716.25,15 L1643.65,15 L1643.65,400 L1716.25,400 Z M2118.3,407.7 C2174.76667,407.7 2215.65,383.866667 2240.95,336.2 L2240.95,336.2 L2184.3,306.5 C2178.8,318.966667 2171.19167,329.05 2161.475,336.75 C2151.75833,344.45 2138.1,348.3 2120.5,348.3 C2101.06667,348.3 2084.84167,342.25 2071.825,330.15 C2058.80833,318.05 2051.93333,302.65 2051.2,283.95 L2051.2,283.95 L2249.75,283.95 L2249.75,260.3 C2249.75,232.8 2244.25,208.325 2233.25,186.875 C2222.25,165.425 2206.75833,148.833333 2186.775,137.1 C2166.79167,125.366667 2143.6,119.5 2117.2,119.5 C2090.43333,119.5 2066.69167,125.458333 2045.975,137.375 C2025.25833,149.291667 2009.125,166.158333 1997.575,187.975 C1986.025,209.791667 1980.25,235 1980.25,263.6 C1980.25,292.2 1986.11667,317.408333 1997.85,339.225 C2009.58333,361.041667 2025.9,377.908333 2046.8,389.825 C2067.7,401.741667 2091.53333,407.7 2118.3,407.7 Z M2179.35,232.25 L2051.75,232.25 C2053.95,216.483333 2060.825,203.65 2072.375,193.75 C2083.925,183.85 2098.68333,178.9 2116.65,178.9 C2134.25,178.9 2148.64167,183.85 2159.825,193.75 C2171.00833,203.65 2177.51667,216.483333 2179.35,232.25 L2179.35,232.25 Z M2327.3,95.3 C2341.23333,95.3 2352.875,90.9 2362.225,82.1 C2371.575,73.3 2376.25,61.9333333 2376.25,48 C2376.25,34.0666667 2371.575,22.7 2362.225,13.9 C2352.875,5.1 2341.23333,0.7 2327.3,0.7 C2313.36667,0.7 2301.725,5.1 2292.375,13.9 C2283.025,22.7 2278.35,34.0666667 2278.35,48 C2278.35,61.9333333 2283.025,73.3 2292.375,82.1 C2301.725,90.9 2313.36667,95.3 2327.3,95.3 Z M2361.95,400 L2361.95,127.2 L2292.65,127.2 L2292.65,400 L2361.95,400 Z M2460.4,95.3 C2474.33333,95.3 2485.975,90.9 2495.325,82.1 C2504.675,73.3 2509.35,61.9333333 2509.35,48 C2509.35,34.0666667 2504.675,22.7 2495.325,13.9 C2485.975,5.1 2474.33333,0.7 2460.4,0.7 C2446.46667,0.7 2434.825,5.1 2425.475,13.9 C2416.125,22.7 2411.45,34.0666667 2411.45,48 C2411.45,61.9333333 2416.125,73.3 2425.475,82.1 C2434.825,90.9 2446.46667,95.3 2460.4,95.3 Z M2434.55,510 C2452.88333,510 2467.55,504.408333 2478.55,493.225 C2489.55,482.041667 2495.05,467.1 2495.05,448.4 L2495.05,448.4 L2495.05,127.2 L2425.75,127.2 L2425.75,437.4 C2425.75,448.4 2420.61667,453.9 2410.35,453.9 L2410.35,453.9 L2363.05,453.9 L2363.05,510 L2434.55,510 Z M2625.95,400 L2625.95,259.2 C2625.95,233.9 2631.81667,214.191667 2643.55,200.075 C2655.28333,185.958333 2671.78333,178.9 2693.05,178.9 C2712.11667,178.9 2726.6,184.033333 2736.5,194.3 C2746.4,204.566667 2751.35,219.966667 2751.35,240.5 L2751.35,240.5 L2751.35,400 L2820.65,400 L2820.65,237.2 C2820.65,214.833333 2816.25,195.033333 2807.45,177.8 C2798.65,160.566667 2786.18333,147.091667 2770.05,137.375 C2753.91667,127.658333 2735.4,122.8 2714.5,122.8 C2672.7,122.8 2644.65,137.833333 2630.35,167.9 L2630.35,167.9 L2624.85,167.9 L2624.85,127.2 L2556.65,127.2 L2556.65,400 L2625.95,400 Z" id="irateHeijn" fill="#FF8A00" fill-rule="nonzero"></path>
        </g>
    </g>
</svg>