<svg xmlns="http://www.w3.org/2000/svg" width="449" height="500" viewBox="0 0 449 500"><title>Слой 2_4</title><g fill="none" fill-rule="evenodd"><path fill="#D6D8E5" fill-rule="nonzero" d="M257.6 344.8l-13.19-7.23 11.71-6.76 13.19 7.23zM328.52 386.55l-13.19-7.24 11.71-6.75 13.18 7.23z" opacity=".4"/><path fill="#B1B4C4" fill-rule="nonzero" d="M262.75 341.76l-12.44-7.18 39.62-126.56 12.44 7.18z"/><path fill="#9EA2B2" fill-rule="nonzero" d="M270.04 337.74l-12.44-7.18L297.22 204l12.43 7.18z"/><path fill="#B1B4C4" fill-rule="nonzero" d="M262.75 341.76l-12.44-7.18 39.62-126.56 12.44 7.18z"/><path fill="#9EA2B2" fill-rule="nonzero" d="M343.15 378.39l-12.53-7.24-17.11-159.31 12.44 7.19z"/><path fill="#B1B4C4" fill-rule="nonzero" d="M334.44 383.36l-12.53-7.24-17.11-159.31 12.44 7.18z"/><path fill="#D6D8E5" fill-rule="nonzero" d="M433.04 284.39L199.3 149.44l10.56-6.1L443.6 278.29z"/><path fill="#B1B4C4" fill-rule="nonzero" d="M433.04 296.56L199.3 161.61v-12.2l233.74 134.95z"/><path fill="#F4F4F4" fill-rule="nonzero" d="M428.31 275.24L213.06 150.96V0l215.25 124.28z"/><path fill="#9EA2B2" fill-rule="nonzero" d="M443.77 290.37l-10.73 6.19v-12.39l10.73-6.19z"/><path fill="#D6D8E5" fill-rule="nonzero" d="M246.74 44.98l-17.83-10.29v-6.86l17.83 10.29zM285.69 67.47l-31.36-18.1V42.5l31.36 18.11zM246.74 57.94l-17.83-10.29v-6.86l17.83 10.29zM285.69 80.43l-31.36-18.1v-6.87l31.36 18.11zM246.74 72.81l-17.83-10.29v-6.87l17.83 10.3zM285.69 95.3l-31.36-18.11v-6.86l31.36 18.11zM246.74 87.68l-17.83-10.3v-6.86l17.83 10.29zM285.69 110.17l-31.36-18.11V85.2l31.36 18.11z"/><path fill="#9ACC12" fill-rule="nonzero" d="M308.85 83.22c3.95-5.1 11-5.92 19.1-1.26.78.45 1.55.94 2.3 1.46L328 107.88l-19.22-24.56.07-.1z"/><path fill="#E8BC05" fill-rule="nonzero" d="M348.93 110.79l-21-2.91 2.3-24.46c8.6 5.97 15.77 16.69 18.7 27.37z"/><path fill="#EF6848" fill-rule="nonzero" d="M350.4 120.84c0 11-6 17-14.37 15.91L328 107.88l21 2.91a37.389 37.389 0 0 1 1.4 10.05z"/><path fill="#BE4AED" fill-rule="nonzero" d="M308.78 83.32c-2.08 2.73-3.28 6.66-3.28 11.6 0 14.32 10.05 31.72 22.45 38.88 2.473 1.5 5.214 2.5 8.07 2.94L328 107.88l-19.1-24.66-.12.1z"/><path fill="#543526" fill-rule="nonzero" d="M370.92 119.06c3.95-5.1 11-5.92 19.1-1.27.78.45 1.54.94 2.3 1.47L390 143.72l-19.18-24.57.1-.09z"/><path fill="#1B96EA" fill-rule="nonzero" d="M411 146.62l-21-2.9 2.3-24.46c8.6 5.96 15.76 16.68 18.7 27.36z"/><path fill="#FF5050" fill-rule="nonzero" d="M412.47 156.68c0 11-6 17-14.37 15.9l-8.1-28.86 21 2.9a37.938 37.938 0 0 1 1.47 10.06z"/><path fill="#32CEC3" fill-rule="nonzero" d="M370.84 119.15c-2.07 2.74-3.27 6.66-3.27 11.6 0 14.32 10.05 31.73 22.45 38.89a21.998 21.998 0 0 0 8.07 2.93L390 143.72l-19.1-24.66-.06.09z"/><path stroke="#D6D8E5" stroke-width="1.42" d="M308.78 190.59s15.21-29 53.84 8 48.38 8.3 48.38 8.3"/><path fill="#D6D8E5" fill-rule="nonzero" d="M343.923 186.93c1.257-.73 1.259-3.08.002-5.25-1.256-2.18-3.295-3.36-4.552-2.63-1.258.73-1.26 3.08-.003 5.26 1.256 2.17 3.295 3.35 4.553 2.62zM316.608 186.88c1.258-.73 1.259-3.08.002-5.26-1.256-2.17-3.294-3.35-4.552-2.62-1.258.72-1.259 3.08-.003 5.25 1.257 2.18 3.295 3.35 4.553 2.63zM374.596 209.87c1.263-.73 1.269-3.09.013-5.28-1.257-2.18-3.3-3.37-4.563-2.64-1.264.73-1.27 3.09-.013 5.27 1.256 2.19 3.299 3.37 4.563 2.65zM406.005 219.05c1.258-.73 1.26-3.08.003-5.26-1.256-2.17-3.295-3.35-4.553-2.62-1.257.72-1.259 3.08-.002 5.25 1.256 2.18 3.295 3.35 4.552 2.63zM235.01 149.34l-6.1-3.53v-21.16l6.1 3.53zM251.91 159.09l-6.11-3.53v-28.59l6.11 3.53zM268.8 168.84l-6.11-3.52v-40.98l6.11 3.52zM285.69 178.59l-6.11-3.52v-50.89l6.11 3.52z"/><path fill="#9EA2B2" fill-rule="nonzero" d="M334.44 383.36l8.71-4.97-10.43-10.94zM262.75 341.76l7.29-4.02-2.8-10.32z"/><g fill-rule="nonzero"><path fill="#D6D8E5" d="M132.01 460.94c19.308 0 34.96-9.04 34.96-20.19 0-11.15-15.652-20.19-34.96-20.19s-34.96 9.04-34.96 20.19c0 11.15 15.652 20.19 34.96 20.19z" opacity=".3"/><path fill="#DD990E" d="M140.66 455.75c19.308 0 34.96-9.04 34.96-20.19 0-11.15-15.652-20.19-34.96-20.19s-34.96 9.04-34.96 20.19c0 11.15 15.652 20.19 34.96 20.19z"/><path fill="#DD990E" d="M105.71 435.86v-9.19l6.91 6.15zM175.63 426.91v8.65l-3.54 3.75-1.73-9.91z"/><path fill="#F9CB07" d="M140.66 447.1c19.308 0 34.96-9.04 34.96-20.19 0-11.15-15.652-20.19-34.96-20.19s-34.96 9.04-34.96 20.19c0 11.15 15.652 20.19 34.96 20.19z"/><path fill="#CC8B09" d="M165.65 427.53c-.36 3.4-2.78 6.75-7.29 9.35-9.77 5.64-25.62 5.64-35.4 0-4.5-2.6-6.93-5.95-7.27-9.35-.43-4 2-8 7.27-11.08 9.78-5.65 25.63-5.65 35.4 0 5.27 3.04 7.7 7.1 7.29 11.08z"/><path fill="#E8A30A" d="M165.65 427.53c-.36 3.4-2.78 6.75-7.29 9.35-9.77 5.64-25.62 5.64-35.4 0-4.5-2.6-6.93-5.95-7.27-9.35.34-3.4 2.77-6.75 7.27-9.35 9.78-5.65 25.63-5.65 35.4 0 4.51 2.6 6.93 5.95 7.29 9.35z"/><path fill="#CC8B09" d="M140.3 422.8c-.308 0-.616.03-.92.08-.41.05-.87.14-1.38.24-.51.1-1.05.25-1.6.41-.536.17-1.06.37-1.57.6l4 2.32.73-.25c1-.34 2-.63 2.89-.87.85-.23 1.721-.37 2.6-.43.804-.05 1.61.01 2.4.16.804.18 1.573.48 2.28.9.701.35 1.301.87 1.74 1.52.144.23.24.49.283.76.042.27.031.54-.033.81a3.44 3.44 0 0 1-.94 1.55c-.555.55-1.172 1.04-1.84 1.45l2.56 1.47-1.39.81-2.58-1.49c-1.231.6-2.517 1.09-3.84 1.45-1.385.38-2.8.65-4.23.79l-1.35-2.42c.25 0 .63 0 1.13-.08.5-.08 1.07-.16 1.69-.29.62-.13 1.27-.3 2-.5.684-.2 1.352-.45 2-.74l-4-2.3-.53.18-.54.16c-.908.31-1.833.57-2.77.78-.774.18-1.565.29-2.36.32a7.662 7.662 0 0 1-2.08-.2 7.022 7.022 0 0 1-1.92-.77 4.982 4.982 0 0 1-1.68-1.44c-.322-.45-.481-1-.45-1.55.062-.57.292-1.12.66-1.56a7.365 7.365 0 0 1 1.63-1.48l-2.37-1.37 1.39-.8 2.35 1.35c1.1-.55 2.257-.97 3.45-1.26 1.134-.29 2.287-.5 3.45-.63l1.14 2.32zm-6.84 4.2c.532.3 1.143.43 1.75.37.814-.09 1.616-.27 2.39-.54l-3.76-2.17c-1.38.89-1.507 1.67-.38 2.34zm13.2 1.1a2.998 2.998 0 0 0-1.88-.34c-.889.11-1.766.31-2.62.58l3.74 2.16c1.59-.96 1.85-1.76.76-2.38v-.02z"/><path fill="#CC8B09" d="M138.13 432.66v-1.35l1.54 1-.67 1-.87-.65zM151.52 433.52v-1.35l-3.33.25 1.91 1.3zM151.8 428.55v-1.37l-2.49.9zM141.49 428.47l.83-.79 2.92 2-.18.59s-2.18-.92-2.25-1l-1.32-.8zM133.85 424.2l3.87 2.2.8-.58s-.49-.55-.53-.61a5.279 5.279 0 00-1.2-1c-.29-.05-2.13-.88-2.13-.88l-.81.87zM140.3 422.8v-1.35l-1.78-.58-.39 1.06.1.49zM128.47 421.82v-1.35l2.06.22-.66 1.31zM128.54 426.42V425h2.37l-.58 1.27-1 1.12z"/><path fill="#F9CA06" d="M140.3 421.45c-.308 0-.616.02-.92.07-.41.06-.87.14-1.38.25-.51.11-1.05.24-1.6.41-.537.16-1.062.35-1.57.59l4 2.33.73-.26c1-.34 2-.63 2.89-.86.85-.23 1.721-.37 2.6-.43a9.2 9.2 0 0 1 2.4.16c.804.17 1.575.47 2.28.89.699.35 1.298.87 1.74 1.52a2.055 2.055 0 0 1 .25 1.57 3.397 3.397 0 0 1-.94 1.55c-.555.55-1.172 1.04-1.84 1.45l2.56 1.48-1.39.8-2.58-1.49c-1.23.61-2.516 1.09-3.84 1.45-1.384.39-2.799.65-4.23.79l-1.35-2.41c.378-.01.755-.04 1.13-.09.568-.07 1.132-.16 1.69-.29.62-.13 1.27-.3 2-.5.683-.19 1.352-.44 2-.73l-4-2.31-.53.18-.54.17c-1 .33-1.93.59-2.77.78-.775.18-1.565.28-2.36.31a8.548 8.548 0 0 1-2.08-.19 6.687 6.687 0 0 1-1.92-.78 4.982 4.982 0 0 1-1.68-1.44c-.324-.45-.483-1-.45-1.55.062-.57.292-1.12.66-1.56a7.004 7.004 0 0 1 1.63-1.47l-2.37-1.37 1.39-.81 2.35 1.36c1.1-.55 2.257-.97 3.45-1.27 1.134-.29 2.287-.5 3.45-.62l1.14 2.32zm-6.84 4.21c.531.3 1.142.43 1.75.38.813-.1 1.613-.28 2.39-.54l-3.76-2.18c-1.38.91-1.507 1.69-.38 2.34zm13.2 1.1a2.998 2.998 0 0 0-1.88-.34c-.888.12-1.765.31-2.62.58l3.74 2.16c1.59-.97 1.85-1.77.76-2.4z"/></g><g fill-rule="nonzero"><path fill="#DD990E" d="M143.52 444.98c19.308 0 34.96-9.04 34.96-20.19 0-11.15-15.652-20.19-34.96-20.19s-34.96 9.04-34.96 20.19c0 11.15 15.652 20.19 34.96 20.19z"/><path fill="#DD990E" d="M108.57 425.1v-9.2l6.9 6.15zM178.48 416.14v8.65l-3.53 3.75-1.73-9.9z"/><path fill="#F9CB07" d="M143.52 436.33c19.308 0 34.96-9.04 34.96-20.19 0-11.15-15.652-20.19-34.96-20.19s-34.96 9.04-34.96 20.19c0 11.15 15.652 20.19 34.96 20.19z"/><path fill="#CC8B09" d="M168.5 416.77c-.35 3.4-2.77 6.75-7.28 9.35-9.78 5.64-25.62 5.64-35.4 0-4.51-2.6-6.93-5.95-7.27-9.35-.43-4 2-8 7.27-11.08 9.78-5.65 25.62-5.65 35.4 0 5.27 3.03 7.7 7.1 7.28 11.08z"/><path fill="#E8A30A" d="M168.5 416.77c-.35 3.4-2.77 6.75-7.28 9.35-9.78 5.64-25.62 5.64-35.4 0-4.51-2.6-6.93-5.95-7.27-9.35.34-3.4 2.76-6.75 7.27-9.35 9.78-5.65 25.62-5.65 35.4 0 4.51 2.58 6.93 5.95 7.28 9.35z"/><path fill="#CC8B09" d="M143.15 412c-.308 0-.616.02-.92.07-.41.06-.87.14-1.38.25-.51.11-1 .24-1.59.41-.537.16-1.062.36-1.57.6l4 2.32.72-.26c1-.34 2-.63 2.9-.86.85-.23 1.721-.37 2.6-.43.8-.05 1.604 0 2.39.16.806.17 1.58.47 2.29.89.697.35 1.292.87 1.73 1.52a2.063 2.063 0 0 1 .26 1.57 3.466 3.466 0 0 1-.94 1.55 9.621 9.621 0 0 1-1.84 1.45l2.56 1.48-1.4.8-2.58-1.49a20.954 20.954 0 0 1-3.83 1.45c-1.384.39-2.8.65-4.23.79L141 421.9c.378-.01.755-.04 1.13-.09a15.94 15.94 0 0 0 1.68-.29c.62-.13 1.28-.3 2-.5.685-.19 1.354-.43 2-.73l-4-2.31-.52.18-.55.17c-1 .33-1.92.59-2.76.78-.775.18-1.565.28-2.36.31a7.659 7.659 0 0 1-2.08-.19 7.071 7.071 0 0 1-1.93-.78 5.092 5.092 0 0 1-1.67-1.43c-.322-.45-.481-1-.45-1.55a2.84 2.84 0 0 1 .66-1.57 6.937 6.937 0 0 1 1.62-1.47l-2.37-1.37 1.4-.81 2.35 1.36c1.1-.55 2.257-.97 3.45-1.27 1.134-.29 2.287-.5 3.45-.62l1.1 2.28zm-6.83 4.21c.526.31 1.135.44 1.74.38.816-.1 1.62-.28 2.4-.54l-3.77-2.17c-1.38.93-1.503 1.72-.37 2.37v-.04zm13.2 1.1a2.995 2.995 0 0 0-1.88-.33c-.891.11-1.771.3-2.63.57l3.74 2.16c1.6-.93 1.85-1.71.77-2.36v-.04z"/><path fill="#CC8B09" d="M141 421.9v-1.36l1.54 1-.67 1-.87-.64zM154.38 422.76v-1.36l-3.33.26 1.91 1.3zM154.66 417.78v-1.37l-2.49.9zM144.35 417.71l.83-.79 2.92 2-.18.59s-2.19-.92-2.26-1c-.07-.08-1.31-.8-1.31-.8zM136.7 413.44l3.88 2.19.79-.57-.52-.61a4.91 4.91 0 00-1.21-1c-.29-.06-2.12-.88-2.12-.88l-.82.87zM143.15 412.04v-1.36l-1.78-.58-.38 1.07.09.48zM131.32 411.06v-1.36l2.07.22-.67 1.32zM131.4 415.66v-1.41h2.37l-.58 1.26-1 1.13z"/><path fill="#F9CA06" d="M143.15 410.68c-.308 0-.616.03-.92.08-.41.05-.87.14-1.38.24-.51.1-1 .25-1.59.41-.536.17-1.06.37-1.57.6l4 2.32.72-.25c1-.34 2-.63 2.9-.87.85-.23 1.721-.37 2.6-.43.8-.05 1.603.01 2.39.16.807.17 1.58.48 2.29.9.699.35 1.295.87 1.73 1.52a2.063 2.063 0 0 1 .26 1.57 3.55 3.55 0 0 1-.94 1.55c-.555.55-1.172 1.04-1.84 1.45l2.56 1.47-1.4.81-2.58-1.49c-1.228.6-2.51 1.09-3.83 1.45-1.386.38-2.8.64-4.23.79l-1.32-2.42c.25 0 .62 0 1.13-.08.51-.08 1.06-.16 1.68-.29.62-.13 1.28-.3 2-.5.684-.2 1.352-.45 2-.74l-4-2.3-.52.18-.55.17c-.906.31-1.827.56-2.76.77-.774.18-1.565.29-2.36.32a7.662 7.662 0 0 1-2.08-.2 7.097 7.097 0 0 1-1.93-.77 4.987 4.987 0 0 1-1.67-1.44c-.322-.45-.481-1-.45-1.55a2.87 2.87 0 0 1 .66-1.56 7.293 7.293 0 0 1 1.62-1.48l-2.37-1.37 1.4-.8 2.35 1.35c1.1-.55 2.257-.97 3.45-1.26 1.134-.29 2.287-.5 3.45-.63l1.1 2.32zm-6.83 4.22c.529.3 1.136.43 1.74.37.818-.09 1.623-.27 2.4-.54l-3.77-2.17c-1.38.9-1.503 1.68-.37 2.34zm13.2 1.1a2.998 2.998 0 0 0-1.88-.34c-.892.11-1.773.31-2.63.58l3.74 2.16c1.6-.98 1.85-1.78.77-2.4z"/></g><g fill-rule="nonzero"><path fill="#DD990E" d="M141.37 434.62c19.308 0 34.96-9.04 34.96-20.19 0-11.15-15.652-20.19-34.96-20.19s-34.96 9.04-34.96 20.19c0 11.15 15.652 20.19 34.96 20.19z"/><path fill="#DD990E" d="M106.42 414.74v-9.2l6.91 6.15zM176.34 405.78v8.65l-3.53 3.75-1.74-9.91z"/><path fill="#F9CB07" d="M141.37 425.97c19.308 0 34.96-9.04 34.96-20.19 0-11.15-15.652-20.19-34.96-20.19s-34.96 9.04-34.96 20.19c0 11.15 15.652 20.19 34.96 20.19z"/><path fill="#CC8B09" d="M166.36 406.4c-.35 3.4-2.78 6.75-7.28 9.36-9.78 5.64-25.63 5.64-35.4 0-4.51-2.61-6.93-6-7.28-9.36-.42-4 2-8 7.28-11.08 9.77-5.65 25.62-5.65 35.4 0 5.26 3.04 7.7 7.1 7.28 11.08z"/><path fill="#E8A30A" d="M166.36 406.4c-.35 3.4-2.78 6.75-7.28 9.36-9.78 5.64-25.63 5.64-35.4 0-4.51-2.61-6.93-6-7.28-9.36.35-3.4 2.77-6.74 7.28-9.35 9.77-5.65 25.62-5.65 35.4 0 4.5 2.61 6.92 5.95 7.28 9.35z"/><path fill="#CC8B09" d="M141 401.68c-.308 0-.616.02-.92.07-.41.06-.87.14-1.38.25-.537.11-1.068.25-1.59.41-.538.16-1.063.35-1.57.59l4 2.32.72-.25c1-.34 2-.63 2.89-.87.851-.22 1.722-.37 2.6-.43.804-.05 1.61.01 2.4.17.807.17 1.581.47 2.29.89.697.35 1.292.87 1.73 1.52.144.23.24.49.283.76.042.27.031.54-.033.81a3.44 3.44 0 0 1-.94 1.55c-.551.55-1.166 1.04-1.83 1.45l2.55 1.47-1.39.81-2.58-1.49c-1.229.61-2.515 1.1-3.84 1.45-1.385.38-2.8.65-4.23.79l-1.34-2.41c.375-.01.749-.04 1.12-.09.568-.07 1.132-.16 1.69-.29.62-.13 1.27-.3 2-.5.683-.2 1.352-.44 2-.73l-4-2.31-.52.18-.55.17c-1 .33-1.93.59-2.77.78-.772.18-1.559.28-2.35.31a8.077 8.077 0 0 1-2.08-.19 7.084 7.084 0 0 1-1.93-.78 4.982 4.982 0 0 1-1.68-1.44c-.324-.45-.483-1-.45-1.55.062-.57.292-1.12.66-1.56a7.477 7.477 0 0 1 1.63-1.48l-2.37-1.36 1.39-.81 2.35 1.36c1.1-.55 2.257-.97 3.45-1.27 1.134-.29 2.287-.5 3.45-.63l1.14 2.33zm-6.83 4.21c.526.3 1.135.43 1.74.37a11.5 11.5 0 0 0 2.39-.53l-3.76-2.18c-1.37.91-1.54 1.69-.36 2.34h-.01zm13.2 1.1a2.962 2.962 0 0 0-1.89-.34c-.888.12-1.765.31-2.62.58l3.74 2.16c1.6-.98 1.86-1.78.78-2.39l-.01-.01z"/><path fill="#CC8B09" d="M138.85 411.54v-1.36l1.53 1-.67 1-.86-.64zM152.23 412.39v-1.35l-3.32.25 1.91 1.31zM152.51 407.42v-1.37l-2.49.9zM142.2 407.35l.83-.8 2.92 2-.18.6s-2.18-.92-2.25-1l-1.32-.8zM134.56 403.08l3.88 2.19.79-.57s-.49-.56-.52-.62c-.03-.06-.92-.95-1.21-1-.29-.05-2.13-.88-2.13-.88l-.81.88zM141.01 401.68v-1.36l-1.78-.58-.38 1.06.09.49zM129.18 400.7v-1.36l2.06.22-.66 1.32zM129.26 405.3v-1.41h2.36l-.57 1.26-1 1.13z"/><path fill="#F9CA06" d="M141 400.32c-.308 0-.615.02-.92.07-.41.06-.87.14-1.38.25-.51.11-1 .25-1.59.41-.537.16-1.061.36-1.57.6l4 2.32.72-.26c1-.34 2-.62 2.89-.86.85-.23 1.721-.37 2.6-.43a9.2 9.2 0 0 1 2.4.16c.806.17 1.579.47 2.29.89.709.35 1.315.88 1.76 1.53.143.23.239.49.282.77.043.27.032.54-.032.81-.17.59-.494 1.12-.94 1.54a9.557 9.557 0 0 1-1.83 1.45l2.55 1.48-1.39.8-2.58-1.48a20.28 20.28 0 0 1-3.84 1.44c-1.385.39-2.8.65-4.23.8l-1.34-2.42c.375-.01.749-.04 1.12-.09.569-.06 1.133-.16 1.69-.29.62-.13 1.27-.3 2-.5.685-.19 1.354-.43 2-.73l-4-2.31c-.17.07-.344.13-.52.18l-.55.17c-1 .33-1.93.59-2.77.78-.772.18-1.559.29-2.35.32a8.551 8.551 0 0 1-2.08-.2 6.734 6.734 0 0 1-1.93-.78 4.819 4.819 0 0 1-1.68-1.43c-.322-.45-.481-1-.45-1.55.06-.58.289-1.12.66-1.57a7.455 7.455 0 0 1 1.63-1.47l-2.37-1.37 1.39-.81 2.35 1.36c1.1-.55 2.257-.97 3.45-1.27 1.134-.29 2.287-.5 3.45-.62l1.11 2.31zm-6.83 4.21c.525.31 1.134.44 1.74.38.814-.09 1.615-.28 2.39-.54l-3.76-2.17c-1.37.9-1.54 1.68-.36 2.33h-.01zm13.2 1.1a3.098 3.098 0 0 0-1.89-.33 14.7 14.7 0 0 0-2.62.57l3.74 2.16c1.6-.97 1.86-1.77.78-2.4h-.01z"/></g><g fill-rule="nonzero"><path fill="#DD990E" d="M144.35 424.62c19.308 0 34.96-9.04 34.96-20.19 0-11.15-15.652-20.19-34.96-20.19s-34.96 9.04-34.96 20.19c0 11.15 15.652 20.19 34.96 20.19z"/><path fill="#DD990E" d="M109.39 404.74v-9.2l6.91 6.15zM179.31 395.78v8.65l-3.53 3.75-1.73-9.9z"/><path fill="#F9CB07" d="M144.35 415.97c19.308 0 34.96-9.04 34.96-20.19 0-11.15-15.652-20.19-34.96-20.19s-34.96 9.04-34.96 20.19c0 11.15 15.652 20.19 34.96 20.19z"/><path fill="#CC8B09" d="M169.33 396.41c-.35 3.4-2.77 6.75-7.28 9.35-9.78 5.64-25.62 5.64-35.4 0-4.51-2.6-6.93-5.95-7.28-9.35-.42-4 2-8.05 7.28-11.08 9.78-5.65 25.62-5.65 35.4 0 5.27 3.03 7.7 7.1 7.28 11.08z"/><path fill="#E8A30A" d="M169.33 396.41c-.35 3.4-2.77 6.75-7.28 9.35-9.78 5.64-25.62 5.64-35.4 0-4.51-2.6-6.93-5.95-7.28-9.35.35-3.4 2.77-6.75 7.28-9.35 9.78-5.65 25.62-5.65 35.4 0 4.51 2.6 6.95 5.94 7.28 9.35z"/><path fill="#CC8B09" d="M144 391.68c-.308 0-.616.02-.92.07-.41.06-.87.14-1.38.25-.51.11-1 .25-1.59.41-.537.16-1.062.36-1.57.6l4 2.32.72-.26c1-.34 2-.62 2.89-.86a13.57 13.57 0 0 1 2.61-.43c.8-.05 1.604 0 2.39.16.806.17 1.58.47 2.29.89.697.35 1.292.87 1.73 1.52a2.063 2.063 0 0 1 .26 1.57 3.466 3.466 0 0 1-.94 1.55 9.621 9.621 0 0 1-1.84 1.45l2.56 1.48-1.4.8-2.58-1.48c-1.226.6-2.509 1.09-3.83 1.44-1.385.38-2.8.65-4.23.8l-1.35-2.42c.378-.01.755-.04 1.13-.09.565-.06 1.126-.16 1.68-.29.62-.13 1.28-.3 2-.5.685-.19 1.354-.43 2-.73l-4-2.31c-.17.07-.343.13-.52.18l-.55.17c-1 .33-1.92.59-2.76.78-.775.18-1.565.28-2.36.32a8.551 8.551 0 0 1-2.08-.2 7.071 7.071 0 0 1-1.93-.78 4.804 4.804 0 0 1-1.67-1.43c-.322-.45-.481-1-.45-1.55.051-.58.282-1.13.66-1.57a7.038 7.038 0 0 1 1.62-1.47l-2.37-1.37 1.4-.81 2.34 1.36c1.103-.55 2.264-.97 3.46-1.27 1.133-.29 2.286-.5 3.45-.62l1.13 2.32zm-6.83 4.21c.526.31 1.134.44 1.74.38.817-.09 1.622-.27 2.4-.54l-3.77-2.17c-1.393.9-1.523 1.68-.39 2.33h.02zm13.2 1.1a3.066 3.066 0 0 0-1.88-.33c-.891.11-1.771.3-2.63.57l3.74 2.16c1.58-.97 1.83-1.77.75-2.39l.02-.01z"/><path fill="#CC8B09" d="M141.82 401.54v-1.36l1.54 1-.67 1-.87-.64zM155.21 402.4v-1.36l-3.33.26 1.91 1.3zM155.49 397.42v-1.37l-2.49.9zM145.18 397.35l.82-.79 2.92 2-.18.59s-2.18-.92-2.25-1c-.07-.08-1.31-.8-1.31-.8zM137.53 393.08l3.88 2.2.79-.58-.52-.61a4.91 4.91 0 00-1.21-1c-.29-.05-2.13-.88-2.13-.88l-.81.87zM143.98 391.68v-1.36l-1.78-.57-.38 1.06.09.49zM132.15 390.7v-1.36l2.07.22-.67 1.32zM132.23 395.3v-1.41h2.37l-.58 1.26-1 1.13z"/><path fill="#F9CA06" d="M144 390.32c-.308 0-.616.03-.92.08-.41.06-.87.14-1.38.25-.51.11-1 .24-1.59.4-.536.17-1.06.37-1.57.6l4 2.32.72-.25c1-.34 2-.63 2.89-.87.855-.22 1.728-.37 2.61-.43.8-.05 1.603.01 2.39.16.807.17 1.58.48 2.29.9.697.35 1.292.87 1.73 1.52a2.063 2.063 0 0 1 .26 1.57 3.559 3.559 0 0 1-.94 1.55c-.555.55-1.172 1.04-1.84 1.45l2.56 1.47-1.4.81-2.58-1.49c-1.228.6-2.51 1.09-3.83 1.45-1.386.38-2.801.64-4.23.79l-1.35-2.42c.378 0 .756-.03 1.13-.08.5-.06 1.06-.16 1.68-.29.62-.13 1.28-.3 2-.5.684-.2 1.352-.45 2-.74l-4-2.3-.52.18-.55.17c-.906.31-1.827.56-2.76.77-.775.18-1.565.29-2.36.32a8.077 8.077 0 0 1-2.08-.19 7.501 7.501 0 0 1-1.93-.78 4.987 4.987 0 0 1-1.67-1.44c-.324-.45-.483-1-.45-1.55.053-.58.284-1.12.66-1.56a7.293 7.293 0 0 1 1.62-1.48l-2.37-1.37 1.4-.8 2.34 1.35c1.106-.54 2.265-.96 3.46-1.26 1.134-.29 2.287-.5 3.45-.63l1.13 2.32zm-6.83 4.22c.527.3 1.136.43 1.74.37.817-.09 1.621-.27 2.4-.53l-3.77-2.18c-1.4.91-1.54 1.68-.39 2.34h.02zm13.2 1.1a2.998 2.998 0 0 0-1.88-.34c-.892.11-1.773.31-2.63.58l3.74 2.16c1.58-.98 1.83-1.78.75-2.4h.02z"/></g><g fill-rule="nonzero"><path fill="#DD990E" d="M142.2 414.26c19.308 0 34.96-9.04 34.96-20.19 0-11.15-15.652-20.19-34.96-20.19s-34.96 9.04-34.96 20.19c0 11.15 15.652 20.19 34.96 20.19z"/><path fill="#DD990E" d="M107.25 394.38v-9.2l6.91 6.15zM177.17 385.42v8.65l-3.54 3.75-1.73-9.9z"/><path fill="#F9CB07" d="M142.2 405.61c19.308 0 34.96-9.04 34.96-20.19 0-11.15-15.652-20.19-34.96-20.19s-34.96 9.04-34.96 20.19c0 11.15 15.652 20.19 34.96 20.19z"/><path fill="#CC8B09" d="M167.19 386.05c-.36 3.4-2.78 6.74-7.29 9.35-9.77 5.64-25.62 5.64-35.4 0-4.5-2.61-6.92-5.95-7.27-9.35-.42-4 2-8.05 7.27-11.09 9.78-5.65 25.63-5.65 35.4 0 5.27 3.04 7.7 7.11 7.29 11.09z"/><path fill="#E8A30A" d="M167.19 386.05c-.36 3.4-2.78 6.74-7.29 9.35-9.77 5.64-25.62 5.64-35.4 0-4.5-2.61-6.92-5.95-7.27-9.35.35-3.4 2.77-6.75 7.27-9.36 9.78-5.65 25.63-5.65 35.4 0 4.51 2.61 6.93 5.96 7.29 9.36z"/><path fill="#CC8B09" d="M141.84 381.32c-.308 0-.616.02-.92.07-.41.06-.87.14-1.38.25-.51.11-1 .24-1.6.41-.535.16-1.056.35-1.56.59l4 2.33.72-.26c1-.34 2-.63 2.89-.87.851-.23 1.722-.37 2.6-.42a9.2 9.2 0 0 1 2.4.16c.807.17 1.581.47 2.29.89.692.36 1.284.88 1.72 1.53.144.23.24.49.283.76.042.27.031.54-.033.81a3.44 3.44 0 0 1-.94 1.55c-.555.55-1.172 1.04-1.84 1.45l2.56 1.48-1.39.8-2.58-1.49c-1.229.61-2.515 1.1-3.84 1.45-1.384.39-2.8.65-4.23.79l-1.34-2.41c.375-.01.749-.04 1.12-.09.568-.07 1.132-.16 1.69-.29.62-.13 1.27-.3 2-.5a14.19 14.19 0 0 0 2-.73l-4-2.31-.52.18-.55.17c-1 .33-1.93.59-2.77.78-.775.18-1.565.28-2.36.31a8.548 8.548 0 0 1-2.08-.19 6.687 6.687 0 0 1-1.92-.78 4.982 4.982 0 0 1-1.68-1.44c-.324-.45-.483-1-.45-1.55.062-.57.292-1.12.66-1.56a7.085 7.085 0 0 1 1.63-1.47l-2.42-1.38 1.39-.81 2.35 1.36c1.1-.55 2.257-.97 3.45-1.27 1.134-.29 2.287-.5 3.45-.63l1.2 2.33zm-6.84 4.21c.53.3 1.142.43 1.75.37a11.5 11.5 0 0 0 2.39-.53l-3.76-2.18c-1.38.91-1.507 1.69-.38 2.34zm13.2 1.1a2.998 2.998 0 0 0-1.88-.34c-.888.12-1.765.31-2.62.58l3.74 2.16c1.56-.97 1.85-1.78.76-2.4z"/><path fill="#CC8B09" d="M139.68 391.18v-1.36l1.53 1-.67 1-.86-.64zM153.06 392.04v-1.36l-3.32.26 1.91 1.3zM153.34 387.06v-1.37l-2.49.9zM143 387l.83-.8 2.92 2-.18.6s-2.18-.92-2.25-1L143 387zM135.39 382.72l3.87 2.19.8-.57-.53-.61c-.341-.4-.747-.74-1.2-1-.29-.06-2.13-.88-2.13-.88l-.81.87zM141.84 381.32v-1.36l-1.78-.58-.38 1.06.09.49zM130.01 380.34v-1.36l2.06.22-.66 1.32zM130.08 384.94v-1.41h2.36l-.58 1.26-1 1.13z"/><path fill="#F9CA06" d="M141.84 380c-.308 0-.615.02-.92.07-.41.06-.87.14-1.38.25-.51.11-1 .25-1.6.41-.533.16-1.055.36-1.56.6l4 2.32.72-.26c1-.33 2-.62 2.89-.86.85-.23 1.721-.37 2.6-.43a9.2 9.2 0 0 1 2.4.16 8.17 8.17 0 0 1 2.29.89c.695.36 1.29.88 1.73 1.53.144.23.24.49.283.76.042.27.031.54-.033.81a3.44 3.44 0 0 1-.94 1.55 9.632 9.632 0 0 1-1.84 1.44l2.56 1.48-1.39.81-2.56-1.53a21.133 21.133 0 0 1-3.84 1.45c-1.386.38-2.801.64-4.23.79l-1.34-2.42c.375-.01.749-.04 1.12-.09.568-.06 1.132-.16 1.69-.28.62-.14 1.27-.31 2-.51.686-.19 1.354-.43 2-.73l-4-2.31-.52.19-.55.16c-1 .33-1.93.59-2.77.78-.775.18-1.565.29-2.36.32a8.551 8.551 0 0 1-2.08-.2 6.687 6.687 0 0 1-1.92-.78 4.819 4.819 0 0 1-1.68-1.43c-.322-.45-.481-1-.45-1.55.06-.57.29-1.12.66-1.56a7.365 7.365 0 0 1 1.63-1.48L130 379l1.39-.8 2.35 1.35c1.102-.54 2.258-.97 3.45-1.27a26.87 26.87 0 0 1 3.45-.62l1.2 2.34zm-6.84 4.17c.529.31 1.141.44 1.75.38.814-.09 1.616-.27 2.39-.54l-3.76-2.17c-1.38.9-1.507 1.68-.38 2.33zm13.2 1.1a2.995 2.995 0 0 0-1.88-.33 14.7 14.7 0 0 0-2.62.57l3.74 2.16c1.56-.97 1.85-1.77.76-2.4z"/></g><g fill-rule="nonzero"><path fill="#D6D8E5" d="M34.96 500c19.308 0 34.96-9.04 34.96-20.19 0-11.15-15.652-20.19-34.96-20.19S0 468.66 0 479.81C0 490.96 15.652 500 34.96 500z" opacity=".3"/><path fill="#DD990E" d="M43.61 494.81c19.308 0 34.96-9.04 34.96-20.19 0-11.15-15.652-20.19-34.96-20.19s-34.96 9.04-34.96 20.19c0 11.15 15.652 20.19 34.96 20.19z"/><path fill="#DD990E" d="M8.66 474.93v-9.2l6.91 6.15zM78.58 465.97v8.65l-3.53 3.75-1.73-9.9z"/><path fill="#F9CB07" d="M43.61 486.16c19.308 0 34.96-9.04 34.96-20.19 0-11.15-15.652-20.19-34.96-20.19s-34.96 9.04-34.96 20.19c0 11.15 15.652 20.19 34.96 20.19z"/><path fill="#CC8B09" d="M68.6 466.6c-.35 3.4-2.78 6.75-7.28 9.35-9.78 5.64-25.63 5.64-35.4 0-4.51-2.6-6.93-5.95-7.28-9.35-.42-4 2-8.05 7.28-11.08 9.77-5.65 25.62-5.65 35.4 0 5.27 3.03 7.68 7.1 7.28 11.08z"/><path fill="#E8A30A" d="M68.6 466.6c-.35 3.4-2.78 6.75-7.28 9.35-9.78 5.64-25.63 5.64-35.4 0-4.51-2.6-6.93-5.95-7.28-9.35.35-3.4 2.77-6.75 7.28-9.35 9.77-5.65 25.62-5.65 35.4 0 4.5 2.6 6.93 5.95 7.28 9.35z"/><path fill="#CC8B09" d="M43.25 461.87c-.308 0-.616.02-.92.07-.41.06-.87.14-1.38.25-.51.11-1 .24-1.59.41-.538.16-1.063.36-1.57.6l4 2.32.72-.26c1-.34 2-.63 2.89-.86.851-.22 1.722-.35 2.6-.4.8-.05 1.604 0 2.39.16.806.17 1.58.47 2.29.89.697.35 1.292.87 1.73 1.52a2.063 2.063 0 0 1 .26 1.57c-.189.6-.534 1.13-1 1.55a9.07 9.07 0 0 1-1.83 1.45l2.55 1.48-1.39.8-2.5-1.52c-1.224.61-2.507 1.1-3.83 1.45-1.384.39-2.8.65-4.23.79l-1.35-2.41c.378-.01.755-.04 1.13-.09a15.94 15.94 0 0 0 1.68-.29c.62-.13 1.28-.3 2-.5.685-.19 1.353-.43 2-.73l-4-2.31c-.17.06-.34.13-.52.18l-.55.17c-1 .33-1.93.59-2.76.78-.775.18-1.565.28-2.36.31a7.659 7.659 0 0 1-2.08-.19 6.758 6.758 0 0 1-1.93-.78 4.894 4.894 0 0 1-1.7-1.43c-.33-.45-.492-1-.46-1.55.06-.58.289-1.12.66-1.57a7.085 7.085 0 0 1 1.63-1.47l-2.37-1.37 1.4-.81 2.34 1.36c1.1-.55 2.257-.97 3.45-1.27 1.137-.29 2.293-.5 3.46-.62l1.14 2.32zm-6.83 4.21c.525.31 1.134.44 1.74.38.813-.1 1.614-.28 2.39-.54l-3.76-2.17c-1.38.9-1.503 1.68-.37 2.33zm13.2 1.1a3.066 3.066 0 0 0-1.88-.33c-.891.11-1.771.3-2.63.57l3.74 2.16c1.6-.97 1.85-1.77.77-2.4z"/><path fill="#CC8B09" d="M41.09 471.73v-1.36l1.53 1-.66 1-.87-.64zM54.47 472.59v-1.36l-3.32.26 1.91 1.3zM54.76 467.61v-1.37l-2.49.9zM44.44 467.54l.83-.79 2.92 2-.18.59s-2.18-.92-2.25-1c-.07-.08-1.32-.8-1.32-.8zM36.8 463.27l3.88 2.2.79-.58s-.49-.56-.52-.61a4.91 4.91 0 00-1.21-1c-.29-.06-2.13-.88-2.13-.88l-.81.87zM43.25 461.87v-1.36l-1.78-.58-.38 1.07.09.48zM31.42 460.89v-1.36l2.07.22-.67 1.32zM31.5 465.49v-1.41h2.36l-.57 1.26-1 1.13z"/><path fill="#F9CA06" d="M43.25 460.51c-.308 0-.616.03-.92.08-.407.06-.867.14-1.38.24-.51.11-1 .25-1.59.41-.537.16-1.061.36-1.57.6l4 2.32.72-.25c1-.34 2-.63 2.89-.87.855-.22 1.728-.37 2.61-.43.8-.05 1.603.01 2.39.16.807.18 1.58.48 2.29.9.697.35 1.292.87 1.73 1.52a2.063 2.063 0 0 1 .26 1.57c-.192.6-.537 1.13-1 1.55a9.588 9.588 0 0 1-1.83 1.45l2.55 1.47-1.39.81-2.58-1.49c-1.205.6-2.464 1.08-3.76 1.45-1.386.38-2.801.64-4.23.79l-1.35-2.42c.378-.01.755-.03 1.13-.08.5-.06 1.06-.16 1.68-.29.62-.13 1.28-.3 2-.5.684-.2 1.352-.45 2-.74l-4-2.3-.52.18-.55.17c-.906.3-1.827.56-2.76.77-.775.18-1.565.29-2.36.32a7.662 7.662 0 0 1-2.08-.2 7.084 7.084 0 0 1-1.93-.77 4.904 4.904 0 0 1-1.7-1.44c-.33-.45-.492-1-.46-1.55.062-.57.292-1.12.66-1.56a7.477 7.477 0 0 1 1.63-1.48l-2.37-1.37 1.4-.8 2.34 1.35c1.102-.54 2.259-.96 3.45-1.26 1.138-.29 2.294-.5 3.46-.63l1.14 2.32zm-6.83 4.22c.526.3 1.135.43 1.74.37.814-.09 1.616-.27 2.39-.54l-3.76-2.17c-1.38.9-1.503 1.68-.37 2.34zm13.2 1.1a2.998 2.998 0 0 0-1.88-.34c-.892.11-1.773.31-2.63.58l3.74 2.16c1.6-.98 1.85-1.78.77-2.4z"/></g><g fill-rule="nonzero"><path fill="#DD990E" d="M46.47 484.05c19.308 0 34.96-9.04 34.96-20.19 0-11.15-15.652-20.19-34.96-20.19s-34.96 9.04-34.96 20.19c0 11.15 15.652 20.19 34.96 20.19z"/><path fill="#DD990E" d="M11.52 464.17v-9.2l6.91 6.15zM81.44 455.21v8.65l-3.54 3.75-1.73-9.91z"/><path fill="#F9CB07" d="M46.47 475.4c19.308 0 34.96-9.04 34.96-20.19 0-11.15-15.652-20.19-34.96-20.19s-34.96 9.04-34.96 20.19c0 11.15 15.652 20.19 34.96 20.19z"/><path fill="#CC8B09" d="M71.46 455.83c-.36 3.4-2.78 6.75-7.29 9.36-9.77 5.64-25.62 5.64-35.4 0-4.5-2.61-6.92-6-7.27-9.36-.42-4 2-8 7.27-11.08 9.78-5.65 25.63-5.65 35.4 0 5.27 3.04 7.7 7.1 7.29 11.08z"/><path fill="#E8A30A" d="M71.46 455.83c-.36 3.4-2.78 6.75-7.29 9.36-9.77 5.64-25.62 5.64-35.4 0-4.5-2.61-6.92-6-7.27-9.36.35-3.4 2.77-6.74 7.27-9.35 9.78-5.65 25.63-5.65 35.4 0 4.51 2.61 6.93 5.95 7.29 9.35z"/><path fill="#CC8B09" d="M46.11 451.1a7.08 7.08 0 0 0-.92.08c-.41.06-.87.14-1.38.25-.54.11-1.074.25-1.6.41-.535.16-1.056.35-1.56.59l4 2.32.72-.25c1-.34 2-.63 2.89-.87.851-.22 1.722-.37 2.6-.43.804-.05 1.611.01 2.4.17.804.17 1.575.47 2.28.89.699.35 1.298.87 1.74 1.52.144.23.24.49.283.76.042.27.031.54-.033.81a3.44 3.44 0 0 1-.94 1.55c-.555.55-1.172 1.04-1.84 1.45l2.56 1.47-1.39.81-2.58-1.49c-1.231.6-2.517 1.09-3.84 1.45-1.385.38-2.8.65-4.23.79L44 461c.375-.01.749-.04 1.12-.09.51-.06 1.07-.16 1.69-.29.62-.13 1.27-.3 2-.5a14.19 14.19 0 0 0 2-.73l-4-2.31-.53.18-.54.17c-1 .33-1.93.59-2.77.78-.775.18-1.565.28-2.36.31a8.548 8.548 0 0 1-2.08-.19 7.42 7.42 0 0 1-1.92-.78 4.982 4.982 0 0 1-1.68-1.44c-.324-.45-.483-1-.45-1.55.021-.56.202-1.1.52-1.56a7.477 7.477 0 0 1 1.63-1.48l-2.37-1.37 1.39-.8 2.35 1.32c1.102-.54 2.259-.96 3.45-1.26 1.134-.29 2.287-.5 3.45-.63l1.21 2.32zm-6.84 4.22c.53.3 1.142.43 1.75.37a11.5 11.5 0 0 0 2.39-.53L39.65 453c-1.38.89-1.51 1.66-.38 2.32zm13.2 1.1a2.998 2.998 0 0 0-1.88-.34c-.889.11-1.766.31-2.62.58l3.74 2.16c1.59-.98 1.85-1.82.76-2.4z"/><path fill="#CC8B09" d="M44 461v-1.36l1.53 1-.67 1L44 461zM57.33 461.82v-1.35l-3.32.25 1.91 1.3zM57.61 456.85v-1.37l-2.49.9zM47.3 456.78l.83-.8 2.92 2-.18.6s-2.18-.92-2.25-1l-1.32-.8zM39.66 452.5l3.87 2.2.8-.57s-.49-.56-.53-.62a5.279 5.279 0 00-1.2-1c-.29-.05-2.13-.87-2.13-.87l-.81.86zM46.11 451.1v-1.35l-1.78-.58-.38 1.06.09.49zM34.28 450.13v-1.36l2.06.22-.66 1.32zM34.35 454.73v-1.41h2.36l-.58 1.26-1 1.13z"/><path fill="#F9CA06" d="M46.11 449.75c-.308 0-.616.02-.92.07-.41.06-.87.14-1.38.25-.51.11-1.05.24-1.6.41-.535.16-1.056.36-1.56.6l4 2.32.72-.26c1-.34 2-.62 2.89-.86.85-.23 1.721-.37 2.6-.43a9.2 9.2 0 0 1 2.4.16c.803.17 1.573.47 2.28.89.699.35 1.298.87 1.74 1.52a2.055 2.055 0 0 1 .25 1.57 3.397 3.397 0 0 1-.94 1.55 9.545 9.545 0 0 1-1.82 1.46l2.56 1.48-1.39.8-2.58-1.49c-1.228.61-2.514 1.1-3.84 1.45-1.385.39-2.8.65-4.23.8L44 459.61c.375-.01.749-.04 1.12-.09.568-.07 1.132-.16 1.69-.29.62-.13 1.27-.3 2-.5.686-.19 1.354-.43 2-.73l-4-2.31c-.17.06-.35.13-.53.18l-.54.17c-1 .33-1.93.59-2.77.78-.775.18-1.565.29-2.36.32a8.551 8.551 0 0 1-2.08-.2 6.687 6.687 0 0 1-1.92-.78 4.864 4.864 0 0 1-1.68-1.43c-.322-.45-.481-1-.45-1.55.06-.58.289-1.12.66-1.57a7.455 7.455 0 0 1 1.63-1.47l-2.37-1.37 1.39-.81 2.21 1.36c1.1-.55 2.257-.97 3.45-1.27 1.134-.29 2.287-.5 3.45-.62l1.21 2.32zM39.27 454c.529.31 1.141.44 1.75.38.813-.1 1.613-.28 2.39-.54l-3.76-2.17c-1.38.89-1.507 1.66-.38 2.33zm13.2 1.1a2.995 2.995 0 0 0-1.88-.33 14.7 14.7 0 0 0-2.62.57l3.74 2.16c1.59-1.01 1.85-1.81.76-2.44v.04z"/></g><g fill-rule="nonzero"><path fill="#D6D8E5" d="M217.47 500c19.308 0 34.96-9.04 34.96-20.19 0-11.15-15.652-20.19-34.96-20.19s-34.96 9.04-34.96 20.19c0 11.15 15.652 20.19 34.96 20.19z" opacity=".3"/><path fill="#DD990E" d="M226.12 494.81c19.308 0 34.96-9.04 34.96-20.19 0-11.15-15.652-20.19-34.96-20.19s-34.96 9.04-34.96 20.19c0 11.15 15.652 20.19 34.96 20.19z"/><path fill="#DD990E" d="M191.17 474.93v-9.2l6.91 6.15zM261.09 465.97v8.65l-3.53 3.75-1.73-9.9z"/><path fill="#F9CB07" d="M226.12 486.16c19.308 0 34.96-9.04 34.96-20.19 0-11.15-15.652-20.19-34.96-20.19s-34.96 9.04-34.96 20.19c0 11.15 15.652 20.19 34.96 20.19z"/><path fill="#CC8B09" d="M251.11 466.6c-.35 3.4-2.78 6.75-7.28 9.35-9.78 5.64-25.63 5.64-35.4 0-4.51-2.6-6.93-5.95-7.28-9.35-.42-4 2-8.05 7.28-11.08 9.77-5.65 25.62-5.65 35.4 0 5.27 3.03 7.7 7.1 7.28 11.08z"/><path fill="#E8A30A" d="M251.11 466.6c-.35 3.4-2.78 6.75-7.28 9.35-9.78 5.64-25.63 5.64-35.4 0-4.51-2.6-6.93-5.95-7.28-9.35.35-3.4 2.77-6.75 7.28-9.35 9.77-5.65 25.62-5.65 35.4 0 4.5 2.6 6.93 5.95 7.28 9.35z"/><path fill="#CC8B09" d="M225.76 461.87c-.308 0-.616.02-.92.07-.41.06-.87.14-1.38.25-.51.11-1 .24-1.59.41-.538.16-1.063.36-1.57.6l4 2.32.72-.26c1-.34 2-.63 2.89-.86a13.57 13.57 0 0 1 2.61-.43c.8-.05 1.604 0 2.39.16.806.17 1.58.47 2.29.89.697.35 1.292.87 1.73 1.52a1.997 1.997 0 0 1 .25 1.57 3.397 3.397 0 0 1-.94 1.55 9.07 9.07 0 0 1-1.83 1.45l2.55 1.48-1.39.8-2.57-1.49c-1.224.61-2.507 1.1-3.83 1.45-1.384.39-2.8.65-4.23.79l-1.35-2.41c.378-.01.755-.04 1.13-.09a15.94 15.94 0 0 0 1.68-.29c.62-.13 1.27-.3 2-.5.685-.19 1.353-.43 2-.73l-4-2.31c-.17.06-.34.13-.52.18l-.55.17c-1 .33-1.93.59-2.76.78-.775.18-1.565.28-2.36.31a7.659 7.659 0 0 1-2.08-.19 6.758 6.758 0 0 1-1.93-.78 4.813 4.813 0 0 1-1.67-1.43c-.33-.45-.492-1-.46-1.55.06-.58.289-1.12.66-1.57a7.085 7.085 0 0 1 1.63-1.47l-2.37-1.37 1.4-.81 2.34 1.36c1.1-.55 2.257-.97 3.45-1.27 1.134-.29 2.287-.5 3.45-.62l1.13 2.32zm-6.83 4.21c.526.31 1.134.44 1.74.38.813-.1 1.614-.28 2.39-.54l-3.76-2.17c-1.38.9-1.503 1.68-.37 2.33zm13.2 1.1a3.098 3.098 0 0 0-1.89-.33c-.888.12-1.764.31-2.62.57l3.74 2.16c1.64-.97 1.85-1.77.77-2.4z"/><path fill="#CC8B09" d="M223.6 471.73v-1.36l1.53 1-.66 1-.87-.64zM236.98 472.59v-1.36l-3.32.26 1.91 1.3zM237.26 467.61v-1.37l-2.48.9zM227 467.54l.83-.79 2.92 2-.18.59s-2.18-.92-2.25-1c-.07-.08-1.32-.8-1.32-.8zM219.31 463.27l3.88 2.2.79-.58s-.49-.56-.52-.61a4.91 4.91 0 00-1.21-1c-.29-.06-2.13-.88-2.13-.88l-.81.87zM225.76 461.87v-1.36l-1.78-.58-.38 1.07.09.48zM213.93 460.89v-1.36l2.07.22-.67 1.32zM214 465.49v-1.41h2.36l-.57 1.26-1 1.13z"/><path fill="#F9CA06" d="M225.76 460.51c-.308 0-.616.03-.92.08-.407.06-.867.14-1.38.24-.51.11-1 .25-1.59.41-.537.16-1.061.36-1.57.6l4 2.32.72-.25c1-.34 2-.63 2.89-.87.855-.22 1.728-.37 2.61-.43.8-.05 1.603.01 2.39.16.807.18 1.58.48 2.29.9.697.35 1.292.87 1.73 1.52a1.997 1.997 0 0 1 .25 1.57 3.44 3.44 0 0 1-.94 1.55 9.588 9.588 0 0 1-1.83 1.45l2.55 1.47-1.39.81-2.57-1.49c-1.228.6-2.51 1.09-3.83 1.45-1.386.38-2.8.64-4.23.79l-1.35-2.42c.378-.01.755-.03 1.13-.08.5-.06 1.06-.16 1.68-.29.62-.13 1.27-.3 2-.5.684-.2 1.352-.45 2-.74l-4-2.3-.52.18-.55.17c-.906.3-1.827.56-2.76.77-.774.18-1.565.29-2.36.32a7.662 7.662 0 0 1-2.08-.2 7.084 7.084 0 0 1-1.93-.77 4.94 4.94 0 0 1-1.67-1.44c-.33-.45-.492-1-.46-1.55.062-.57.292-1.12.66-1.56a7.477 7.477 0 0 1 1.63-1.48l-2.37-1.37 1.4-.8 2.34 1.35c1.102-.54 2.259-.96 3.45-1.26 1.135-.29 2.287-.5 3.45-.63l1.13 2.32zm-6.83 4.22c.526.3 1.135.43 1.74.37.815-.09 1.616-.27 2.39-.54l-3.76-2.17c-1.38.9-1.503 1.68-.37 2.34zm13.2 1.1a2.962 2.962 0 0 0-1.89-.34c-.889.11-1.766.31-2.62.58l3.74 2.16c1.64-.98 1.85-1.78.77-2.4z"/></g><path fill="#D6D8E5" fill-rule="nonzero" d="M404.91 494.32c24.085 0 43.61-11.27 43.61-25.18s-19.525-25.18-43.61-25.18-43.61 11.27-43.61 25.18 19.525 25.18 43.61 25.18z" opacity=".4"/><g fill-rule="nonzero"><path fill="#3A2C6D" d="M402.91 207.24c1.95-3.13 16.84-5.19 21.74 7.43 1.86 4.78 1.57 17 3.12 24.69 1.55 7.69 5.22 12 6.53 18.27 1.31 6.27-.83 16.69-15.85 18.53-15.02 1.84-26.57-3.43-30.12-8.22-3.55-4.79-3.62-15 .07-20.43s6.48-9.91 6.39-17l8.12-23.27z"/><path fill="#FFCEA9" d="M385.07 260s-3.53 24.9 3.14 42.6c6.67 17.7 4.82-4.56 4.82-4.56l-1.6-5.29s-1.34-20.36-.79-25.35c.55-4.99.42-9.28.79-9.68.37-.4-1.33-1.19-2-1.29-.67-.1-4.36 3.57-4.36 3.57z"/><path fill="#3A2C6D" d="M412.74 205.06s-11.21-3.23-18 2.83c-6.21 5.54-5.69 13.08-4.79 16.62.9 3.54 2.72 8.37 5.53 8.64 2.81.27 17.26-28.09 17.26-28.09z"/><path fill="#FFCEA9" d="M417 235.64s-.74 12.5-.51 13.42c.23.92 4.91 1.8 6.22 2.89 1.31 1.09-6.8 13.77-10.92 15.65-4.12 1.88-16.89-2.92-17.77-9.27-.82-5.85 3.65-10.39 5.37-12 1.17-.1 2.346-.13 3.52-.09l.38-6.06c5.62-1.75 13.71-4.54 13.71-4.54z"/><path fill="#F4F4F4" d="M418.74 250.27c3.51.54 7.53 2.42 8.08 4.34.64 2.24 2 12.81-1 20.86-3 8.05-5.09 13.16-6.83 16.62 0 0-15.19 6.52-27.44-1.08 0 0-.84-8.62-.9-13.23-11.3-9.86-1.64-22 7.94-31.47 1.146-.12 2.301-.13 3.45-.05 0 0-8.55 10.11-2.61 15.85 12.71-3.85 15.24-9.56 19.31-11.84z"/><path fill="#FFCEA9" d="M393.68 220.16c1.26-8 7.06-14.1 15.34-13.61 3.33.18 6.517 1.41 9.113 3.5a15.939 15.939 0 0 1 5.352 8.17c.884 3.21.736 6.62-.425 9.75a15.895 15.895 0 0 1-6.04 7.67 15.804 15.804 0 0 1-1.28 3.51c-2.94 3.42-10.72 5.58-13.29 5.62-2.23 0-4.14-2.05-6.23-5.5-4.32-7.19-3.22-15.15-2.54-19.11z"/><path fill="#3A2C6D" d="M411.59 206.7c5.81 1.13 10.58 2.77 12.16 8.47 1.08 3.93 2.49 11.41 1.15 14.57l-.84 2.28-7 3.62s-3.28-2.73-2.26-10.75a5.724 5.724 0 0 0-1-3 8.657 8.657 0 0 1-1-2.42 8.99 8.99 0 0 0-4.56-4.93c-5.23-2.94-12.9-.4-14 .66 3.57-7.3 10.59-9.82 17.35-8.5z"/><path fill="#38226D" d="M422.14 459.79c-2.94 2.39-7.51.74-7.73.95-3 3-7.45 5.61-10.77 8.23-1.83 1.44-4.68 3.37-4.17 6.14.93 4.95 8.86 3.43 11.85 1.91 2.99-1.52 5.43-4 8.26-5.78 2-1.26 4-1.91 4.32-4.46.19-1.54-1.24-7.05-1.76-6.99z"/><path fill="#9C73FF" d="M423.86 465.76c-.39 2.44-2.35 3.11-4.35 4.35-2.88 1.79-5.41 4.37-8.4 5.88-2.76 1.4-9.66 2.79-11.6-.74 1.06 4.77 8.85 3.27 11.81 1.77 2.96-1.5 5.43-4 8.26-5.78 2-1.26 4-1.91 4.32-4.46.024-.34.01-.68-.04-1.02z"/><path fill="#38226D" d="M401.52 455.67c-2.69 2.19-6.75 1-6.95 1.16-2.74 2.75-6.8 5.11-9.84 7.5-1.68 1.32-4.3 3.09-3.83 5.62.85 4.54 8.11 3.14 10.85 1.76 2.74-1.38 5-3.69 7.57-5.3 1.85-1.15 3.67-1.75 4-4.08.13-1.41-1.32-6.72-1.8-6.66z"/><path fill="#9C73FF" d="M403.24 461.39c-.35 2.23-2.15 2.85-4 4-2.64 1.64-5 4-7.7 5.38-2.53 1.29-8.84 2.56-10.62-.68 1 4.37 8.1 3 10.81 1.63 2.71-1.37 5-3.69 7.57-5.3 1.85-1.15 3.67-1.75 4-4.08.018-.32-.002-.64-.06-.95z"/><path fill="#FFCEA9" d="M385.68 318.94c1.29-10.13 5-24.85 5-24.85 3.553 1.67 7.4 2.61 11.32 2.79 6.54.33 17-1.65 17-1.65 1.835 3.19 3.838 6.29 6 9.27 2.92 4.05 8.6 12.94 7.23 28.47-.9 10.15-6.58 53.24-6.58 53.24a80.562 80.562 0 0 1 3.49 22.35c-.06 6.27-1.71 16.92-3.56 26.77l-3.39 24.46s-4.51 3.26-7.73.95l.41-23.93c-.4-5.86-1-14.5-1.35-20-.61-9-2.22-23.26-2.68-26.83-.46-3.57-1.61-9.79-2.15-16.77-.54-6.98-3.18-42.45-3.18-42.45l-.36 6.64s-.35 10.79-1.9 24.09c-1.55 13.3-2.09 19.21-2.09 19.21s2.69 4.95 3 8.59c.27 2.88 3.56 25.63 1.6 37.2l-4 29.42a7.718 7.718 0 0 1-3.389 1.31 7.778 7.778 0 0 1-3.611-.39l-2.37-29.65c-1.59-11.29-5-35.21-5.48-38.32-.68-4.09-1.24-6.11-2-19s-.53-40.79.77-50.92z"/><path fill="#006DFF" d="M419 292.09l8.72 17.53s13.32 19.49-.48 69.6l2.59 15.46s-26.12 16.76-43.6 0c0 0-6.06-46.31-2.84-67.66a245.953 245.953 0 0 1 8.14-36.28s4.28 4.73 26.31 1.61"/><path fill="#FFCEA9" d="M364.34 304.54c2 .38 3.91-.05 6.71.71 2.093.66 4.275 1 6.47 1 2.38 0 9.06-3.33 14.79-7.35 6.75-4.73 13.45-12.9 15.87-16.83 5.21-8.48 10.2-17.23 11.74-21.71 1.84-5.38 1.8-1.72 5-1.8 3.73-.09 5.74 1.28 2.94 8.58-2.8 7.3-5.35 12.38-11.59 21a69.15 69.15 0 0 1-16.69 16.66 86.616 86.616 0 0 1-18.32 9.79c-1.87.77-3.06 1.8-6.45 3.68a24.049 24.049 0 0 1-11 3.16c-3.24-.08-4.4-.62-4.67-1.28-.34-.83.29-1.4 1.77-1.54 2.367-.03 4.708-.5 6.91-1.37 0 0-3.23.46-5.18.56-1.741.09-3.486-.04-5.19-.41-1.64-.39-2.56-2.71-1.07-2.89 1.49-.18 2.69.1 5.59-.09 1.534-.1 3.052-.38 4.52-.83-1.938.02-3.875-.12-5.79-.42a8.148 8.148 0 0 1-4.27-1.71c-.63-.52-.74-2 1.14-2 1.69 0 3.81.78 7 .34 2.35-.33 4-.88 3.6-1.19-.4-.31-1.73 0-3.67-.71s-3.3-2.41-2.85-3.43c.45-1.02.67-.29 2.69.08z"/><path fill="#EDEDED" d="M426.13 274.06s-8.55.45-13.41-4.91l5.27-11s2.43-6.09 8.13-4.59c5.7 1.5 5.79 9.52.01 20.5zM398.58 246.31s-6.94-2.12-14.31 13.25l2.76 1.66s7.25-10.97 11.55-14.91z"/></g><path fill="#D6D8E5" fill-rule="nonzero" d="M195.1 339L81.5 273.42a6.39 6.39 0 0 1-3.19-5.53 6.39 6.39 0 0 1 3.19-5.52c.97-.56 2.07-.85 3.19-.85s2.22.29 3.19.85L201.48 328a6.395 6.395 0 0 1 2.433 2.51 6.39 6.39 0 0 1-.43 6.72 6.366 6.366 0 0 1-2.733 2.18 6.352 6.352 0 0 1-5.65-.41z" opacity=".4"/><path fill="#D33D3D" fill-rule="nonzero" d="M146.05 299.33c-40.66-23.47-73.73-80.76-73.73-127.7s33.07-66 73.73-42.56c40.66 23.44 73.73 80.75 73.73 127.7s-33.08 66.03-73.73 42.56zm0-155c-33.38-19.27-60.54-3.59-60.54 34.95 0 38.54 27.16 85.57 60.54 104.84 33.38 19.27 60.53 3.6 60.53-34.94s-27.15-85.61-60.53-104.88v.03z"/><path fill="#D33D3D" fill-rule="nonzero" d="M83.82 129.6l13.51-7.38-2.02 9.26zM185.62 311.28c.33-.15 14.77-8.23 14.77-8.23l-11.16-1.79-3.61 10.02z"/><path fill="#F4F4F4" fill-rule="nonzero" d="M184.104 301.64c26.215-15.13 26.214-64.21-.003-109.62-26.217-45.41-68.722-69.95-94.937-54.82-26.215 15.14-26.214 64.22.003 109.63s68.722 69.95 94.937 54.81z"/><path fill="#FF4D4D" fill-rule="nonzero" d="M136.64 304.56C96 281.08 62.91 223.8 62.91 176.85c0-46.95 33.08-66 73.73-42.56 40.65 23.44 73.73 80.76 73.73 127.7S177.3 328 136.64 304.56zm0-155c-33.37-19.27-60.53-3.6-60.53 34.94s27.16 85.58 60.53 104.85c33.37 19.27 60.54 3.59 60.54-34.95 0-38.54-27.18-85.6-60.54-104.87v.03z"/><path fill="#FF4D4D" fill-rule="nonzero" d="M136.64 272.16C111.46 257.62 91 222.13 91 193.05s20.49-40.91 45.67-26.37c25.18 14.54 45.68 50 45.68 79.11s-20.52 40.92-45.71 26.37zm0-90.24c-17.91-10.34-32.48-1.93-32.48 18.75s14.57 45.92 32.48 56.26c17.91 10.34 32.48 1.92 32.48-18.76s-14.57-45.91-32.48-56.25z"/><path fill="#FF4D4D" fill-rule="nonzero" d="M136.64 240.28c-10-5.75-18.06-19.79-18.06-31.29s8.1-16.18 18.06-10.43c9.96 5.75 18.07 19.79 18.07 31.29s-8.1 16.15-18.07 10.43zm0-26.48c-2.68-1.55-4.87-.29-4.87 2.81.094 1.69.584 3.33 1.43 4.8.846 1.46 2.024 2.7 3.44 3.63 2.69 1.55 4.87.29 4.87-2.81a10.79 10.79 0 0 0-1.427-4.8 10.764 10.764 0 0 0-3.443-3.63z"/><path fill="#2B303F" fill-rule="nonzero" d="M11.02 290.9l-6.76.09 21.96-9.32-12.73 7.91z"/><path fill="#E8A30A" fill-rule="nonzero" d="M13.962 294.02c.674-.39.675-1.65.001-2.82-.674-1.16-1.767-1.79-2.441-1.41-.675.39-.675 1.66-.001 2.82.674 1.17 1.766 1.8 2.441 1.41zM138.176 222.15c.674-.38.675-1.65.001-2.81-.674-1.17-1.767-1.8-2.441-1.41-.675.39-.675 1.65-.001 2.82.674 1.16 1.766 1.79 2.441 1.4z"/><path fill="#2B303F" fill-rule="nonzero" d="M15.64 300.69l-1.61-6.73 17.66-11.26-.77 1.59z"/><path fill="#E8A30A" fill-rule="nonzero" d="M14 294c.15-.13 124.15-71.81 124.15-71.81l-2.28-4.3-124.38 72L14 294z"/></g></svg>