<svg xmlns="http://www.w3.org/2000/svg" width="500" height="500" viewBox="0 0 500 500"><title>S Logo Start</title><g fill="none"><path fill="#FF9300" d="M375.835 0H124.02C56.283 0 1.243 54.363.15 121.839l-.018 2.049v252.224c0 67.737 54.363 122.777 121.84 123.871l2.048.017h251.815c67.737 0 122.777-54.363 123.871-121.839l.017-2.049V123.888C499.723 56.15 445.36 1.11 377.883.017L375.836 0z"/><path fill="#FFF" d="M368.09 434.754c21.806 0 38.348-5.64 49.628-16.92 11.279-11.278 16.919-27.821 16.919-49.628l-.024-119.938-306.018-40.001v-63.615c0-5.865 1.617-10.414 4.85-13.648 3.234-3.233 7.783-4.85 13.648-4.85h206.108c12.331 0 18.497 6.166 18.497 18.498v44.48l62.915 8.394.024-65.732c0-21.807-5.64-38.35-16.92-49.629-11.279-11.28-27.821-16.919-49.628-16.919H132.205c-21.506 0-37.974 5.677-49.403 17.032-11.43 11.354-17.145 27.86-17.145 49.516l.011 121.77 306.03 40.2v61.584c0 12.332-6.166 18.498-18.497 18.498H147.093c-12.332 0-18.498-6.166-18.498-18.498l-.048-43.087-62.879-8.145-.01 64.09c0 21.656 5.714 38.162 17.144 49.516 11.43 11.355 27.897 17.032 49.403 17.032h235.884z"/></g></svg>