<?xml version="1.0" encoding="UTF-8"?>
<svg width="500px" height="500px" viewBox="0 0 500 500" version="1.1" xmlns="http://www.w3.org/2000/svg" xmlns:xlink="http://www.w3.org/1999/xlink">
    <title>S Logo FInal</title>
    <g id="S-Logo-FInal" stroke="none" stroke-width="1" fill="none" fill-rule="evenodd">
        <g id="Group" transform="translate(90.132489, -0.000000)" fill-rule="nonzero">
            <path d="M189.702741,-2.30215846e-12 L123.887504,-2.30215846e-12 C56.1505368,-2.30215846e-12 1.11062199,54.3625452 0.016597386,121.838798 L3.04112291e-12,123.887504 L3.04112291e-12,376.112496 C3.04112291e-12,443.849463 54.3625452,498.889378 121.838798,499.983403 L123.887504,500 L189.702741,500 C257.439709,500 312.479624,445.637455 313.573648,378.161202 L313.590246,376.112496 L313.590246,123.887504 C313.590246,56.1505368 259.2277,1.11062199 191.751448,0.016597386 L189.702741,-2.30215846e-12 Z" id="Combined-Shape" fill="#FF9300"></path>
            <path d="M182.956629,434.753744 C204.763135,434.753744 221.306002,429.11413 232.585229,417.834903 C243.864457,406.555676 249.50407,390.012809 249.50407,368.206303 L249.480129,248.268361 L127.46283,208.266859 L127.46283,144.652017 C127.46283,138.786818 129.07952,134.23753 132.312898,131.004152 C135.546277,127.770773 140.095565,126.154084 145.960763,126.154084 L168.068049,126.154084 C180.400004,126.154084 186.565982,132.320061 186.565982,144.652017 L186.601167,187.96425 L249.480129,208.266859 L249.50407,131.793697 C249.50407,109.987191 243.864457,93.4443245 232.585229,82.1650971 C221.306002,70.8858698 204.763135,65.2462561 182.956629,65.2462561 L131.072183,65.2462561 C109.566456,65.2462561 93.0987845,70.9234672 81.6691675,82.2778894 C70.2395504,93.6323116 64.5247419,110.137581 64.5247419,131.793697 L64.5358644,253.563951 L186.565982,293.763402 L186.565982,355.347983 C186.565982,367.679939 180.400004,373.845916 168.068049,373.845916 L145.960763,373.845916 C133.628808,373.845916 127.46283,367.679939 127.46283,355.347983 L127.414827,312.261335 L64.5247419,293.763402 L64.5247419,368.206303 C64.5247419,389.862419 70.2395504,406.367688 81.6691675,417.722111 C93.0987845,429.076533 109.566456,434.753744 131.072183,434.753744 L182.956629,434.753744 Z" id="Path" fill="#FFFFFF"></path>
        </g>
    </g>
</svg>