<svg xmlns="http://www.w3.org/2000/svg" width="500" height="500" viewBox="0 0 500 500"><title>S Logo FInal</title><g fill="none" fill-rule="nonzero"><path fill="#FF9300" d="M279.835 0H214.02C146.283 0 91.243 54.363 90.15 121.839l-.018 2.049v252.224c0 67.737 54.363 122.777 121.84 123.871l2.048.017h65.815c67.737 0 122.777-54.363 123.871-121.839l.017-2.049V123.888C403.723 56.15 349.36 1.11 281.883.017L279.836 0z"/><path fill="#FFF" d="M273.09 434.754c21.806 0 38.348-5.64 49.628-16.92 11.279-11.278 16.919-27.821 16.919-49.628l-.024-119.938-122.018-40.001v-63.615c0-5.865 1.617-10.414 4.85-13.648 3.234-3.233 7.783-4.85 13.648-4.85h22.108c12.331 0 18.497 6.166 18.497 18.498l.036 43.312 62.879 20.303.024-76.473c0-21.807-5.64-38.35-16.92-49.629-11.279-11.28-27.821-16.919-49.628-16.919h-51.884c-21.506 0-37.974 5.677-49.403 17.032-11.43 11.354-17.145 27.86-17.145 49.516l.011 121.77 122.03 40.2v61.584c0 12.332-6.166 18.498-18.497 18.498h-22.108c-12.332 0-18.498-6.166-18.498-18.498l-.048-43.087-62.89-18.498v74.443c0 21.656 5.715 38.162 17.145 49.516 11.43 11.355 27.897 17.032 49.403 17.032h51.884z"/></g></svg>