<svg xmlns="http://www.w3.org/2000/svg" width="26" height="31" viewBox="0 0 26 31"><title>sass-logo-stijn-de-vries</title><path fill="#ED5995" d="M25.406 4.609c.895 3.51-1.996 7.772-6.037 9.337-2.889 1.117-5.788 1.265-7.477.71-1.17-.383-2.116-1.168-2.477-1.91l-.086-.201-.014-.038a2.367 2.367 0 0 1-.07-.224c-.096-.395-.035-.768.365-.99.462-.253.7-.112 1.181.418.152.167.488.388.934.553.654.242 1.453.337 2.401.23 5.215-.584 9.188-4.694 8.09-7.106-.783-1.718-5.578-1.858-10.526.608-5.476 2.729-7.125 4.909-7.245 7.097-.075 1.38.636 2.323 2.806 4.04l1.245.967.407.325c.437.356.756.638 1.054.938l.132.135.18-.047c.529-.13 1.165-.21 1.963-.247l.307-.012.322-.008c3.469-.06 5.992 2.205 5.888 4.833-.061 1.551-1.307 2.679-2.276 2.842-.511.088-.888-.006-.993-.577-.08-.446.067-.593.547-.888.403-.249.717-.602.786-1.08.156-1.088-.931-2.393-3.34-2.674a7.945 7.945 0 0 0-1.568-.039l-.287.03-.212.031.008.024c.42 1.519.243 3.524-.615 5.132l-.159.28-.154.243c-1.573 2.344-4.404 3.558-7.031 2.827-1.493-.416-2.353-2.724-1.335-4.975.493-1.09 1.646-2.176 3.255-3.26.43-.289.875-.566 1.324-.828l.45-.257.236-.13L6 19.728l-1.22-.855C2.281 17.047.857 15.437.477 13.471c-.32-1.647.776-4.185 3.341-6.584 2.202-2.06 5.294-3.823 8.656-5.078l.506-.184C18.594-.37 24.456.885 25.406 4.609zM8.839 22.712l-.195.112c-.523.303-1.042.645-1.524 1.023-.358.281-.681.57-.961.867-1.013 1.07-1.34 2.387-1.046 2.558.428.248 1.707-.21 2.58-1.16.326-.358.587-.737.78-1.136a3.99 3.99 0 0 0 .197-.49c.179-.538.24-1.11.178-1.708l-.009-.066z"/></svg>