<svg xmlns="http://www.w3.org/2000/svg" width="70" height="111" viewBox="0 0 70 111"><title>sdv-logo-2</title><path fill="#FF9300" fill-rule="nonzero" d="M41.69 2.771l.43.004c14.211.23 25.66 11.821 25.66 26.087V81.98l-.003.432c-.23 14.21-11.822 25.66-26.088 25.66H27.83l-.432-.004c-14.21-.23-25.659-11.822-25.659-26.088V28.862l.003-.432C1.971 14.22 13.563 2.771 27.83 2.771h13.86zm-1.421 13.74H29.342c-4.53 0-7.997 1.197-10.405 3.588-2.407 2.391-3.61 5.867-3.61 10.428l.002 25.645 25.7 8.466v12.97c0 2.596-1.299 3.895-3.896 3.895h-4.656c-2.597 0-3.895-1.299-3.895-3.896l-.01-9.074-13.245-3.895v15.677c0 4.561 1.203 8.037 3.61 10.428 2.408 2.392 5.876 3.587 10.405 3.587h10.927c4.592 0 8.076-1.187 10.451-3.563 2.376-2.375 3.564-5.86 3.564-10.452l-.006-25.259-25.696-8.424V33.235c0-1.235.34-2.194 1.021-2.874.681-.681 1.64-1.022 2.874-1.022h4.656c2.597 0 3.896 1.299 3.896 3.896l.007 9.121 13.242 4.276.006-16.105c0-4.593-1.188-8.077-3.564-10.452-2.375-2.375-5.859-3.563-10.451-3.563z"/></svg>