<svg xmlns="http://www.w3.org/2000/svg" width="70" height="111" viewBox="0 0 70 111"><title>Artboard Copy 2</title><g fill="none"><path fill="#FF9300" d="M42.1 0H27.5C12.4 0 .2 12.1 0 27v56.4c0 15 12.1 27.2 27 27.4h15.1c15 0 27.2-12 27.4-27V27.5c0-15.1-12-27.3-27-27.5h-.4z"/><path fill="#FFF" d="M40.6 96.4c4.8 0 8.5-1.3 11-3.8s3.7-6.1 3.7-11V55l-27-8.8V32.1c0-1.3.3-2.3 1-3.1.7-.7 1.8-1 3.1-1h4.9c2.7 0 4.1 1.3 4.1 4.1v9.6l13.9 4.5v-17c0-4.8-1.2-8.5-3.7-11s-6.2-3.7-11-3.7H29.1c-4.8 0-8.5 1.2-11 3.7-2.5 2.6-3.8 6.2-3.8 11v27l27.1 8.9v13.7c0 2.7-1.4 4.1-4.1 4.1h-4.9c-2.8 0-4.1-1.4-4.1-4.1l-.1-9.6-13.9-4.1v16.5c0 4.8 1.3 8.5 3.8 11s6.2 3.8 11 3.8h11.5z"/></g></svg>