<svg xmlns="http://www.w3.org/2000/svg" role="img" aria-label="Stijn de Vries Logo" x="0px" y="0px" width="32" height="111" viewBox="0 0 70 111" style="height: 50px;">
<defs>
<linearGradient id="logo-gradient" x1="50%" y1="0%" x2="50%" y2="100%">
<stop offset="0%" stop-color="#FF9F4C">
<animate attributeName="stop-color" values="#FF9300; #FF5858; #FF9300;" dur="2s" repeatCount="indefinite"></animate>
</stop>
<stop offset="100%" stop-color="#FF9F4C">
<animate attributeName="stop-color" values="#FF9300; rgb(244, 200, 77); #FF9300;" dur="5s" repeatCount="indefinite"></animate>
</stop>
</linearGradient>
</defs>
<g>
<path fill="url('#logo-gradient')" d="M42.1 0L42.5 0C57.5 0.2 69.5 12.4 69.5 27.5L69.5 27.5 69.5 83.4 69.5 83.8C69.3 98.8 57.1 110.8 42.1 110.8L42.1 110.8 27.5 110.8 27 110.8C12.1 110.6 0 98.4 0 83.4L0 83.4 0 27.5 0 27C0.2 12.1 12.4 0 27.5 0L27.5 0 42.1 0ZM40.6 14.5L29.1 14.5C24.3 14.5 20.6 15.7 18.1 18.2 15.6 20.8 14.3 24.4 14.3 29.2L14.3 56.2 41.4 65.1 41.4 78.8C41.4 81.5 40 82.9 37.3 82.9L32.4 82.9C29.6 82.9 28.3 81.5 28.3 78.8L28.2 69.2 14.3 65.1 14.3 81.6C14.3 86.4 15.6 90.1 18.1 92.6 20.6 95.1 24.3 96.4 29.1 96.4L40.6 96.4C45.4 96.4 49.1 95.1 51.6 92.6 54.1 90.1 55.3 86.5 55.3 81.6L55.3 55 28.3 46.2 28.3 32.1C28.3 30.8 28.6 29.8 29.3 29 30 28.3 31.1 28 32.4 28L37.3 28C40 28 41.4 29.3 41.4 32.1L41.4 41.7 55.3 46.2 55.3 29.2C55.3 24.4 54.1 20.7 51.6 18.2 49.1 15.7 45.4 14.5 40.6 14.5Z"></path>
</g>
</svg>