<?xml version="1.0" encoding="UTF-8"?>
<svg width="70px" height="111px" viewBox="0 0 70 111" version="1.1" xmlns="http://www.w3.org/2000/svg" xmlns:xlink="http://www.w3.org/1999/xlink">
    <!-- Generator: Sketch Beta 62 (91269) - https://sketch.com -->
    <title>sdv-logo-2</title>
    <desc>Created with Sketch Beta.</desc>
    <g id="sdv-logo-2" stroke="none" stroke-width="1" fill="none" fill-rule="evenodd">
        <path d="M42.0541237,-6.39488462e-13 L42.5082898,0.00367938028 C57.4667172,0.246207483 69.5180412,12.4476937 69.5180412,27.4639175 L69.5180412,27.4639175 L69.5180412,83.3782439 L69.5143619,83.83241 C69.2718338,98.7908374 57.0703475,110.842161 42.0541237,110.842161 L42.0541237,110.842161 L27.4639175,110.842161 L27.0097514,110.838482 C12.051324,110.595954 8.17124146e-13,98.3944677 8.17124146e-13,83.3782439 L8.17124146e-13,83.3782439 L8.17124146e-13,27.4639175 L0.00367938029,27.0097514 C0.246207483,12.051324 12.4476937,-6.39488462e-13 27.4639175,-6.39488462e-13 L27.4639175,-6.39488462e-13 L42.0541237,-6.39488462e-13 Z M40.5586164,14.4640721 L29.0566482,14.4640721 C24.2891657,14.4640721 20.638541,15.7226208 18.1047741,18.2397182 C15.5710072,20.7568156 14.3041237,24.415775 14.3041237,29.2165966 L14.3065894,56.2111528 L41.3587533,65.1227409 L41.3587533,78.7750771 C41.3587533,81.5088782 39.9918528,82.8757788 37.2580516,82.8757788 L32.357213,82.8757788 C29.6234118,82.8757788 28.2565113,81.5088782 28.2565113,78.7750771 L28.2458696,69.2234426 L14.3041237,65.1227409 L14.3041237,81.6255648 C14.3041237,86.4263864 15.5710072,90.0853458 18.1047741,92.6024432 C20.638541,95.1195406 24.2891657,96.3780893 29.0566482,96.3780893 L40.5586164,96.3780893 C45.392777,96.3780893 49.0600712,95.1278754 51.5604991,92.6274475 C54.0609269,90.1270196 55.3111409,86.4597254 55.3111409,81.6255648 L55.3058335,55.0372034 L28.2565113,46.1694976 L28.2565113,32.0670843 C28.2565113,30.7668618 28.6149059,29.7583559 29.3316952,29.0415666 C30.0484846,28.3247773 31.0569905,27.9663826 32.357213,27.9663826 L37.2580516,27.9663826 C39.9918528,27.9663826 41.3587533,29.3332832 41.3587533,32.0670843 L41.3665533,41.6687274 L55.3058335,46.1694976 L55.3111409,29.2165966 C55.3111409,24.382436 54.0609269,20.7151418 51.5604991,18.2147139 C49.0600712,15.714286 45.392777,14.4640721 40.5586164,14.4640721 Z" id="Combined-Shape" fill="#FFFFFF" fill-rule="nonzero"></path>
    </g>
</svg>