<svg xmlns="http://www.w3.org/2000/svg" xmlns:xlink="http://www.w3.org/1999/xlink" width="1024" height="1024" viewBox="0 0 1024 1024"><title>send-an-email@SVG</title><defs><linearGradient id="a" x1="50%" x2="50%" y1="0%" y2="100%"><stop offset="0%" stop-color="#1D63F0"/><stop offset="100%" stop-color="#1AD5FD"/></linearGradient><path id="b" d="M74.353 0h591.294c25.854 0 35.23 2.692 44.682 7.747 9.451 5.055 16.87 12.473 21.924 21.924C737.308 39.123 740 48.5 740 74.353v333.294c0 25.854-2.692 35.23-7.747 44.682-5.055 9.451-12.473 16.87-21.924 21.924-9.452 5.055-18.828 7.747-44.682 7.747H74.353c-25.854 0-35.23-2.692-44.682-7.747-9.451-5.055-16.87-12.473-21.924-21.924C2.692 442.877 0 433.5 0 407.647V74.353c0-25.854 2.692-35.23 7.747-44.682C12.802 20.22 20.22 12.801 29.67 7.747 39.123 2.692 48.5 0 74.353 0z"/></defs><g fill="none" fill-rule="evenodd"><path fill="url(#a)" d="M0 0h1024v1024H0z"/><g transform="translate(142 271)"><mask id="c" fill="#fff"><use xlink:href="#b"/></mask><path fill="#FFF" fill-rule="nonzero" d="M726.433 480.766c-1.233 0-3.7 1.234-4.933 1.234h-703c-1.233 0-3.7 0-4.933-1.234L233.1 261.026l46.867 48.145c50.566 51.849 130.733 51.849 181.3 0l46.866-48.145 218.3 219.74zM740 457.31V21.535c0-2.469 0-4.938-1.233-6.172-1.234 2.469-218.3 227.146-218.3 227.146L740 462.249v-4.939zM0 458.545V24.004c0-2.469 0-4.938 1.233-6.172 1.234 2.469 218.3 227.146 218.3 227.146L1.233 463.483C0 462.248 0 459.779 0 458.545zM447.7 286.95c-43.167 43.208-112.233 43.208-154.167 0L13.563.55c-1.23-1.235 714.104 0 714.104 0L447.7 286.95z" mask="url(#c)"/></g></g></svg>