<svg xmlns="http://www.w3.org/2000/svg" width="1024" height="1024" viewBox="0 0 1024 1024"><title>Send-me-a-whatsapp@SVG</title><defs><linearGradient id="a" x1="50%" x2="50%" y1="0%" y2="100%"><stop offset="0%" stop-color="#67FF81"/><stop offset="100%" stop-color="#01B41F"/></linearGradient></defs><g fill="none" fill-rule="evenodd"><path fill="url(#a)" d="M0 0h1024v1024H0z"/><path fill="#FFF" fill-rule="nonzero" d="M783.17 242.33c-69.302-69.36-161.465-107.576-259.66-107.615-202.32 0-366.986 164.602-367.067 366.925-.026 64.673 16.876 127.803 48.998 183.449l-52.076 190.153 194.588-51.027c53.614 29.232 113.976 44.638 175.411 44.664h.151c202.301 0 366.982-164.622 367.064-366.947.039-98.048-38.106-190.243-107.41-259.602zM523.515 806.905h-.125c-54.745-.021-108.44-14.723-155.281-42.512l-11.142-6.61-115.47 30.282 30.82-112.547-7.255-11.54c-30.54-48.56-46.67-104.687-46.646-162.314.066-168.162 136.93-304.974 305.217-304.974 81.489.031 158.091 31.798 215.693 89.446 57.602 57.648 89.306 134.279 89.276 215.773-.066 168.176-136.929 304.996-305.087 304.996zm167.348-228.424c-9.173-4.589-54.264-26.77-62.671-29.83-8.407-3.061-14.52-4.59-20.637 4.59-6.113 9.178-23.69 29.83-29.042 35.95-5.35 6.119-10.7 6.884-19.87 2.294-9.173-4.589-38.725-14.271-73.757-45.508-27.264-24.309-45.673-54.337-51.023-63.517-5.35-9.18-.569-14.14 4.023-18.713 4.125-4.107 9.171-10.708 13.757-16.062 4.585-5.353 6.115-9.18 9.171-15.298 3.058-6.12 1.529-11.475-.764-16.064-2.292-4.589-20.636-49.719-28.279-68.076-7.444-17.88-15.007-15.46-20.637-15.741-5.344-.266-11.464-.322-17.578-.322-6.113 0-16.05 2.294-24.457 11.473-8.406 9.18-32.1 31.362-32.1 76.49 0 45.13 32.864 88.73 37.45 94.848 4.586 6.12 64.673 98.731 156.678 138.446 21.884 9.447 38.967 15.088 52.287 19.315 21.972 6.976 41.966 5.992 57.77 3.632 17.621-2.632 54.263-22.18 61.908-43.597 7.643-21.419 7.643-39.775 5.35-43.6-2.294-3.824-8.407-6.12-17.579-10.71z"/></g></svg>