<?xml version="1.0" encoding="UTF-8"?>
<svg width="1024px" height="1024px" viewBox="0 0 1024 1024" version="1.1" xmlns="http://www.w3.org/2000/svg" xmlns:xlink="http://www.w3.org/1999/xlink">
    <title>Send-me-a-whatsapp@SVG</title>
    <defs>
        <linearGradient x1="50%" y1="0%" x2="50%" y2="100%" id="linearGradient-1">
            <stop stop-color="#67FF81" offset="0%"></stop>
            <stop stop-color="#01B41F" offset="100%"></stop>
        </linearGradient>
    </defs>
    <g id="Send-me-a-whatsapp" stroke="none" stroke-width="1" fill="none" fill-rule="evenodd">
        <rect id="Origin-Color" fill="url(#linearGradient-1)" x="0" y="0" width="1024" height="1024"></rect>
        <g id="whatsapp-icon" transform="translate(153.000000, 134.000000)" fill="#FFFFFF" fill-rule="nonzero">
            <path d="M630.169532,108.329868 C560.868253,38.9706118 468.705118,0.753898441 370.510396,0.714914034 C168.189324,0.714914034 3.52419032,165.317073 3.44322271,367.640144 C3.41723311,432.313275 20.3194722,495.443023 52.4406238,551.088764 L0.365453818,741.241703 L194.952619,690.215114 C248.567173,719.447421 308.929028,734.853259 370.364454,734.879248 L370.515394,734.879248 C572.816473,734.879248 737.496601,570.257097 737.578598,367.932027 C737.617553,269.884246 699.472811,177.689124 630.169532,108.329868 Z M370.515394,672.905038 L370.390444,672.905038 C315.645342,672.884046 261.95082,658.181927 215.108557,630.393043 L203.967013,623.783687 L88.4962015,654.064574 L119.317873,541.517593 L112.061775,529.978209 C81.5219912,481.418633 65.392443,425.291084 65.4164067,367.664134 C65.482407,199.502399 202.346661,62.690124 370.633347,62.690124 C452.121751,62.7211116 528.72411,94.4884046 586.32607,152.136345 C643.928029,209.784286 675.632347,286.414634 675.60238,367.909036 C675.536385,536.084766 538.673131,672.905038 370.515394,672.905038 L370.515394,672.905038 Z M537.863455,444.481407 C528.690124,439.892243 483.59916,417.710116 475.191523,414.65034 C466.784886,411.589564 460.671331,410.060176 454.554778,419.240504 C448.442223,428.418832 430.865254,449.071571 425.513395,455.190124 C420.163535,461.309676 414.813675,462.07537 405.642343,457.485206 C396.470012,452.896042 366.917833,443.213914 331.885846,411.977409 C304.621751,387.668133 286.213115,357.640144 280.863255,348.459816 C275.513395,339.280488 280.294482,334.319472 284.885646,329.747301 C289.010996,325.639944 294.056977,319.038585 298.643143,313.684726 C303.228309,308.331867 304.757697,304.505398 307.814474,298.386845 C310.872251,292.267293 309.342863,286.912435 307.04978,282.323271 C304.757697,277.734106 286.414034,232.604158 278.771092,214.246501 C271.327069,196.367653 263.764094,198.786685 258.134346,198.505798 C252.790484,198.239904 246.669932,198.183926 240.556377,198.183926 C234.442823,198.183926 224.505798,200.478009 216.09916,209.657337 C207.692523,218.836665 183.999,241.018792 183.999,286.147741 C183.999,331.276689 216.862855,374.87625 221.44902,380.994802 C226.035186,387.114354 286.122151,479.726309 378.127349,519.441423 C400.010596,528.887645 417.093762,534.529388 430.414434,538.755698 C452.385646,545.731907 472.379648,544.748301 488.184326,542.388245 C505.805278,539.756297 542.446621,520.208117 550.091563,498.790684 C557.734506,477.372251 557.734506,459.015594 555.441423,455.191124 C553.148341,451.366653 547.034786,449.071571 537.863455,444.481407 L537.863455,444.481407 Z" id="Shape"></path>
        </g>
    </g>
</svg>