<svg xmlns="http://www.w3.org/2000/svg" width="1024" height="1024" viewBox="0 0 1024 1024"><title>Send-me-a-message@SVG</title><defs><linearGradient id="a" x1="50%" x2="50%" y1="0%" y2="100%"><stop offset="0%" stop-color="#67FF81"/><stop offset="100%" stop-color="#01B41F"/></linearGradient></defs><g fill="none" fill-rule="evenodd"><path fill="url(#a)" d="M0 0h1024v1024H0z"/><path fill="#FFF" d="M512 187.733c207.365 0 375.467 139.449 375.467 311.467 0 172.018-168.102 311.467-375.467 311.467-25.058 0-49.543-2.037-73.228-5.92-20.91-2.035-33.31-.104-54.73 6.522-25.642 7.931-65.263 42.064-119.509 42.064-3.046 0 51.2-43.729 51.2-76.8l-.004-11.758C208.227 709.985 136.533 611.538 136.533 499.2c0-172.018 168.102-311.467 375.467-311.467z"/></g></svg>