<svg xmlns="http://www.w3.org/2000/svg" width="461" height="501" viewBox="0 0 461 501"><title>Слой 2</title><g fill="none"><path fill="#D6D8E5" d="M306.4 351.106l-50.15-29c-3.61-2.08-3.16-5.73 1-8.14l32.48-18.76 63.24 36.51-32.49 18.76c-4.15 2.45-10.47 2.71-14.08.63z" opacity=".4"/><path fill="#B1B4C4" d="M310.92 348.446l-50.14-28.95c-3.62-2.09-3.16-5.73 1-8.14l32.49-18.76 63.24 36.51-32.48 18.75c-4.17 2.42-10.49 2.68-14.11.59z"/><path fill="#B1B4C4" d="M357.52 329.106v-1.91l-2.92 1.68zm-99.18-13.06v-1.94l3 1.24z"/><path fill="#D6D8E5" d="M310.92 346.536l-50.14-28.95c-3.62-2.09-3.16-5.74 1-8.15l32.49-18.75 63.24 36.51-32.49 18.75c-4.16 2.41-10.48 2.68-14.1.59z"/><path fill="#9EA1AF" d="M294.45 290.766l-7.83-25.96 63.93 36.66 6.97 25.73z"/><path fill="#9EA1AF" d="M355.66 328.266l1.86-1.07-2.76-2.2z"/><path fill="#B1B4C4" d="M292.43 291.746l-7.82-25.97 63.93 36.67 7.12 25.82z"/><path fill="#B1B4C4" d="M454.71 372.026l-247.45-142.87c-3.47-2-6.28-7.38-6.28-12V25.736c0-4.63 2.81-6.76 6.28-4.75l247.45 142.87c3.48 2 6.29 7.38 6.29 12v191.42c0 4.63-2.81 6.75-6.29 4.75z"/><path fill="#B1B4C4" d="M455.99 373.996l2.74-1.58-1.18-8.13zM200.53 22.166l2.7-1.56 3.88 2.25s-4.13.63-4.23.61c-.1-.02-2.35-1.3-2.35-1.3z"/><path fill="#E4E7F2" d="M452.45 373.336l-247.46-142.87c-3.47-2-6.28-7.38-6.28-12V27.046c0-4.63 2.81-6.76 6.28-4.75l247.46 142.87c3.47 2 6.28 7.38 6.28 12v191.42c0 4.63-2.81 6.75-6.28 4.75z"/><path fill="#D6D8E5" d="M458.3 177.416v191.44c0 4.64-2.82 6.77-6.29 4.75l-247.46-142.89c-3.47-2-6.28-7.38-6.28-12V27.296c0-4.63 2.81-6.75 6.28-4.75l247.46 142.87c3.47 2 6.29 7.38 6.29 12z"/><path fill="#FFF" d="M454.86 361.946l-253.45-146.35.14-187.53c0-1.93 1.34-2.7 3-1.74l247.46 142.86a6.694 6.694 0 0 1 3 5.22l-.15 187.54z"/><path fill="#E9EAF2" d="M439.2 198.916L214.51 69.186a6.036 6.036 0 0 1-1.86-2.134 5.984 5.984 0 0 1-.7-2.746v-16.22c0-1.88 1.14-2.75 2.56-1.93l224.69 129.7c.78.56 1.41 1.293 1.86 2.142.44.849.68 1.79.7 2.748v16.22c0 1.89-1.15 2.77-2.56 1.95z"/><path fill="#DADCE5" d="M225.73 68.103c1.92-1.11 1.92-4.708 0-8.037-1.92-3.329-5.04-5.128-6.96-4.018-1.93 1.11-1.93 4.709-.01 8.038 1.93 3.329 5.04 5.127 6.97 4.017zm113.33 63.553l-19.43-11.23c-.2-.138-.36-.32-.47-.532a1.5 1.5 0 0 1-.17-.688v-2.57c0-.48.28-.69.64-.49l19.43 11.23a1.495 1.495 0 0 1 .64 1.22v2.57c0 .47-.28.69-.64.49zm31.46 18.2l-19.43-11.22c-.2-.138-.35-.321-.47-.533a1.492 1.492 0 0 1-.17-.687v-2.58c0-.47.28-.69.64-.48l19.43 11.22a1.495 1.495 0 0 1 .64 1.22v2.58c0 .48-.3.64-.64.48zm30.95 17.83l-19.44-11.22a1.589 1.589 0 0 1-.64-1.23v-2.57c0-.47.29-.69.64-.49l19.44 11.23a1.495 1.495 0 0 1 .64 1.22v2.57c0 .48-.25.66-.64.49zm31.46 18.17l-19.44-11.22a1.562 1.562 0 0 1-.64-1.22v-2.56c0-.47.29-.69.64-.48l19.44 11.22c.19.14.35.322.47.534.11.212.17.447.17.686v2.58c0 .46-.29.66-.64.46z"/><path fill="#E9EAF2" d="M422.19 239.186l-52.82-30.5a6.076 6.076 0 0 1-1.82-2.12 6.096 6.096 0 0 1-.69-2.71v-34.14c0-1.88 1.14-2.74 2.55-1.93l52.82 30.49c.78.56 1.41 1.293 1.86 2.142.44.849.68 1.79.7 2.748v34.08c-.04 1.89-1.19 2.75-2.6 1.94zm-69.57 11.07l-132.49-76.5a3.025 3.025 0 0 1-.93-1.068 3.12 3.12 0 0 1-.35-1.372v-5.87c0-.94.58-1.37 1.28-1l132.49 76.49c.39.278.71.644.93 1.068.22.423.34.894.35 1.372v5.87c-.04.98-.57 1.41-1.28 1.01zm-13.04 6.35l-119.06-68.75a3.014 3.014 0 0 1-.93-1.067 3.124 3.124 0 0 1-.35-1.373v-2.92c0-.94.57-1.38 1.28-1l119.06 68.74a3.055 3.055 0 0 1 1.28 2.44v2.92c0 .98-.58 1.42-1.28 1.01zm0 11.07l-119.06-68.73a3.038 3.038 0 0 1-.93-1.072 3.148 3.148 0 0 1-.35-1.378v-2.92c0-.94.57-1.37 1.28-1l119.06 68.73c.39.282.71.65.93 1.075.22.425.34.896.35 1.375v2.92c0 .98-.58 1.41-1.28 1zm-30.44-6.49l-88.62-51.17a3.014 3.014 0 0 1-.93-1.067 3.124 3.124 0 0 1-.35-1.373v-2.92c0-.94.57-1.38 1.28-1l88.62 51.2c.39.275.71.64.94 1.065.22.424.34.896.34 1.375v2.92c0 .94-.56 1.37-1.28.97zm114.33-7.83l-55.37-32a3.014 3.014 0 0 1-.93-1.067 3.124 3.124 0 0 1-.35-1.373v-2.92c0-.94.57-1.38 1.28-1l55.37 32c.39.28.71.647.93 1.073.22.425.34.897.35 1.377v2.92c0 .97-.57 1.4-1.28.99zm0 11.08l-55.37-32a3.03 3.03 0 0 1-.93-1.072 3.141 3.141 0 0 1-.35-1.378v-2.92c0-.94.57-1.37 1.28-1l55.37 32c.39.278.71.644.93 1.068.22.423.34.894.35 1.372v2.92c0 .98-.57 1.43-1.28 1.01zm-14.5 2.7l-40.87-23.6a3.014 3.014 0 0 1-.93-1.067 3.124 3.124 0 0 1-.35-1.373v-2.92c0-.94.57-1.38 1.28-1l40.87 23.68c.39.28.71.647.93 1.073.22.425.34.897.35 1.377v2.91c0 .9-.57 1.33-1.28.92zm13.22 57.4l-52.82-30.5a6.038 6.038 0 0 1-1.83-2.142 6.074 6.074 0 0 1-.68-2.738v-34.09c0-1.88 1.14-2.75 2.55-1.93l52.82 30.49c.78.56 1.41 1.293 1.86 2.142.44.849.68 1.79.7 2.748v34.08c-.04 1.89-1.19 2.75-2.6 1.94zm1.28 14.17l-55.37-32a3.014 3.014 0 0 1-.93-1.067 3.124 3.124 0 0 1-.35-1.373v-2.92c0-.94.57-1.38 1.28-1l55.37 32c.39.28.71.647.93 1.073.22.425.34.897.35 1.377v2.92c0 .97-.57 1.4-1.28.99z"/><path fill="#DADCE5" d="M384.78 202.486l-3.71-9.55-6.75 9.6 7.41 4.28 6.09 3.52 13.58 7.84-9.83-25.35zm30.49 5.869c1.73-.996 1.73-4.232 0-7.226-1.73-2.994-4.53-4.613-6.26-3.616-1.72.997-1.72 4.232.01 7.226 1.73 2.994 4.53 4.613 6.25 3.616zm-30.11 80.741l-3.7-9.55-6.75 9.6 7.41 4.28 6.09 3.51 13.58 7.84-9.84-25.34zm32.13 7.039c1.73-.996 1.74-4.243.01-7.251s-4.54-4.638-6.27-3.641c-1.74.997-1.74 4.243-.01 7.251s4.53 4.638 6.27 3.641z"/><path fill="#E9EAF2" d="M351.09 225.466l-128.36-73.74a5.469 5.469 0 0 1-1.67-1.915 5.438 5.438 0 0 1-.63-2.465v-59.81c0-1.68 1-2.46 2.3-1.73l128.36 73.74a5.38 5.38 0 0 1 1.66 1.919c.4.76.62 1.603.63 2.461v59.81c0 1.69-1.03 2.47-2.29 1.73z"/><path fill="#DADCE5" d="M258.39 150.156l-6.34-16.33-11.54 16.42 12.67 7.31 10.41 6.01 23.22 13.41-16.82-43.34zm75.71 27.026c2.96-1.706 2.96-7.238.01-12.356-2.96-5.118-7.75-7.883-10.71-6.176-2.95 1.706-2.95 7.238 0 12.356 2.96 5.118 7.75 7.883 10.7 6.176z"/><path fill="#000" d="M227.34 129.856v89.6c0 3.34-2 4.88-4.54 3.43l-24.53-14.13v-101.7l24.53 14.15c2.5 1.45 4.54 5.34 4.54 8.65z" opacity=".05"/><path fill="#D6D8E5" d="M203.92 99.506l-75.36-43.51a3.005 3.005 0 0 0-2.67-.37 2.367 2.367 0 0 0-.57.33l-2.36 1.37 1.1 1.47v90.23c0 3.34 2 7.22 4.54 8.67l73.93 42.69.94 3 3.23-1.81c.16-.072.32-.163.46-.27a4.303 4.303 0 0 0 1.33-3.52v-89.6c-.03-3.33-2.06-7.23-4.57-8.68z"/><path fill="#F5F7FC" d="M200.78 202.986l-75.37-43.51c-2.5-1.45-4.54-5.33-4.54-8.68v-89.59c0-3.34 2-4.88 4.54-3.43l75.37 43.51c2.51 1.45 4.54 5.33 4.54 8.68v89.59c0 3.3-2.03 4.88-4.54 3.43z"/><path fill="#DADCE5" d="M132.68 154.236l1.81 1.05v-79.69l-1.81-1.05z"/><path fill="#F9CB07" d="M133.59 112.466a7.582 7.582 0 0 1-3.18-6.07v-9.35c0-2.34 1.42-3.41 3.18-2.4a7.6 7.6 0 0 1 2.306 2.659 7.596 7.596 0 0 1 .864 3.411v9.35c0 2.34-1.42 3.42-3.17 2.4z"/><path fill="#DADCE5" d="M152.12 165.176l1.82 1.05v-79.68l-1.82-1.05z"/><path fill="#F9CB07" d="M153.03 149.626a7.652 7.652 0 0 1-3.18-6.08v-9.35c0-2.34 1.43-3.41 3.18-2.4a7.61 7.61 0 0 1 3.18 6.07v9.35c0 2.34-1.42 3.42-3.18 2.41z"/><path fill="#DADCE5" d="M171.57 176.406l1.82 1.05v-79.69l-1.82-1.05z"/><path fill="#F9CB07" d="M172.48 124.156a7.599 7.599 0 0 1-3.18-6.07v-9.35c0-2.34 1.42-3.42 3.18-2.41a7.647 7.647 0 0 1 3.18 6.08v9.35c0 2.34-1.43 3.41-3.18 2.4z"/><path fill="#DADCE5" d="M191.02 187.636l1.81 1.04v-79.68l-1.81-1.05z"/><path fill="#F9CB07" d="M191.93 156.346a7.54 7.54 0 0 1-2.31-2.655 7.538 7.538 0 0 1-.87-3.415v-9.35c0-2.34 1.42-3.41 3.18-2.4a7.571 7.571 0 0 1 2.31 2.659c.55 1.054.84 2.222.86 3.411v9.35c0 2.34-1.42 3.42-3.17 2.4z"/><path fill="#D6D8E5" d="M156.1 302.866c15.354 0 27.8-7.185 27.8-16.05 0-8.864-12.446-16.05-27.8-16.05-15.354 0-27.8 7.186-27.8 16.05 0 8.865 12.446 16.05 27.8 16.05z" opacity=".3"/><path fill="#DD990E" d="M162.98 298.736c15.353 0 27.8-7.185 27.8-16.05 0-8.864-12.447-16.05-27.8-16.05-15.354 0-27.8 7.186-27.8 16.05 0 8.865 12.446 16.05 27.8 16.05z"/><path fill="#DD990E" d="M135.19 282.926v-7.31l5.49 4.89zm55.59-7.12v6.88l-2.81 2.98-1.37-7.87z"/><path fill="#F9CB07" d="M162.98 291.856c15.353 0 27.8-7.185 27.8-16.05 0-8.864-12.447-16.05-27.8-16.05-15.354 0-27.8 7.186-27.8 16.05 0 8.865 12.446 16.05 27.8 16.05z"/><path fill="#CC8B09" d="M182.86 276.306c-.28 2.7-2.21 5.37-5.79 7.44-7.78 4.48-20.38 4.48-28.15 0-3.59-2.07-5.51-4.74-5.79-7.44-.33-3.16 1.6-6.4 5.79-8.81 7.77-4.49 20.37-4.49 28.15 0 4.18 2.41 6.11 5.65 5.79 8.81z"/><path fill="#E8A30A" d="M182.86 276.306c-.28 2.7-2.21 5.37-5.79 7.44-7.78 4.48-20.38 4.48-28.15 0-3.59-2.07-5.51-4.74-5.79-7.44.28-2.7 2.2-5.37 5.79-7.44 7.77-4.49 20.37-4.49 28.15 0 3.57 2.07 5.5 4.74 5.79 7.44z"/><path fill="#CC8B09" d="M162.69 272.546a3.882 3.882 0 0 0-.73.06c-.33 0-.69.11-1.1.2-.41.09-.83.19-1.27.32-.425.127-.84.288-1.24.48l3.19 1.84.58-.2c.81-.27 1.58-.5 2.3-.69a10.66 10.66 0 0 1 2.07-.34 7.044 7.044 0 0 1 1.9.13 5.906 5.906 0 0 1 1.82.71 3.589 3.589 0 0 1 1.38 1.21 1.648 1.648 0 0 1 .2 1.25 2.72 2.72 0 0 1-.75 1.23 7.723 7.723 0 0 1-1.46 1.15l2 1.17-1.1.64-2.06-1.18c-.96.48-1.965.865-3 1.15-1.103.309-2.23.52-3.37.63l-1.07-1.92c.301-.005.602-.029.9-.07.451-.051.898-.127 1.34-.23.49-.1 1-.24 1.56-.4a10.591 10.591 0 0 0 1.56-.58l-3.18-1.83-.41.14-.44.13c-.722.246-1.456.452-2.2.62a9.986 9.986 0 0 1-1.87.25 6.341 6.341 0 0 1-1.66-.15 5.609 5.609 0 0 1-1.53-.62 4 4 0 0 1-1.33-1.14 2 2 0 0 1-.36-1.24c.046-.456.227-.887.52-1.24a6.033 6.033 0 0 1 1.3-1.17l-1.89-1.09 1.11-.64 1.87 1.08a13.301 13.301 0 0 1 2.74-1 21.198 21.198 0 0 1 2.75-.5l.93 1.84zm-5.43 3.31c.418.24.9.345 1.38.3a9.122 9.122 0 0 0 1.91-.43l-3-1.73c-1.09.76-1.19 1.38-.29 1.86zm10.49.87a2.366 2.366 0 0 0-1.49-.26c-.71.086-1.41.24-2.09.46l3 1.71c1.24-.73 1.44-1.37.58-1.87v-.04z"/><path fill="#CC8B09" d="M160.97 280.386v-1.08l1.22.79-.53.81-.69-.52zm10.64.68v-1.08l-2.64.21 1.52 1.03zm.23-3.95v-1.09l-1.98.71zm-8.2-.06l.66-.63 2.32 1.6-.14.48s-1.74-.73-1.8-.78l-1.04-.67zm-6.08-3.4l3.08 1.75.63-.46s-.38-.44-.41-.49a4.34 4.34 0 0 0-1-.8c-.23 0-1.69-.7-1.69-.7l-.61.7zm5.13-1.11v-1.08l-1.42-.46-.3.85.08.38zm-9.41-.78v-1.08l1.64.18-.53 1.04zm.06 3.66v-1.12h1.89l-.46 1-.82.9z"/><path fill="#F9CA06" d="M162.69 271.466a3.882 3.882 0 0 0-.73.06 18.173 18.173 0 0 0-2.37.52c-.425.127-.84.288-1.24.48l3.19 1.84.58-.2c.81-.27 1.58-.5 2.3-.69a10.66 10.66 0 0 1 2.07-.34 7.044 7.044 0 0 1 1.9.13 5.906 5.906 0 0 1 1.82.71 3.589 3.589 0 0 1 1.38 1.21 1.648 1.648 0 0 1 .2 1.25 2.72 2.72 0 0 1-.75 1.23 7.723 7.723 0 0 1-1.46 1.15l2 1.18-1.1.64-2.06-1.19c-.96.48-1.965.865-3 1.15-1.103.309-2.23.52-3.37.63l-1.07-1.92c.301-.005.602-.029.9-.07.451-.05.898-.127 1.34-.23.49-.1 1-.24 1.56-.4a10.591 10.591 0 0 0 1.56-.58l-3.18-1.83-.41.14-.44.13c-.722.246-1.456.453-2.2.62a9.213 9.213 0 0 1-1.87.25 6.341 6.341 0 0 1-1.66-.15 5.609 5.609 0 0 1-1.53-.62 3.856 3.856 0 0 1-1.33-1.14 1.997 1.997 0 0 1-.36-1.23c.045-.459.226-.894.52-1.25a6.033 6.033 0 0 1 1.3-1.17l-1.89-1.09 1.11-.64 1.87 1.08a13.852 13.852 0 0 1 2.74-1 19.58 19.58 0 0 1 2.75-.49l.93 1.83zm-5.43 3.39c.418.24.9.345 1.38.3a9.06 9.06 0 0 0 1.91-.43l-3-1.73c-1.09.68-1.19 1.3-.29 1.86zm10.49.88a2.363 2.363 0 0 0-1.49-.27c-.709.091-1.408.245-2.09.46l3 1.72c1.24-.79 1.44-1.46.58-1.95v.04z"/><path fill="#DD990E" d="M165.25 290.176c15.353 0 27.8-7.185 27.8-16.05 0-8.864-12.447-16.05-27.8-16.05-15.354 0-27.8 7.186-27.8 16.05 0 8.865 12.446 16.05 27.8 16.05z"/><path fill="#DD990E" d="M137.46 274.366v-7.31l5.49 4.89zm55.59-7.12v6.88l-2.81 2.98-1.37-7.87z"/><path fill="#F9CB07" d="M165.25 283.296c15.353 0 27.8-7.185 27.8-16.05 0-8.864-12.447-16.05-27.8-16.05-15.354 0-27.8 7.186-27.8 16.05 0 8.865 12.446 16.05 27.8 16.05z"/><path fill="#CC8B09" d="M185.12 267.746c-.28 2.7-2.21 5.37-5.79 7.44-7.78 4.48-20.38 4.48-28.15 0-3.59-2.07-5.51-4.74-5.79-7.44-.33-3.16 1.6-6.4 5.79-8.81 7.77-4.49 20.37-4.49 28.15 0 4.19 2.41 6.12 5.65 5.79 8.81z"/><path fill="#E8A30A" d="M185.12 267.746c-.28 2.7-2.21 5.37-5.79 7.44-7.78 4.48-20.38 4.48-28.15 0-3.59-2.07-5.51-4.74-5.79-7.44.28-2.7 2.2-5.37 5.79-7.44 7.77-4.49 20.37-4.49 28.15 0 3.58 2.07 5.53 4.74 5.79 7.44z"/><path fill="#CC8B09" d="M164.96 263.986a3.882 3.882 0 0 0-.73.06c-.33 0-.69.11-1.1.2-.41.09-.83.19-1.26.32a8.223 8.223 0 0 0-1.25.48l3.24 1.81.57-.2c.81-.27 1.58-.5 2.3-.69a10.66 10.66 0 0 1 2.07-.34 7.047 7.047 0 0 1 1.9.13 5.906 5.906 0 0 1 1.82.71 3.589 3.589 0 0 1 1.38 1.21 1.608 1.608 0 0 1 .2 1.25 2.72 2.72 0 0 1-.75 1.23 7.723 7.723 0 0 1-1.46 1.15l2 1.17-1.11.64-2-1.18c-.977.483-1.998.868-3.05 1.15-1.103.309-2.23.52-3.37.63l-1.12-1.86c.301-.005.602-.029.9-.07.451-.05.898-.126 1.34-.23.49-.1 1-.24 1.56-.4a10.591 10.591 0 0 0 1.56-.58l-3.18-1.83-.41.14-.44.13c-.722.246-1.456.453-2.2.62a9.213 9.213 0 0 1-1.87.25 6.341 6.341 0 0 1-1.66-.15 5.765 5.765 0 0 1-1.53-.62 4 4 0 0 1-1.33-1.14 1.997 1.997 0 0 1-.36-1.23c.049-.459.234-.894.53-1.25a5.746 5.746 0 0 1 1.29-1.17l-1.88-1.09 1.1-.64 1.87 1.08a13.301 13.301 0 0 1 2.74-1 21.198 21.198 0 0 1 2.75-.5l.94 1.81zm-5.43 3.35c.418.24.9.345 1.38.3a9.074 9.074 0 0 0 1.91-.43l-3-1.73c-1.09.72-1.19 1.38-.29 1.86zm10.49.87a2.332 2.332 0 0 0-1.49-.26c-.71.086-1.41.24-2.09.46l3 1.71c1.24-.77 1.42-1.41.58-1.91z"/><path fill="#CC8B09" d="M163.24 271.856v-1.08l1.22.79-.53.81-.69-.52zm10.65.65v-1.07l-2.65.2 1.52 1.03zm.22-3.95v-1.09l-1.98.71zm-8.2-.06l.66-.63 2.32 1.6-.14.48s-1.74-.73-1.79-.78l-1.05-.67zm-6.05-3.4l3.09 1.75.63-.46-.42-.48a4.093 4.093 0 0 0-1-.81c-.23 0-1.69-.69-1.69-.69l-.61.69zm5.1-1.11v-1.08l-1.41-.46-.31.85.08.38zm-9.41-.78v-1.08l1.65.18-.53 1.05zm.07 3.65v-1.12h1.88l-.46 1-.82.9z"/><path fill="#F9CA06" d="M164.96 262.906a3.882 3.882 0 0 0-.73.06c-.33.05-.69.11-1.1.2-.41.09-.83.19-1.26.32a8.223 8.223 0 0 0-1.25.48l3.24 1.89.57-.2c.81-.27 1.58-.5 2.3-.69a10.66 10.66 0 0 1 2.07-.34 7.047 7.047 0 0 1 1.9.13 5.906 5.906 0 0 1 1.82.71 3.589 3.589 0 0 1 1.38 1.21 1.606 1.606 0 0 1 .2 1.25 2.72 2.72 0 0 1-.75 1.23 7.33 7.33 0 0 1-1.49 1.1l2 1.18-1.11.64-2-1.19c-.977.483-1.998.868-3.05 1.15-1.103.309-2.23.52-3.37.63l-1.07-1.92c.301-.005.602-.029.9-.07.451-.05.898-.126 1.34-.23.49-.1 1-.24 1.56-.4a10.591 10.591 0 0 0 1.56-.58l-3.18-1.83-.41.14-.44.14c-.8.26-1.53.46-2.2.61-.614.145-1.24.232-1.87.26a6.811 6.811 0 0 1-1.66-.16 5.765 5.765 0 0 1-1.53-.62 3.75 3.75 0 0 1-1.33-1.14 1.997 1.997 0 0 1-.36-1.23c.049-.459.234-.894.53-1.25a5.746 5.746 0 0 1 1.29-1.17l-1.88-1.09 1.1-.64 1.87 1.08a13.852 13.852 0 0 1 2.74-1 19.58 19.58 0 0 1 2.75-.49l.92 1.83zm-5.43 3.35c.418.24.9.345 1.38.3a8.509 8.509 0 0 0 1.91-.43l-3-1.72c-1.09.71-1.19 1.33-.29 1.85zm10.49.88a2.348 2.348 0 0 0-1.49-.27c-.709.091-1.408.245-2.09.46l3 1.72c1.24-.78 1.42-1.42.58-1.91z"/><path fill="#DD990E" d="M163.55 281.936c15.354 0 27.8-7.185 27.8-16.05 0-8.864-12.446-16.05-27.8-16.05-15.354 0-27.8 7.186-27.8 16.05 0 8.865 12.446 16.05 27.8 16.05z"/><path fill="#DD990E" d="M135.75 266.126v-7.31l5.5 4.89zm55.6-7.12v6.88l-2.81 2.98-1.38-7.87z"/><path fill="#F9CB07" d="M163.55 275.056c15.354 0 27.8-7.185 27.8-16.05 0-8.864-12.446-16.05-27.8-16.05-15.354 0-27.8 7.186-27.8 16.05 0 8.865 12.446 16.05 27.8 16.05z"/><path fill="#CC8B09" d="M183.41 259.506c-.28 2.7-2.2 5.37-5.79 7.44-7.77 4.48-20.37 4.48-28.15 0-3.58-2.07-5.51-4.74-5.78-7.44-.34-3.16 1.59-6.4 5.78-8.81 7.78-4.49 20.38-4.49 28.15 0 4.24 2.41 6.12 5.65 5.79 8.81z"/><path fill="#E8A30A" d="M183.41 259.506c-.28 2.7-2.2 5.37-5.79 7.44-7.77 4.48-20.37 4.48-28.15 0-3.58-2.07-5.51-4.74-5.78-7.44.27-2.7 2.2-5.37 5.78-7.44 7.78-4.49 20.38-4.49 28.15 0 3.59 2.07 5.51 4.79 5.79 7.44z"/><path fill="#CC8B09" d="M163.26 255.746a3.722 3.722 0 0 0-.73.06c-.33 0-.7.11-1.1.2-.4.09-.83.19-1.27.32a8.55 8.55 0 0 0-1.25.48l3.2 1.84.57-.2c.82-.27 1.58-.5 2.3-.69a10.66 10.66 0 0 1 2.07-.34 7.118 7.118 0 0 1 1.91.13 6.028 6.028 0 0 1 1.82.71 3.64 3.64 0 0 1 1.37 1.21 1.652 1.652 0 0 1 .21 1.25 2.91 2.91 0 0 1-.75 1.23 8.022 8.022 0 0 1-1.46 1.15l2 1.17-1.11.64-2.05-1.18c-.96.481-1.965.866-3 1.15a19.472 19.472 0 0 1-3.36.63l-1.07-1.92a7.57 7.57 0 0 0 .89-.07c.451-.05.898-.126 1.34-.23.5-.1 1-.24 1.56-.4a11.237 11.237 0 0 0 1.57-.58l-3.18-1.83-.42.14-.43.13c-.722.244-1.457.451-2.2.62-.617.142-1.247.226-1.88.25a6.312 6.312 0 0 1-1.65-.15 5.534 5.534 0 0 1-1.53-.62 4 4 0 0 1-1.33-1.14 1.901 1.901 0 0 1-.37-1.23c.052-.459.236-.893.53-1.25a5.746 5.746 0 0 1 1.29-1.17l-1.89-1.09 1.11-.64 1.87 1.08c.873-.435 1.792-.77 2.74-1a21.05 21.05 0 0 1 2.74-.5l.94 1.84zm-5.4 3.35a2.35 2.35 0 0 0 1.39.3 9.032 9.032 0 0 0 1.9-.43l-3-1.73c-1.12.72-1.217 1.34-.29 1.86zm10.5.87a2.383 2.383 0 0 0-1.5-.26 11.32 11.32 0 0 0-2.09.46l3 1.71c1.21-.77 1.41-1.41.55-1.91h.04z"/><path fill="#CC8B09" d="M161.54 263.586v-1.08l1.22.79-.53.81-.69-.52zm10.64.68v-1.08l-2.64.21 1.51 1.03zm.22-3.95v-1.09l-1.98.71zm-8.2-.06l.66-.63 2.33 1.6-.15.48s-1.73-.73-1.79-.78l-1.05-.67zm-6.07-3.4l3.08 1.75.63-.46-.42-.48a3.89 3.89 0 0 0-1-.81c-.22 0-1.69-.7-1.69-.7l-.6.7zm5.13-1.11v-1.08l-1.42-.46-.3.85.07.38zm-9.41-.78v-1.08l1.64.18-.53 1.04zm.06 3.66v-1.12h1.88l-.46 1-.81.9z"/><path fill="#F9CA06" d="M163.26 254.666a3.722 3.722 0 0 0-.73.06c-.33 0-.7.11-1.1.2-.4.09-.83.19-1.27.32a8.55 8.55 0 0 0-1.25.48l3.2 1.84.57-.2c.82-.27 1.58-.5 2.3-.69a10.66 10.66 0 0 1 2.07-.34 7.118 7.118 0 0 1 1.91.13 6.028 6.028 0 0 1 1.82.71 3.64 3.64 0 0 1 1.37 1.21c.233.373.308.822.21 1.25a2.91 2.91 0 0 1-.75 1.23 7.582 7.582 0 0 1-1.46 1.15l2 1.18-1.11.64-2.05-1.19c-.96.481-1.965.866-3 1.15a19.472 19.472 0 0 1-3.36.63l-1.07-1.92a7.57 7.57 0 0 0 .89-.07c.451-.05.898-.126 1.34-.23.5-.1 1-.24 1.56-.4a11.237 11.237 0 0 0 1.57-.58l-3.18-1.83-.42.14-.43.13c-.722.244-1.457.451-2.2.62a9.32 9.32 0 0 1-1.88.25 6.312 6.312 0 0 1-1.65-.15 5.534 5.534 0 0 1-1.53-.62 3.856 3.856 0 0 1-1.33-1.14 1.901 1.901 0 0 1-.37-1.23c.054-.458.238-.892.53-1.25a5.746 5.746 0 0 1 1.29-1.17l-1.89-1.12 1.11-.64 1.87 1.08c.875-.43 1.793-.765 2.74-1 .9-.229 1.816-.392 2.74-.49l.94 1.86zm-5.4 3.35a2.35 2.35 0 0 0 1.39.3 9.032 9.032 0 0 0 1.9-.43l-3-1.73c-1.12.72-1.217 1.34-.29 1.86zm10.5.88a2.386 2.386 0 0 0-1.5-.27 12.24 12.24 0 0 0-2.09.46l3 1.72c1.21-.78 1.41-1.42.55-1.95l.04.04z"/><path fill="#D6D8E5" d="M431.16 442.936l-58.3-33.65c-.5-.288-.91-.702-1.19-1.199a3.247 3.247 0 0 1-.44-1.636c0-.573.15-1.137.44-1.635a3.263 3.263 0 0 1 4.47-1.2l58.29 33.65c.53.307.96.755 1.25 1.293.28.539.41 1.146.37 1.755a3.226 3.226 0 0 1-.6 1.691c-.35.497-.84.885-1.4 1.121-.46.191-.97.273-1.47.241-.5-.033-.98-.181-1.42-.431z" opacity=".4"/><path fill="#D33D3D" d="M405.99 422.586c-20.86-12.05-37.83-41.44-37.83-65.53 0-24.09 17-33.89 37.83-21.84s37.87 41.44 37.87 65.53c0 24.09-17 33.88-37.87 21.84zm0-79.55c-17.12-9.89-31.06-1.85-31.06 17.93s13.93 43.89 31.06 53.8c17.13 9.91 31.07 1.84 31.07-17.91s-13.94-43.94-31.07-53.82z"/><path fill="#D33D3D" d="M374.06 335.486l6.94-3.78-1.04 4.75zm52.24 93.23c.17-.08 7.58-4.22 7.58-4.22l-5.73-.92-1.85 5.14z"/><path fill="#F4F4F4" d="M425.53 423.777c13.45-7.768 13.45-32.955 0-56.257-13.45-23.303-35.27-35.896-48.72-28.128-13.46 7.768-13.46 32.955 0 56.258 13.45 23.302 35.26 35.895 48.72 28.127z"/><path fill="#FF4D4D" d="M401.17 425.266c-20.86-12.05-37.84-41.44-37.84-65.53 0-24.09 17-33.89 37.84-21.84 20.84 12.05 37.83 41.44 37.83 65.53 0 24.09-16.97 33.88-37.83 21.84zm0-79.55c-17.13-9.89-31.06-1.85-31.06 17.93s13.93 43.91 31.06 53.8 31.06 1.84 31.06-17.93-13.93-43.92-31.06-53.8z"/><path fill="#FF4D4D" d="M401.17 408.646c-12.93-7.47-23.44-25.68-23.44-40.6 0-14.92 10.51-21 23.44-13.53 12.93 7.47 23.44 25.67 23.44 40.59 0 14.92-10.52 21-23.44 13.54zm0-46.31c-9.19-5.31-16.67-1-16.67 9.62s7.48 23.56 16.67 28.87c9.19 5.31 16.69 1.03 16.69-9.63s-7.5-23.56-16.69-28.86z"/><path fill="#FF4D4D" d="M401.17 392.286c-5.11-3-9.27-10.16-9.27-16.06 0-5.9 4.16-8.3 9.27-5.35 5.11 2.95 9.27 10.15 9.27 16.05s-4.16 8.31-9.27 5.36zm0-13.59c-1.38-.8-2.5-.15-2.5 1.44.05.868.3 1.711.73 2.463a5.567 5.567 0 0 0 1.77 1.867c1.38.79 2.5.15 2.5-1.45a5.599 5.599 0 0 0-.73-2.459 5.549 5.549 0 0 0-1.77-1.861z"/><path fill="#2B303F" d="M336.71 418.256l-3.47.04 11.26-4.78-6.53 4.06z"/><path fill="#E8A30A" d="M338.21 419.865c.34-.199.34-.845 0-1.443-.35-.598-.91-.921-1.25-.722-.35.198-.35.844 0 1.442.34.598.9.921 1.25.723zm63.74-36.871c.35-.199.35-.844 0-1.442-.34-.598-.9-.922-1.25-.723-.34.199-.34.845 0 1.443.35.598.91.921 1.25.722z"/><path fill="#2B303F" d="M339.08 423.276l-.83-3.45 9.06-5.78-.39.82z"/><path fill="#E8A30A" d="M338.25 419.856c.08-.07 63.71-36.85 63.71-36.85l-1.17-2.2-63.83 36.88 1.29 2.17z"/><path fill="#3A2C6D" d="M279.52 2.186c.85-1.33 7.34-2.27 9.51 3.25.82 2.1.69 7.45 1.37 10.81.68 3.36 2.28 5.27 2.86 8 .58 2.73-.36 7.3-6.94 8.11-6.58.81-11.63-1.5-13.19-3.6-1.56-2.1-1.58-6.55 0-8.94 1.58-2.39 2.84-4.34 2.8-7.46l3.59-10.17z"/><path fill="#3A2C6D" d="M283.86 1.236s-4.95-1.38-7.93 1.23a7.238 7.238 0 0 0-2.05 3.352 7.278 7.278 0 0 0-.02 3.928c.39 1.55 1.19 3.66 2.42 3.78 1.23.12 7.58-12.29 7.58-12.29z"/><path fill="#FFCEA9" d="M285.7 14.616s-.33 5.47-.23 5.88c.1.41 2.15.79 2.73 1.27.58.48-3 6-4.78 6.84-1.78.84-7.4-1.27-7.78-4.05-.36-2.56 1.6-4.55 2.35-5.25a14.65 14.65 0 0 1 1.54 0l.16-2.65c2.45-.8 6.01-2.04 6.01-2.04z"/><path fill="#FFCEA9" d="M269.6 43.856a28.66 28.66 0 0 1-5.45 5.67c-.66.684-1.28 1.401-1.86 2.15a8.226 8.226 0 0 1-3.66 2.43c-1.24.32-1.76.24-2 0s-.11-.58.42-.79c.88-.27 1.69-.712 2.4-1.3 0 0-1.15.54-1.87.79a7.4 7.4 0 0 1-2 .4c-.68 0-1.39-.79-.85-1 .54-.21 1-.26 2.09-.65.56-.198 1.1-.471 1.59-.81-.74.212-1.5.366-2.26.46-.63.104-1.29.028-1.88-.22-.32-.13-.59-.71.12-.9.93-.091 1.84-.303 2.71-.63.84-.38 1.36-.78 1.18-.86-.18-.08-.66.18-1.5.12s-1.62-.6-1.61-1c.01-.4.18-.2 1-.27.88-.262 1.78-.46 2.69-.59.88.034 1.75-.071 2.6-.31.9-.27 2.89-2.67 4.43-4.87a31.865 31.865 0 0 0 3.92-7.94c.92-3 2-8.7 2.8-10.67.8-1.97 2.13-2.87 3.42-2.91 1.51 0 2.15 1.94 1.75 3.65-.73 3.05-4.08 14.63-8.18 20.05z"/><path fill="#F4F4F4" d="M286.45 21.026c1.53.23 3.29 1.06 3.53 1.9.63 3.032.48 6.174-.44 9.13-1.33 3.52-2.83 9.87-3.6 11.39-3.96.553-7.99-.236-11.45-2.24 0 0-.32-6.12-.35-8.14-4.94-4.32-.71-9.64 3.48-13.78.5-.04 1.01-.04 1.51 0 0 0-3.74 4.43-1.14 6.94 5.57-1.7 6.68-4.21 8.46-5.2z"/><path fill="#FFCEA9" d="M275.48 7.856c.55-3.51 3.09-6.16 6.71-5.95 1.45.101 2.82.648 3.95 1.566a6.963 6.963 0 0 1 2.31 3.557 6.982 6.982 0 0 1-.16 4.241 7.046 7.046 0 0 1-2.59 3.366 7.008 7.008 0 0 1-.56 1.54c-1.29 1.5-4.7 2.44-5.82 2.46-1.12.02-1.81-.9-2.73-2.41-1.9-3.16-1.42-6.65-1.11-8.37z"/><path fill="#3A2C6D" d="M283.32 1.946c2.54.5 4.63 1.21 5.32 3.71.47 1.72 1.09 5 .5 6.38l-.36 1-3.08 1.58s-1.44-1.19-1-4.7a2.44 2.44 0 0 0-.43-1.33 3.657 3.657 0 0 1-.41-1.06 3.998 3.998 0 0 0-2-2.16 6.836 6.836 0 0 0-6.11.29 6.671 6.671 0 0 1 3.13-3.2 6.662 6.662 0 0 1 4.44-.51z"/><path fill="#38226D" d="M269.32 86.076c-1.29 1-3.29.32-3.39.42a54.78 54.78 0 0 1-4.71 3.6c-.8.63-2.05 1.47-1.83 2.69.41 2.16 3.88 1.5 5.19.83 1.31-.67 2.38-1.76 3.62-2.53.88-.55 1.75-.83 1.89-2a7.172 7.172 0 0 0-.77-3.01z"/><path fill="#9C73FF" d="M270.07 88.686c-.17 1.07-1 1.36-1.91 1.91-1.25.78-2.36 1.91-3.67 2.57-1.31.66-4.23 1.22-5.08-.32.46 2.09 3.87 1.43 5.17.77 1.3-.66 2.38-1.76 3.62-2.53.88-.55 1.75-.83 1.89-2 0-.133 0-.267-.02-.4z"/><path fill="#38226D" d="M263.05 82.556c-1.18 1-3 .42-3.05.51a45.901 45.901 0 0 1-4.31 3.28c-.73.58-1.88 1.36-1.67 2.47.37 2 3.55 1.37 4.75.76 1.2-.61 2.18-1.61 3.31-2.32.81-.5 1.61-.76 1.74-1.78a6.928 6.928 0 0 0-.77-2.92z"/><path fill="#9C73FF" d="M263.8 85.066c-.15 1-.94 1.25-1.74 1.74-1.16.72-2.17 1.75-3.37 2.36-1.2.61-3.87 1.12-4.65-.3.42 1.92 3.54 1.31 4.73.71 1.19-.6 2.18-1.61 3.31-2.32.81-.5 1.61-.76 1.74-1.78.01-.137 0-.274-.02-.41z"/><path fill="#FFCEA9" d="M280.86 44.796c-3.49.46-7.04-.052-10.26-1.48.06 1.08.12 2 .12 2-4.17 3-12.55 7.92-13.09 11.34.54 10.82 2.19 26.28 2.66 26.51 1.31.62 2.22.52 2.84-.11 0 0 2.63-9.17 1.86-22.62 0 0 14.6-6.46 15.55-10 .43-1.425.56-2.921.4-4.4 0-.38-.03-.81-.08-1.24z"/><path fill="#FFCEA9" d="M285.71 43.386a15.595 15.595 0 0 1-8.85 1.18c0 1.45.2 4.17.2 4.17-4.17 2.95-12.54 7.92-13.09 11.34.55 10.83 1.56 26.5 2 26.7a3.537 3.537 0 0 0 3.46-.41s2.63-9.05 1.87-22.5c0-.26 12.51-6.42 14.09-8s1.9-4.05 1.86-6.35a15.537 15.537 0 0 0-1.54-6.13z"/><path fill="#8C50FF" d="M288.78 45.686s4.62 8.19-3.09 12.4c-8.14 4.45-13.09 5.49-13.09 5.49l-1.22.29c.38 2.824.38 5.687 0 8.51 0 0-5.81 2-13.21-4.49l-2.45-7.9-.31-2.13a4.373 4.373 0 0 1 .11-2.155c.21-.699.6-1.332 1.12-1.845 1.78-1.61 7.41-5.73 10.91-8.09 3.5-2.36 6.3-4.62 6.3-4.62l.61-.57s4.15 3.31 11.74 2.2c1.01.826 1.88 1.809 2.58 2.91z"/><path fill="#FFCEA9" d="M284.19 57.856c.71-.638 1.46-1.229 2.24-1.77a8.852 8.852 0 0 0 2.25-1.61c.71-.71 1.76-3.68 2.31-6.58.5-3.246.44-6.553-.17-9.78a67.868 67.868 0 0 0-3.87-11.26c-1-2.18-.45-3.5.49-4.47 1.1-1.13 2.25-1.1 3.56 1.94a61.966 61.966 0 0 1 4.07 13.24c.53 3.317.48 6.7-.14 10a36.175 36.175 0 0 1-2.65 8.37c-.34.78-.4 1.44-.87 3a10.218 10.218 0 0 1-2.39 4.2c-1 .93-1.51 1.11-1.79 1-.28-.11-.32-.51.09-1a8.456 8.456 0 0 0 1.68-2.45s-.84 1.09-1.4 1.7a7.97 7.97 0 0 1-1.7 1.4c-.61.37-1.57-.06-1.17-.55.4-.49.84-.77 1.66-1.68.44-.482.82-1.016 1.13-1.59-.58.581-1.21 1.112-1.88 1.59a3.46 3.46 0 0 1-1.8.74c-.34 0-.81-.4-.24-.94a12.35 12.35 0 0 0 2.23-2c.62-.79.94-1.43.74-1.42-.2.01-.53.51-1.32.87s-1.71.24-1.87-.2c-.16-.44.09-.28.81-.75z"/><path fill="#EDEDED" d="M293.02 28.416s-2.8 2.49-5.92 2l-1.24-5.24s-.82-2.75 1.53-3.79 4.62 1.69 5.63 7.03zm-15.4-9.13s-3-.92-6.26 5.8l1.2.73c1.51-2.31 3.2-4.494 5.06-6.53z"/><path fill="#F4F4F4" d="M256.65 48.306l10.82-6.24a.61.61 0 0 1 .31-.083c.11 0 .22.029.31.083l19 10.95-11.13 6.43-19.31-11.14z"/><path fill="#3A2C6D" d="M276.22 56.976l.83.47c.07 0 .06.11 0 .16l-.79.45a.257.257 0 0 1-.13.034.257.257 0 0 1-.13-.034l-.83-.48c-.07 0-.06-.1 0-.15l.79-.45a.256.256 0 0 1 .13-.033c.05 0 .09.011.13.033zm-1.17-.68l.83.48c.07 0 .06.1 0 .15l-.79.46c-.04.02-.09.03-.13.03-.05 0-.09-.01-.13-.03l-.83-.48c-.07 0-.06-.11 0-.15l.79-.46a.289.289 0 0 1 .13-.029c.04 0 .09.01.13.029zm-1.19-.68l.82.47c.07 0 .06.11 0 .16l-.79.45a.257.257 0 0 1-.13.034.257.257 0 0 1-.13-.034l-.83-.48c-.06 0-.06-.1 0-.15l.79-.45a.295.295 0 0 1 .27 0zm-1.15-.67l.83.48c.06 0 .05.1 0 .15l-.79.45a.287.287 0 0 1-.27 0l-.82-.47c-.07 0-.06-.11 0-.16l.79-.45c.04-.02.08-.03.13-.03s.09.01.13.03zm-1.17-.68l.82.48c.07 0 .06.11 0 .15l-.79.46a.32.32 0 0 1-.27 0l-.84-.5c-.06 0-.05-.11 0-.15l.79-.46c.05-.019.1-.028.15-.024.05.003.1.018.14.044zm-1.17-.67l.82.47c.07 0 .06.11 0 .15l-.79.46a.257.257 0 0 1-.13.034.257.257 0 0 1-.13-.034l-.83-.48c-.06 0-.06-.1 0-.15l.79-.45a.295.295 0 0 1 .27 0zm-1.18-.68l.83.48c.07 0 .06.1 0 .15l-.79.45c-.04.02-.09.03-.13.03-.05 0-.09-.01-.13-.03l-.83-.48c-.06 0-.06-.11 0-.15l.79-.46a.278.278 0 0 1 .26.01zm-1.17-.68l.83.48c.07 0 .06.11 0 .15l-.79.46c-.04.02-.09.03-.13.03-.05 0-.09-.01-.13-.03l-.83-.48c-.07 0-.06-.11 0-.15l.79-.46a.289.289 0 0 1 .13-.029c.04 0 .09.01.13.029zm-1.16-.67l.83.47c.07 0 .06.11 0 .16l-.79.45a.257.257 0 0 1-.13.034.257.257 0 0 1-.13-.034l-.83-.47c-.07 0-.06-.11 0-.16l.79-.45a.256.256 0 0 1 .13-.033c.05 0 .09.011.13.033zm-1.18-.71l.83.48c.07 0 .06.11 0 .15l-.79.46c-.04.02-.09.03-.13.03-.05 0-.09-.01-.13-.03l-.83-.48c-.07 0-.06-.11 0-.15l.79-.46a.289.289 0 0 1 .13-.029c.04 0 .09.01.13.029zm-1.17-.65l.83.48c.06 0 .06.11 0 .15l-.79.46c-.04.02-.09.03-.13.03-.05 0-.09-.01-.13-.03l-.83-.48c-.07 0-.06-.1 0-.15l.79-.45a.3.3 0 0 1 .26-.01zm-1.17-.67l.83.48c.06 0 .05.1 0 .15l-.79.45a.287.287 0 0 1-.27 0l-.82-.47c-.07 0-.06-.11 0-.16l.78-.45a.295.295 0 0 1 .27 0zm-1.17-.68l.82.48c.07 0 .06.11 0 .15l-.79.46a.32.32 0 0 1-.27 0l-.82-.48c-.07 0-.06-.11 0-.15l.75-.46a.324.324 0 0 1 .31 0zm-1.74-1l1.39.8c.07 0 .06.11 0 .16l-.79.45a.257.257 0 0 1-.13.034.257.257 0 0 1-.13-.034l-1.39-.8c-.07 0-.06-.11 0-.15l.79-.46a.289.289 0 0 1 .13-.029c.04 0 .09.01.13.029zm15.19 7.46l.83.48c.06 0 .06.1 0 .15l-.79.45a.287.287 0 0 1-.27 0l-.82-.47c-.07 0-.06-.11 0-.16l.79-.45a.256.256 0 0 1 .13-.033c.05 0 .09.011.13.033zm-1.17-.68l.82.48c.07 0 .06.1 0 .15l-.79.46c-.04.02-.09.03-.13.03-.05 0-.09-.01-.13-.03l-.83-.48c-.06 0-.05-.11 0-.15l.79-.46a.324.324 0 0 1 .27 0zm-1.18-.68l.83.48c.07 0 .06.11 0 .15l-.79.46c-.04.02-.09.03-.13.03-.05 0-.09-.01-.13-.03l-.83-.48c-.07 0-.06-.11 0-.15l.79-.46a.289.289 0 0 1 .13-.029c.04 0 .09.01.13.029zm-1.17-.67l.83.47c.06 0 .06.11 0 .16l-.79.45a.257.257 0 0 1-.13.034.257.257 0 0 1-.13-.034l-.83-.48c-.07 0-.06-.1 0-.15l.79-.45a.267.267 0 0 1 .13-.033c.05 0 .09.012.13.033zm-1.16-.68l.82.48c.07 0 .06.11 0 .15l-.79.46c-.04.02-.08.03-.13.03-.04 0-.09-.01-.13-.03l-.83-.48c-.06 0-.05-.1 0-.15l.79-.46a.334.334 0 0 1 .27 0zm-1.18-.67l.83.47c.07 0 .06.11 0 .16l-.79.45a.257.257 0 0 1-.13.034.257.257 0 0 1-.13-.034l-.83-.47c-.07 0-.06-.11 0-.16l.79-.45a.267.267 0 0 1 .13-.033c.05 0 .09.012.13.033zm-1.17-.68l.83.48c.06 0 .06.1 0 .15l-.79.45c-.04.02-.08.03-.13.03s-.09-.01-.13-.03l-.83-.48c-.07 0-.06-.11 0-.15l.79-.46a.278.278 0 0 1 .26.01zm-1.17-.68l.82.48c.07 0 .06.11 0 .15l-.78.46a.32.32 0 0 1-.27 0l-.83-.48c-.06 0-.05-.11 0-.15l.79-.46a.322.322 0 0 1 .27 0zm-1.18-.72l.83.48c.07 0 .06.11 0 .15l-.79.46c-.04.02-.09.03-.13.03-.05 0-.09-.01-.13-.03l-.83-.48c-.07 0-.06-.1 0-.15l.79-.45a.3.3 0 0 1 .26-.01zm-1.17-.63l.83.47c.06 0 .06.11 0 .16l-.79.45a.257.257 0 0 1-.13.034.257.257 0 0 1-.13-.034l-.83-.47c-.07 0-.06-.11 0-.16l.79-.45a.256.256 0 0 1 .13-.033c.05 0 .09.011.13.033zm-1.21-.68l.82.48c.07 0 .06.1 0 .15l-.78.46a.36.36 0 0 1-.27 0l-.83-.48c-.06 0 0-.11 0-.15l.79-.46a.324.324 0 0 1 .27 0zm-1.14-.69l.83.48c.07 0 .06.11 0 .15l-.79.46c-.04.02-.09.03-.13.03-.05 0-.09-.01-.13-.03l-.83-.48c-.07 0-.06-.11 0-.15l.79-.46a.289.289 0 0 1 .13-.029c.04 0 .09.01.13.029zm14.07 8.13l1.39.81c.07 0 .06.11 0 .15l-.78.46a.32.32 0 0 1-.27 0l-1.39-.81c-.07 0-.06-.1 0-.15l.79-.45a.3.3 0 0 1 .26-.01zm-16.3-8.13l.83.47c.04.021.08.031.12.031.04 0 .08-.01.12-.031l.84-.48a.161.161 0 0 0 .03-.029c.01-.012.01-.026.01-.041 0-.014 0-.028-.01-.04a.141.141 0 0 0-.03-.03h-.07c-.06 0-.06-.09 0-.13l.88-.51c.07 0 .07-.1 0-.14l-.52-.3a.289.289 0 0 0-.25 0l-.82.47-.17.1-.13.07-.12.07-.71.41a.105.105 0 0 0-.02.055c0 .021.01.041.02.055zm20.27 6.49l.82.48c.07 0 .06.11 0 .15l-.79.46a.32.32 0 0 1-.27 0l-.82-.48c-.07 0-.06-.11 0-.15l.79-.46a.322.322 0 0 1 .27 0zm-1.17-.67l.83.48c.06 0 .06.1 0 .15l-.79.45a.257.257 0 0 1-.13.034.257.257 0 0 1-.13-.034l-.83-.47c-.07 0-.06-.11 0-.16l.79-.45a.267.267 0 0 1 .13-.033c.05 0 .09.012.13.033zm-1.17-.68l.83.48c.07 0 .06.11 0 .15l-.79.46c-.04.02-.09.03-.13.03-.05 0-.09-.01-.13-.03l-.83-.48c-.07 0-.06-.11 0-.15l.79-.46a.289.289 0 0 1 .13-.029c.04 0 .09.01.13.029zm-9.94-5.74l.82.48c.07 0 .06.11 0 .15l-.78.46a.32.32 0 0 1-.27 0l-.83-.48c-.06 0-.05-.11 0-.15l.79-.46a.322.322 0 0 1 .27 0zm-1.17-.67l.83.47c.06 0 .05.11 0 .16l-.79.45a.287.287 0 0 1-.27 0l-.82-.47c-.07 0-.06-.11 0-.16l.78-.45a.295.295 0 0 1 .27 0zm-1.17-.68l.83.48c.07 0 .06.11 0 .15l-.79.46c-.04.02-.09.03-.13.03-.05 0-.09-.01-.13-.03l-.83-.48c-.07 0-.06-.11 0-.15l.79-.46a.289.289 0 0 1 .13-.029c.04 0 .09.01.13.029zm-1.17-.67l.83.48c.07 0 .06.1 0 .15l-.79.45a.257.257 0 0 1-.13.034.257.257 0 0 1-.13-.034l-.89-.46c-.07 0-.06-.11 0-.15l.79-.46c.05-.035.1-.055.16-.057.06-.002.11.015.16.047zm11.98 6.92l1.13.65c.07 0 .06.1 0 .15l-.79.45c-.04.02-.09.03-.13.03-.05 0-.09-.01-.13-.03l-1.17-.64c-.07 0-.06-.1 0-.15l.79-.45c.04-.031.1-.048.15-.05.05-.002.1.012.15.04zm-7.31-4.22l1.13.65c.07 0 .06.1 0 .15l-.79.45c-.04.02-.09.03-.13.03-.05 0-.09-.01-.13-.03l-1.13-.66c-.07 0-.06-.1 0-.15l.79-.45a.278.278 0 0 1 .26.01zm1.47.84l5.5 3.18c.07 0 .06.11 0 .15l-.79.46c-.04.02-.09.03-.13.03-.05 0-.09-.01-.13-.03l-5.5-3.18c-.07 0-.06-.1 0-.15l.79-.46a.289.289 0 0 1 .13-.029c.04 0 .09.01.13.029zm5.33 5.7l.82.48c.07 0 .06.1 0 .15l-.79.45a.257.257 0 0 1-.13.034.257.257 0 0 1-.13-.034l-.83-.47c-.06 0-.05-.11 0-.16l.79-.45a.295.295 0 0 1 .27 0zm-1.17-.68l.82.48c.07 0 .06.11 0 .15l-.79.46c-.04.02-.08.03-.13.03s-.09-.01-.13-.03l-.83-.48c-.06 0-.05-.11 0-.15l.79-.46a.324.324 0 0 1 .27 0zm-1.17-.67l.82.48c.07 0 .06.1 0 .15l-.79.45a.257.257 0 0 1-.13.034.257.257 0 0 1-.13-.034l-.83-.47c-.06 0-.05-.11 0-.16l.79-.45a.295.295 0 0 1 .27 0zm-1.17-.68l.82.48c.07 0 .06.11 0 .15l-.78.46a.32.32 0 0 1-.27 0l-.83-.48c-.06 0-.05-.11 0-.15l.79-.46a.322.322 0 0 1 .27 0zm-1.17-.67l.82.47c.07 0 .06.11 0 .16l-.78.45a.287.287 0 0 1-.27 0l-.83-.47c-.06 0-.05-.11 0-.16l.79-.45a.295.295 0 0 1 .27 0zm-1.17-.68l.82.48c.07 0 .06.11 0 .15l-.78.46a.32.32 0 0 1-.27 0l-.83-.48c-.06 0 0-.11 0-.15l.79-.46a.322.322 0 0 1 .27 0zm-1.17-.67l.82.47c.07 0 .06.11 0 .16l-.78.45a.287.287 0 0 1-.27 0l-.83-.48c-.06 0-.05-.1 0-.15l.79-.45a.298.298 0 0 1 .27 0zm-1.17-.68l.82.48c.07 0 .06.1 0 .15l-.79.46a.32.32 0 0 1-.27 0l-.83-.48c-.06 0-.05-.11 0-.15l.79-.46a.307.307 0 0 1 .14-.032c.05 0 .1.011.14.032zm-1.17-.68l.82.48c.07 0 .06.11 0 .15l-.79.46a.287.287 0 0 1-.27 0l-.82-.48c-.07 0-.06-.1 0-.15l.79-.45a.333.333 0 0 1 .13-.035c.05-.001.1.007.14.025zm-1.17-.67l.82.48c.07 0 .06.1 0 .15l-.79.45a.32.32 0 0 1-.27 0l-.82-.48c-.07 0-.06-.11 0-.15l.79-.46a.318.318 0 0 1 .14-.024c.04.001.09.013.13.034zm-1.17-.68l.82.48c.07 0 .06.11 0 .15l-.79.46a.32.32 0 0 1-.27 0l-.82-.48c-.07 0-.06-.1 0-.15l.79-.46a.322.322 0 0 1 .27 0z"/><path fill="#3A2C6D" d="M263.57 47.046l.82.48c.07 0 .06.1 0 .15l-.79.45a.287.287 0 0 1-.27 0l-.82-.47c-.07 0-.06-.11 0-.15l.79-.46a.298.298 0 0 1 .27 0zm14.04 8.1l1.71 1c.06 0 .06.11 0 .15l-.79.46a.32.32 0 0 1-.27 0l-1.71-1c-.06 0-.06-.1 0-.15l.79-.46a.324.324 0 0 1 .27 0zm.54-.99l.83.48c.07 0 .06.1 0 .15l-.79.45a.257.257 0 0 1-.13.034.257.257 0 0 1-.13-.034l-.83-.47c-.07 0-.06-.11 0-.16l.79-.45a.267.267 0 0 1 .13-.033c.05 0 .09.012.13.033zm-1.17-.68l.83.48c.07 0 .06.11 0 .15l-.79.46c-.04.02-.09.03-.13.03-.05 0-.09-.01-.13-.03l-.83-.48c-.07 0-.06-.11 0-.15l.79-.46a.289.289 0 0 1 .13-.029c.04 0 .09.01.13.029zm-1.12-.62l.83.48c.07 0 .06.1 0 .15l-.83.37a.257.257 0 0 1-.13.034.257.257 0 0 1-.13-.034l-.83-.47c-.07 0-.06-.11 0-.16l.79-.45a.265.265 0 0 1 .16-.007c.06.014.1.045.14.087zm-1.22-.73l.83.48c.07 0 .06.11 0 .15l-.79.46c-.04.02-.09.03-.13.03-.05 0-.09-.01-.13-.03l-.83-.48c-.07 0-.06-.11 0-.15l.79-.46a.289.289 0 0 1 .13-.029c.04 0 .09.01.13.029zm-1.17-.67l.83.47c.07 0 .06.11 0 .16l-.79.45a.257.257 0 0 1-.13.034.257.257 0 0 1-.13-.034l-.83-.47c-.07 0-.06-.11 0-.16l.79-.45a.256.256 0 0 1 .13-.033c.05 0 .09.011.13.033zm-1.17-.68l.83.48c.07 0 .06.11 0 .15l-.79.46c-.04.02-.09.03-.13.03-.05 0-.09-.01-.13-.03l-.83-.48c-.07 0-.06-.11 0-.15l.79-.46a.289.289 0 0 1 .13-.029c.04 0 .09.01.13.029zm-1.17-.67l.83.47c.07 0 .06.11 0 .16l-.79.45a.257.257 0 0 1-.13.034.257.257 0 0 1-.13-.034l-.83-.48c-.07 0-.06-.1 0-.15l.79-.45a.256.256 0 0 1 .13-.033c.05 0 .09.011.13.033zm-1.17-.68l.83.48c.07 0 .06.11 0 .15l-.79.46c-.04.02-.09.03-.13.03-.05 0-.09-.01-.13-.03l-.83-.48c-.07 0-.06-.11 0-.15l.79-.46a.289.289 0 0 1 .13-.029c.04 0 .09.01.13.029zm-1.17-.67l.83.47c.07 0 .06.11 0 .16l-.76.47a.257.257 0 0 1-.13.034.257.257 0 0 1-.13-.034l-.83-.48c-.07 0-.06-.1 0-.15l.79-.45a.276.276 0 0 1 .23-.02zm-1.17-.68l.83.48c.07 0 .06.1 0 .15l-.79.46c-.04.02-.09.03-.13.03-.05 0-.09-.01-.13-.03l-.83-.48c-.06 0-.06-.11 0-.15l.79-.46a.289.289 0 0 1 .13-.029c.04 0 .09.01.13.029zm-1.17-.68l.83.48c.07 0 .06.11 0 .15l-.79.46a.257.257 0 0 1-.13.034.257.257 0 0 1-.13-.034l-.83-.48c-.06 0-.06-.1 0-.15l.79-.45a.3.3 0 0 1 .26-.01zm-2.59-1.54l2.27 1.32c.07 0 .06.1 0 .15l-.79.46c-.04.02-.09.03-.13.03-.05 0-.09-.01-.13-.03l-2.27-1.32c-.07 0-.06-.1 0-.15l.79-.46a.337.337 0 0 1 .26 0zm15.46 9l1.13.65c.07 0 .06.11 0 .16l-.79.45a.257.257 0 0 1-.13.034.257.257 0 0 1-.13-.034l-1.13-.65c-.07 0-.06-.1 0-.15l.79-.46a.289.289 0 0 1 .13-.029c.04 0 .09.01.13.029zm-20.06-6.32l16.6 9.59c.07 0 .06.11 0 .15l-.39.23a.32.32 0 0 1-.27 0l-16.61-9.59c-.07 0-.06-.11 0-.15l.39-.23a.286.286 0 0 1 .28 0z"/><path fill="#BFBFBF" d="M278.91 49.166l-.11.06-2.86 1.65-5.08-2.93-.11-.07 2.97-1.71z"/><path fill="#E5E5E5" d="M278.8 49.226l-2.86 1.65-5.08-2.93 2.86-1.66zm8.27 3.79v.26c0 .184-.04.365-.13.523-.1.159-.23.289-.39.377l-10.09 5.82a.98.98 0 0 1-.5.134.98.98 0 0 1-.5-.134l-18.28-10.53a.984.984 0 0 1-.39-.375.972.972 0 0 1-.14-.525v-.26l19.29 11.14 11.13-6.43z"/><path fill="#E5E5E5" d="M275.94 59.446v.69a1.067 1.067 0 0 1-.52-.14l-18.24-10.53a.984.984 0 0 1-.39-.375.972.972 0 0 1-.14-.525v-.26l19.29 11.14z"/><path fill="#F4F4F4" d="M275.65 59.596c-.17.067-.36.094-.54.08a1.241 1.241 0 0 1-.53-.16l-18.16-10.49a1.258 1.258 0 0 1-.4-.362c-.1-.149-.17-.319-.2-.498l-2-11.86v-.2c0-.164.03-.326.1-.477.06-.152.15-.288.27-.403l18.87 10.9c.12.068.22.16.3.271.07.11.13.236.15.369l2.14 12.83z"/><path fill="#E5E5E5" d="M275.94 59.446l-.12.07-.17.08-2.15-12.83a.972.972 0 0 0-.15-.369.939.939 0 0 0-.3-.271l-18.87-10.9a.962.962 0 0 1 .25-.19l18.91 10.92c.12.067.22.159.3.27.08.11.13.237.15.37l2.15 12.85z"/><path fill="#D6D8E5" d="M47.07 365.186l-20.26-11.7 20.26-11.7 20.26 11.7zm32.11-18.75l-20.26-11.69 20.26-11.7 20.26 11.7z" opacity=".3"/><path fill="#FFD53E" d="M91.21 264.196l-20.26-11.7 20.26-11.7 20.26 11.7z"/><path fill="#FFD53E" d="M91.21 339.666l-20.26-11.7v-75.47l20.26 11.7z"/><path fill="#000" d="M91.21 339.666l-20.26-11.7v-75.47l20.26 11.7z" opacity=".1"/><path fill="#FFD53E" d="M111.47 327.966l-20.26 11.7v-75.47l20.26-11.7z"/><path fill="#000" d="M111.47 327.966l-20.26 11.7v-75.47l20.26-11.7z" opacity=".15"/><path fill="#FF4D4D" d="M60.82 302.616l-20.26-11.7 20.26-11.69 20.26 11.69z"/><path fill="#FF4D4D" d="M60.82 357.116l-20.26-11.7v-54.5l20.26 11.7z"/><path fill="#000" d="M60.82 357.116l-20.26-11.7v-54.5l20.26 11.7z" opacity=".1"/><path fill="#FF4D4D" d="M81.08 345.416l-20.26 11.7v-54.5l20.26-11.7z"/><path fill="#000" d="M81.08 345.416l-20.26 11.7v-54.5l20.26-11.7z" opacity=".15"/><path fill="#D6D8E5" d="M21.12 380.516l-20.26-11.7 20.26-11.7 20.26 11.7z" opacity=".3"/><path fill="#B7E200" d="M28.46 342.566l-20.26-11.7 20.26-11.69 20.26 11.69z"/><path fill="#B7E200" d="M28.46 376.096L8.2 364.406v-33.54l20.26 11.7z"/><path fill="#000" d="M28.46 376.096L8.2 364.406v-33.54l20.26 11.7z" opacity=".1"/><path fill="#B7E200" d="M48.72 364.406l-20.26 11.69v-33.53l20.26-11.7z"/><path fill="#000" d="M48.72 364.406l-20.26 11.69v-33.53l20.26-11.7z" opacity=".15"/><path fill="#D6D8E5" d="M237.16 454.596l-13-18.72-6.3-2.82a65.379 65.379 0 0 0-14.58-1.68c-5.87 5.92-42.89 7.5-57.59.2-16.67-8.28-25.41-18.39-28.13-24.58-4.84-11 4.39-23.93 4.39-23.93-25.22 14.56-25.22 38.26 0 52.82 23.64 13.65 61.18 14.5 86.56 2.56l28.65 16.15z" opacity=".4"/><path fill="#D6D8E5" d="M308.41 500.856l-87.3-50.4 14.83-8.56 87.3 50.4z" opacity=".4"/><path fill="#B1B4C4" d="M125.07 431.276c-25.22-14.56-25.22-38.25 0-52.81 25.22-14.56 66.26-14.56 91.48 0s25.22 38.25 0 52.81c-25.22 14.56-66.26 14.58-91.48 0zm80.32-46.37c-19.07-11-50.1-11-69.16 0-19.06 11-19.07 28.95 0 39.95 19.07 11 50.09 11 69.16 0 19.07-11 19.07-28.94 0-39.95z"/><path fill="#B1B4C4" d="M106.19 405.986v-11.19l11.34 5.59zm32.11 18.45c.46.57 2.08 11.53 34.38 11.53 32.3 0 30.92-12.95 30.92-12.95s-30.46 4.19-30.92 4.19c-.46 0-34.38-2.77-34.38-2.77zm97.16-29.64v10.07l-9.3-5.93zm-94.05-24.36a83.138 83.138 0 0 1 29.4-5.65 70.575 70.575 0 0 1 28.41 6.07l-2.05 3.41h-54l-1.76-3.83z"/><path fill="#3E7EFF" d="M170.82 426.466c26.59 0 48.15-12.446 48.15-27.8 0-15.353-21.56-27.8-48.15-27.8-26.593 0-48.15 12.447-48.15 27.8 0 15.354 21.557 27.8 48.15 27.8z" opacity=".1"/><path fill="#D6D8E5" d="M125.07 421.206c-25.22-14.56-25.22-38.26 0-52.82 25.22-14.56 66.26-14.56 91.48 0s25.22 38.26 0 52.82c-25.22 14.56-66.26 14.56-91.48 0zm80.32-46.35c-19.07-11-50.1-11-69.16 0-19.06 11-19.07 28.93 0 39.94 19.07 11.01 50.09 11 69.16 0 19.07-11 19.07-28.94 0-39.94z"/><path fill="#D6D8E5" d="M231.65 437.166l-21.88-12.73 12.71-7.33 21.88 12.72z"/><path fill="#B1B4C4" d="M231.65 447.306l-21.86-12.65v-10.21l21.86 12.65z"/><path fill="#2B303F" d="M311.18 499.096l-87.29-50.4v-17.12l87.29 50.4z"/><path fill="#394051" d="M311.19 481.986l-87.3-50.4 14.83-8.56 87.3 50.39z"/><path fill="#232733" d="M311.18 499.096c.9-.1 14.84-8.35 14.84-8.35v-17.33l-14.83 8.57-.01 17.11z"/><g><path fill="#FFCEA9" d="M62.64 273.356a36.514 36.514 0 0 0 5.32 7.25c.58.67 5-1 4.08-1.5-.92-.5-3.83-4.52-5.28-7.21a90.928 90.928 0 0 1-3.1-9.85c-.91-3.3-1.7-8.14-2.36-10.42a4.478 4.478 0 0 0-3.39-3.45c-1.6-.37-2.63.07-2.34 2 .51 3.38 3.16 16.53 7.07 23.18z"/><path fill="#38226D" d="M60.1 324.856c1.37 1.12 3.4.1 3.5.2a60.003 60.003 0 0 0 5.06 4.22c.86.67 2.2 1.57 2 2.87-.43 2.31-4.13 1.6-5.53.89-1.4-.71-2.54-1.88-3.86-2.7-.94-.59-1.87-.89-2-2.08-.16-.71.59-3.4.83-3.4z"/><path fill="#9C73FF" d="M59.22 327.786c.18 1.14 1.1 1.45 2 2 1.35.83 2.53 2 3.93 2.74 1.4.74 4.51 1.31 5.41-.35-.49 2.23-4.13 1.53-5.51.83-1.38-.7-2.54-1.88-3.86-2.7-.94-.59-1.87-.89-2-2.08a2.032 2.032 0 0 1 .03-.44z"/><path fill="#38226D" d="M74.02 316.856c1.38 1.12 3.78-.1 3.88 0a54.668 54.668 0 0 0 4.53 4.09c.85.67 2.19 1.57 2 2.86-.43 2.32-4.14 1.61-5.54.9-1.4-.71-2.54-1.88-3.86-2.7-.94-.59-1.87-.89-2-2.08a6.417 6.417 0 0 1 .99-3.07z"/><path fill="#9C73FF" d="M73 319.596c.19 1.14 1.1 1.45 2 2 1.34.83 2.53 2 3.92 2.74 1.39.74 4.52 1.31 5.42-.35-.48 2.27-4.09 1.57-5.48.87-1.39-.7-2.54-1.88-3.86-2.7-1-.59-1.88-.89-2-2.08a2.028 2.028 0 0 1 0-.48z"/><path fill="#8C50FF" d="M41.74 280.856c-1.52 9.51 2.7 13.05 8.19 15.08 3.94 1.45 9.59 3.68 9.59 3.68s-.08 2.09-.12 6.77c0 4.13.5 19.18.5 19.18a4.58 4.58 0 0 0 4.2 0s2.22-11.54 2.69-16.74c.63-7.05 1.72-11.67 1.36-13.19-.32-1.34-8-5.13-10.48-7.16l16.19 5.38a28.158 28.158 0 0 0-.47 5.31c.15 5.6.45 17.71.45 17.71s2.22 1.6 4.11 0c0 0 4.06-24 3.57-27.16-.47-3-14.7-9.17-17.21-11.29a3.995 3.995 0 0 0-3.16-.86l-19.41 3.29z"/><path fill="#F4F4F4" d="M80.47 284.856l-10.85-6.27a.645.645 0 0 0-.63 0l-19 11 11.17 6.44 19.31-11.17z"/><path fill="#3A2C6D" d="M60.61 293.686l-.82.48c-.07 0-.06.1 0 .15l.79.45a.29.29 0 0 0 .27 0l.82-.47c.07 0 .06-.11 0-.16l-.79-.45a.29.29 0 0 0-.27 0zm1.17-.68l-.82.48c-.07 0-.06.11 0 .15l.79.46a.295.295 0 0 0 .26 0l.83-.48c.06 0 0-.11 0-.15l-.79-.46a.328.328 0 0 0-.135-.03.328.328 0 0 0-.135.03zm1.19-.68l-.83.48c-.07 0-.06.1 0 .15l.79.45a.268.268 0 0 0 .26 0l.83-.47c.07 0 .06-.11 0-.16l-.79-.45a.27.27 0 0 0-.26 0zm1.16-.67l-.83.48c-.07 0-.06.1 0 .15l.79.45a.295.295 0 0 0 .26 0l.83-.48c.07 0 .06-.11 0-.15l-.79-.46a.294.294 0 0 0-.131-.024.292.292 0 0 0-.129.034zm1.17-.68l-.83.48c-.07 0-.06.11 0 .15l.79.46a.295.295 0 0 0 .26 0l.83-.48c.07 0 .06-.11 0-.15l-.79-.46a.308.308 0 0 0-.26 0zm1.17-.67l-.83.47c-.07 0-.06.11 0 .16l.79.45a.268.268 0 0 0 .26 0l.83-.47c.07 0 .06-.11 0-.16l-.79-.45a.27.27 0 0 0-.26 0zm1.17-.68l-.83.48c-.06 0-.06.11 0 .15l.79.46a.295.295 0 0 0 .26 0l.83-.48c.07 0 .06-.11 0-.15l-.79-.46a.308.308 0 0 0-.26 0zm1.22-.68l-.83.48c-.06 0-.06.11 0 .15l.79.46a.29.29 0 0 0 .27 0l.82-.48c.07 0 .06-.1 0-.15l-.79-.45a.292.292 0 0 0-.129-.034.294.294 0 0 0-.131.024zm1.12-.67l-.82.48c-.07 0-.06.1 0 .15l.79.45a.29.29 0 0 0 .27 0l.82-.47c.07 0 .06-.11 0-.15l-.79-.46a.29.29 0 0 0-.27 0zm1.17-.68l-.82.48c-.07 0-.06.11 0 .15l.78.46a.313.313 0 0 0 .27 0l.83-.48c.06 0 0-.11 0-.15l-.79-.46a.328.328 0 0 0-.135-.03.328.328 0 0 0-.135.03zm1.17-.67l-.82.47c-.07 0-.06.11 0 .16l.79.45a.268.268 0 0 0 .26 0l.83-.48c.06 0 .06-.1 0-.15l-.79-.45a.29.29 0 0 0-.27 0zm1.18-.68l-.83.48c-.07 0-.06.1 0 .15l.79.46a.295.295 0 0 0 .26 0l.83-.48c.07 0 .06-.11 0-.15l-.79-.46a.308.308 0 0 0-.26 0zm1.17-.68l-.83.48c-.07 0-.06.11 0 .15l.79.46a.295.295 0 0 0 .26 0l.83-.48c.07 0 .06-.1 0-.15l-.79-.46a.308.308 0 0 0-.26 0zm1.73-1l-1.39.81c-.07 0-.06.1 0 .15l.79.45a.268.268 0 0 0 .26 0l1.39-.8c.07 0 .06-.11 0-.15l-.79-.46a.322.322 0 0 0-.26 0zm-15.18 7.46l-.83.48c-.07 0-.06.1 0 .15l.79.46a.335.335 0 0 0 .26 0l.83-.48c.06 0 .06-.11 0-.15l-.79-.46a.308.308 0 0 0-.26 0zm1.17-.68l-.83.48c-.07 0-.06.11 0 .15l.79.46a.292.292 0 0 0 .26 0l.83-.48c.07 0 .06-.11 0-.15l-.79-.46a.308.308 0 0 0-.26 0zm1.17-.68l-.83.48c-.06 0 0 .11 0 .15l.79.46a.29.29 0 0 0 .27 0l.82-.48c.07 0 .06-.1 0-.15l-.79-.45a.292.292 0 0 0-.129-.034.294.294 0 0 0-.131.024zm1.17-.67l-.82.48c-.07 0-.06.1 0 .15l.79.45c.04.022.085.034.13.034s.09-.012.13-.034l.83-.47c.06 0 .06-.11 0-.16l-.79-.45a.29.29 0 0 0-.27 0zm1.13-.67l-.83.47c-.07 0-.06.11 0 .16l.79.45c.04.022.085.034.13.034s.09-.012.13-.034l.83-.48c.07 0 .06-.1 0-.15l-.79-.45a.27.27 0 0 0-.26 0zm1.21-.68l-.83.48c-.06 0 0 .1 0 .15l.79.45a.29.29 0 0 0 .27 0l.82-.47c.07 0 .06-.11 0-.16l-.78-.45a.29.29 0 0 0-.27 0zm1.17-.68l-.82.48c-.07 0-.06.11 0 .15l.79.46a.295.295 0 0 0 .26 0l.83-.48c.06 0 .06-.11 0-.15l-.79-.46a.327.327 0 0 0-.27 0zm1.18-.68l-.83.48c-.07 0-.06.11 0 .15l.79.46a.295.295 0 0 0 .26 0l.83-.48c.07 0 .06-.1 0-.15l-.79-.46a.308.308 0 0 0-.26 0zm1.17-.67l-.83.47c-.06 0-.05.11 0 .16l.79.45a.29.29 0 0 0 .27 0l.82-.48c.07 0 .06-.1 0-.15l-.79-.45a.27.27 0 0 0-.26 0zm1.17-.68l-.82.48c-.07 0-.06.1 0 .15l.79.45a.292.292 0 0 0 .26 0l.83-.48c.06 0 .06-.11 0-.15l-.79-.46a.292.292 0 0 0-.27.01zm1.18-.68l-.83.48c-.07 0-.06.11 0 .15l.79.46a.295.295 0 0 0 .26 0l.83-.48c.07 0 .06-.11 0-.15l-.79-.46a.308.308 0 0 0-.26 0zm1.17-.68l-.83.48c-.06 0-.06.11 0 .15l.79.46a.313.313 0 0 0 .27 0l.82-.48c.07 0 .06-.1 0-.15l-.79-.46a.344.344 0 0 0-.26 0zm-14.07 8.13l-1.39.8c-.07 0-.06.11 0 .15l.79.46a.295.295 0 0 0 .26 0l1.39-.8c.07 0 .06-.11 0-.16l-.78-.45a.29.29 0 0 0-.27 0zm16.31-8.18l-.83.48a.3.3 0 0 1-.25 0l-.83-.49c-.07 0-.07-.1 0-.14h.06c.07 0 .07-.09 0-.13l-.88-.51c-.07 0-.07-.1 0-.14l.53-.3a.251.251 0 0 1 .24 0l.83.48.17.09.12.07.12.08.72.41a.082.082 0 0 1 0 .1zm-20.27 6.53l-.83.48c-.07 0-.06.11 0 .15l.79.46a.292.292 0 0 0 .26 0l.83-.48c.07 0 .06-.1 0-.15l-.79-.46a.308.308 0 0 0-.26 0zm1.16-.67l-.82.48c-.07 0-.06.1 0 .15l.79.45a.295.295 0 0 0 .26 0l.83-.48c.06 0 .06-.11 0-.15l-.79-.46a.332.332 0 0 0-.136-.025.33.33 0 0 0-.134.035zm1.17-.67l-.82.47c-.07 0-.06.11 0 .15l.79.46a.29.29 0 0 0 .27 0l.82-.48c.07 0 .06-.1 0-.15l-.79-.45a.29.29 0 0 0-.27 0zm9.95-5.75l-.83.48c-.07 0-.06.11 0 .15l.79.46a.295.295 0 0 0 .26 0l.83-.48c.07 0 .06-.11 0-.15l-.79-.46a.308.308 0 0 0-.26 0zm1.17-.67l-.83.48c-.07 0-.06.1 0 .15l.79.45a.295.295 0 0 0 .26 0l.83-.48c.07 0 .06-.11 0-.15l-.79-.46a.272.272 0 0 0-.26.01zm1.16-.68l-.82.48c-.07 0-.06.11 0 .15l.79.46a.295.295 0 0 0 .26 0l.83-.48c.06 0 0-.1 0-.15l-.79-.45a.33.33 0 0 0-.134-.035.332.332 0 0 0-.136.025zm1.17-.67l-.83.48c-.06 0 0 .1 0 .15l.79.46a.313.313 0 0 0 .27 0l.82-.48c.07 0 .06-.11 0-.15l-.78-.46a.327.327 0 0 0-.27 0zm-12 6.91l-1.13.65c-.06 0-.06.11 0 .15l.79.46a.292.292 0 0 0 .26 0l1.13-.65c.07 0 .06-.11 0-.16l-.79-.45a.27.27 0 0 0-.26 0zm7.33-4.21l-1.13.65c-.07 0-.06.11 0 .15l.79.46a.292.292 0 0 0 .26 0l1.13-.65c.07 0 .06-.11 0-.16l-.79-.45a.282.282 0 0 0-.13-.033.279.279 0 0 0-.13.033zm-1.47.85l-5.5 3.17c-.07 0-.06.11 0 .15l.79.46a.295.295 0 0 0 .26 0l5.5-3.18c.07 0 .06-.1 0-.15l-.78-.45a.29.29 0 0 0-.27 0zm-5.32 5.69l-.83.48c-.07 0-.06.1 0 .15l.79.46a.295.295 0 0 0 .26 0l.83-.48c.07 0 .06-.11 0-.15l-.79-.46a.308.308 0 0 0-.26 0zm1.17-.68l-.83.48c-.07 0-.06.11 0 .15l.79.46c.04.022.085.034.13.034s.09-.012.13-.034l.83-.48c.07 0 .06-.1 0-.15l-.79-.45a.292.292 0 0 0-.129-.034.294.294 0 0 0-.131.024zm1.17-.65l-.83.48c-.07 0-.06.1 0 .15l.79.45a.295.295 0 0 0 .26 0l.83-.48c.07 0 .06-.11 0-.15l-.79-.46a.294.294 0 0 0-.131-.024.292.292 0 0 0-.129.034zm1.17-.7l-.83.48c-.07 0-.06.11 0 .15l.79.46a.295.295 0 0 0 .26 0l.83-.48c.07 0 .06-.1 0-.15l-.79-.46a.308.308 0 0 0-.26 0zm1.17-.67l-.83.48c-.07 0-.06.1 0 .15l.79.45a.268.268 0 0 0 .26 0l.83-.47c.07 0 .06-.11 0-.15l-.79-.46a.27.27 0 0 0-.26 0zm1.17-.63l-.83.48c-.07 0-.06.11 0 .15l.79.46a.295.295 0 0 0 .26 0l.83-.48c.07 0 .06-.11 0-.15l-.79-.46a.308.308 0 0 0-.26 0zm1.17-.72l-.83.48c-.07 0-.06.1 0 .15l.79.45c.04.022.085.034.13.034s.09-.012.13-.034l.83-.47c.07 0 .06-.11 0-.16l-.79-.45a.27.27 0 0 0-.26 0zm1.17-.68l-.83.48c-.07 0-.06.11 0 .15l.79.46a.295.295 0 0 0 .26 0l.83-.48c.07 0 .06-.11 0-.15l-.79-.46a.308.308 0 0 0-.26 0zm1.17-.67l-.83.47c-.07 0-.06.11 0 .16l.79.45a.268.268 0 0 0 .26 0l.83-.47c.07 0 .06-.11 0-.16l-.79-.45a.27.27 0 0 0-.26 0zm1.17-.68l-.83.48c-.07 0-.06.11 0 .15l.79.46a.295.295 0 0 0 .26 0l.83-.48c.07 0 .06-.11 0-.15l-.79-.46a.308.308 0 0 0-.26 0zm1.17-.67l-.83.47c-.07 0-.06.11 0 .16l.79.45c.04.022.085.034.13.034s.09-.012.13-.034l.83-.48c.07 0 .06-.1 0-.15l-.79-.45a.27.27 0 0 0-.26 0z"/><path fill="#3A2C6D" d="M73.27 283.756l-.83.48c-.07 0-.06.11 0 .15l.79.46a.292.292 0 0 0 .26 0l.83-.48c.07 0 .06-.11 0-.15l-.79-.46a.308.308 0 0 0-.26 0zm-14.04 8.1l-1.71 1c-.07 0-.06.11 0 .16l.79.45c.04.022.085.034.13.034s.09-.012.13-.034l1.71-1c.07 0 .06-.1 0-.15l-.79-.45a.277.277 0 0 0-.26-.01zm-.55-1l-.82.48c-.07 0-.06.1 0 .15l.79.46a.313.313 0 0 0 .27 0l.82-.48c.07 0 .06-.11 0-.15l-.79-.46a.328.328 0 0 0-.135-.03.328.328 0 0 0-.135.03zm1.18-.67l-.82.48c-.07 0-.06.11 0 .15l.79.46a.29.29 0 0 0 .27 0l.82-.48c.07 0 .06-.1 0-.15l-.79-.45a.33.33 0 0 0-.134-.035.332.332 0 0 0-.136.025zm1.16-.67l-.83.48c-.06 0 0 .1 0 .15l.79.45a.313.313 0 0 0 .27 0l.82-.48c.07 0 .06-.11 0-.15l-.78-.46a.325.325 0 0 0-.27.01zm1.17-.66l-.83.48c-.06 0 0 .11 0 .15l.79.46a.313.313 0 0 0 .27 0l.82-.48c.07 0 .06-.1 0-.15l-.78-.46a.36.36 0 0 0-.27 0zm1.17-.69l-.83.48c-.06 0-.05.1 0 .15l.79.45a.313.313 0 0 0 .27 0l.82-.48c.07 0 .06-.11 0-.15l-.79-.46a.272.272 0 0 0-.26.01zm1.17-.68l-.83.48c-.06 0-.06.11 0 .15l.79.46a.313.313 0 0 0 .27 0l.82-.48c.07 0 .06-.1 0-.15l-.79-.46a.308.308 0 0 0-.26 0zm1.17-.63l-.83.48c-.06 0-.06.1 0 .15l.79.45a.29.29 0 0 0 .27 0l.82-.47c.07 0 .06-.11 0-.16l-.79-.45a.27.27 0 0 0-.26 0zm1.16-.72l-.83.48c-.06 0-.06.11 0 .15l.79.46a.295.295 0 0 0 .26 0l.83-.48c.07 0 .06-.11 0-.15l-.79-.46a.308.308 0 0 0-.26 0zm1.18-.67l-.83.48c-.06 0-.06.1 0 .15l.79.45c.04.022.085.034.13.034s.09-.012.13-.034l.83-.47c.07 0 .06-.11 0-.16l-.79-.45a.27.27 0 0 0-.26 0zm1.17-.68l-.83.48c-.06 0-.06.11 0 .15l.79.46a.295.295 0 0 0 .26 0l.83-.48c.07 0 .06-.11 0-.15l-.79-.46a.308.308 0 0 0-.26 0zm1.17-.67l-.83.47c-.07 0-.06.11 0 .16l.79.45c.04.022.085.034.13.034s.09-.012.13-.034l.83-.47c.07 0 .06-.11 0-.16l-.79-.45a.27.27 0 0 0-.26 0zm2.62-1.51l-2.28 1.31c-.07 0-.06.11 0 .15l.79.46a.295.295 0 0 0 .26 0l2.28-1.32c.07 0 .06-.1 0-.15l-.79-.45a.27.27 0 0 0-.26 0zm-15.49 8.94l-1.13.65c-.06 0-.05.1 0 .15l.79.45a.313.313 0 0 0 .27 0l1.12-.66c.07 0 .06-.1 0-.15l-.79-.45a.294.294 0 0 0-.26.01zm20.07-6.3l-16.61 9.61c-.07 0-.06.11 0 .15l.4.23c.04.022.085.034.13.034s.09-.012.13-.034l16.61-9.59c.07 0 .06-.11 0-.15l-.4-.23a.303.303 0 0 0-.26-.02z"/><path fill="#BFBFBF" d="M58.14 285.676l.11.06 2.87 1.66 5.1-2.95.11-.06-2.98-1.72z"/><path fill="#E5E5E5" d="M58.25 285.736l2.87 1.66 5.1-2.95-2.87-1.65zm-8.3 3.81v.25a1 1 0 0 0 .53.91l10.11 5.84a1.058 1.058 0 0 0 1.05 0l18.31-10.57a1.053 1.053 0 0 0 .52-.91v-.21l-19.35 11.13-11.17-6.44z"/><path fill="#F4F4F4" d="M61.41 296.146a1.246 1.246 0 0 0 1.07-.08l18.23-10.53a1.216 1.216 0 0 0 .6-.87l2-11.89c.005-.07.005-.14 0-.21a1.25 1.25 0 0 0-.36-.88l-18.94 10.94a1.012 1.012 0 0 0-.44.64l-2.16 12.88z"/><path fill="#E5E5E5" d="M61.12 295.986l.12.08.17.08 2.16-12.88a1.013 1.013 0 0 1 .44-.64l18.95-10.94a1.276 1.276 0 0 0-.26-.19l-19 11a.902.902 0 0 0-.44.64l-2.14 12.85z"/><path fill="#FFCEA9" d="M47.36 245.066s.23 4.53.13 4.93c-.1.4-2.08 1.73-2.65 2.2-.57.47 3.13 4.13 4.93 5 1.8.87 7.51-1.35 7.61-4.16.1-2.81-1-5.16-1.85-5.28-.85-.12-8.17-2.69-8.17-2.69z"/><path fill="#F4F4F4" d="M46.86 250.776s3.29 4.9 7.87 5.36c1.45-1.43 1.58-6.5-.42-8.12 0 0 1.84-1.48 3.1-1.19a6.473 6.473 0 0 1 2.83 3.61 29.62 29.62 0 0 1 1.62 10.48c-.07 4.8 0 16.95 0 16.95a10.355 10.355 0 0 1-4.84 6.99 14.995 14.995 0 0 1-10.88 1.5c-2.32-.54-3.19-1.84-4-3.53.21-3.36 1.54-10.29 1-14.53s-1.45-7.39-1.69-10.82c-.24-3.43.46-3.35 2.17-4.57a27.495 27.495 0 0 1 3.24-2.13z"/><path fill="#FFCEA9" d="M52.12 289.796a22.829 22.829 0 0 0-2.57-1.47 5.328 5.328 0 0 1-2.2-1.34c-.81-.79-2.13-3.77-3.07-6.68a29.865 29.865 0 0 1-1.11-10.11c.4-4.08 1.87-9.79 2.24-12.14.37-2.35-.38-3.29-1.47-4.15-1.29-1-3.06-.57-4 2.72a63.299 63.299 0 0 0-2.08 13.94 31.83 31.83 0 0 0 1.56 10.29 37.537 37.537 0 0 0 3.93 8.09c.45.76.6 1.43 1.28 3a10.485 10.485 0 0 0 3 4c1.15.83 1.7 1 2 .79.3-.21.27-.57-.21-1a8.522 8.522 0 0 1-2.06-2.3s1 1 1.67 1.56a8.775 8.775 0 0 0 1.92 1.23c.68.3 1.61-.27 1.13-.73-.48-.46-1-.67-1.92-1.51a8.151 8.151 0 0 1-1.37-1.48c.669.507 1.378.959 2.12 1.35a3.587 3.587 0 0 0 1.94.53c.36 0 .79-.51.12-1a13.23 13.23 0 0 1-2.54-1.74c-.74-.73-1.16-1.35-1-1.36.16-.01.61.44 1.47.71.86.27 1.79 0 1.9-.44.11-.44.13-.36-.68-.76zm5.49-51.48c-.54-3.52-3.08-6.18-6.7-6a7 7 0 0 0-3.55 12.73c.125.531.313 1.044.56 1.53 1.28 1.5 5.16 2.43 6.27 2.27a3.312 3.312 0 0 0 2.89-2.36c1.2-2.74.78-6.43.53-8.17z"/><path fill="#3A2C6D" d="M47.36 245.066l.33-3.07s-2.5-6.49 3.42-5.24c3.9.82 4.88 1.18 6.07-1.44 1.19-2.62-3-5-8-4.33a6.895 6.895 0 0 0-6.16 7c.15 1.92.66 5.87 4.34 7.08z"/><path fill="#EDEDED" d="M37.23 262.666s3.23 3.21 7.05 2.29c.55-.37 1.86-7.88 1.86-7.88s0-4.17-3.19-4.06c-3.19.11-5.72 9.65-5.72 9.65zm24.39-6.23a3.556 3.556 0 0 0 2.39-1.07c-.13-1.68-2.28-8.07-6.61-8.54a7.944 7.944 0 0 1 2.7 3.26 42.243 42.243 0 0 1 1.52 6.35z"/></g></g></svg>