<svg xmlns="http://www.w3.org/2000/svg" width="447" height="384" viewBox="0 0 447 384"><title>Слой 2_3</title><g fill="none"><path fill="#D6D8E5" d="M96.774 318.73l-.794-1.38 127.449-73.58 1.588.91zm78.195-150.07l-.794 1.38 194.9 112.52.794-1.37zm197.183 33.55l-68.166-39.35 68.166-39.36 68.167 39.36z" opacity=".4"/><path fill="#D5D6E0" d="M438.16 154.16l-59.451-34.32-59.443 34.32-8.724-5.03v10.06l68.167 39.36 68.166-39.36v-10.06z"/><path fill="#E9EAF4" d="M378.709 188.49l-68.167-39.36 68.167-39.35 68.166 39.35zm-.001-122.17l-56.579-32.68L378.708.98l56.589 32.66z"/><path fill="#DFE0EA" d="M322.129 33.64v116.48l56.579 32.67V66.32z"/><path fill="#D5D6E0" d="M378.709 182.79l56.588-32.67V33.64l-56.588 32.68z"/><path fill="#2B303F" d="M397.931 80.57l-9.794 5.66V74.92l9.794-5.66zm31.051-17.93l-28.063 16.2V67.53l28.063-16.2zm-31.051 34.42l-9.794 5.65V91.4l9.794-5.66zm31.051-17.93l-28.063 16.2V84.01l28.063-16.19zm-31.051 34.41l-9.794 5.66v-11.32l9.794-5.65zm31.051-17.92l-28.063 16.2v-11.31l28.063-16.2zm-31.051 34.4l-9.794 5.66v-11.31l9.794-5.66zm31.051-17.92l-28.063 16.2v-11.31l28.063-16.2zm-31.051 34.41l-9.794 5.66v-11.32l9.794-5.65zm31.051-17.92l-28.063 16.2v-11.31l28.063-16.2zm-90.048-59.01l-9.731-5.62V52.72l9.731 5.62zm30.846 17.81l-27.875-16.1V60.06l27.875 16.1zm-30.846-1.43l-9.731-5.62V69.11l9.731 5.61zm30.846 17.81l-27.875-16.1V76.44l27.875 16.09zm-30.846-1.43l-9.731-5.62V85.49l9.731 5.62zm30.846 17.81l-27.875-16.09V92.82l27.875 16.09zm-30.846-1.43l-9.731-5.62v-11.24l9.731 5.62zm30.846 17.81l-27.875-16.1V109.2l27.875 16.09zm-30.846-1.43l-9.731-5.62v-11.24l9.731 5.62zm30.846 17.8l-27.875-16.09v-11.24l27.875 16.09z"/><path fill="#006DFF" d="M322.129 143.59l56.579 32.08 56.589-33.23v7.68l-56.589 32.67-56.579-32.67z"/><path fill="#2B303F" d="M379.922 34.41c-1.221.28-2.49.28-3.711 0l-2.81 1.62a14.264 14.264 0 0 0 9.348 0l-2.827-1.62zm2.702-1.55l2.828 1.63a3.367 3.367 0 0 0 1.35-2.7c0-.52-.122-1.04-.356-1.51a3.513 3.513 0 0 0-.994-1.19l-2.819 1.63a1.786 1.786 0 0 1-.009 2.14zm-6.404-3.69a8.302 8.302 0 0 1 3.711 0l2.845-1.64a14.394 14.394 0 0 0-9.348 0l2.792 1.64zm-2.694 1.55l-2.819-1.63c-.421.32-.762.72-.998 1.19a3.356 3.356 0 0 0 0 3.02c.236.47.577.88.998 1.19l2.819-1.62c-.234-.31-.36-.69-.36-1.08 0-.39.126-.76.36-1.07zm13.978 4.96l2.676 1.57c4.317-3.21 4.317-7.72 0-10.92l-2.676 1.58c2.863 2.31 2.863 5.45 0 7.77zm-2.694 1.55a18.837 18.837 0 0 1-13.469 0l-2.721 1.57a24.754 24.754 0 0 0 18.901 0l-2.711-1.57zm-13.469-10.88a18.812 18.812 0 0 1 13.46 0l2.72-1.57a24.846 24.846 0 0 0-18.901 0l2.721 1.57zm-2.694 1.55l-2.721-1.57c-4.317 3.2-4.317 7.71 0 10.92l2.721-1.57c-2.819-2.32-2.873-5.46 0-7.78z"/><path fill="#2B303F" d="M392.258 38.44l2.676 1.56c6.886-4.72 6.886-11.66 0-16.39l-2.676 1.56c5.423 3.83 5.414 9.4 0 13.27zm-2.694 1.54c-6.672 3.13-16.315 3.13-22.987 0l-2.676 1.56c8.18 3.97 20.213 3.97 28.393 0l-2.73-1.56zM366.577 23.6c6.681-3.13 16.315-3.13 22.987 0l2.676-1.56c-8.18-3.98-20.213-3.98-28.392 0l2.729 1.56zm-2.694 1.55l-2.676-1.56c-6.886 4.73-6.886 11.68 0 16.4l2.676-1.57c-5.414-3.85-5.414-9.42 0-13.27z"/><path fill="#D6D8E5" d="M158.536 206.97L90.37 167.61l68.166-39.35 68.167 39.35z" opacity=".4"/><path fill="#D5D6E0" d="M224.535 158.92l-59.443-34.32-59.442 34.32-8.724-5.04v10.08l68.166 39.34 68.167-39.34v-10.08z"/><path fill="#E9EAF4" d="M165.092 193.24l-68.166-39.36 68.166-39.35 68.167 39.35zm0-122.17L108.513 38.4l56.579-32.67 56.589 32.67z"/><path fill="#DFE0EA" d="M108.513 38.4v116.48l56.579 32.67V71.07z"/><path fill="#D5D6E0" d="M165.092 187.55l56.589-32.67V38.4l-56.589 32.67z"/><path fill="#2B303F" d="M184.315 85.33l-9.794 5.65V79.67l9.794-5.65zm31.041-17.92L187.303 83.6V72.28l28.053-16.19zm-31.041 34.4l-9.794 5.66V96.15l9.794-5.65zm31.041-17.92l-28.053 16.2V88.78l28.053-16.2zm-31.041 34.4l-9.794 5.66v-11.31l9.794-5.66zm31.041-17.92l-28.053 16.2v-11.31l28.053-16.2zm-31.041 34.41l-9.794 5.65v-11.31l9.794-5.65zm31.041-17.92l-28.053 16.2v-11.31l28.053-16.2zm-31.041 34.41l-9.794 5.66v-11.31l9.794-5.66zm31.041-17.93l-28.053 16.2v-11.31l28.053-16.2zm-90.038-59l-9.732-5.62V57.48l9.732 5.62zm30.837 17.8L128.28 76.05V64.81l27.875 16.1zm-30.837-1.43l-9.732-5.62V73.86l9.732 5.62zm30.837 17.82l-27.875-16.1V81.2l27.875 16.09zm-30.837-1.43l-9.732-5.62V90.24l9.732 5.62zm30.837 17.8l-27.875-16.09V97.57l27.875 16.09zm-30.837-1.42l-9.732-5.62v-11.24l9.732 5.62zm30.837 17.8l-27.875-16.09v-11.24l27.875 16.09zm-30.837-1.43l-9.732-5.62v-11.24l9.732 5.62zm30.837 17.81l-27.875-16.09v-11.24l27.875 16.1z"/><path fill="#006DFF" d="M108.513 148.35l56.579 32.08 56.589-33.24v7.69l-56.589 32.67-56.579-32.67z"/><path fill="#2B303F" d="M166.305 39.17a8.298 8.298 0 0 1-3.71 0l-2.819 1.63a14.421 14.421 0 0 0 9.357 0l-2.828-1.63zm2.694-1.56l2.828 1.64c.411-.32.743-.72.972-1.19.229-.46.348-.97.348-1.49s-.119-1.03-.348-1.49a3.381 3.381 0 0 0-.972-1.19l-2.819 1.63c.22.3.338.67.336 1.05-.001.37-.122.74-.345 1.04zm-6.395-3.69a8.298 8.298 0 0 1 3.71 0l2.819-1.62a14.421 14.421 0 0 0-9.357 0l2.828 1.62zm-2.694 1.55l-2.81-1.62a3.347 3.347 0 0 0-1.32 2.67 3.347 3.347 0 0 0 1.32 2.68l2.819-1.62a1.805 1.805 0 0 1-.348-1.05c-.002-.38.117-.75.339-1.06zm13.977 4.96l2.676 1.57c4.318-3.2 4.318-7.71 0-10.92l-2.72 1.58c2.881 2.32 2.881 5.45.044 7.77zm-2.702 1.58a18.815 18.815 0 0 1-13.461 0l-2.676 1.57a24.757 24.757 0 0 0 18.902 0l-2.765-1.57zm-13.46-10.91a18.919 18.919 0 0 1 13.46 0l2.72-1.58a24.846 24.846 0 0 0-18.901 0l2.721 1.58zm-2.694 1.55l-2.721-1.56c-4.317 3.2-4.317 7.71 0 10.91l2.721-1.57c-2.864-2.32-2.873-5.46 0-7.78z"/><path fill="#2B303F" d="M178.642 43.18l2.676 1.56c6.886-4.72 6.886-11.67 0-16.4l-2.676 1.57c5.414 3.85 5.414 9.42 0 13.27zm-2.694 1.55c-6.681 3.13-16.315 3.13-22.987 0l-2.676 1.56c8.18 3.97 20.213 3.97 28.392 0l-2.729-1.56zm-22.987-16.38c6.681-3.12 16.315-3.13 22.987 0l2.676-1.56c-8.18-3.98-20.213-3.98-28.392 0l2.729 1.56zm-2.694 1.56l-2.676-1.57c-6.886 4.73-6.886 11.68 0 16.4l2.676-1.56c-5.414-3.85-5.414-9.41 0-13.27z"/><path fill="#D6D8E5" d="M261.553 265.78l-68.166-39.36 68.166-39.35 68.167 39.35z" opacity=".4"/><path fill="#D5D6E0" d="M327.552 217.73L268.11 183.4l-59.443 34.33-8.724-5.04v10.07l68.167 39.35 68.166-39.34v-10.08z"/><path fill="#E9EAF4" d="M268.11 252.05l-68.167-39.36 68.167-39.35 68.166 39.35zm-.001-122.17L211.53 97.21l56.579-32.67 56.58 32.68z"/><path fill="#DFE0EA" d="M211.53 97.21v116.47l56.579 32.68V129.88z"/><path fill="#D5D6E0" d="M268.109 246.36l56.58-32.67V97.22l-56.58 32.66z"/><path fill="#2B303F" d="M287.332 144.14l-9.794 5.65v-11.31l9.794-5.66zm31.042-17.92l-28.054 16.19V131.1l28.054-16.2zm-31.042 34.4l-9.794 5.65v-11.31l9.794-5.65zm31.042-17.92l-28.054 16.2v-11.31l28.054-16.2zm-31.042 34.4l-9.794 5.66v-11.31l9.794-5.66zm31.042-17.92l-28.054 16.2v-11.31l28.054-16.2zm-31.042 34.41l-9.794 5.65v-11.31l9.794-5.65zm31.042-17.92l-28.054 16.2v-11.31l28.054-16.2zm-31.042 34.41l-9.794 5.66v-11.31l9.794-5.66zm31.042-17.93l-28.054 16.2v-11.31l28.054-16.2zm-90.048-59l-9.731-5.62V116.3l9.731 5.61zm30.846 17.8l-27.875-16.09v-11.23l27.875 16.09zm-30.846-1.43l-9.731-5.62v-11.23l9.731 5.62zm30.846 17.82l-27.875-16.1v-11.23l27.875 16.09zm-30.846-1.43l-9.731-5.62v-11.24l9.731 5.62zm30.846 17.8l-27.875-16.09v-11.24l27.875 16.09zm-30.846-1.42l-9.731-5.62v-11.24l9.731 5.62zm30.846 17.8L231.297 184v-11.24l27.875 16.09zm-30.846-1.43l-9.731-5.62V181.8l9.731 5.62zm30.846 17.81l-27.875-16.09v-11.24l27.875 16.1z"/><path fill="#006DFF" d="M211.53 207.16l56.579 32.08 56.58-33.24v7.69l-56.58 32.67-56.579-32.68z"/><path fill="#2B303F" d="M269.323 97.98c-1.222.28-2.49.28-3.711 0l-2.819 1.63a14.421 14.421 0 0 0 9.357 0l-2.827-1.63zm2.693-1.56l2.828 1.63a3.347 3.347 0 0 0 1.32-2.67c0-.52-.119-1.03-.348-1.49a3.381 3.381 0 0 0-.972-1.19l-2.819 1.63c.22.3.338.67.336 1.05-.001.37-.122.74-.345 1.04zm-6.395-3.69a8.298 8.298 0 0 1 3.71 0l2.837-1.66a14.421 14.421 0 0 0-9.357 0l2.81 1.66zm-2.694 1.55l-2.828-1.62a3.358 3.358 0 0 0-1.32 2.67 3.358 3.358 0 0 0 1.32 2.68l2.819-1.62a1.79 1.79 0 0 1 .009-2.11zm13.977 4.96l2.676 1.57c4.318-3.2 4.318-7.71 0-10.92l-2.72 1.58c2.899 2.32 2.908 5.45.044 7.77zm-2.702 1.56a18.815 18.815 0 0 1-13.461 0l-2.72 1.57a24.754 24.754 0 0 0 18.901 0l-2.72-1.57zm-13.461-10.89a18.922 18.922 0 0 1 13.461 0l2.72-1.57a24.846 24.846 0 0 0-18.901 0l2.72 1.57zm-2.702 1.55l-2.676-1.56c-4.318 3.2-4.318 7.71 0 10.91l2.72-1.57c-2.863-2.32-2.863-5.49-.044-7.78z"/><path fill="#2B303F" d="M281.659 101.99l2.676 1.56c6.886-4.72 6.886-11.67 0-16.4l-2.676 1.57c5.414 3.85 5.414 9.41 0 13.27zm-2.694 1.57c-6.681 3.13-16.314 3.13-22.987 0l-2.676 1.56c8.18 3.97 20.213 3.97 28.393 0l-2.73-1.56zm-22.987-16.4c6.681-3.12 16.315-3.13 22.987 0l2.676-1.56c-8.18-3.98-20.213-3.98-28.392 0l2.729 1.56zm-2.694 1.56l-2.676-1.57c-6.886 4.73-6.886 11.68 0 16.4l2.676-1.56c-5.414-3.86-5.414-9.41 0-13.27z"/><path fill="#D6D8E5" d="M372.277 329.76l-68.166-39.35 68.166-39.36 68.167 39.36z" opacity=".4"/><path fill="#D5D6E0" d="M438.285 281.71l-59.452-34.32-59.442 34.32-8.724-5.03v10.07l68.166 39.35L447 286.75v-10.07z"/><path fill="#E9EAF4" d="M378.833 316.03l-68.166-39.35 68.166-39.36L447 276.68zm0-122.17l-56.579-32.66 56.579-32.67 56.58 32.67z"/><path fill="#DFE0EA" d="M322.254 161.2v116.47l56.579 32.67V193.86z"/><path fill="#D5D6E0" d="M378.833 310.34l56.58-32.66V161.2l-56.58 32.66z"/><path fill="#2B303F" d="M398.056 208.12l-9.794 5.65v-11.31l9.794-5.65zm31.042-17.92l-28.054 16.2v-11.31l28.054-16.2zm-31.042 34.4l-9.794 5.66v-11.31l9.794-5.66zm31.042-17.92l-28.054 16.2v-11.31l28.054-16.2zm-31.042 34.41l-9.794 5.65v-11.31l9.794-5.65zm31.042-17.92l-28.054 16.2v-11.32l28.054-16.19zm-31.042 34.41l-9.794 5.66v-11.32l9.794-5.65zm31.042-17.93l-28.054 16.2v-11.31l28.054-16.2zm-31.042 34.41l-9.794 5.66v-11.31l9.794-5.66zm31.042-17.93l-28.054 16.2v-11.31l28.054-16.2zm-90.039-59l-9.732-5.62v-11.23l9.732 5.62zm30.837 17.81l-27.875-16.1v-11.23l27.875 16.09zm-30.837-1.43l-9.732-5.61v-11.24l9.732 5.62zm30.837 17.81l-27.875-16.09v-11.24l27.875 16.09zm-30.837-1.43l-9.732-5.62v-11.24l9.732 5.62zm30.837 17.81l-27.875-16.1v-11.23l27.875 16.09zm-30.837-1.43l-9.732-5.62v-11.24l9.732 5.62zm30.837 17.8l-27.875-16.09v-11.24l27.875 16.1zm-30.837-1.42l-9.732-5.62v-11.24l9.732 5.62zm30.837 17.8l-27.875-16.09v-11.24l27.875 16.1z"/><path fill="#006DFF" d="M322.254 271.15l56.579 32.07 56.58-33.23v7.69l-56.58 32.66-56.579-32.67z"/><path fill="#2B303F" d="M380.046 161.97c-1.22.28-2.489.28-3.71 0l-2.819 1.62a14.421 14.421 0 0 0 9.357 0l-2.828-1.62zm2.73-1.56l2.828 1.63c.419-.32.759-.72.993-1.19.235-.47.357-.99.357-1.51s-.122-1.04-.357-1.51a3.407 3.407 0 0 0-.993-1.19l-2.828 1.62a1.796 1.796 0 0 1 0 2.15zm-6.431-3.7a8.298 8.298 0 0 1 3.71 0l2.819-1.63a14.526 14.526 0 0 0-9.348 0l2.819 1.63zm-2.694 1.55l-2.828-1.62c-.419.32-.759.72-.993 1.19-.235.47-.357.99-.357 1.51s.122 1.04.357 1.51c.234.47.574.87.993 1.19l2.819-1.63a1.767 1.767 0 0 1-.356-1.07c.002-.39.13-.77.365-1.08zm13.977 4.96l2.676 1.57c4.318-3.19 4.318-7.71 0-10.91l-2.72 1.57c2.908 2.32 2.908 5.46.044 7.77zm-2.693 1.57a18.946 18.946 0 0 1-13.47 0l-2.72 1.57a24.846 24.846 0 0 0 18.901 0l-2.711-1.57zm-13.469-10.9a18.919 18.919 0 0 1 13.46 0l2.676-1.57a24.941 24.941 0 0 0-18.902 0l2.766 1.57zm-2.694 1.56l-2.721-1.57c-4.317 3.2-4.317 7.72 0 10.91l2.721-1.57c-2.864-2.32-2.873-5.45 0-7.77z"/><path fill="#2B303F" d="M392.383 166l2.676 1.56c6.886-4.72 6.886-11.67 0-16.4l-2.676 1.57c5.414 3.83 5.414 9.39 0 13.27zm-2.694 1.53c-6.681 3.12-16.315 3.12-22.987 0l-2.676 1.56c8.18 3.97 20.213 3.97 28.393 0l-2.73-1.56zm-22.969-16.38c6.681-3.13 16.315-3.13 22.987 0l2.676-1.56c-8.18-3.98-20.213-3.97-28.392 0l2.729 1.56zm-2.676 1.56l-2.676-1.56c-6.886 4.72-6.886 11.66 0 16.38l2.676-1.56c-5.45-3.85-5.45-9.41 0-13.26z"/><path fill="#D6D8E5" d="M44.984 381.22L4.131 357.63c-4.639-2.68-4.059-7.34 1.293-10.43l20.739-11.98c5.352-3.09 13.443-3.43 18.072-.75l40.854 23.59c4.638 2.68 4.049 7.34-1.294 10.43l-20.739 11.98c-5.352 3.09-13.442 3.43-18.072.75z" opacity=".4"/><path fill="#D6D8E5" d="M106.345 351.78v-57.03l-87.193-9.81v57.39c-.062 1.78.946 3.42 3.104 4.67l40.854 23.59c4.63 2.67 12.729 2.33 18.072-.75l20.739-11.97c3.015-1.79 4.513-3.98 4.46-6.09h-.036z"/><path fill="#EDF0F9" d="M106.327 300.98v-6.25h-6.708l-37.249-21.5c-4.63-2.67-12.72-2.33-18.072.75l-20.739 11.97c-.369.22-.726.45-1.071.7l-3.336-1.71v6.79c-.044 1.79.964 3.42 3.113 4.66l40.854 23.59c4.629 2.67 12.729 2.34 18.072-.75l20.739-11.97c3.104-1.79 4.594-4.12 4.397-6.25v-.03z"/><path fill="#E2E5F2" d="M63.11 313.18l-40.854-23.59c-4.629-2.67-4.049-7.34 1.303-10.43l20.739-11.97c5.352-3.09 13.442-3.43 18.072-.75l40.853 23.58c4.63 2.68 4.05 7.35-1.302 10.44l-20.739 11.99c-5.343 3.09-13.442 3.4-18.072.73z"/><path fill="#E5E5E5" d="M84.1 291.77c.004.36-.09.72-.272 1.04-.182.31-.446.57-.764.74l-18.821 10.87c-.306.17-.652.27-1.004.27s-.698-.1-1.003-.27l-26.332-15.26a2.017 2.017 0 0 1-1.008-1.74v-.11l49.203 4.46z"/><path fill="#E5E5E5" d="M83.064 293.55l-18.821 10.87c-.304.17-.648.27-.999.27v-12.92h20.855c.005.36-.089.72-.271 1.04-.182.31-.446.57-.764.74z"/><path fill="#F4F4F4" d="M63.984 303.37c-.217.12-.465.19-.718.19-.252 0-.5-.07-.718-.19l-27.384-15.8a.391.391 0 0 1-.194-.14.408.408 0 0 1-.074-.23c0-.08.026-.16.074-.22a.34.34 0 0 1 .194-.14l20.186-11.66 28.749 16.59-20.115 11.6z"/><path fill="#BFBFBF" d="M46.421 291.78l.142.08 8.787 5.07 4.816-2.78.134-.08-8.92-5.15z"/><path fill="#E5E5E5" d="M46.563 291.86l8.787 5.07 4.816-2.78-8.786-5.07z"/><path fill="#2B303F" d="M76.472 292.78l1.24.77c.062.04.131.05.201.05s.139-.01.2-.05l1.205-.69c.124-.07.133-.17 0-.23l-1.267-.73a.359.359 0 0 0-.201-.05c-.07 0-.139.01-.2.05l-1.205.69c-.062.07-.071.13.027.19zm-1.793-1.01l1.267.73c.063.03.134.05.205.05.071 0 .142-.02.205-.05l1.204-.69c.125-.08.134-.18 0-.24l-1.266-.73a.466.466 0 0 0-.201-.05c-.07 0-.139.02-.201.05l-1.204.7c-.098.04-.107.14-.009.23zm-1.793-1.06l1.267.73c.063.03.134.05.205.05a.48.48 0 0 0 .205-.05l1.204-.7c.116-.07.134-.17 0-.23l-1.266-.73a.466.466 0 0 0-.201-.05c-.07 0-.139.02-.201.05l-1.204.7c-.098.07-.107.17-.009.23zm-1.793-1.04l1.267.74c.063.03.134.05.205.05a.48.48 0 0 0 .205-.05l1.204-.7c.116-.07.134-.18 0-.23l-1.266-.73a.359.359 0 0 0-.201-.05c-.07 0-.139.01-.201.05l-1.204.69c-.098.06-.107.17-.009.23zm-1.792-1.03l1.266.73a.47.47 0 0 0 .201.05c.069 0 .138-.02.201-.05l1.213-.69c.116-.08.133-.18 0-.24l-1.267-.73a.466.466 0 0 0-.201-.05.466.466 0 0 0-.2.05l-1.213.71c-.09.05-.099.16 0 .22zm-1.793-1.04l1.266.74a.46.46 0 0 0 .201.04c.069 0 .138-.01.201-.04l1.213-.7c.116-.07.134-.18 0-.24l-1.267-.73a.46.46 0 0 0-.201-.04.459.459 0 0 0-.2.04l-1.213.7c-.09.07-.099.17 0 .23zm-1.793-1.03l1.293.74c.063.03.132.04.201.04s.137-.01.2-.04l1.214-.7c.116-.07.133-.17 0-.24l-1.267-.73a.463.463 0 0 0-.201-.04.459.459 0 0 0-.2.04l-1.214.7c-.116.08-.133.17-.026.23zm-1.793-1.04l1.266.73c.064.03.132.04.201.04s.138-.01.201-.04l1.213-.71c.116-.06.134-.17 0-.23l-1.267-.73a.466.466 0 0 0-.2-.05c-.07 0-.139.02-.201.05l-1.213.7c-.089.08-.107.18 0 .24zm-1.793-1.04l1.266.73c.063.03.132.05.201.05a.47.47 0 0 0 .201-.05l1.213-.7c.116-.06.134-.17 0-.23l-1.267-.74a.456.456 0 0 0-.2-.04c-.07 0-.139.01-.201.04l-1.213.7c-.089.08-.107.19 0 .24zm-1.793-1.03l1.267.73c.061.03.13.05.2.05s.139-.02.201-.05l1.213-.7c.116-.07.125-.17 0-.23l-1.267-.73a.459.459 0 0 0-.2-.05c-.07 0-.139.02-.201.05l-1.213.69c-.089.08-.107.18 0 .24zm-1.793-1.04l1.267.73c.061.04.13.05.2.05s.139-.01.201-.05l1.213-.69c.116-.07.125-.17 0-.23l-1.267-.74a.459.459 0 0 0-.2-.05c-.07 0-.139.02-.201.05l-1.213.7c-.089.07-.107.18 0 .23zm-1.793-1.03l1.267.73c.061.03.13.05.2.05s.139-.02.201-.05l1.204-.7c.125-.07.134-.17 0-.23l-1.266-.73a.488.488 0 0 0-.206-.05.488.488 0 0 0-.205.05l-1.204.7c-.08.07-.098.16.009.23zm-1.793-1.04l1.267.73c.062.04.131.05.201.05s.138-.01.2-.05l1.204-.69c.125-.07.134-.17 0-.23l-1.266-.74a.488.488 0 0 0-.205-.05.488.488 0 0 0-.206.05l-1.204.7c-.08.05-.098.17.009.23zm-2.658-1.53l2.132 1.23c.062.03.131.05.201.05s.138-.02.2-.05l1.204-.7c.125-.07.134-.17 0-.23l-2.131-1.23a.466.466 0 0 0-.201-.05c-.07 0-.139.02-.201.05l-1.213.7c-.08.07-.098.17.009.23zm19.776 13.42l1.266.73c.064.04.134.05.205.05.071 0 .141-.01.205-.05l1.205-.7c.116-.06.133-.17 0-.23l-1.267-.73a.466.466 0 0 0-.201-.05.466.466 0 0 0-.2.05l-1.205.69c-.098.08-.107.19-.008.24zm-1.793-1.03l1.266.73c.062.03.131.05.201.05s.139-.02.201-.05l1.213-.7c.116-.07.134-.17 0-.23l-1.267-.73a.466.466 0 0 0-.201-.05c-.07 0-.138.02-.2.05l-1.213.7c-.09.07-.107.17 0 .23zm-1.802-1.04l1.275.74c.062.03.131.04.201.04s.139-.01.201-.04l1.204-.7c.125-.07.134-.18 0-.23l-1.276-.73a.353.353 0 0 0-.2-.05c-.07 0-.139.01-.201.05l-1.204.69c-.089.05-.098.17 0 .23zm-1.793-1.03l1.266.73c.064.03.132.04.201.04s.138-.01.201-.04l1.213-.7c.116-.07.134-.17 0-.24l-1.24-.73a.458.458 0 0 0-.201-.04.456.456 0 0 0-.2.04l-1.213.7c-.116.07-.134.19-.027.24zm-1.784-1.04l1.267.74a.48.48 0 0 0 .205.05c.071 0 .141-.02.205-.05l1.204-.7c.116-.07.134-.17 0-.23l-1.267-.73a.353.353 0 0 0-.2-.05c-.07 0-.139.01-.201.05l-1.204.69c-.098.07-.107.18-.009.23zm-1.793-1.03l1.267.73c.061.03.13.05.2.05s.139-.02.201-.05l1.213-.69c.116-.08.125-.18 0-.24l-1.266-.73a.466.466 0 0 0-.201-.05c-.07 0-.139.02-.201.05l-1.213.7c-.089.07-.107.17 0 .23zm-1.802-1.04l1.267.74c.064.02.134.04.205.04.07 0 .14-.02.205-.04l1.204-.7c.125-.07.134-.18 0-.24l-1.266-.73a.466.466 0 0 0-.201-.04.463.463 0 0 0-.201.04l-1.204.7c-.098.07-.107.17-.009.23zm-1.793-1.04l1.267.73c.062.04.131.05.201.05s.138-.01.2-.05l1.213-.69c.116-.07.134-.17 0-.24l-1.266-.73a.466.466 0 0 0-.201-.05c-.07 0-.139.02-.201.05l-1.213.7c-.089.07-.107.18 0 .23zm-1.793-1.03l1.267.73c.062.03.131.05.201.05s.139-.02.2-.05l1.205-.7c.124-.07.133-.17 0-.23l-1.267-.73a.484.484 0 0 0-.205-.05.48.48 0 0 0-.205.05l-1.205.69c-.089.08-.098.17.009.24zm-1.802-1.04l1.267.73c.062.03.131.05.201.05.069 0 .138-.02.2-.05l1.214-.69c.115-.07.133-.18 0-.23l-1.24-.77a.47.47 0 0 0-.201-.05.47.47 0 0 0-.201.05l-1.213.7c-.116.09-.125.19-.027.26zm-1.792-1.04l1.266.73a.47.47 0 0 0 .201.05.47.47 0 0 0 .201-.05l1.213-.71c.116-.06.125-.16 0-.23l-1.267-.73a.466.466 0 0 0-.201-.05.466.466 0 0 0-.2.05l-1.213.7c-.09.08-.107.18 0 .24zm-1.802-1.04l1.266.73c.064.04.134.05.206.05.071 0 .141-.01.205-.05l1.204-.69c.125-.07.134-.17 0-.23l-1.267-.73a.355.355 0 0 0-.2-.05c-.07 0-.139.01-.201.05l-1.204.69c-.098.07-.107.18-.009.23zm21.55 12.45l2.132 1.23c.063.03.132.04.201.04s.138-.01.201-.04l1.204-.7c.125-.07.134-.18 0-.24l-2.132-1.23a.463.463 0 0 0-.201-.04.459.459 0 0 0-.2.04l-1.214.7c-.08.07-.098.17.009.24zm-21.693-14.42l1.267.73c.098.06.098.16 0 .22l-1.285.74a.402.402 0 0 1-.187.04.408.408 0 0 1-.188-.04l-.098-.06a.35.35 0 0 0-.174-.04c-.06 0-.119.01-.174.04l-1.346.78a.412.412 0 0 1-.188.05.411.411 0 0 1-.187-.05l-.812-.46a.133.133 0 0 1-.068-.12c0-.02.006-.04.018-.06.012-.02.03-.04.05-.05l1.267-.72.259-.15.187-.12.196-.1 1.088-.63a.403.403 0 0 1 .188-.04c.065 0 .129.01.187.04zm17.331 17.92l1.267.73a.47.47 0 0 0 .201.05c.069 0 .138-.02.201-.05l1.213-.69c.116-.07.133-.18 0-.24l-1.267-.73a.474.474 0 0 0-.201-.05.47.47 0 0 0-.2.05l-1.214.7c-.089.06-.098.17 0 .23zm-1.783-1.03l1.266.73c.062.03.131.05.201.05s.139-.02.201-.05l1.204-.7c.125-.07.134-.18 0-.23l-1.267-.73a.484.484 0 0 0-.205-.05.484.484 0 0 0-.205.05l-1.204.7c-.089.07-.098.17.009.23zm-1.793-1.04l1.266.73c.062.04.131.05.201.05s.139-.01.201-.05l1.213-.69c.116-.07.134-.17 0-.23l-1.267-.73a.359.359 0 0 0-.201-.05c-.07 0-.138.01-.2.05l-1.213.69c-.09.07-.099.18 0 .23zm-15.227-8.79l1.267.73c.062.03.131.05.201.05.069 0 .138-.02.2-.05l1.204-.71c.125-.06.134-.17 0-.23l-1.266-.73a.488.488 0 0 0-.205-.05.488.488 0 0 0-.206.05l-1.204.7c-.08.08-.098.18.009.24zm-1.793-1.03l1.267.73c.062.03.131.05.201.05.069 0 .138-.02.2-.05l1.213-.69c.116-.07.134-.18 0-.24l-1.266-.73a.474.474 0 0 0-.201-.05.474.474 0 0 0-.201.05l-1.213.7c-.089.06-.098.17 0 .23zm-1.784-1.03l1.267.73c.062.03.131.05.201.05s.138-.02.2-.05l1.204-.7c.125-.07.134-.18 0-.23l-1.266-.73a.488.488 0 0 0-.205-.05.488.488 0 0 0-.206.05l-1.204.7c-.08.1-.098.16.009.23zm-1.793-1.02l1.267.73c.062.03.131.05.201.05s.139-.02.2-.05l1.214-.69c.116-.08.133-.17 0-.24l-1.267-.73a.466.466 0 0 0-.201-.05c-.07 0-.139.02-.2.05l-1.214.7c-.089.05-.098.15 0 .23zm18.349 10.58l1.73 1.02a.46.46 0 0 0 .201.04.46.46 0 0 0 .201-.04l1.204-.71c.125-.06.134-.17 0-.23l-1.731-1a.459.459 0 0 0-.2-.04.46.46 0 0 0-.201.04l-1.213.71c-.08.04-.098.15.009.21zm-11.195-6.47l1.731 1c.062.03.13.05.2.05s.139-.02.201-.05l1.213-.69c.116-.08.125-.18 0-.24l-1.73-1a.466.466 0 0 0-.201-.05c-.07 0-.139.02-.201.05l-1.213.7c-.089.07-.098.17 0 .23zm2.248 1.3l8.429 4.87c.062.03.131.05.201.05s.139-.02.201-.05l1.204-.7c.125-.07.134-.18 0-.23l-8.394-4.89a.466.466 0 0 0-.2-.05c-.07 0-.139.02-.201.05l-1.204.7c-.125.09-.134.19-.036.25zm15.111 4.71l1.266.73c.062.03.131.05.201.05s.139-.02.201-.05l1.213-.7c.116-.06.125-.17 0-.23l-1.267-.75a.466.466 0 0 0-.201-.05c-.07 0-.139.02-.2.05l-1.213.7c-.09.08-.108.19 0 .25zm-1.793-1.04l1.266.73a.47.47 0 0 0 .201.05.47.47 0 0 0 .201-.05l1.213-.7c.116-.06.134-.17 0-.23l-1.258-.74a.359.359 0 0 0-.201-.05c-.07 0-.139.01-.2.05l-1.213.69c-.099.09-.116.2-.009.25zm-1.793-1.05l1.266.73a.47.47 0 0 0 .201.05.47.47 0 0 0 .201-.05l1.213-.73c.116-.06.134-.17 0-.23l-1.249-.66a.466.466 0 0 0-.201-.05.466.466 0 0 0-.2.05l-1.214.69c-.107.06-.124.2-.017.2zm-1.793-1.02l1.266.73a.47.47 0 0 0 .201.05.47.47 0 0 0 .201-.05l1.213-.7c.116-.06.134-.17 0-.23l-1.24-.74a.466.466 0 0 0-.201-.05.466.466 0 0 0-.2.05l-1.214.69c-.116.09-.124.2-.026.25zm-1.793-1.02l1.266.73c.065.03.135.04.206.04.07 0 .14-.01.205-.04l1.204-.71c.125-.06.134-.17 0-.23l-1.231-.75a.47.47 0 0 0-.201-.05.466.466 0 0 0-.2.05l-1.205.7c-.133.09-.178.19-.044.26zm-1.784-1.04l1.267.73a.47.47 0 0 0 .2.05c.069 0 .138-.02.201-.05l1.204-.7c.125-.06.134-.17 0-.23l-1.222-.75a.491.491 0 0 0-.205-.05.488.488 0 0 0-.205.05l-1.204.69c-.17.09-.17.2-.036.26zm-1.793-1.03l1.267.73c.063.03.131.04.2.04s.138-.01.201-.04l1.204-.7c.125-.07.134-.18 0-.24l-1.213-.75a.481.481 0 0 0-.205-.04.478.478 0 0 0-.205.04l-1.204.71c-.17.08-.17.18-.045.25zm-1.793-1.04l1.267.73c.062.03.131.05.2.05.07 0 .139-.02.201-.05l1.213-.69c.116-.07.125-.18 0-.24l-1.213-.75a.474.474 0 0 0-.201-.05.47.47 0 0 0-.2.05l-1.214.7c-.169.05-.169.19-.053.25zm-1.793-1.03l1.267.73c.062.03.131.04.2.04.07 0 .139-.01.201-.04l1.213-.7c.116-.07.134-.18 0-.24l-1.204-.75a.463.463 0 0 0-.201-.04.459.459 0 0 0-.2.04l-1.214.71c-.169.08-.169.18-.062.25zm-1.793-1.04l1.267.73c.062.03.131.05.2.05.07 0 .139-.02.201-.05l1.213-.69c.116-.07.134-.18 0-.23l-1.195-.75a.466.466 0 0 0-.201-.05.466.466 0 0 0-.2.05l-1.213.7c-.17.07-.17.18-.072.24zm-1.793-1.03l1.267.73c.064.03.134.05.205.05.071 0 .141-.02.205-.05l1.204-.7c.116-.07.134-.18 0-.23l-1.266-.73a.47.47 0 0 0-.201-.05.47.47 0 0 0-.201.05l-1.204.7c-.098.06-.098.16-.009.23z"/><path fill="#2B303F" d="M50.14 281.59l1.267.73c.063.04.134.05.205.05.071 0 .142-.01.205-.05l1.204-.69c.125-.07.134-.18 0-.23l-1.266-.74a.46.46 0 0 0-.201-.04.46.46 0 0 0-.201.04l-1.204.71c-.089.05-.089.16-.009.22zM71.647 294l2.613 1.52c.063.03.134.05.205.05a.48.48 0 0 0 .205-.05l1.205-.7c.116-.07.133-.18 0-.23l-2.623-1.54a.484.484 0 0 0-.205-.05.484.484 0 0 0-.205.05l-1.204.7c-.09.09-.099.2.009.25zm-2.641.45l1.267.73c.062.03.131.04.2.04.07 0 .139-.01.201-.04l1.204-.71c.125-.06.134-.17 0-.23l-1.231-.69a.478.478 0 0 0-.205-.04.478.478 0 0 0-.205.04l-1.204.7c-.125.07-.134.2-.027.2zm-1.793-.99l1.267.73c.063.03.131.04.2.04a.46.46 0 0 0 .201-.04l1.213-.71c.116-.06.125-.17 0-.23l-1.266-.73a.47.47 0 0 0-.201-.05.47.47 0 0 0-.201.05l-1.213.7c-.089.07-.107.17 0 .24zm-1.793-1.04l1.267.73a.47.47 0 0 0 .201.05.47.47 0 0 0 .2-.05l1.213-.7c.116-.06.134-.17 0-.23l-1.266-.74a.46.46 0 0 0-.201-.04.46.46 0 0 0-.201.04l-1.213.7c-.089.07-.107.18 0 .24zm-1.793-1.03l1.267.73c.063.03.132.04.201.04s.137-.01.2-.04l1.214-.7c.116-.07.133-.18 0-.24l-1.267-.73a.463.463 0 0 0-.201-.04.459.459 0 0 0-.2.04l-1.214.7c-.089.07-.098.17 0 .24zm-1.793-1.04l1.267.73c.064.03.134.05.205.05.071 0 .141-.02.205-.05l1.204-.69c.116-.07.134-.18 0-.24l-1.275-.75a.474.474 0 0 0-.201-.05.47.47 0 0 0-.2.05l-1.205.7c-.089.08-.098.19 0 .25zm-1.793-1.03l1.276.73c.062.03.131.05.201.05.069 0 .138-.02.2-.05l1.205-.7c.124-.07.133-.18 0-.23l-1.267-.75a.458.458 0 0 0-.201-.04.456.456 0 0 0-.2.04l-1.205.71c-.098.07-.107.17-.009.24zm-1.784-1.04l1.267.73c.062.04.131.05.201.05s.139-.01.2-.05l1.205-.69c.125-.07.133-.18 0-.23l-1.258-.78a.488.488 0 0 0-.205-.05.488.488 0 0 0-.205.05l-1.205.7c-.089.1-.107.19 0 .27zm-1.792-1.03l1.266.73c.062.03.131.05.201.05s.139-.02.201-.05l1.213-.7c.116-.07.125-.17 0-.23l-1.258-.75a.466.466 0 0 0-.201-.05c-.07 0-.139.02-.2.05l-1.213.7c-.099.09-.116.19-.009.25zm-1.793-1.04l1.266.73c.062.04.131.05.201.05s.139-.01.201-.05l1.213-.69c.116-.07.134-.18 0-.23l-1.249-.75a.359.359 0 0 0-.201-.05c-.07 0-.139.01-.2.05l-1.214.69c-.107.09-.124.19-.017.25zm-1.793-1.03l1.266.73c.062.03.131.05.201.05s.139-.02.201-.05l1.213-.7c.116-.07.134-.17 0-.23l-1.24-.75a.466.466 0 0 0-.201-.05c-.07 0-.139.02-.2.05l-1.205.7c-.124.09-.133.19-.035.25zm-1.793-1.04l1.266.74c.064.03.134.05.206.05.071 0 .141-.02.205-.05l1.204-.7c.125-.07.134-.17 0-.23l-1.231-.75a.466.466 0 0 0-.201-.05c-.07 0-.139.02-.2.05l-1.205.69c-.133.09-.178.19-.044.25zm-4.005-2.31l3.487 2.01c.062.03.131.05.201.05s.139-.02.201-.05l1.204-.7c.125-.07.134-.16 0-.23l-3.488-2.01a.47.47 0 0 0-.2-.05.47.47 0 0 0-.201.05l-1.213.7c-.081.06-.098.17.009.23zm23.709 13.69l1.731 1c.061.03.13.05.2.05s.139-.02.201-.05l1.213-.7c.116-.07.134-.17 0-.23l-1.73-1a.466.466 0 0 0-.201-.05c-.07 0-.139.02-.201.05l-1.204.69c-.098.06-.107.18-.009.24z"/><path fill="#E5E5E5" d="M84.099 291.77L55.35 275.18v-22.61l.223-.5.232-.13a2.034 2.034 0 0 1 1.989 0l26.305 15.17c.302.17.552.42.726.72.174.31.265.65.264 1v21.21c-.179 1.12-.375 1.38-.99 1.73z"/><path fill="#E5E5E5" d="M81.458 269.87L55.35 253.33v-.76l.223-.5.232-.13a2.034 2.034 0 0 1 1.989 0l26.305 15.17c.32.18.583.45.758.78l-3.399 1.98z"/><path fill="#DCEEFF" d="M56.01 252.06L83.662 268c.147.08.269.21.353.35.085.15.129.32.128.49v22.93L55.35 275.18v-22.74a.426.426 0 0 1 .217-.38.433.433 0 0 1 .443 0z"/><path fill="#F4F4F4" d="M56.01 252.06L83.662 268c.147.08.269.21.353.35.085.15.129.32.128.49v22.93L55.35 275.18v-22.74a.426.426 0 0 1 .217-.38.433.433 0 0 1 .443 0z"/><path fill="#DBDBDB" d="M84.099 291.78v-.82l-28.749-16.6v.82z"/><path fill="#1E212D" d="M56.447 253.45v20.36l26.724 15.38v-20.31z"/><g><path fill="#FFCEA9" d="M8.725 271.83c-.241 2.14-2.792 11.34-2.239 14.49.553 3.15 9.241 8.43 9.241 8.43l1.204-5.35-4.817-4.77 1.303-8.92-4.692-3.88z"/><path fill="#EDEDED" d="M15.459 262.75a3.8 3.8 0 0 0-4.843 1.47c-1.285 2.12-2.614 9.39-2.73 10.6 0 0 1.784 2.48 4.46 2.07l3.113-14.14z"/><path fill="#38226D" d="M25.387 365.41c1.894.52 3.916.28 5.629-.68 1.356 0 8.724-3.11 9.723-.47.892 2.32-2.311 4.46-4.014 4.88-3.72.89-6.467 2.76-7.966 3.07-1.115.23-2.551.38-3.434-.49-1.071-1.04-.972-4.92.062-6.31z"/><path fill="#9C73FF" d="M28.759 371.57c1.499-.31 4.246-2.17 7.966-3.07 1.427-.35 3.88-1.91 4.13-3.77.33 2.14-2.543 4.03-4.13 4.41-3.72.89-6.467 2.76-7.966 3.07-1.115.23-2.551.38-3.434-.49a2.09 2.09 0 0 1-.491-.89c.552.42 1.194.7 1.875.83s1.383.1 2.05-.09z"/><path fill="#38226D" d="M13.488 360.05c1.894.52 3.915.28 5.628-.68 1.356.04 8.715-3.11 9.714-.47.892 2.32-2.31 4.46-4.014 4.88-3.71.89-6.467 2.76-7.956 3.07-1.115.23-2.551.38-3.443-.49-1.098-1.04-1.008-4.92.071-6.31z"/><path fill="#9C73FF" d="M16.824 366.21c1.49-.31 4.246-2.17 7.957-3.07 1.427-.35 3.889-1.91 4.138-3.77.331 2.14-2.542 4.03-4.138 4.46-3.711.89-6.467 2.75-7.957 3.06-1.115.24-2.551.39-3.443-.49a2.072 2.072 0 0 1-.482-.89 4.481 4.481 0 0 0 3.925.7z"/><path fill="#006DFF" d="M13.31 340.05c.313-2.72.881-5.41 1.694-8.02 0 0-.508-6.96-.758-13.56-.294-7.49-2.89-14.07-.838-20.05l23.094 5.14s-1.392 29.84-1.704 33.45a68.22 68.22 0 0 1-1.035 8.39c-1.052 5.79-2.765 19.57-2.765 19.57-2.444 1.42-5.655.63-5.655.63s.178-17.43.339-21.6c.187-5.1.348-4.7.348-4.7l-.768-12.74-.499-6.32s-.642 4.64-1.053 8.78c-.365 3.61-1.24 6.88-2.212 13.59-.838 5.84-2.212 17.55-2.212 17.55-2.444 1.42-5.762.24-5.762.24s-.874-15.29-.214-20.35z"/><path fill="#FFCEA9" d="M16.681 262.88c1.784.09 3.069.54 3.283 0 .193-.91.327-1.83.401-2.75-.196-.51-.374-1.05-.374-1.05-2.212-1.37-2.908-3.75-3.194-6.53-.499-4.76 2.07-8.92 6.824-9.41 4.46-.47 7.752 2.67 8.626 6.98.473 2.13 1.409 6.16.142 9.65-.713 1.97-1.623 3.52-2.542 3.82-.895-.02-1.789-.1-2.676-.23 0 0-.241 1.32-.401 2.17-.161.84-.098 1.29 1.588 2.33 1.686 1.03-2.551 3.17-5.352 2.97-2.801-.21-5.888-1.89-6.735-3.68-.883-1.98-.803-4.33.41-4.27z"/><path fill="#F4F4F4" d="M19.223 263.14c-.49 1.22.75 2.67 4.059 3.74 3.309 1.07 3.568-.3 3.568-.3a67.12 67.12 0 0 1 6.422 3.31c1.981 1.39 2.864 5.35 3.131 12.17.304 7.84.33 19.46.072 21.47 0 0-3.702 3.69-8.447 3.3-4.746-.4-12.72-4.59-14.656-7.83.053-6.86.892-8.02-.25-11.95-2.551-9.05-3.889-12.76-2.676-18.78 1.017-4.97 2.444-5.59 4.407-5.53 1.463.05 2.922.18 4.37.4z"/><path fill="#FFCEA9" d="M43.878 288.54c-3.889.98-4.799-1.48-5.352-3.5-1.231-4.93-1.9-9.37-2.827-12.16-1.08-3.29-2.221-3.82-3.827-4.46-1.873-.75-3.488.84-2.863 5.03a84.59 84.59 0 0 0 3.568 14.27c.49 1.53 1.579 4.26 3.202 5.58 2.007 1.62 5.031 1.55 9.607.41 1.944-.49 4.085-1.65 7.778-3.38.99-.46 1.784-.76 3.666-1.65a13.052 13.052 0 0 0 4.879-3.8c.991-1.45 1.124-2.13.892-2.46-.231-.33-.704-.32-1.231.29-.772 1.02-1.72 1.9-2.8 2.59 0 0 1.222-1.27 1.891-2.09a10.96 10.96 0 0 0 1.471-2.41c.348-.84-.374-1.98-.892-1.38-.517.59-.82 1.21-1.784 2.41a10.05 10.05 0 0 1-1.784 1.72c.627-.84 1.185-1.74 1.668-2.67.428-.73.639-1.57.607-2.42 0-.44-.651-.96-1.24-.12a15.93 15.93 0 0 1-2.087 3.19c-.892.89-1.641 1.45-1.668 1.2-.027-.26.544-.77.892-1.84s0-2.21-.589-2.33c-.589-.12-.482-.1-.963.89a32.303 32.303 0 0 0-1.784 3.21 6.63 6.63 0 0 1-1.597 2.76c-1.017 1.06-3.131 2.18-6.833 3.12z"/><path fill="#EDEDED" d="M30.436 267.75c2.596-.38 4.46.78 5.584 4.72 1.124 3.93 1.944 7.13 1.944 7.13a7.023 7.023 0 0 1-4.353 2.89c-3.104.76-4.228-.73-4.228-.73s-.892-4.12-1.4-6.93c-.509-2.81-.723-6.61 2.453-7.08z"/><path fill="#3A2C6D" d="M32.095 249.52s4.103-6.25-4.79-7.52c-6.413-.9-10.534 3.21-11.016 7.68-.455 4.27 2.176 8.71 4.076 10.47.892.33 2.926.53 5.549-.67.106-1.16.147-2.33.124-3.5 0 0-3.13-6.58 6.057-6.46z"/></g></g></svg>