<svg xmlns="http://www.w3.org/2000/svg" width="30" height="30" viewBox="0 0 30 30"><title>  sPitch Logo</title><g fill="none"><path d="M2 14.9C2.6 16.1 3.4 16.7 4.4 16.7 6 16.8 6.9 16 7.4 15.7 7.7 15.5 9.5 13.7 12.7 10.5L16.8 6.4C19.4 3.8 23.6 3.8 26.2 6.4 28.8 9 28.8 13.2 26.2 15.7L19.2 22.7C17.4 24.5 16.6 25 15.6 25.3 14.5 25.6 13.5 25.6 12.5 25.3 11.5 25 10.6 24.5 8.8 22.7L4.6 18.6 4.4 18.4 3.5 17.4C1.3 15.2 1.2 11.6 3.5 9.4 3.5 9.4 3.5 9.4 3.5 9.4 5.7 7.2 9.3 7.2 11.6 9.4L12.7 10.5C9.5 13.7 7.7 15.5 7.4 15.7 6.9 16 6 16.8 4.4 16.7 3.4 16.7 2.6 16.1 2 14.9Z" style="stroke-width:3;stroke:#A9C257"/></g></svg>
