<svg xmlns="http://www.w3.org/2000/svg" width="127" height="202" viewBox="0 0 127 202"><title>Stijn-de-Vries-Logo-Black</title><path fill="#000" fill-rule="evenodd" d="M68.01.097c5.85.26 11.591.962 17.037 2.376 4.129 1.06 9.08 2.691 15.008 5.564 5.93 2.872 10.08 4.308 12.452 4.308 2.283 0 4.084-.707 5.402-2.121 1.317-1.414 2.547-4.817 3.689-10.207h3.953L127 59.935h-5.402c-2.547-15.024-8.806-27.11-18.776-36.256-2.834-2.6-5.735-4.832-8.7-6.693-6.44-4.04-18.376-9.537-26.862-10.973-1.044-.177-3.648-.482-5.306-.612-1.242-.102-2.913-.102-3.454-.102-8.333 0-15.708 2.263-22.125 6.79-6.417 4.528-9.625 11.361-9.625 20.5s3.458 16.14 10.375 21.003c6.917 4.862 16.75 9.096 29.5 12.702 12.75 3.605 22 6.749 27.75 9.432 5.75 2.683 11.208 6.204 16.375 10.564 10.333 8.72 15.5 22.218 15.5 40.495v10.47l-.708-.276L11.81 186.705 1.201 201.938H0V161.05h1.201l10.581 16.463 104.703-44.055L13 93.237 1.2 113.359H0V60.832l.003-.012C0 60.591 0 60.361 0 60.131c0-18.11 5.625-32.656 16.875-43.64C27.894 5.735 42.31.246 60.125.025c.373-.005 1.78-.011 1.897-.013 2.032-.03 4.028 0 5.988.086z"/></svg>