<?xml version="1.0" encoding="UTF-8"?>
<svg width="27px" height="31px" viewBox="0 0 27 31" version="1.1" xmlns="http://www.w3.org/2000/svg" xmlns:xlink="http://www.w3.org/1999/xlink">
    <!-- Generator: Sketch Beta 62 (91388) - https://sketch.com -->
    <title>svg-logo-stijn-de-vries</title>
    <desc>Created with Sketch Beta.</desc>
    <g id="svg-logo-stijn-de-vries" stroke="none" stroke-width="1" fill="none" fill-rule="evenodd">
        <g id="svg" transform="translate(0.000000, 2.000000)" fill="#FFB300" fill-rule="nonzero">
            <path d="M4.2139678,11.7264088 L9.24918812,11.7264088 L5.6814518,8.15867249 C4.32167305,8.15867249 3.21769426,7.0546937 3.21769426,5.6814518 C3.21769426,4.32075609 4.32075609,3.21769426 5.6814518,3.21769426 C7.0546937,3.21769426 8.15867249,4.32167305 8.15867249,5.6814518 L11.7264088,9.24918812 L11.7264088,4.2139678 C10.7705247,3.24462058 10.7705247,1.68289449 11.7264088,0.72701042 C12.6822929,-0.242336807 14.244019,-0.242336807 15.199903,0.72701042 C16.1557871,1.68289449 16.1557871,3.24462058 15.199903,4.2139678 L15.199903,9.24918812 L18.7811025,5.6814518 C18.7811025,4.32167305 19.8716181,3.21769426 21.24486,3.21769426 C22.6046388,3.21769426 23.7086176,4.32167305 23.7086176,5.6814518 C23.7086176,7.0546937 22.6046388,8.15867249 21.24486,8.15867249 L17.6771237,11.7264088 L22.712344,11.7264088 C23.6816913,10.7705247 25.2434174,10.7705247 26.1993014,11.7264088 C27.1686486,12.6822929 27.1686486,14.244019 26.1993014,15.199903 C25.2434174,16.1557871 23.6816913,16.1557871 22.712344,15.199903 L17.6771237,15.199903 L21.24486,18.7811025 C22.6046388,18.7811025 23.7086176,19.8716181 23.7086176,21.24486 C23.7086176,22.6055558 22.6055558,23.7086176 21.24486,23.7086176 C19.8716181,23.7086176 18.7811025,22.6046388 18.7811025,21.24486 L15.199903,17.6771237 L15.199903,22.712344 C16.1557871,23.6816913 16.1557871,25.2434174 15.199903,26.1993014 C14.244019,27.1686486 12.6822929,27.1686486 11.7264088,26.1993014 C10.7705247,25.2434174 10.7705247,23.6816913 11.7264088,22.712344 L11.7264088,17.6771237 L8.15867249,21.24486 C8.15867249,22.6046388 7.0546937,23.7086176 5.6814518,23.7086176 C4.32167305,23.7086176 3.21769426,22.6046388 3.21769426,21.24486 C3.21769426,19.8716181 4.32167305,18.7811025 5.6814518,18.7811025 L9.24918812,15.199903 L4.2139678,15.199903 C3.24462058,16.1557871 1.68289449,16.1557871 0.72701042,15.199903 C-0.242336807,14.244019 -0.242336807,12.6822929 0.72701042,11.7264088 C1.68289449,10.7705247 3.24462058,10.7705247 4.2139678,11.7264088 Z" id="Path"></path>
        </g>
    </g>
</svg>