<svg xmlns="http://www.w3.org/2000/svg" width="27" height="31" viewBox="0 0 27 31"><title>svg-logo-stijn-de-vries</title><path fill="#FFB300" fill-rule="nonzero" d="M4.214 13.726h5.035L5.681 10.16A2.468 2.468 0 0 1 3.218 7.68 2.464 2.464 0 0 1 5.68 5.218 2.468 2.468 0 0 1 8.16 7.68l3.567 3.568V6.214a2.478 2.478 0 0 1 0-3.487 2.438 2.438 0 0 1 3.474 0 2.478 2.478 0 0 1 0 3.487v5.035l3.581-3.568c0-1.36 1.09-2.463 2.464-2.463a2.465 2.465 0 0 1 2.464 2.463 2.468 2.468 0 0 1-2.464 2.478l-3.568 3.567h5.035a2.478 2.478 0 0 1 3.487 0c.97.956.97 2.518 0 3.474a2.478 2.478 0 0 1-3.487 0h-5.035l3.568 3.581c1.36 0 2.464 1.09 2.464 2.464a2.464 2.464 0 0 1-2.464 2.464 2.456 2.456 0 0 1-2.464-2.464L15.2 19.677v5.035c.956.97.956 2.531 0 3.487-.956.97-2.518.97-3.474 0a2.478 2.478 0 0 1 0-3.487v-5.035L8.16 23.245a2.468 2.468 0 0 1-2.478 2.464 2.465 2.465 0 0 1 0-4.928L9.25 17.2H4.214a2.478 2.478 0 0 1-3.487 0 2.438 2.438 0 0 1 0-3.474 2.478 2.478 0 0 1 3.487 0z"/></svg>