<svg xmlns="http://www.w3.org/2000/svg" width="101" height="101" viewBox="0 0 101 101"><title>  twitter-icon</title><g fill="none"><path d="M31.9 91.8C69.9 91.8 90.9 59.9 90.9 32.9L90.9 30C94.9 27.2 98.2 23.6 101 19.1 97 21.1 92.9 22 88.9 22.8 93.3 19.9 97 15.9 98.2 11 94.1 13.5 89.7 15.1 85.2 16.3 79 9.1 68.6 7.1 60.1 11.5 51.6 15.9 47.3 25.6 49.7 34.9 33.1 34.1 17.4 26.4 6.9 13.5 1.4 22.9 4.3 34.9 13.3 40.9 10.1 40.9 6.9 40.1 4 38.5 4 48.6 10.9 57.1 20.6 58.7 17.8 59.9 14.5 59.9 11.3 59.5 14.1 67.6 21.8 73.7 30.7 73.7 22.1 80.6 11 83.8 0 82.6 9.3 88.6 20.2 91.8 31.9 91.8" fill="#FFF"/></g></svg>
