<svg xmlns="http://www.w3.org/2000/svg" xmlns:xlink="http://www.w3.org/1999/xlink" width="160" height="162" viewBox="0 0 160 162"><title>Waving-Hand-Big</title><defs><radialGradient id="c" cx="63.811%" cy="64.807%" r="67.398%" fx="63.811%" fy="64.807%" gradientTransform="matrix(-.54779 .75215 -.83662 -.49249 1.53 .487)"><stop offset="0%" stop-color="#E5C5A3"/><stop offset="100%" stop-color="#DFB892"/></radialGradient><path id="b" d="M99.787 152.381c25.078-2.36 41.318-22.89 44.899-36.769 3.58-13.878-2.915-39.374-2.915-50.012 0-10.638.612-31.393-2-35.125-2.613-3.732-6.122-7.732-11.779-4-2.93 1.933-5.918 7.04-7.091 10.912-1.864 6.15 2.614 27.437-5.275 29.36-4.798 1.171-13.118-8.688-22.669-21.29-14-18.47-27.39-43.329-37.209-35.316-8.23 6.716-.125 17.66 8.198 28.765C73.577 51.757 84.17 64.333 82.859 65.6c-1.189 1.148-15.474-14.694-27.906-29.294-10.517-12.351-17.304-25.577-26.737-16.92-9.433 8.659 8.048 24.64 19.212 37.122 13.705 15.322 24.6 26.023 23.293 27.687-1.307 1.664-13.652-11.433-24.917-23.309-10.752-11.334-19.335-21.98-27.02-13.348-6.724 7.55 2.172 14.606 11.605 24.335 7.514 7.751 16.501 17.65 23.28 24.09 6.238 5.925 9.383 7.76 8.226 9.4-3.028 4.293-29.331-36.175-41.074-21.168-5.907 7.55 9.6 18.87 24.983 33.335 18.013 16.939 39.58 36.207 53.983 34.851z"/><filter id="a" width="106.2%" height="105.6%" x="-3.1%" y="-1.4%" filterUnits="objectBoundingBox"><feOffset dy="2" in="SourceAlpha" result="shadowOffsetOuter1"/><feGaussianBlur in="shadowOffsetOuter1" result="shadowBlurOuter1" stdDeviation="1"/><feColorMatrix in="shadowBlurOuter1" values="0 0 0 0 0 0 0 0 0 0 0 0 0 0 0 0 0 0 0.0776233806 0"/></filter><filter id="d" width="115.5%" height="113.9%" x="-7.7%" y="-5.6%" filterUnits="objectBoundingBox"><feGaussianBlur in="SourceAlpha" result="shadowBlurInner1" stdDeviation="2"/><feOffset in="shadowBlurInner1" result="shadowOffsetInner1"/><feComposite in="shadowOffsetInner1" in2="SourceAlpha" k2="-1" k3="1" operator="arithmetic" result="shadowInnerInner1"/><feColorMatrix in="shadowInnerInner1" result="shadowMatrixInner1" values="0 0 0 0 0.88627451 0 0 0 0 0.741176471 0 0 0 0 0.596078431 0 0 0 1 0"/><feGaussianBlur in="SourceAlpha" result="shadowBlurInner2" stdDeviation="5"/><feOffset dy="-6" in="shadowBlurInner2" result="shadowOffsetInner2"/><feComposite in="shadowOffsetInner2" in2="SourceAlpha" k2="-1" k3="1" operator="arithmetic" result="shadowInnerInner2"/><feColorMatrix in="shadowInnerInner2" result="shadowMatrixInner2" values="0 0 0 0 0.88627451 0 0 0 0 0.741176471 0 0 0 0 0.596078431 0 0 0 1 0"/><feGaussianBlur in="SourceAlpha" result="shadowBlurInner3" stdDeviation="3"/><feOffset in="shadowBlurInner3" result="shadowOffsetInner3"/><feComposite in="shadowOffsetInner3" in2="SourceAlpha" k2="-1" k3="1" operator="arithmetic" result="shadowInnerInner3"/><feColorMatrix in="shadowInnerInner3" result="shadowMatrixInner3" values="0 0 0 0 0.0438277756 0 0 0 0 0.0380361549 0 0 0 0 0.0380361549 0 0 0 0.155739524 0"/><feMerge><feMergeNode in="shadowMatrixInner1"/><feMergeNode in="shadowMatrixInner2"/><feMergeNode in="shadowMatrixInner3"/></feMerge></filter></defs><g fill="none" fill-rule="evenodd"><g transform="translate(3.75 2)"><use fill="#000" filter="url(#a)" xlink:href="#b"/><use fill="url(#c)" xlink:href="#b"/><use fill="#000" filter="url(#d)" xlink:href="#b"/></g><g stroke="#999" stroke-linecap="round" stroke-width="4"><path d="M3.75 104.362c3.532 7.18 7.747 13.259 12.645 18.237 4.899 4.978 10.677 9.056 17.336 12.233M15.709 100c2.692 5.475 5.906 10.11 9.642 13.907 3.735 3.796 8.142 6.905 13.22 9.328"/></g><g stroke="#999" stroke-linecap="round" stroke-width="4"><path d="M117.678 38.01c-2.498-7.6-5.826-14.207-9.984-19.819-4.158-5.612-9.313-10.454-15.465-14.526M105.229 40.666c-1.905-5.797-4.442-10.834-7.613-15.113-3.17-4.28-7.102-7.972-11.793-11.078"/></g></g></svg>