<svg xmlns="http://www.w3.org/2000/svg" xmlns:xlink="http://www.w3.org/1999/xlink" width="314" height="314" viewBox="0 0 314 314"><title>Weather app icon</title><defs><linearGradient id="a" x1="50%" x2="50%" y1="100%" y2=".634%"><stop offset="0%" stop-color="#53BCF3"/><stop offset="100%" stop-color="#4B69FF"/></linearGradient><radialGradient id="d" cx="50%" cy="0%" r="100%" fx="50%" fy="0%"><stop offset="0%" stop-color="#FEF57C"/><stop offset=".372%" stop-color="#FDFEC2"/><stop offset="20.591%" stop-color="#FCF897"/><stop offset="48.204%" stop-color="#FEE652"/><stop offset="74.305%" stop-color="#FED022"/><stop offset="100%" stop-color="#FD9800"/></radialGradient><circle id="c" cx="156.8" cy="156.8" r="100.352"/><filter id="b" width="201.6%" height="201.6%" x="-50.8%" y="-50.8%" filterUnits="objectBoundingBox"><feOffset in="SourceAlpha" result="shadowOffsetOuter1"/><feGaussianBlur in="shadowOffsetOuter1" result="shadowBlurOuter1" stdDeviation="34"/><feColorMatrix in="shadowBlurOuter1" values="0 0 0 0 0.996078431 0 0 0 0 0.737254902 0 0 0 0 0.0862745098 0 0 0 0.3 0"/></filter><linearGradient id="g" x1="21.149%" x2="83.797%" y1="34.457%" y2="74.118%"><stop offset="0%" stop-color="#FEF9DC"/><stop offset="48.957%" stop-color="#FCF3D6"/><stop offset="100%" stop-color="#E2EEF5"/></linearGradient><path id="f" d="M278.949 209.193c0-9.332-2.67-18.04-7.289-25.402-8.465-13.493-23.474-22.464-40.578-22.464-2.95 0-5.839.266-8.642.778-6.874-20.47-26.216-35.218-49.003-35.218-28.493 0-51.6 23.058-51.68 51.533-17.437 4.289-30.37 20.028-30.37 38.789 0 21.288 16.654 38.686 37.644 39.878l103.36.065c25.831-.803 46.558-21.96 46.558-47.959z"/><filter id="e" width="133.6%" height="148.4%" x="-16.8%" y="-24.2%" filterUnits="objectBoundingBox"><feOffset in="SourceAlpha" result="shadowOffsetOuter1"/><feGaussianBlur in="shadowOffsetOuter1" result="shadowBlurOuter1" stdDeviation="10.5"/><feComposite in="shadowBlurOuter1" in2="SourceAlpha" operator="out" result="shadowBlurOuter1"/><feColorMatrix in="shadowBlurOuter1" values="0 0 0 0 0 0 0 0 0 0 0 0 0 0 0 0 0 0 0.03 0"/></filter></defs><g fill="none" fill-rule="evenodd"><path fill="url(#a)" d="M204.266 0c31.483 0 47.22 0 64.168 5.357a66.603 66.603 0 0 1 39.809 39.81c5.357 16.944 5.357 32.687 5.357 64.167v94.932c0 31.483 0 47.22-5.357 64.168a66.593 66.593 0 0 1-39.81 39.806c-16.947 5.36-32.684 5.36-64.167 5.36h-94.932c-31.483 0-47.223 0-64.168-5.36a66.593 66.593 0 0 1-39.809-39.806C0 251.486 0 235.749 0 204.266v-94.932c0-31.48 0-47.223 5.357-64.168a66.603 66.603 0 0 1 39.81-39.809C62.11 0 77.85 0 109.333 0h94.932z"/><use fill="#000" filter="url(#b)" xlink:href="#c"/><use fill="url(#d)" xlink:href="#c"/><g><use fill="#000" filter="url(#e)" xlink:href="#f"/><use fill="url(#g)" xlink:href="#f"/></g></g></svg>