<svg xmlns="http://www.w3.org/2000/svg" xmlns:xlink="http://www.w3.org/1999/xlink" width="88" height="31"><title>Y2K</title><defs><path id="a" d="M0 0h88v31H0z"/><filter id="b" width="101.1%" height="103.2%" x="-.6%" y="-1.6%" filterUnits="objectBoundingBox"><feOffset dx="1" dy="1" in="SourceAlpha" result="shadowOffsetInner1"/><feComposite in="shadowOffsetInner1" in2="SourceAlpha" k2="-1" k3="1" operator="arithmetic" result="shadowInnerInner1"/><feColorMatrix in="shadowInnerInner1" result="shadowMatrixInner1" values="0 0 0 0 1 0 0 0 0 1 0 0 0 0 1 0 0 0 1 0"/><feOffset dx="-1" dy="-1" in="SourceAlpha" result="shadowOffsetInner2"/><feComposite in="shadowOffsetInner2" in2="SourceAlpha" k2="-1" k3="1" operator="arithmetic" result="shadowInnerInner2"/><feColorMatrix in="shadowInnerInner2" result="shadowMatrixInner2" values="0 0 0 0 0.4 0 0 0 0 0.4 0 0 0 0 0.4 0 0 0 1 0"/><feMerge><feMergeNode in="shadowMatrixInner1"/><feMergeNode in="shadowMatrixInner2"/></feMerge></filter><radialGradient id="d" cx="83.986%" cy="35.343%" r="92.829%" fx="83.986%" fy="35.343%" gradientTransform="scale(-.92881 -1) rotate(-22.169 -1.836 4.451)"><stop offset="0%" stop-color="#52E7FF"/><stop offset="31.068%" stop-color="#0084CE"/><stop offset="100%" stop-color="#00639C"/></radialGradient><path id="c" d="M7.44 7.86c.09-1.51 1.12-2.85 2.82-2.85 1.8 0 2.73 1.4 2.81 2.85H7.44zm6.42 4.3a3.08 3.08 0 0 1-3.06 1.94c-2.05-.11-3-.85-3.4-3.12h12.71C20.74 7.05 18.96 0 10.43 0 4.32 0 .04 4.04.04 9.6c0 6.14 4.73 9.15 10.29 9.15 1.56 0 7.55-.6 9.62-6.6h-6.1z"/><path id="e" d="M16.02.03c-2.7 1.02-6.1 3.5-9.8 8.01-4.7 5.77-5.75 9.3-5.28 11.33-1.23-2.15-1.74-5.8 2.1-10.5A29.24 29.24 0 0 1 16.03.03z"/><linearGradient id="f" x1="65.277%" x2="8.639%" y1="11.208%" y2="86.387%"><stop offset="0%" stop-color="#FFF22D"/><stop offset="100%" stop-color="#634700"/></linearGradient><path id="h" d="M20.38.77c.99.79 1.3 2.34.8 4.43l-.82-.06c.4-1.69.15-3.01-.6-3.62-1.92-1.52-7.2.75-12.8 7.6-5.59 6.84-5.71 10.84-4.09 11.87.89.56 2.48.48 4.65-.67l1.47.32c-3.65 2.31-6.13 2.05-7.5 1.2-1.95-1.26-2.74-4.93 4.01-13.2C12.26.38 18.06-1.07 20.38.77z"/><linearGradient id="i" x1="-2.387%" x2="58.418%" y1="93.335%" y2="42.419%"><stop offset="0%" stop-color="#292C75"/><stop offset="100%" stop-color="#0066A3"/></linearGradient></defs><g fill="none" fill-rule="evenodd"><use fill="#CCC" xlink:href="#a"/><use fill="#000" filter="url(#b)" xlink:href="#a"/><path fill="#000" d="M59 2h27v27H59z"/><use fill="url(#d)" transform="translate(62.676 6.035)" xlink:href="#c"/><g transform="translate(61 4.598)"><mask id="g" fill="#fff"><use xlink:href="#e"/></mask><path fill="url(#f)" d="M-.472 22.261h23.223V-.962H-.472z" mask="url(#g)"/></g><g transform="translate(61.718 4)"><mask id="j" fill="#fff"><use xlink:href="#h"/></mask><path fill="url(#i)" d="M-1.19 22.859h23.223V-.364H-1.19z" mask="url(#j)"/></g><path fill="red" fill-rule="nonzero" d="M4.88 7.09a3.35 3.35 0 0 0 2.14-.78v-2H4.84v.85H6v.63c-.15.12-.34.22-.55.3-.21.09-.43.13-.64.13-.43 0-.77-.15-1.04-.45-.26-.3-.4-.74-.4-1.33 0-.55.14-.97.4-1.25s.61-.42 1.05-.42c.3 0 .54.07.73.21.2.14.33.34.4.58l1-.18c-.1-.46-.32-.82-.67-1.08a2.4 2.4 0 0 0-1.46-.4c-.48 0-.88.09-1.2.25-.42.22-.74.53-.96.94-.22.4-.33.87-.33 1.39 0 .48.1.92.3 1.33.2.41.49.73.88.95.39.22.84.33 1.37.33zM11.77 7v-.84h-2.8V4.79h2.51v-.84H8.97V2.84h2.7v-.85H7.95V7h3.82zm3 0V2.84h1.48v-.85h-3.99v.85h1.5V7h1z"/><path fill="#000" fill-rule="nonzero" d="M18.32 9V4.12L19.98 9h.68l1.67-4.8V9h.73V3.27h-1.02l-1.37 3.99c-.14.4-.24.7-.3.92-.06-.2-.16-.47-.28-.85l-1.36-4.06H17.6V9h.73zm6.98-4.92v-.8h-.7v.8h.7zm0 4.92V4.85h-.7V9h.7zm3.14.1c.45 0 .84-.14 1.15-.41.3-.27.5-.64.58-1.12l-.7-.09c-.04.35-.16.61-.35.78a.99.99 0 01-.69.26c-.34 0-.62-.13-.83-.38-.22-.26-.32-.66-.32-1.22 0-.55.1-.95.33-1.2.22-.26.5-.38.86-.38a.9.9 0 01.6.2c.17.15.28.36.35.64l.68-.11a1.57 1.57 0 00-.55-.97 1.72 1.72 0 00-1.1-.34c-.36 0-.7.08-1 .25-.3.17-.52.42-.67.76-.15.33-.23.72-.23 1.17 0 .7.18 1.23.52 1.6.35.37.8.55 1.37.55zm3.42-.1V6.83c0-.3.04-.57.12-.82.05-.17.14-.3.26-.39.13-.09.26-.14.42-.14a1 1 0 01.51.16l.24-.66a1.37 1.37 0 00-.72-.22.78.78 0 00-.45.14c-.14.1-.28.29-.45.58v-.63h-.63V9h.7zm4.06.1c.36 0 .7-.1 1-.26.3-.17.54-.4.7-.71.16-.3.24-.73.24-1.26 0-.66-.18-1.18-.55-1.55a1.86 1.86 0 00-1.4-.56c-.5 0-.94.15-1.3.46-.43.37-.64.94-.64 1.7 0 .7.18 1.24.54 1.62.36.37.83.55 1.4.55zm0-.58c-.36 0-.65-.14-.88-.4-.23-.27-.35-.66-.35-1.2 0-.53.12-.92.35-1.19.23-.26.52-.39.88-.39.34 0 .63.13.87.4.23.26.35.65.35 1.16 0 .55-.12.95-.35 1.22-.23.26-.52.4-.87.4zm4.65.57c.33 0 .62-.05.88-.17.26-.1.45-.27.6-.48a1.18 1.18 0 00.03-1.26 1.06 1.06 0 00-.46-.37c-.2-.08-.55-.2-1.05-.33-.34-.09-.55-.15-.62-.18a.62.62 0 01-.27-.18.39.39 0 01-.08-.25c0-.14.07-.27.2-.37.14-.11.37-.16.7-.16a1 1 0 01.63.18c.15.12.24.28.27.5l.69-.1a1.49 1.49 0 00-.24-.64c-.12-.16-.3-.29-.55-.38a2.4 2.4 0 00-1.46-.06c-.2.06-.34.13-.45.2-.15.11-.26.24-.35.4-.08.16-.12.33-.12.51 0 .2.05.4.15.56.1.17.26.3.46.4.2.09.55.2 1.07.33l.15.04c.3.08.48.15.57.2.13.1.2.22.2.38 0 .17-.07.33-.23.46s-.4.2-.72.2c-.32 0-.57-.08-.75-.23a.97.97 0 01-.32-.64l-.7.11c.08.44.26.77.54 1 .28.22.7.33 1.23.33zm4.6 0c.36 0 .7-.08 1-.25.3-.17.54-.4.7-.71.16-.3.24-.73.24-1.26 0-.66-.18-1.18-.55-1.55a1.86 1.86 0 00-1.4-.56c-.5 0-.94.15-1.3.46-.43.37-.64.94-.64 1.7 0 .7.18 1.24.54 1.62.36.37.82.55 1.4.55zm0-.57c-.36 0-.65-.14-.88-.4-.23-.27-.35-.66-.35-1.2 0-.53.12-.92.35-1.19.23-.26.52-.39.88-.39.34 0 .63.13.86.4.24.26.35.65.35 1.16 0 .55-.11.95-.34 1.22-.24.26-.53.4-.87.4zM49.2 9V5.4h.8v-.55h-.8v-.38c0-.25.04-.42.13-.51.09-.1.24-.14.45-.14.13 0 .27.01.42.04l.1-.61a3.44 3.44 0 00-.65-.07c-.31 0-.55.05-.72.17a.9.9 0 00-.36.44c-.05.13-.07.34-.07.62v.44h-.62v.55h.62V9h.7zm2.86.05c.16 0 .33-.02.53-.06l-.1-.62c-.13.02-.23.03-.31.03a.47.47 0 01-.24-.05.3.3 0 01-.12-.14 1.23 1.23 0 01-.04-.39V5.4h.7v-.55h-.7V3.4l-.7.42v1.03h-.51v.55h.51v2.39c0 .42.03.7.09.83s.16.23.3.31c.14.08.33.12.59.12zM8.13 18v-7.16H6.68V18h1.45zm3.23 0v-2.35c0-.58.03-.98.1-1.19a1.1 1.1 0 011.03-.71c.19 0 .35.04.48.13.13.1.22.22.28.39.06.16.1.52.1 1.08V18h1.36v-3.22c0-.4-.02-.71-.07-.93a1.4 1.4 0 00-.84-1c-.25-.1-.53-.15-.83-.15-.69 0-1.26.29-1.7.88v-.77H9.98V18h1.37zm6.65.12c.4 0 .77-.07 1.08-.2l-.11-1.07c-.24.09-.43.13-.55.13a.39.39 0 01-.24-.07.3.3 0 01-.12-.17 5.2 5.2 0 01-.03-.74v-2.1h.94v-1.09h-.94v-1.83l-1.37.8v1.03h-.63v1.1h.63v2.26c0 .48.01.8.04.97.04.22.1.4.2.53.09.13.23.24.43.32.2.09.42.13.67.13zm4.54 0c.57 0 1.04-.13 1.42-.4.38-.26.66-.64.83-1.14l-1.36-.23c-.08.26-.19.45-.33.57a.84.84 0 01-.55.17c-.31 0-.58-.11-.79-.34a1.39 1.39 0 01-.33-.95h3.44c.02-1.05-.2-1.83-.64-2.34a2.3 2.3 0 00-1.83-.76c-.68 0-1.25.24-1.7.73a2.86 2.86 0 00-.68 2.02c0 .72.18 1.31.52 1.78.43.6 1.1.89 2 .89zm.97-3.16h-2.06c0-.37.1-.67.3-.89a.96.96 0 01.74-.32c.28 0 .51.1.7.3.2.21.3.52.32.91zM27.8 18v-1.6c0-.88.04-1.46.11-1.74.08-.28.19-.47.32-.57a.8.8 0 01.49-.16c.2 0 .41.07.64.22l.43-1.2c-.3-.17-.6-.25-.9-.25-.23 0-.43.05-.6.16-.17.11-.37.34-.59.7v-.75h-1.27V18h1.37zm4.44 0v-2.35c0-.58.03-.98.1-1.19a1.1 1.1 0 011.03-.71c.19 0 .35.04.48.13.13.1.23.22.28.39.06.16.1.52.1 1.08V18h1.36v-3.22c0-.4-.02-.71-.07-.93a1.4 1.4 0 00-.84-1c-.25-.1-.53-.15-.83-.15-.69 0-1.26.29-1.7.88v-.77h-1.28V18h1.37zm7.36.12c.57 0 1.04-.13 1.42-.4.38-.26.66-.64.84-1.14l-1.37-.23c-.08.26-.19.45-.33.57a.84.84 0 01-.55.17c-.31 0-.57-.11-.79-.34a1.39 1.39 0 01-.33-.95h3.44c.02-1.05-.2-1.83-.64-2.34a2.3 2.3 0 00-1.83-.76c-.68 0-1.25.24-1.7.73a2.86 2.86 0 00-.67 2.02c0 .72.17 1.31.5 1.78.44.6 1.1.89 2.01.89zm.97-3.16h-2.05c0-.37.09-.67.28-.89.2-.21.45-.32.75-.32.28 0 .51.1.71.3.2.21.3.52.3.91zm4.38 3.16c.4 0 .77-.07 1.09-.2l-.12-1.07c-.24.09-.42.13-.55.13a.39.39 0 01-.23-.07.3.3 0 01-.13-.17A5.2 5.2 0 0145 16v-2.1h.94v-1.09H45v-1.83l-1.38.8v1.03H43v1.1h.63v2.43c0 .4.02.66.05.8.03.22.1.4.19.53.1.13.24.24.43.32.2.09.43.13.67.13zM18.17 27v-1.2h-4v-1.95h3.6v-1.21h-3.6v-1.59h3.87v-1.2h-5.31V27h5.44zm2.66 0l1.07-1.6 1.05 1.6h1.69l-1.92-2.73 1.76-2.46h-1.61l-.97 1.43-.92-1.43h-1.67l1.79 2.52L19.23 27h1.6zm6.45 1.97v-2.61c.26.28.5.47.74.59a1.98 1.98 0 002.32-.55c.42-.48.63-1.16.63-2.02 0-.85-.21-1.5-.63-1.97a1.98 1.98 0 00-3.15.17v-.77H25.9v7.16h1.37zm1.18-2.94c-.33 0-.61-.14-.85-.42-.23-.28-.34-.7-.34-1.3 0-.5.1-.88.33-1.14.22-.26.5-.39.83-.39.33 0 .6.13.82.4.21.26.32.66.32 1.2 0 .59-.1 1-.32 1.27a1 1 0 01-.8.38zm5.47.97v-7.16h-1.37V27h1.37zm4.27.12c.77 0 1.4-.26 1.91-.78.5-.51.76-1.16.76-1.95a2.59 2.59 0 00-2.68-2.7c-.5 0-.97.12-1.38.34-.41.23-.73.55-.95.98a3.15 3.15 0 000 2.84c.22.42.55.73.98.94.43.22.88.33 1.36.33zm0-1.12c-.36 0-.66-.14-.9-.41-.25-.27-.38-.67-.38-1.18 0-.52.13-.91.37-1.18.25-.28.55-.41.9-.41.36 0 .66.13.9.4.25.28.37.67.37 1.18 0 .52-.12.92-.36 1.19-.25.27-.55.4-.9.4zm5.56 1v-1.6c0-.88.04-1.46.11-1.74.08-.28.18-.47.32-.57a.8.8 0 01.49-.16c.2 0 .4.07.64.22l.43-1.2c-.3-.17-.6-.25-.9-.25-.23 0-.43.05-.6.16-.18.11-.37.34-.59.7v-.75h-1.27V27h1.37zm5.19.12c.57 0 1.04-.13 1.42-.4.38-.26.66-.64.84-1.14l-1.37-.23c-.08.26-.19.45-.33.57a.84.84 0 01-.55.17c-.31 0-.57-.11-.79-.34a1.39 1.39 0 01-.33-.95h3.44c.02-1.05-.2-1.83-.64-2.34a2.3 2.3 0 00-1.83-.76c-.68 0-1.25.24-1.7.73a2.86 2.86 0 00-.67 2.02c0 .72.17 1.31.5 1.78.44.6 1.1.89 2.01.89zm.97-3.16h-2.05c0-.37.09-.67.28-.89.2-.21.45-.32.75-.32.28 0 .51.1.7.3.2.21.3.52.32.91zm4.3 3.04v-1.6c0-.88.03-1.46.1-1.74.08-.28.19-.47.32-.57a.8.8 0 01.49-.16c.2 0 .41.07.64.22l.43-1.2c-.3-.17-.6-.25-.9-.25-.23 0-.42.05-.6.16-.17.11-.37.34-.59.7v-.75h-1.27V27h1.37z"/></g></svg>