<svg xmlns="http://www.w3.org/2000/svg" width="400" height="104" viewBox="0 0 400 104">
  <g fill="#FFF" fill-rule="evenodd" transform="translate(32 7.5)">
    <path fill-rule="nonzero" d="M93.1813102,73.8424 C97.0657102,73.8424 100.44701,73.0702 103.32521,71.5258 C106.20341,69.9814 108.40301,67.969 109.92401,65.4886 C111.44501,63.0082 112.20551,60.4342 112.20551,57.7666 C112.20551,53.8822 110.91851,50.536 108.34451,47.728 C105.77051,44.92 102.12011,43.0246 97.3933102,42.0418 L97.3933102,42.0418 L90.1627102,40.5676 C88.5247102,40.24 87.2845102,39.6316 86.4421102,38.7424 C85.5997102,37.8532 85.1785102,36.73 85.1785102,35.3728 C85.1785102,34.5304 85.4593102,33.6997 86.0209102,32.8807 C86.5825102,32.0617 87.3664102,31.3831 88.3726102,30.8449 C89.3788102,30.3067 90.5371102,30.0376 91.8475102,30.0376 C93.5791102,30.0376 95.0065102,30.2365 96.1297102,30.6343 C97.2529102,31.0321 98.2123102,31.6873 99.0079102,32.5999 C99.8035102,33.5125 100.52891,34.7878 101.18411,36.4258 L101.18411,36.4258 L111.43331,33.337 C111.01211,31.1842 110.07611,29.0899 108.62531,27.0541 C107.17451,25.0183 105.05681,23.3101 102.27221,21.9295 C99.4876102,20.5489 96.0127102,19.8586 91.8475102,19.8586 C88.7587102,19.8586 85.8220102,20.5606 83.0374102,21.9646 C80.2528102,23.3686 78.0064102,25.2874 76.2982102,27.721 C74.5900102,30.1546 73.7359102,32.7988 73.7359102,35.6536 C73.7359102,39.9124 74.9878102,43.4458 77.4916102,46.2538 C79.9954102,49.0618 83.4469102,50.8636 87.8461102,51.6592 L87.8461102,51.6592 L95.1469102,52.993 C96.8317102,53.3206 98.1538102,53.9524 99.1132102,54.8884 C100.07261,55.8244 100.55231,56.971 100.55231,58.3282 C100.55231,59.3578 100.25981,60.2821 99.6748102,61.1011 C99.0898102,61.9201 98.2591102,62.5519 97.1827102,62.9965 C96.1063102,63.4411 94.8427102,63.6634 93.3919102,63.6634 C91.1923102,63.6634 89.3203102,63.3241 87.7759102,62.6455 C86.2315102,61.9669 85.0030102,60.9958 84.0904102,59.7322 C83.1778102,58.4686 82.5343102,56.9476 82.1599102,55.1692 L82.1599102,55.1692 L71.8405102,57.7666 C72.2149102,60.2938 73.2211102,62.7859 74.8591102,65.2429 C76.4971102,67.6999 78.8605102,69.7474 81.9493102,71.3854 C85.0381102,73.0234 88.7821102,73.8424 93.1813102,73.8424 Z M132.238662,73.8424 C134.999862,73.8424 137.363262,73.2808 139.328862,72.1576 C140.880651,71.2708632 142.082413,70.0340986 142.934147,68.4473064 L142.97891,68.36 L142.979262,73 L152.807262,73 L152.807262,34.6708 L142.277262,34.6708 L142.277262,57.0646 C142.277262,59.2642 141.633762,61.0309 140.346762,62.3647 C139.059762,63.6985 137.363262,64.3654 135.257262,64.3654 C133.151262,64.3654 131.454762,63.6985 130.167762,62.3647 C128.880762,61.0309 128.237262,59.2642 128.237262,57.0646 L128.237262,57.0646 L128.237262,34.6708 L117.707262,34.6708 L117.707262,57.907 C117.707262,61.0894 118.268862,63.8857 119.392062,66.2959 C120.515262,68.7061 122.176662,70.5664 124.376262,71.8768 C126.575862,73.1872 129.196662,73.8424 132.238662,73.8424 Z M170.735193,73 L170.735193,50.6062 C170.735193,48.3598 171.331893,46.5814 172.525293,45.271 C173.718693,43.9606 175.344993,43.3054 177.404193,43.3054 C178.761393,43.3054 179.943093,43.6096 180.949293,44.218 C181.955493,44.8264 182.727693,45.6805 183.265893,46.7803 C183.804093,47.8801 184.073193,49.1554 184.073193,50.6062 L184.073193,50.6062 L184.073193,73 L194.603193,73 L194.603193,50.6062 C194.603193,48.3598 195.199893,46.5814 196.393293,45.271 C197.586693,43.9606 199.212993,43.3054 201.272193,43.3054 C202.629393,43.3054 203.811093,43.6096 204.817293,44.218 C205.823493,44.8264 206.595693,45.6805 207.133893,46.7803 C207.672093,47.8801 207.941193,49.1554 207.941193,50.6062 L207.941193,50.6062 L207.941193,73 L218.471193,73 L218.471193,48.3598 C218.471193,45.505 217.862793,42.9778 216.645993,40.7782 C215.429193,38.5786 213.756093,36.8704 211.626693,35.6536 C209.497293,34.4368 207.051993,33.8284 204.290793,33.8284 C201.108393,33.8284 198.358893,34.5889 196.042293,36.1099 C194.673393,37.0086727 193.488333,38.1811626 192.487113,39.6273696 L192.45891,39.669 L192.392756,39.5562688 C191.671912,38.3980352 190.709017,37.3799361 189.504072,36.5019716 L189.197793,36.2854 C186.810993,34.6474 184.002993,33.8284 180.773793,33.8284 C177.638193,33.8284 175.029093,34.5538 172.946493,36.0046 C171.769372,36.8246174 170.835207,37.8689032 170.144,39.1374575 L170.03291,39.349 L170.033193,34.6708 L160.205193,34.6708 L160.205193,73 L170.735193,73 Z M235.625982,73 L235.625982,50.6062 C235.625982,48.3598 236.222682,46.5814 237.416082,45.271 C238.609482,43.9606 240.235782,43.3054 242.294982,43.3054 C243.652182,43.3054 244.833882,43.6096 245.840082,44.218 C246.846282,44.8264 247.618482,45.6805 248.156682,46.7803 C248.694882,47.8801 248.963982,49.1554 248.963982,50.6062 L248.963982,50.6062 L248.963982,73 L259.493982,73 L259.493982,50.6062 C259.493982,48.3598 260.090682,46.5814 261.284082,45.271 C262.477482,43.9606 264.103782,43.3054 266.162982,43.3054 C267.520182,43.3054 268.701882,43.6096 269.708082,44.218 C270.714282,44.8264 271.486482,45.6805 272.024682,46.7803 C272.562882,47.8801 272.831982,49.1554 272.831982,50.6062 L272.831982,50.6062 L272.831982,73 L283.361982,73 L283.361982,48.3598 C283.361982,45.505 282.753582,42.9778 281.536782,40.7782 C280.319982,38.5786 278.646882,36.8704 276.517482,35.6536 C274.388082,34.4368 271.942782,33.8284 269.181582,33.8284 C265.999182,33.8284 263.249682,34.5889 260.933082,36.1099 C259.564182,37.0086727 258.379122,38.1811626 257.377902,39.6273696 L257.34991,39.668 L257.283545,39.5562688 C256.562701,38.3980352 255.599806,37.3799361 254.394861,36.5019716 L254.088582,36.2854 C251.701782,34.6474 248.893782,33.8284 245.664582,33.8284 C242.528982,33.8284 239.919882,34.5538 237.837282,36.0046 C236.66016,36.8246174 235.725996,37.8689032 235.034789,39.1374575 L234.92391,39.349 L234.923982,34.6708 L225.095982,34.6708 L225.095982,73 L235.625982,73 Z M295.251771,29.7568 C297.170571,29.7568 298.633071,29.2537 299.639271,28.2475 C300.645471,27.2413 301.148571,25.7788 301.148571,23.86 C301.148571,21.9412 300.645471,20.4787 299.639271,19.4725 C298.633071,18.4663 297.170571,17.9632 295.251771,17.9632 C293.379771,17.9632 291.928971,18.4663 290.899371,19.4725 C289.869771,20.4787 289.354971,21.9412 289.354971,23.86 C289.354971,25.732 289.869771,27.1828 290.899371,28.2124 C291.928971,29.242 293.379771,29.7568 295.251771,29.7568 Z M300.516771,73 L300.516771,34.6708 L289.986771,34.6708 L289.986771,73 L300.516771,73 Z M326.376985,73.4212 C328.108585,73.4212 329.746585,73.3042 331.290985,73.0702 L331.290985,73.0702 L331.290985,64.0846 C330.308185,64.225 329.489185,64.2952 328.833985,64.2952 C326.634385,64.2952 324.996385,63.8155 323.919985,62.8561 C322.843585,61.8967 322.305385,60.4342 322.305385,58.4686 L322.305385,58.4686 L322.305385,43.7968 L331.290985,43.7968 L331.290985,34.6708 L322.305385,34.6708 L322.305385,24.562 L311.775385,24.562 L311.775385,28.774 C311.775385,30.7396 311.248885,32.2138 310.195885,33.1966 C309.142885,34.1794 307.633585,34.6708 305.667985,34.6708 L305.667985,34.6708 L305.316985,34.6708 L305.316985,43.7968 L311.775385,43.7968 L311.775385,59.1706 C311.775385,63.6634 313.050685,67.1617 315.601285,69.6655 C318.151885,72.1693 321.743785,73.4212 326.376985,73.4212 Z"/>
    <path d="M31.5,12.75 C48.4827561,12.75 62.25,26.5172439 62.25,43.5 C62.25,47.050372 61.6483022,50.46021 60.5413164,53.6331043 L51.8721804,53.633292 L57.7551734,59.5156234 C56.9624426,60.8124104 56.0763359,62.0459021 55.1062031,63.2067487 L51.2088567,67.1044413 C50.0066941,68.1092838 48.7266056,69.0240048 47.3789775,69.8382183 L41.4130407,63.8728255 L41.4150201,72.61648 C38.3041554,73.6755118 34.9691671,74.25 31.5,74.25 C27.9492735,74.25 24.5391092,73.6481821 21.3659455,72.5409849 L21.3664773,63.8991907 L31.378832,53.8762151 L41.3905917,63.8991907 L41.3905917,53.6335227 L51.8688623,53.6335227 L41.9104733,43.6806139 L41.9089643,43.6832561 L31.3998397,33.3664773 L20.96869,43.6832561 L20.8923728,43.6354317 L10.8882066,53.6335227 L2.45868356,53.6331043 C1.35169776,50.46021 0.75,47.050372 0.75,43.5 C0.75,26.5172439 14.5172439,12.75 31.5,12.75 Z M21.3664773,53.6335227 L21.3656643,63.8738763 L15.4854259,69.7558148 C11.2673575,67.1775253 7.71889843,63.6113352 5.16178173,59.3789775 L10.9065245,53.633292 L21.3664773,53.6335227 Z"/>
  </g>
</svg>
