<svg xmlns="http://www.w3.org/2000/svg" width="337" height="138" viewBox="0 0 337 138"><g fill="none" fill-rule="evenodd" transform="translate(34.5 37)"><path stroke="#18272F" stroke-width="10.213" d="M266.303 4H64.796A19 19 0 0 0 46.87 16.707L36.834 45.293A19 19 0 0 1 18.907 58H0h0"/><path fill="#FFF" fill-rule="nonzero" d="M55.883 63l3.05-9.272h16.653L78.636 63h10.309L73.573 17.555H61.007L45.635 63h10.248zm17.08-17.507H61.556l5.728-17.532 5.679 17.532zM102.12 75.2l-.001-14.767.093.086c.777.69 1.666 1.275 2.668 1.756l.381.176c1.932.854 4.057 1.281 6.375 1.281 3.212 0 6.11-.773 8.692-2.318s4.616-3.64 6.1-6.283c1.484-2.643 2.227-5.571 2.227-8.784 0-3.213-.753-6.14-2.257-8.784-1.505-2.643-3.549-4.738-6.13-6.283-2.583-1.545-5.44-2.318-8.571-2.318-2.44 0-4.606.457-6.497 1.372-1.387.672-2.56 1.545-3.52 2.62l-.171.199v-3.459h-8.54V75.2h9.15zm8.418-19.703c-1.627 0-3.08-.386-4.362-1.159-1.28-.773-2.277-1.85-2.989-3.233-.712-1.383-1.067-2.969-1.067-4.758 0-1.749.355-3.325 1.067-4.727.712-1.403 1.708-2.491 2.99-3.264 1.28-.773 2.734-1.159 4.36-1.159 1.668 0 3.162.396 4.484 1.19a8.21 8.21 0 0 1 3.08 3.263c.733 1.383 1.099 2.948 1.099 4.697s-.366 3.325-1.098 4.727c-.732 1.404-1.76 2.491-3.08 3.264-1.323.773-2.817 1.159-4.484 1.159zM143.173 75.2l-.001-14.767.094.086c.776.69 1.665 1.275 2.667 1.756l.381.176c1.932.854 4.057 1.281 6.375 1.281 3.213 0 6.11-.773 8.692-2.318 2.583-1.545 4.616-3.64 6.1-6.283 1.485-2.643 2.227-5.571 2.227-8.784 0-3.213-.752-6.14-2.257-8.784-1.505-2.643-3.548-4.738-6.13-6.283-2.583-1.545-5.44-2.318-8.571-2.318-2.44 0-4.606.457-6.497 1.372-1.386.672-2.56 1.545-3.52 2.62l-.171.199v-3.459h-8.54V75.2h9.15zm8.418-19.703c-1.627 0-3.08-.386-4.362-1.159-1.28-.773-2.277-1.85-2.989-3.233-.711-1.383-1.067-2.969-1.067-4.758 0-1.749.356-3.325 1.067-4.727.712-1.403 1.708-2.491 2.99-3.264 1.28-.773 2.734-1.159 4.36-1.159 1.668 0 3.163.396 4.484 1.19a8.21 8.21 0 0 1 3.08 3.263c.733 1.383 1.099 2.948 1.099 4.697s-.366 3.325-1.098 4.727c-.732 1.404-1.759 2.491-3.08 3.264-1.322.773-2.817 1.159-4.484 1.159zm40.015 8.235c3.254 0 6.243-.752 8.967-2.257 2.725-1.505 4.88-3.579 6.466-6.222 1.586-2.643 2.38-5.612 2.38-8.906 0-3.294-.794-6.263-2.38-8.906-1.586-2.643-3.741-4.717-6.466-6.222-2.724-1.505-5.713-2.257-8.967-2.257-3.253 0-6.252.752-8.997 2.257-2.745 1.505-4.91 3.579-6.497 6.222-1.586 2.643-2.379 5.612-2.379 8.906 0 3.294.793 6.263 2.38 8.906 1.585 2.643 3.75 4.717 6.496 6.222 2.745 1.505 5.744 2.257 8.997 2.257zm0-8.235c-1.626 0-3.08-.386-4.361-1.159-1.281-.773-2.278-1.85-2.99-3.233-.71-1.383-1.067-2.969-1.067-4.758 0-1.749.356-3.314 1.068-4.697.711-1.383 1.708-2.47 2.989-3.264 1.28-.793 2.735-1.189 4.361-1.189 1.627 0 3.07.396 4.331 1.19 1.26.792 2.247 1.88 2.959 3.263.711 1.383 1.067 2.948 1.067 4.697 0 1.79-.356 3.375-1.067 4.758-.712 1.383-1.698 2.46-2.959 3.233-1.26.773-2.704 1.159-4.33 1.159zM223.936 63V16.823h-9.15V63h9.15zm23.24.732c3.253 0 6.242-.752 8.967-2.257 2.725-1.505 4.88-3.579 6.466-6.222 1.586-2.643 2.379-5.612 2.379-8.906 0-3.294-.793-6.263-2.379-8.906-1.586-2.643-3.741-4.717-6.466-6.222-2.725-1.505-5.714-2.257-8.967-2.257s-6.252.752-8.997 2.257c-2.745 1.505-4.911 3.579-6.497 6.222-1.586 2.643-2.379 5.612-2.379 8.906 0 3.294.793 6.263 2.379 8.906 1.586 2.643 3.752 4.717 6.497 6.222 2.745 1.505 5.744 2.257 8.997 2.257zm0-8.235c-1.627 0-3.08-.386-4.361-1.159-1.281-.773-2.278-1.85-2.99-3.233-.711-1.383-1.067-2.969-1.067-4.758 0-1.749.356-3.314 1.068-4.697.711-1.383 1.708-2.47 2.989-3.264 1.28-.793 2.734-1.189 4.361-1.189 1.627 0 3.07.396 4.331 1.19 1.26.792 2.247 1.88 2.959 3.263.711 1.383 1.067 2.948 1.067 4.697 0 1.79-.356 3.375-1.067 4.758-.712 1.383-1.698 2.46-2.959 3.233-1.26.773-2.704 1.159-4.331 1.159z"/><circle cx="12.513" cy="35.014" r="12.464" fill="#FFCA00"/></g></svg>