<svg xmlns="http://www.w3.org/2000/svg" width="400" height="104" viewBox="0 0 400 104"><g fill="#FFF" fill-rule="evenodd"><path fill-rule="nonzero" d="M125.181 81.342c3.885 0 7.266-.772 10.144-2.316 2.878-1.545 5.078-3.557 6.599-6.037s2.282-5.055 2.282-7.722c0-3.885-1.287-7.231-3.861-10.039-2.574-2.808-6.225-4.703-10.952-5.686l-7.23-1.474c-1.638-.328-2.878-.936-3.72-1.826-.843-.889-1.264-2.012-1.264-3.37 0-.842.28-1.672.842-2.491.562-.82 1.345-1.498 2.352-2.036 1.006-.538 2.164-.807 3.475-.807 1.731 0 3.159.198 4.282.596a6.754 6.754 0 0 1 2.878 1.966c.796.912 1.52 2.188 2.176 3.826l10.25-3.089c-.422-2.153-1.358-4.247-2.809-6.283-1.45-2.036-3.568-3.744-6.353-5.125-2.784-1.38-6.26-2.07-10.424-2.07-3.09 0-6.026.702-8.81 2.106-2.785 1.404-5.032 3.322-6.74 5.756-1.708 2.434-2.562 5.078-2.562 7.933 0 4.258 1.252 7.792 3.756 10.6 2.503 2.808 5.955 4.61 10.354 5.405l7.3 1.334c1.686.328 3.008.96 3.967 1.895.96.936 1.44 2.083 1.44 3.44 0 1.03-.293 1.954-.878 2.773-.585.82-1.416 1.45-2.492 1.895-1.077.445-2.34.667-3.791.667-2.2 0-4.072-.339-5.616-1.018-1.544-.678-2.773-1.65-3.686-2.913-.912-1.263-1.556-2.784-1.93-4.563l-10.32 2.598c.375 2.527 1.381 5.019 3.02 7.476 1.637 2.457 4 4.504 7.09 6.142 3.088 1.638 6.832 2.457 11.231 2.457zm39.058 0c2.76 0 5.124-.561 7.09-1.684a9.198 9.198 0 0 0 3.605-3.71l.045-.088v4.64h9.828V42.17h-10.53v22.395c0 2.2-.643 3.966-1.93 5.3-1.287 1.334-2.984 2-5.09 2s-3.802-.666-5.09-2c-1.286-1.334-1.93-3.1-1.93-5.3V42.17h-10.53v23.236c0 3.182.562 5.979 1.685 8.389 1.123 2.41 2.785 4.27 4.984 5.58 2.2 1.311 4.82 1.966 7.863 1.966zm38.496-.842V58.106c0-2.246.597-4.025 1.79-5.335 1.194-1.31 2.82-1.966 4.88-1.966 1.356 0 2.538.305 3.544.913 1.006.608 1.779 1.462 2.317 2.562.538 1.1.807 2.375.807 3.826V80.5h10.53V58.106c0-2.246.597-4.025 1.79-5.335 1.194-1.31 2.82-1.966 4.88-1.966 1.356 0 2.538.305 3.544.913 1.006.608 1.779 1.462 2.317 2.562.538 1.1.807 2.375.807 3.826V80.5h10.53V55.86c0-2.855-.608-5.382-1.825-7.582s-2.89-3.908-5.02-5.124c-2.129-1.217-4.574-1.826-7.335-1.826-3.183 0-5.932.76-8.249 2.282-1.369.899-2.554 2.071-3.555 3.517l-.028.042-.066-.113c-.721-1.158-1.684-2.176-2.889-3.054l-.306-.217c-2.387-1.638-5.195-2.457-8.424-2.457-3.136 0-5.745.726-7.828 2.177a9.031 9.031 0 0 0-2.802 3.132l-.111.212v-4.678h-9.828V80.5h10.53zm64.891 0V58.106c0-2.246.597-4.025 1.79-5.335 1.193-1.31 2.82-1.966 4.879-1.966 1.357 0 2.539.305 3.545.913 1.006.608 1.778 1.462 2.317 2.562.538 1.1.807 2.375.807 3.826V80.5h10.53V58.106c0-2.246.597-4.025 1.79-5.335 1.193-1.31 2.82-1.966 4.879-1.966 1.357 0 2.539.305 3.545.913 1.006.608 1.778 1.462 2.317 2.562.538 1.1.807 2.375.807 3.826V80.5h10.53V55.86c0-2.855-.608-5.382-1.825-7.582s-2.89-3.908-5.02-5.124c-2.129-1.217-4.574-1.826-7.335-1.826-3.183 0-5.932.76-8.249 2.282-1.369.899-2.554 2.071-3.555 3.517l-.028.041-.066-.112c-.721-1.158-1.684-2.176-2.89-3.054l-.305-.217c-2.387-1.638-5.195-2.457-8.424-2.457-3.136 0-5.745.726-7.828 2.177a9.031 9.031 0 0 0-2.802 3.132l-.111.212v-4.678h-9.828V80.5h10.53zm59.626-43.243c1.919 0 3.381-.503 4.387-1.51 1.006-1.006 1.51-2.468 1.51-4.387 0-1.919-.504-3.381-1.51-4.387-1.006-1.007-2.468-1.51-4.387-1.51-1.872 0-3.323.503-4.353 1.51-1.03 1.006-1.544 2.468-1.544 4.387 0 1.872.515 3.323 1.544 4.352 1.03 1.03 2.48 1.545 4.353 1.545zm5.265 43.243V42.17h-10.53V80.5h10.53zm25.86.421c1.732 0 3.37-.117 4.914-.35v-8.986c-.983.14-1.802.21-2.457.21-2.2 0-3.838-.48-4.914-1.439-1.076-.96-1.615-2.422-1.615-4.387V51.297h8.986V42.17h-8.986V32.062h-10.53v4.212c0 1.966-.526 3.44-1.58 4.423-1.052.982-2.561 1.474-4.527 1.474h-.351v9.126h6.458V66.67c0 4.492 1.276 7.99 3.826 10.494 2.55 2.504 6.143 3.756 10.776 3.756z"/><path d="M63.5 20.25c16.983 0 30.75 13.767 30.75 30.75 0 3.55-.602 6.96-1.709 10.133h-8.669l5.883 5.883a30.842 30.842 0 0 1-2.649 3.69l-3.897 3.898a30.84 30.84 0 0 1-3.83 2.734l-5.966-5.965.002 8.743A30.712 30.712 0 0 1 63.5 81.75c-3.55 0-6.96-.602-10.134-1.709v-8.642L63.38 61.376 73.39 71.4V61.134h10.478L73.91 51.18l-.001.002-10.51-10.317-10.43 10.317-.077-.048-10.004 9.999h-8.43A30.704 30.704 0 0 1 32.75 51c0-16.983 13.767-30.75 30.75-30.75zM53.366 61.134v10.24l-5.88 5.882a30.907 30.907 0 0 1-10.324-10.377l5.745-5.746h10.46z"/></g></svg>