<?xml version="1.0" encoding="UTF-8"?>
<svg width="260px" height="91px" viewBox="0 0 260 91" version="1.1" xmlns="http://www.w3.org/2000/svg" xmlns:xlink="http://www.w3.org/1999/xlink">
    <!-- Generator: Sketch Beta 62 (91388) - https://sketch.com -->
    <title>Lines V3</title>
    <desc>Created with Sketch Beta.</desc>
    <g id="Lines-V3" stroke="none" stroke-width="1" fill="none" fill-rule="evenodd">
        <path d="M168.160436,26.04 C187.406036,26.04 198.771632,40.506276 198.99702,63.5005981 L199.000436,64.2 L154.240436,64.2 C156.280436,70.92 161.680436,75.48 169.000436,75.48 C173.787463,75.48 179.596901,73.3215778 183.002292,70.2205729 L183.280436,69.96 L194.440436,81.36 C188.920436,87.12 178.240436,90.96 169.120436,90.96 C150.640436,90.96 136.240436,77.4 136.240436,58.32 C136.240436,39.6 150.040436,26.04 168.160436,26.04 Z M233.200436,26.04 C241.883103,26.04 250.451044,29.0228741 257.221612,33.4181518 L257.680436,33.72 L250.600436,46.2 C244.960436,42.72 238.480436,40.68 233.200436,40.68 C228.880436,40.68 225.880436,42.24 225.880436,44.4 C225.880436,47.76 228.400436,48.72 236.800436,51 C247.480436,53.76 259.360436,57.36 259.360436,70.92 C259.360436,83.16 249.400436,90.96 234.160436,90.96 C224.391975,90.96 214.046368,87.7279882 206.633102,81.9432197 L206.200436,81.6 L213.760436,69.48 C219.280436,73.44 226.240436,76.44 234.520436,76.44 C239.200436,76.44 242.560436,74.52 242.560436,71.76 C242.560436,67.92 238.000436,66.72 231.640436,65.04 C218.920436,61.92 209.080436,58.44 208.960436,46.2 C208.840436,34.44 218.560436,26.04 233.200436,26.04 Z M101.920436,26.04 C115.226036,26.04 124.768052,35.801796 124.957562,49.6200299 L124.960436,50.04 L124.960436,89.52 L124.956564,89.519 L108.039564,72.603 L108.040436,53.76 C108.040436,46.08 103.240436,40.8 96.2804362,40.8 C89.0696899,40.8 83.4891687,45.9235643 83.3241923,52.5000796 L83.3204362,52.8 L83.2004362,52.44 L83.1995638,89.328 L65.6795638,71.807 L65.6804362,27.48 L83.2004362,27.48 L83.2004362,35.28 C86.9204362,29.64 93.8804362,26.04 101.920436,26.04 Z M33.2795638,27.491 L50.7995638,45.012 L50.8004362,81.943 L50.8035638,86.594 L50.7864857,86.6129623 L50.8035638,86.63 L50.8075638,89.392 L33.2795638,71.864 L33.2795638,27.491 Z M0.640436218,5.677 L18.1604362,23.164 L18.1595638,89.364 L0.639563782,71.843 L0.640436218,5.677 Z M168.880436,41.52 C162.398293,41.52 156.957923,45.2240816 154.605666,51.2680184 L154.480436,51.6 L182.200436,51.6 C180.520436,45.48 175.960436,41.52 168.880436,41.52 Z M42.1604362,2.84217094e-14 C47.3204362,2.84217094e-14 51.5204362,4.44 51.5204362,9.36 C51.5204362,14.64 47.3204362,18.96 42.1604362,18.96 C36.7604362,18.96 32.5604362,14.64 32.5604362,9.36 C32.5604362,4.44 36.7604362,2.84217094e-14 42.1604362,2.84217094e-14 Z" id="Combined-Shape" fill="#FFFFFF" fill-rule="nonzero"></path>
    </g>
</svg>