<?xml version="1.0" encoding="UTF-8"?>
<svg width="358px" height="72px" viewBox="0 0 358 72" version="1.1" xmlns="http://www.w3.org/2000/svg" xmlns:xlink="http://www.w3.org/1999/xlink">
    <title>Lines V1</title>
    <g id="Lines-V1" stroke="none" stroke-width="1" fill="none" fill-rule="evenodd">
        <path d="M23.0756011,71.2 L23.0756011,11.4 C23.0756011,4.2 28.0756011,2.5 32.3756011,2.5 L32.3756011,0.8 L0.675601104,0.8 L0.675601104,2.5 C4.9756011,2.5 8.5756011,5.3 8.5756011,11.4 L8.5756011,58.3 C8.5756011,65.1 5.7756011,69.5 1.4756011,69.5 L1.4756011,71.2 L23.0756011,71.2 Z M58.2756011,71.2 L58.2756011,49.5 L56.5756011,49.5 C53.7756011,65.6 36.0756011,68.7 29.2756011,69.4 L29.2756011,71.2 L58.2756011,71.2 Z M111.96651,71.2 L111.96651,69.5 C107.76651,69.5 103.46651,65.9 103.46651,59.1 L103.46651,11.4 C103.46651,5.2 107.66651,2.5 111.96651,2.5 L111.96651,0.8 L80.4665101,0.8 L80.4665101,2.5 C84.8665101,2.5 88.9665101,5.2 88.9665101,11.4 L88.9665101,59.1 C88.9665101,65.9 84.7665101,69.5 80.4665101,69.5 L80.4665101,71.2 L111.96651,71.2 Z M195.057419,71.2 L195.057419,52.6 L153.057419,0.8 L128.557419,0.8 L128.557419,2.5 C131.157419,2.7 134.057419,1.6 140.457419,9.6 L189.757419,71.2 L195.057419,71.2 Z M195.057419,26.2 L195.057857,26.0274625 C195.075669,23.87975 195.612419,2.405 209.957419,2.5 L209.957419,0.8 L179.657419,0.8 L179.657419,2.5 C193.457419,2.4 193.357419,26.2 193.357419,26.2 L195.057419,26.2 Z M159.757419,71.2 L159.757419,69.5 C145.957419,69.5 146.057419,45.7 146.057419,45.7 L144.357419,45.7 L144.35692,45.8111936 C144.341099,47.56592 143.853419,69.5 129.357419,69.5 L129.357419,71.2 L159.757419,71.2 Z M246.748328,71.2 L246.748328,0.8 L226.448328,0.8 L226.448328,2.5 C230.848328,2.5 232.248328,8.4 232.248328,14.6 L232.248328,57.5 C232.248328,64.3 230.648328,69.5 226.448328,69.5 L226.448328,71.2 L246.748328,71.2 Z M281.448328,19.8 L281.448328,0.8 L252.948328,0.8 L252.948328,2.6 C259.848328,3.1 277.848328,5.8 279.748328,19.8 L281.448328,19.8 Z M268.248328,46.9 L268.248328,24.4 L266.548328,24.4 C265.148328,32.3 257.448328,34.1 252.948328,34.6 L252.948328,36.7 C257.448328,37.2 265.148328,39.1 266.548328,46.9 L268.248328,46.9 Z M282.748328,71.2 L282.748328,49.4 L281.048328,49.4 C277.648328,65.6 259.748328,68.7 252.948328,69.4 L252.948328,71.2 L282.748328,71.2 Z M336.239237,72 C349.839237,71 353.939237,63.9 353.939237,63.9 C361.439237,53 355.939237,42.2 342.739237,33.5 L327.339237,23.3 C315.739237,15.7 317.639237,4 325.839237,1.7 L325.839237,0 C312.639237,0.9 308.339237,7.5 308.339237,7.5 C300.039237,18.4 305.339237,28.4 319.539237,37.3 L334.939237,47 C345.839237,55 344.339237,67.8 336.239237,70.3 L336.239237,72 Z M354.739237,21.5 L354.739237,4.7 C354.739237,4.7 347.139237,0.5 332.139237,0 L332.139237,1.8 C345.839237,3.5 351.239237,16.6 353.039237,21.5 L354.739237,21.5 Z M329.939237,72 L329.939237,70.2 C314.639237,68.3 309.539237,52.4 307.439237,46.7 L305.739237,46.7 L305.739237,65.9 C305.739237,65.9 312.839237,71.4 329.939237,72 Z" id="LINES" fill="#FFF2F2" fill-rule="nonzero"></path>
    </g>
</svg>