<svg xmlns="http://www.w3.org/2000/svg" width="290" height="290" viewBox="0 0 290 290">
  <g fill="none" fill-rule="evenodd">
    <path fill="#FFB61C" d="M60.2513022,-2.43422472e-15 L229.748698,2.43422472e-15 C250.699388,-1.41435466e-15 258.296615,2.18140186 265.955874,6.27761854 C273.615133,10.3738352 279.626165,16.3848667 283.722381,24.044126 C287.818598,31.7033852 290,39.3006118 290,60.2513022 L290,229.748698 C290,250.699388 287.818598,258.296615 283.722381,265.955874 C279.626165,273.615133 273.615133,279.626165 265.955874,283.722381 C258.296615,287.818598 250.699388,290 229.748698,290 L60.2513022,290 C39.3006118,290 31.7033852,287.818598 24.044126,283.722381 C16.3848667,279.626165 10.3738352,273.615133 6.27761854,265.955874 C2.18140186,258.296615 9.4290311e-16,250.699388 -1.62281648e-15,229.748698 L1.62281648e-15,60.2513022 C-9.4290311e-16,39.3006118 2.18140186,31.7033852 6.27761854,24.044126 C10.3738352,16.3848667 16.3848667,10.3738352 24.044126,6.27761854 C31.7033852,2.18140186 39.3006118,1.41435466e-15 60.2513022,-2.43422472e-15 Z"/>
    <path fill="#FFF" fill-rule="nonzero" d="M38.0107317 105L38.0107317 66.3 79.757561 66.3 79.757561 38.55 38.0107317 38.55 38.0107317 27.6 79.757561 27.6 79.757561 0 15 0C6.71572875 1.52179594e-15-1.01453063e-15 6.71572875 0 15L0 105 0 105 38.0107317 105zM184.530732 105C207.597073 105 221.729268 92.7 221.729268 71.7 221.729268 64.35 219.130244 57.45 214.906829 52.05 219.130244 46.8 221.729268 40.2 221.729268 33.15 221.729268 12.15 207.597073 0 184.530732 0L93.564878 0 93.564878 105 184.530732 105zM179.007805 38.85L131.57561 38.85 131.57561 27.45 179.007805 27.45C182.581463 27.45 185.180488 29.4 185.180488 33 185.180488 36.6 182.581463 38.85 179.007805 38.85zM179.007805 77.55L131.57561 77.55 131.57561 66 179.007805 66C182.581463 66 185.180488 68.1 185.180488 71.7 185.180488 75.3 182.581463 77.55 179.007805 77.55zM38.0107317 222.75L38.0107317 184.05 183.718537 184.05 183.718537 222.75 206.729268 222.75C215.01354 222.75 221.729268 216.034271 221.729268 207.75L221.729268 117.75 221.729268 117.75 183.718537 117.75 183.718537 156.3 38.0107317 156.3 38.0107317 117.75-7.69465792e-14 117.75-7.69465792e-14 207.75C-7.77084054e-14 216.034271 6.71572875 222.75 15 222.75L38.0107317 222.75 38.0107317 222.75z" transform="translate(34 34.5)"/>
  </g>
</svg>
