<svg xmlns="http://www.w3.org/2000/svg" width="23" height="22" viewBox="0 0 23 22"><g fill="none"><path fill="#BDF" d="M16.148 15.218c.02-.002.048-.014.067 0 .016.016.004.028 0 .046-.008.016-.023.024-.026.04a.072.072 0 0 1-.037.047.162.162 0 0 0-.07.065c-.018.03-.075.062-.091.094-.018.03-.055.04-.078.047-.023.009-.035.017-.068.017-.035 0-.076-.04-.1-.043-.024-.002-.07-.013-.136.003-.064.017-.216-.012-.24-.003-.027.012-.043.024-.057.012-.015-.012-.045-.014-.075-.003-.027.011-.121-.003-.15 0-.028.003-.022-.027-.035 0-.016.029-.066.077-.094.124-.029.05-.075.06-.091.1a.154.154 0 0 1-.076.07c-.015.006-.023.006-.05.035-.03.027-.075.046-.105.076-.028.027-.059.069-.092.093-.036.023-.115.073-.154.11-.04.037-.08.06-.109.088-.028.025-.105.056-.132.073-.029.016-.091.047-.119.068-.03.02-.139.084-.171.105-.031.019-.14.061-.189.102-.045.043-.15.057-.191.083-.041.025-.276.061-.296.065-.02.003-.03-.006-.06-.009-.028-.003-.042.02-.085.042-.043.022-.06.04-.114.043-.053.002-.146.024-.195.033-.048.01-.044-.009-.056-.009-.012 0-.043.018-.077.024l-.159.03c-.032.007-.355.035-.375.039-.019 0-.053-.014-.078.007a.314.314 0 0 1-.071.042c-.027.01-.106-.011-.13-.014-.027-.003-.117.006-.14.004a1.337 1.337 0 0 0-.127-.01c-.02 0-.023-.03-.044-.03-.021 0-.153-.008-.188-.016-.033-.003-.171-.013-.2-.022a2.16 2.16 0 0 0-.256-.04c-.023.005-.06-.016-.076-.025a.68.68 0 0 0-.128-.022c-.017 0-.129-.002-.15-.021-.023-.015-.06-.038-.075-.033-.015.006-.155-.028-.2-.03-.046-.004-.256-.082-.287-.077-.032.005-.064-.028-.075-.045-.01-.017-.075-.037-.088-.04-.012-.002-.044-.017-.067-.013-.023.002-.097-.043-.128-.055-.03-.01-.02-.052-.034-.07a.458.458 0 0 0-.111-.062.732.732 0 0 0-.105-.023l-.043-.049-.062-.027-.032-.056-.048-.032s-.061-.025-.093-.052c-.03-.03-.07-.054-.083-.054-.011 0-.03.01-.079-.017-.048-.03-.052-.07-.091-.112a1.066 1.066 0 0 1-.1-.128c-.041-.063-.05-.1-.055-.112-.006-.011 0-.044-.04-.065-.04-.02-.068-.07-.091-.09-.022-.02 0-.042-.025-.035-.026.01-.034.01-.072.01-.037 0-.107-.006-.13-.003-.022.003-.025-.01-.051.015-.025.021-.073-.01-.087-.029-.014-.021-.063-.012-.127-.014-.066-.004-.086.005-.129.018-.042.015-.053.03-.083.035-.028.006-.08-.028-.12.005-.041.033-.046 0-.075-.04-.027-.038-.056-.056-.119-.106-.062-.05-.067-.069-.118-.074-.052-.006-.045-.073-.045-.118.022-.035.075-.009.11-.009.033 0 .043 0 .078.017.034.017.06.011.105.014.046.003.048.023.06.017a.236.236 0 0 0 .05-.04c.009-.011.046-.02.068-.02.04.002.08-.002.12-.01.029-.008.053 0 .091-.011.037-.012.103.02.126.027.021.01.027.01.056.023.028.014.057.003.057.003s.048.015.065.011a.664.664 0 0 1 .093-.005c.016.003.016.023.039.017.027-.006.056 0 .1-.012.046-.011.095-.002.13-.011.04-.008.066-.023.112-.04.044-.016.037.004.04.044.002.039-.018.019-.003.039.014.02.019.011.019.033 0 .024.008.015.026.038.017.022.031.025.042.06a.49.49 0 0 0 .066.114c.027.044.073.074.115.128.043.054.026.04.038.079.01.042.002.028.045.06.042.031.079.073.11.104.031.033.115.119.127.136.016.017.062.031.111.061.052.033.31.194.327.196.018.003.037.011.074.038.037.024.056.013.11.022.054.008.159.067.204.076.046.008.164.062.193.077.029.013.083.002.121 0 .037-.004.058.01.086.017.03.005.041.029.076.032.035.002.087.01.12.016.036.004.08.01.104.015.023.006.023.021.055.032.034.01.046-.011.07-.006.021.006.138.009.168.023.033.013.11.028.137.028.026 0 .071.003.101 0 .032-.004.188.014.207.022.014.007.047 0 .073-.006a.95.95 0 0 1 .096-.016c.042-.007.253.007.288.013a.373.373 0 0 0 .158-.028c.045-.02.14-.035.203-.062.061-.03.23-.03.261-.026.03.004.03.006.067-.016.037-.022.111-.037.166-.054.054-.016.334-.054.364-.06.027-.005.061-.025.098-.034.037-.008.11-.042.144-.047.035-.006.218-.145.227-.156a.38.38 0 0 0 .057-.09c.018-.033.122-.083.162-.103.042-.02.2-.164.23-.189.03-.026.02.011.054.007.033-.002.068-.058.08-.084a.538.538 0 0 1 .076-.112c.026-.029.065-.08.11-.12.047-.04.173-.217.197-.248.023-.03.048-.047.072-.04.02.01.012.02.036.023.022.003.025.006.053.011.03.006.035.008.063-.005.028-.014.04.013.053.003.015-.011.04 0 .066.005a.48.48 0 0 0 .123-.002c.048-.006.145.005.191.005.05 0 .153 0 .185-.008a.456.456 0 0 1 .158.015.376.376 0 0 0 .109.001c.028-.001.09-.013.098-.008l.029.012s.032-.015.05-.015c.016 0 .077-.002.096-.005v.002Z"/><path fill="#BDF" d="M11.468 15.78a.374.374 0 0 1-.149-.024c-.02-.008-.06 0-.083-.003-.027-.002-.024-.02-.06-.027a.251.251 0 0 0-.089-.002c-.025.007-.03.015-.059-.011-.028-.026-.062-.022-.1-.012-.037.012-.059-.001-.101 0-.043.003-.105.015-.122-.005-.017-.018-.02.009-.046-.03-.025-.04-.05-.034-.085-.037-.035-.003-.005-.014-.038-.024-.035-.007-.044.013-.079-.014-.033-.025-.05-.03-.061-.056-.013-.025-.003-.034-.06-.052-.055-.017-.06-.024-.09-.037-.03-.014-.034-.01-.052-.042-.018-.035-.009-.032-.054-.073-.046-.044-.01-.046-.065-.069-.053-.023-.045-.038-.067-.049-.023-.011-.075-.023-.107-.009-.03.014-.033.034-.075.014-.044-.019-.068-.025-.102-.019-.034.005-.026.014-.094.003-.067-.013-.077.014-.1-.02-.02-.033-.067-.009-.064.011a.263.263 0 0 0 .076.083c.03.019.051.024.068.054a.518.518 0 0 0 .12.135c.036.017.075.061.11.096.033.034.128.14.161.149.033.008.108.088.152.096.041.01.195.119.225.119.032 0 .063.007.1.017.037.007.08.056.104.062.027.006.123.042.166.045a.59.59 0 0 1 .14.032c.017.008.044.035.07.028.025-.005.07.036.11.029.04-.008.084.007.124.01.042.003.14.032.172.04.031.01.064.032.092.018.028-.014.06 0 .119-.003.06-.002.13.003.172.003.04 0 .065.004.095-.005.03-.01.061-.024.081-.027.023-.002.014.023.029.027.017.002.118.03.176.009.06-.023.106-.038.12-.047a.11.11 0 0 1 .057-.014c.017.003.042 0 .074-.015a.445.445 0 0 1 .13-.034.21.21 0 0 0 .067-.02c.017-.01.038-.015.057-.024.02-.008.074-.016.12-.038.044-.019.085-.035.112-.055.029-.019.046-.014.065-.019.02-.008.054-.03.054-.03s.058.018.083.012c.025-.006.02-.006.066-.03.045-.025.062-.04.076-.043.014-.003.065-.051.098-.064a.18.18 0 0 0 .042-.02l.056-.032c.016-.01.012-.011.053-.031.043-.02.06-.013.094-.03.035-.018.063-.024.104-.049.044-.025.1-.034.135-.06.032-.025.048-.047.056-.025.008.024.006.05.04.038.034-.014.059-.014.086-.052.025-.037.034-.06.047-.081.016-.024.042-.024.057-.035.018-.011.026-.023.028-.04.004-.017.018-.03.034-.053.018-.023.037-.037.04-.064.002-.03-.006-.044-.02-.044-.015 0-.028.012-.04.02-.01.009-.007.009-.024-.003-.018-.01-.033-.014-.058-.003a.305.305 0 0 1-.088.025c-.034.007-.035.02-.056 0-.019-.02-.048.004-.048.004s-.023.005-.033-.011c-.013-.018-.074-.02-.092-.008-.017.01-.066.028-.088.039a.648.648 0 0 1-.156.05c-.04.004-.079.037-.119.051-.04.014-.123.038-.142.063-.02.027-.02.03-.068.05-.049.021-.086.049-.12.069-.034.019-.011.034-.053.014-.043-.02-.07-.06-.174.009a3.977 3.977 0 0 1-.144.091.038.038 0 0 1-.05-.002c-.01-.012-.028.004-.056-.001-.028-.006-.028.036-.063.03-.034-.005-.055-.012-.103 0a.519.519 0 0 0-.153.06c-.033.023-.117.001-.138.019-.017.017-.092.04-.11.03a.17.17 0 0 0-.098.003c-.04.012-.107.012-.156.012-.048 0-.062-.003-.099 0-.038.003-.027.011-.07-.023-.048-.034-.04-.022-.092-.018m-4.074-1.01c.022.006.05-.023.075-.016.025.005.04.003.098.009.055.007.152-.012.177-.004.026.01.03.02.06.036.032.015.035-.02.068-.013a.239.239 0 0 0 .103-.006c.036-.01.045-.013.07-.017.026-.002.09-.024.1-.002.01.02.028.009.05.021.023.014.033.008.05-.006.015-.013.084-.002.117-.01.03-.005.09-.021.119-.008.028.012.032.012.047.028.015.015.04.005.06-.004a.105.105 0 0 1 .059-.006c.025.004.059-.013.1-.015.04-.003.173-.012.2.006.029.019.038.019.082.015.044-.002.198-.019.22-.008.022.008.024.037.067.034.04-.004.319-.038.344-.022.025.015.01.022.043.022.035 0 .056 0 .088.01.031.008.113-.032.16-.048s.038-.009.053-.019c.017-.009.02-.02.02-.052 0-.036.012-.032.024-.058.013-.024.021-.03.026-.055.003-.026.014-.044.025-.072.01-.029.015-.02.047-.056.03-.038-.016-.076-.044-.067-.028.01-.045.017-.082.029-.037.013-.096 0-.13-.004a.399.399 0 0 0-.13.017c-.041.013-.39-.01-.408-.004-.019.006-.015.014-.034.029-.02.015-.04-.008-.05-.03-.009-.02-.082-.003-.122.02-.041.021-.094.01-.126.012s-.032.016-.032-.017c0-.035-.012-.047-.03-.099-.019-.053-.007-.066-.003-.1s.006-.037 0-.078c-.007-.04-.01-.071-.025-.097a.072.072 0 0 1-.004-.07c.01-.023.01-.048.01-.093 0-.042-.02-.034-.028-.058-.01-.025-.016-.041-.025-.057-.011-.015-.013-.05.013-.08.024-.033.019-.09.005-.12-.013-.028-.029-.055-.04-.09-.012-.035-.017-.056.004-.088.018-.03.001-.04.018-.08.015-.041.02-.033.028-.057.006-.025.004-.029.02-.04a.354.354 0 0 0 .052-.052c.018-.027.03-.058.057-.064.025-.006.036-.038.074-.02.04.015.158-.018.183-.013.025.002.037-.013.053-.02.015-.006.028-.038.062-.035.035.004.07-.043.075-.061.007-.02.045-.054.095-.104.05-.05.027.022.015.052-.012.033.008.037.008.068 0 .03-.012.087-.008.113.004.023.004.068.008.099 0 .03-.042.018-.064.018s-.042-.02-.07-.008c-.029.013-.033.023-.05.049-.016.025-.006.055 0 .054.028-.006.02.015.014.043-.007.027.003.056.025.08.021.027.037.009.068.005.03-.004.035-.008.07-.004.034.004.01.01.015.034.003.025-.021.019-.021.04 0 .023.002.038.024.057.022.02.09.038.122.03.032-.01.021-.049.032-.071.009-.02.022-.046.019-.08-.003-.035.005-.057-.007-.095-.013-.037.004-.116.004-.146 0-.032-.01-.085-.01-.11 0-.024-.004-.059.018-.08.023-.024-.002-.041-.006-.063-.003-.022.009-.035.009-.06 0-.025-.003-.08-.006-.119a.13.13 0 0 1 .022-.096c.021-.032.003-.054-.007-.073-.01-.018 0-.04.007-.078.005-.035-.007-.077 0-.115a.403.403 0 0 0-.004-.112c-.003-.022-.016-.042-.01-.06.007-.018.032-.025.039-.037.006-.013.03-.013.044-.017.026-.005.023-.034.054-.056.032-.022.026-.044.026-.073 0-.028.013-.11.006-.144a.104.104 0 0 0-.038-.067c-.015-.012-.05-.014-.074-.016-.027-.002-.035 0-.05-.02-.016-.023-.026-.023-.042-.01-.015.013-.032.005-.05-.004-.015-.01-.012-.01-.044-.026-.03-.016-.064.002-.082.013-.018.007-.012.007-.04.02-.028.013-.05.025-.085.043-.035.018-.062.053-.055.073.005.023.005.044-.01.06-.016.015.003.034.003.034s-.003.036.012.043c.017.006.02.032.017.054-.004.022-.008.024.016.07.026.041.035.023.052.026.015.003.031.03.069.04.036.01.05.017.09.01.041-.007.012.019-.005.028-.02.01-.016.012-.022.048-.006.033-.006.024.004.054.008.033.021.025.005.048-.015.021 0 .023-.009.06-.01.032.006.041-.003.058-.009.016-.023-.004-.04.009-.02.013-.037.048-.05.056-.017.01-.058.01-.073.035-.017.025-.037.041-.05.069-.013.028-.053.03-.09.03-.038 0-.042.003-.07.016-.029.013-.084.025-.119.042-.034.015-.054-.004-.065-.026-.013-.023.002-.042-.02-.075-.022-.034-.034-.025-.057-.018-.022.006-.027.006-.043 0-.016-.007-.035-.04-.059-.023-.026.019-.035.016-.091.021-.057.007-.088-.042-.117-.101a.386.386 0 0 0-.116-.14 1.186 1.186 0 0 0-.102-.067c-.035-.019.01-.065.023-.086.017-.023.035-.041.048-.077.012-.033.025-.064.018-.105-.006-.04-.013-.036-.009-.06.003-.02.016-.02.031-.039.005-.007-.003-.03-.008-.053-.002-.009-.023-.019-.007-.044.015-.027.012-.038 0-.063-.013-.026-.007-.032.004-.051.008-.017-.007-.066-.017-.074-.01-.01-.033-.016-.046-.029-.014-.011-.028-.03-.05-.038-.023-.005-.038-.005-.061-.021-.022-.016 0-.028-.022-.046-.022-.02-.038-.037-.061-.035-.027.003-.114.032-.146.032a.453.453 0 0 0-.16.075c-.039.028-.071.105-.078.153a2.486 2.486 0 0 0-.015.14c-.003.04.012.043.024.077.012.036.023.039.047.053.026.016.019.026.017.05-.003.025-.003.036-.014.054-.01.02-.03.02-.05.03-.017.013-.03-.007-.063.007-.03.012-.036.028-.046.054-.01.025.013.018.02.034.011.016-.026.013-.047.027a.492.492 0 0 0-.08.089c-.014.02-.035.049-.04.1-.006.05-.019.04-.057.067-.038.029-.022.039-.04.06-.019.022-.026.044-.035.06-.008.015-.015.04-.03.062-.017.022-.025.053-.042.066-.015.012-.011.046-.008.07.002.027.025.015.027.04.002.024-.009.01-.025.006s0 .027.007.056c.007.027.018.027.037.054.02.024.015.03.015.052s.023.03.044.063c.023.032.11.135.117.165.009.029-.008.099-.014.136-.008.037-.016.102-.028.152-.01.051-.03.2-.05.243a.338.338 0 0 0-.022.192c.01.05-.025.203-.034.28-.006.074-.015.059.068.111a.292.292 0 0 0-.114-.006c-.043.006-.107-.014-.145-.005-.038.007-.088-.048-.117-.033-.03.015-.096.01-.157-.006a3.915 3.915 0 0 0-.143-.03l-.077.043s-.027-.022-.058-.044c-.03-.024-.045.027-.03.088.014.06.156.147.185.278.05-.01.127 0 .162.007.034.005.075 0 .102-.01.029-.009.104-.017.113-.003.01.013.041.018.063.025m2.244-2.696c-.025.01-.04.009-.064-.004-.011-.014-.03-.022-.023-.033.01-.012.022-.017 0-.028-.017-.009-.013-.025-.003-.04.024-.033.02-.027.037-.027.018 0 .018.007.04.007a.175.175 0 0 0 .068-.014.1.1 0 0 1 .06.004c.023.017.018.042.038.035.017-.007.025.002.027.024.002.024 0 .027-.017.039-.015.01-.015.01-.045.02-.031.014-.02.015-.049.015-.03 0-.045-.01-.069 0m-1.525-.178c.004-.023.004-.019.017-.04.013-.017.02-.01.013-.034-.01-.025-.014-.028-.016-.045 0-.019-.004-.021.006-.04s.015-.024.03-.02c.02.003.035.009.063.007.03-.002.049.003.08-.008.031-.01.035-.006.046.013.01.019.026.02.03.039.004.017.002.03.02.038.017.006.023.024.032.033.006.008.015.022.006.033-.009.009-.005.012-.001.036.002.026.014.046.01.079s-.008.045-.005.071c0 .026-.004.019-.03.043-.028.02-.026.05-.065.04a.213.213 0 0 1-.089-.04c-.03-.02-.033-.028-.046-.051-.011-.024-.016-.035-.029-.048-.012-.012 0-.018-.012-.03-.013-.015-.013-.018-.046-.033-.01-.02-.017-.02-.015-.042m-.36.988c.016-.026.02-.02.026-.046.006-.029-.003-.05.025-.046.027.008.012-.023.01-.029-.018-.04.005-.036.018-.057.023-.037.04-.023.057-.06.015-.037.025-.056.034-.08.01-.026.007-.028.041-.07.035-.042.044-.03.07-.064.024-.036.02-.039.026-.067.008-.027.054-.032.075-.044.024-.012.049 0 .049.034 0 .035-.022.032.009.066.031.033.053.07.09.087.038.019.06.063.089.025.028-.037.041-.037.06-.049.018-.012.021.006.034.032.013.024.007.046.016.086.007.041.007.063.025.104.014.041.002.05.028.078.024.028.03.038.037.06.005.02.036.009.063.015.025.006.031.018.066.029.034.008.043-.023.056.015.011.037.021.051.003.09-.02.04-.048.053-.038.093.01.043.022.076.013.107-.01.032-.025.056-.037.08a.374.374 0 0 0-.024.142c.007.019.012.012-.002.059a.444.444 0 0 0-.003.153c.004.019 0 .029-.006.067a.492.492 0 0 0-.007.143c.007.05.071.184.064.217-.008.031-.017.04-.02.067-.004.028-.02.044-.012.07.008.026-.002.044.014.062.015.02.004.043 0 .068 0 .027-.026.027 0 .07.025.039.057.082-.008.082-.064 0-.114-.01-.134-.013a.547.547 0 0 0-.124.006c-.031.008-.037.022-.057.012a1.025 1.025 0 0 0-.189-.014c-.047.002-.098-.024-.122-.004-.022.02-.04.042-.065.023-.025-.021-.039-.01-.054-.005-.016.007 0-.004-.02-.02-.025-.016-.086-.008-.105 0-.021.005-.02-.01-.023-.017.003-.035.017-.07.011-.098-.008-.027-.02-.04-.015-.096.003-.057-.01-.08.003-.111.012-.03.009-.061.009-.111s-.005-.089.02-.123c.02-.035.027-.022.03-.056.003-.03 0-.06-.01-.087-.009-.022.005-.071.007-.103.003-.032.003-.041.015-.078.013-.038.004-.038.01-.074.007-.038.011-.03.051-.004.041.024.05.04.07.028.024-.012.065-.004.088.01.02.012.064.03.093.023.027-.005.032.007.059-.018.03-.024.057-.024.032-.05a.165.165 0 0 1-.05-.088c-.009-.036-.029-.043-.04-.093-.014-.05-.023-.074-.064-.078-.04-.003-.07.004-.093-.003-.024-.005-.027-.02-.048-.03-.021-.013-.036-.017-.062-.025-.029-.01-.027-.022-.057-.034-.031-.013-.041-.027-.07-.054-.027-.028-.04-.046-.047-.081-.005-.034 0-.066-.005-.081-.007-.015 0-.017.015-.041m.527-5.542c.035.003.04.026.04.063 0 .036.016.048.051.04.037-.008.04.012.07.027.027.016.054.01.09 0 .036-.006.028-.011.044-.046.016-.036.036-.052.056-.085.02-.03.007-.07 0-.09-.01-.02-.017-.028-.017-.068 0-.04-.007-.024-.015-.056-.009-.03-.037-.043-.063-.063-.029-.02-.058-.026-.084-.015-.029.01-.085 0-.117.007-.032.008-.032.008-.052.032-.02.024-.013.04-.027.068-.016.027-.026.032-.027.07.001.036.006.013.015.058.007.042 0 .055.036.057"/><path fill="#BDF" d="M6.9 8.81c.032.033.069.098.097.12.029.023.042.02.062.05.02.032.045.044.084.066a.58.58 0 0 1 .137.118c.026.038.034.053.057.074.023.023.143.066.184.097.042.03.082.045.123.065.038.02.119.02.138.04a.1.1 0 0 0 .09.018c.034-.007.031-.003.068.005.037.01.177.026.217.03.04.003.104.017.13.003.025-.014.048.005.074.028.025.023.082.011.116.003.034-.009.051.014.093.003.043-.012.148.009.185 0 .036-.01.045-.026.084-.022.041.002.137-.058.158-.088.019-.032.042-.023.063-.045.023-.023.084-.023.12-.028a.82.82 0 0 0 .133-.043c.027-.012.077-.043.102-.038.026.006.16-.059.19-.067.032-.009.103.038.126.06.022.02.026.038.048.05.022.012.056-.012.09.023.035.033.226.104.247.11.02.006.025 0 .059-.006.034-.005.029.006.054.035.025.028.045.033.07.056.02.023.065.048.085.074a.312.312 0 0 0 .083.063c.026.011.04.005.056.025.018.018.08.092.103.09.024-.003.032-.003.058.025a.423.423 0 0 0 .12.079c.03.013.054.037.067.067.016.027.052.038.096.104.043.066.221.251.236.283.015.033.035.005.023.029-.01.022-.023.046-.046.107-.025.063-.03.058-.039.11-.01.052-.01.047-.047.043-.038-.005-.063-.048-.109-.063-.047-.012-.075-.051-.114-.08-.038-.028-.052-.051-.11-.045-.056.004-.075-.03-.122-.035a.55.55 0 0 1-.18-.052.264.264 0 0 0-.124-.038.27.27 0 0 1-.113-.038c-.03-.014-.087-.056-.12-.07-.035-.015-.066-.043-.11-.047-.042-.005-.046-.038-.07-.043-.025-.005-.052-.025-.081-.061-.027-.038-.046-.035-.076-.044-.029-.009-.061-.014-.09-.033-.028-.02-.056-.02-.09-.022-.034-.005-.038.013-.09.019-.054.002-.133-.048-.19-.029-.057.018-.213-.01-.28.013-.066.025-.132.038-.171.048-.037.01-.08-.004-.142.019-.062.024-.142.038-.18.047-.038.012-.044.018-.086.029a1.28 1.28 0 0 0-.27.17c-.048.042-.115.047-.158.113-.042.066-.084.066-.113.104-.029.038-.063.043-.07.084-.01.044-.071.134-.058.172.013.037-.01.052-.023.099-.015.046-.051.047-.076.092-.047.09-.011.035.037.073.049.039.082.028.1.005.02-.023.109.023.152.034.042.009.038.037.093.065.058.028.065.009.109.005a.228.228 0 0 1 .125.017c.038.019.1.023.137.033.038.007.076.036.137.02.062-.014.077.01.133.033.059.023.076.005.123.01s.086-.027.124-.015c.038.015.08-.009.13 0 .046.01.05.025.093.015.043-.01.072-.033.115-.046a4.42 4.42 0 0 1 .238-.072c.023-.004.05.009.06-.02.01-.026.11-.08.133-.103.024-.024.099-.015.133-.062.033-.046.14-.109.175-.147.032-.037.227-.136.257-.15.028-.014.042-.042.051-.089.01-.048.104.018.143.043.029.018.06.03.094.037.042.009.067-.005.096.028.027.033.123.085.151.11.03.023.075.051.104.084.03.033.124.056.124.056s.014-.051.032.033c.02.086.092.138.147.215.057.074.044.012.039.065-.007.052-.039.08-.033.169a.64.64 0 0 1-.01.194c-.014.099-.035.115-.02.176.015.061-.005.061-.015.113a3.492 3.492 0 0 0-.023.175c-.01.091-.02.071-.011.183.011.113.001.09-.022.167a.852.852 0 0 0-.023.264.482.482 0 0 1-.015.17c-.015.062-.009.095-.015.152-.004.057-.004.132-.004.198 0 .068-.035.339-.018.378.017.038-.005.083-.027.14-.022.054-.045.067-.042.119.005.052-.001.053-.036.109-.034.055-.009.047-.013.11-.004.065-.018.052-.06.1a.334.334 0 0 0-.087.159c-.003.048.005.043-.04.072-.041.031-.027.065-.055.135-.026.069-.021.059-.046.106-.027.048-.01.074-.039.126-.031.05-.013.072-.01.132.005.06 0 .043-.02.091-.023.048-.023.025-.015.06.045.011.093-.012.128-.02.036-.007.028-.016.064-.005.035.013.08.013.114.016.038.005.1-.003.147 0 .05.005.026-.022.061-.058.035-.036.03-.065.06-.092.032-.028.015-.072.046-.139.033-.068.033-.096.042-.152.008-.056 0-.075.015-.135.017-.06.017-.052.036-.087.021-.035.017-.069.017-.116s0-.087.022-.139c.024-.051.016-.063.02-.119.004-.057-.016-.075-.007-.142.007-.069-.01-.061.028-.14.036-.08.041-.028.048-.075.007-.047 0-.06.003-.108.004-.047.017-.035.017-.075 0-.039-.02-.06-.027-.107-.01-.047-.01-.056 0-.076.007-.02.003-.062 0-.123-.005-.059-.01-.098 0-.14a.287.287 0 0 0 0-.106c-.01-.042-.01-.084-.01-.135v-.207c0-.055-.022-.032-.015-.079.007-.048.02-.04.01-.072-.007-.032 0-.06 0-.117 0-.061-.003-.072.021-.13a.52.52 0 0 0 .018-.202.5.5 0 0 1 0-.155c.006-.06.014-.075.017-.126.004-.053.004-.076.021-.108.016-.032.008-.064.028-.124.02-.059.008-.095.004-.142-.004-.049-.007-.067.015-.115.025-.047.014-.072.018-.111.003-.04-.014-.069-.037-.08-.025-.012-.035-.004-.035-.036s-.025-.06-.04-.087c-.015-.027-.015-.055-.015-.108 0-.05-.01-.067-.018-.119-.007-.05-.012-.06 0-.099.013-.04.004-.054 0-.098-.004-.045.024-.037.028-.08.004-.044.024-.068.036-.108.011-.04.011-.079.024-.103.011-.024.023-.042.042-.089.025-.053.04-.101.025-.12-.016-.022.002-.022-.035-.102-.036-.079-.008-.107-.032-.163-.025-.056-.044-.09-.068-.151-.025-.06-.02-.095-.04-.134-.021-.04-.032-.159-.032-.159s.028-.017.02-.036c-.01-.02-.018-.06-.03-.084-.011-.023-.017-.052-.03-.091-.012-.038.013-.048-.012-.095a.396.396 0 0 0-.075-.107c-.036-.041-.026-.049-.028-.089-.003-.038-.033-.058-.064-.086-.032-.027-.056-.088-.08-.112-.023-.023-.036-.028-.047-.079-.012-.051-.036-.068-.081-.099-.043-.033-.077-.096-.111-.128a.186.186 0 0 1-.067-.091c-.025-.051-.036-.08-.058-.12a.931.931 0 0 1-.05-.115c-.008-.027.014-.051.011-.115a.338.338 0 0 1 .013-.127c.007-.036.024-.064.016-.103-.008-.04-.016-.069-.016-.107 0-.04-.01-.08-.031-.095-.026-.016-.033-.04-.042-.068-.008-.027-.033-.054-.051-.092a.46.46 0 0 0-.065-.094c-.023-.028-.019-.053-.05-.115-.032-.064-.01-.077-.03-.116-.02-.04-.027-.092-.063-.113-.036-.018-.084-.078-.128-.098-.045-.02-.052-.024-.075-.02-.024.004-.08-.043-.108-.067a.929.929 0 0 0-.156-.096c-.04-.016-.128-.073-.169-.087-.038-.016-.13-.035-.159-.02-.027.016-.023.016-.046.035-.025.021-.07-.004-.1-.004l-.22-.006s-.03.007-.052.026c-.025.02-.044-.008-.108 0-.064.01-.072.01-.068.05.004.038.004.047.036.09.032.044.04.04.04.06 0 .019.031.047.05.075.021.028.024.045.03.1.003.056 0 .08.01.146.012.069.013.112.05.15.034.034.031.073.07.13.04.055.021.055.025.123.003.067.015.067.047.107.032.038.045.095.08.142.038.048.06.036.093.076.03.04.016.026.048.072.033.043.036.039.07.059.037.02.084.107.116.16.033.05.06.05.096.086.036.037.08.024.125.04.043.016.102.004.142.008.04.004.104.008.136.004.032-.004.088.008.126 0 .042-.008.07-.015.113-.008.045.008.14.148.156.18.02.032.05.057.085.07.036.017.036.052.04.077.003.023.02.039.03.067.013.028.05.06.073.096l.228.36c.018.032.03.061.023.084-.009.024.007.039.027.08.022.04.017.055.031.083.017.029.028.049.025.08-.004.033.016.06.016.1 0 .039.009.055.023.107.017.052.032.274.037.396.003.125-.033.043-.068.025-.036-.016-.106-.091-.148-.106-.04-.017-.143-.109-.176-.128-.031-.02 0-.052-.028-.067-.026-.017-.098-.089-.15-.105-.051-.015-.183-.104-.219-.114-.037-.011-.103-.073-.124-.068-.021.005-.076-.015-.101-.04-.023-.024-.122-.075-.159-.1a1.894 1.894 0 0 0-.279-.106c-.04-.007-.037-.048-.037-.088 0-.04-.032-.083-.044-.114-.012-.033-.015-.04 0-.08.017-.04-.007-.055-.026-.087-.021-.03-.008-.044-.008-.08 0-.036-.03-.06-.06-.064-.033-.004-.123-.115-.177-.147-.052-.032-.2-.15-.25-.175-.052-.024-.189-.135-.224-.154-.036-.02-.304-.142-.346-.16-.045-.015-.068-.03-.132-.015s-.14-.012-.22-.027a.532.532 0 0 0-.195-.005c-.069.007-.165-.016-.224-.008a1.42 1.42 0 0 0-.171.035c-.015.009-.036.025-.056.037-.02.012-.064.022-.095.032-.033.008-.049-.032-.072-.021-.025.011-.103.03-.137.048-.035.017-.058.032-.093.037a.284.284 0 0 0-.117.044c-.049.029-.049.032-.083.034-.033.002-.063.027-.088.048a.102.102 0 0 1-.084.025c-.032-.003-.054.026-.077.051-.023.026-.077.031-.1.052-.022.018-.138.06-.176.095-.038.036-.01.045.003.084.013.041.031.007.066.034.034.028.07.06.103.086a.238.238 0 0 1 .079.095c.016.037.055.054.084.077.027.022.054.053.084.084m2.96 1.79c-.102.065-.16.133-.185.133-.025 0-.077.016-.088.036a.667.667 0 0 1-.29.192c-.047.006-.085.02-.117.03-.035.013-.05.027-.095.021A2.44 2.44 0 0 0 8.898 11c-.036 0-.084-.027-.124-.03-.04-.003-.084-.011-.114-.01-.029.005-.023-.003-.066-.003-.042 0-.048.016-.092.004-.045-.01-.031-.01-.087-.018-.053-.01-.08-.004-.08-.004l-.02-.025s-.012-.013-.044-.009c-.03.006-.041.013-.07 0-.028-.011-.048.023-.065-.004-.017-.03-.009-.017-.034-.053-.025-.038-.049-.035-.034-.062.014-.024.032-.013.05-.042.02-.028.029-.047.02-.078-.009-.033-.01-.037.004-.055.014-.016.036 0 .056-.027.018-.028.033-.047.028-.063-.008-.014.017-.028.028-.045.012-.017.026-.017.046-.048.02-.03.037-.039.068-.07.03-.032.02-.04.051-.054.03-.015.035-.002.065-.026.031-.023.035.004.072-.023.036-.025.042-.005.083-.03.045-.026.067-.008.094-.026.029-.02.037-.004.1-.027.065-.023.11-.023.179-.026.069-.005.146-.024.183-.033.035-.01.159.023.212.023.056 0 .147.027.201.037.055.007.074.036.119.059.046.023.048.042.073.05.026.007-.002.034-.051.036-.048.003-.07 0-.108.023a.165.165 0 0 1-.13.014.146.146 0 0 0-.11.003.687.687 0 0 1-.162.029c-.04.002-.054 0-.1.016-.039.015-.077.03-.116.043-.054.02-.08.03-.116.04-.037.008-.044.03-.096.059-.054.029-.103.042-.148.073-.045.03-.04.048-.004.053.037.007.052.014.083-.001.031-.019.126-.022.15-.03.025-.008.05-.006.085-.025.037-.02.063-.011.117-.031.053-.02.097-.003.134-.017.037-.013.032-.017.088-.025.056-.009.062-.02.115-.014.055.005.083.019.13.017.042-.003.123.016.154.009.032-.01.092.013.134-.004.041-.017.102-.011 0 .054m.661-3.137c-.022.006-.026.006-.025.042.003.035.003.05-.008.066-.013.014-.02.051-.02.051s-.007.025.003.054c.01.03-.003.044.013.07.015.03.042.085 0 .057-.042-.03-.032-.023-.064-.049-.034-.027-.078-.05-.083-.079-.002-.029.007-.048-.024-.07-.033-.023-.033-.011-.063-.057-.03-.05-.079-.096-.108-.127a.803.803 0 0 0-.11-.105c-.03-.018-.034-.03-.072-.042-.04-.012-.067 0-.087-.025-.019-.027-.026-.033-.075-.033-.05 0-.017.062.013.082.029.018.052.04.074.06.024.02.06.055.07.085.008.028.003.032.044.064.043.032.08.05.104.085.026.034.052.025.066.062.012.034.024.04.04.076.016.035.01.069.04.097.03.03.098.124.036.104-.038 0-.069.01-.128.007-.057-.004-.1.005-.132-.023-.034-.03-.114-.063-.146-.085-.032-.023-.124-.065-.138-.087-.011-.023-.07-.064-.096-.09-.026-.027-.04-.033-.061-.075-.023-.043-.04-.065-.062-.094-.023-.03-.046-.046-.049-.094-.005-.049.022-.046-.019-.088-.042-.041-.092-.049-.096-.104-.004-.054.01-.067-.011-.099-.024-.033-.034-.044-.05-.098-.016-.056-.019-.061-.036-.115-.016-.056-.019-.07-.035-.104-.016-.036-.014-.021-.033-.1-.02-.082-.051-.092.013-.092.066 0 .097.01.149.017a.727.727 0 0 1 .198.042c.033.02.051.055.108.06.055.008.12.037.193.052.07.019.066.021.1.046.026.024.06.04.095.043.038.003.072.028.105.065a.326.326 0 0 1 .065.09c.023.04.053.065.075.078a.19.19 0 0 1 .062.082c.012.03.036.086.062.093.026.006.03.045.049.075.019.028.043.073.057.076.013.004.013.047-.005.053M6.943 8.5c.01-.047.028-.063.064-.1.036-.034.13-.046.156-.079.027-.031.072-.036.104-.07.033-.037.036-.044.092-.056a.635.635 0 0 0 .147-.06.395.395 0 0 1 .088-.037c.04-.011.1-.002.142-.023.045-.02.026.016.07.02a.938.938 0 0 0 .214-.02.977.977 0 0 1 .248-.016c.037.009.068.032.1.016s.076-.004.152.023c.075.03.319.132.398.16.08.027.075.056.119.072.044.017.084.04.12.07.042.037 0 .057.04.088.04.032.028.047.08.095.051.048.055.093.067.14.012.047.06.103.008.067-.05-.036-.075-.063-.146-.071-.073-.008-.184-.052-.281-.068-.096-.016-.21-.032-.263-.056a1.878 1.878 0 0 0-.33-.09c-.064-.008-.115-.004-.163-.017-.053-.012-.062-.008-.12-.008-.061 0-.134.024-.169.032s-.094-.028-.111.011c-.015.04-.028.072-.068.049-.04-.024-.096-.048-.08-.005.016.045.01.076.01.096 0 .02.054.024.086.016a.49.49 0 0 1 .151-.012.33.33 0 0 0 .176-.008c.06-.024.083 0 .14.013.056.011.088-.025.115.019.028.043.072.06.14.049a.352.352 0 0 1 .188.03c.051.02.147.056.207.069.06.01.152.057.207.078.056.023.096.084.14.076.044-.008.047-.004.096.012.048.015.12.043-.008.09-.127.048-.188.065-.223.084-.037.02-.112.055-.14.08-.028.023-.084 0-.148.005a.692.692 0 0 0-.194.038c-.057.02-.133.029-.19.036-.055.008-.094.023-.139-.007a.817.817 0 0 0-.298-.096c-.076 0-.12-.028-.128-.04a.316.316 0 0 0-.073-.035s-.06-.016-.075-.023a1.33 1.33 0 0 0-.089-.037l-.063-.03s-.048-.045-.099-.08c-.052-.037-.04-.052-.085-.076-.042-.025-.059-.056-.1-.081-.04-.023-.087-.023-.079-.05.008-.03-.025-.067-.048-.072-.023-.004-.047-.004-.068-.028-.02-.024-.02-.047-.023-.075-.003-.028-.088-.052-.064-.108m6.104-2.342a.128.128 0 0 1 .078.08c.015.039.01.027.042.01.03-.018.04.003.074 0 .035-.004.048.02.091-.01.042-.027.03-.042.026-.077-.004-.035-.003-.04.014-.072.018-.032.012-.042.008-.082-.003-.037-.031-.042-.054-.074a.1.1 0 0 0-.065-.043c-.027-.005-.042-.018-.081-.018-.037 0-.06-.005-.097.016a.124.124 0 0 0-.065.057c-.016.029-.033.05-.033.087-.001.008-.007.02-.01.051-.002.033.03.058.072.075m2.226 1.3c.043.052.076.038.12.038.048 0 .036.017.051-.019.015-.038.023-.024.067-.044.042-.022.038-.027.042-.064.008-.038-.002-.058-.008-.096-.004-.036-.017-.042-.043-.065-.026-.023-.032-.02-.047-.046-.014-.027-.042-.018-.066-.035-.024-.018-.038-.018-.061-.004-.023.016-.039.02-.066.03-.029.012-.038.014-.035.037.002.023-.006.03-.024.058-.017.029-.019.025-.019.068.009.058.009.032.028.077.021.043.017.013.061.065"/><path fill="#BDF" d="M16.992 8.309c-.021-.041-.014-.072-.066-.075-.053-.003-.053 0-.087.016-.035.017-.04-.011-.074-.03-.033-.02-.062-.052-.104-.074a1.597 1.597 0 0 1-.175-.095c-.051-.034-.059-.037-.11-.028-.053.012-.062-.022-.095-.043-.034-.02-.078-.028-.118-.041-.036-.014-.092 0-.123-.02-.031-.022-.035-.024-.097-.004-.061.022-.125-.014-.185-.014s-.155.014-.209.005c-.055-.011-.23.016-.281.013-.051-.005-.131.027-.188.048-.059.02-.039.023-.08.063-.04.042-.056.014-.103.024-.048.01-.011-.027-.06-.01-.053.018-.066.041-.097.065a.301.301 0 0 1-.105.056.43.43 0 0 0-.165.147c-.04.056-.038.048-.071.109-.035.061-.041.064-.07.12-.026.055-.033.075-.065.113-.03.038-.04.028-.083.065-.04.037-.023.027-.053.047a.117.117 0 0 1-.08.025c-.028 0-.037.026-.069.06-.03.034-.023.025-.058.052-.034.027-.034.018-.066.027-.03.01-.019.035-.055.059-.033.023-.05.03-.067.054-.016.025-.021-.006-.05.004-.032.01-.054.056-.072.088-.022.031-.04.02-.075.024-.034.003-.03.014-.05.052-.021.037-.025.03-.045.047-.02.018-.028.004-.076.024s-.062.034-.068.051c-.006.018-.036.04-.078.065s-.077.062-.118.099c-.042.038-.18.15-.23.218-.053.07-.069.043-.103.083-.035.04-.075.064-.128.137-.05.071-.052.065-.074.085-.047.048-.043.047-.098.109-.056.061-.038.055-.078.092-.042.038-.027.077-.094-.012-.021-.026-.023-.051-.044-.086-.019-.035-.04-.011-.04-.052 0-.041-.02-.058-.052-.11-.029-.051-.026-.033-.007-.07.022-.04.018-.036.06-.08.047-.045.063-.079.085-.124.02-.044.04-.078.07-.14.026-.061.032-.057.03-.105-.004-.048-.007-.051.027-.062.033-.01.066-.078.116-.116.052-.037.072-.085.096-.143a.841.841 0 0 1 .099-.176c.046-.062.056-.068.102-.096.045-.027.093-.104.135-.136.04-.035.09-.05.119-.035.031.013.032.018.075.015.04-.003.043.003.06.034.018.03.063 0 .087-.023.023-.024.036-.028.099-.048s.053.017.083-.017c.03-.034.075-.097.136-.131a.582.582 0 0 0 .172-.201c.035-.062.163-.192.19-.232.027-.042.073-.08.126-.13.055-.053.07-.1.114-.193.045-.093.062-.11.082-.175.021-.064.01-.042.039-.103.032-.062.012-.09.006-.127a.367.367 0 0 1-.003-.115c.004-.048.017-.075.034-.115.018-.042.011-.06-.002-.082-.015-.025-.025-.05-.015-.083.012-.035-.01-.062-.023-.082-.014-.02 0-.044 0-.088 0-.046-.01-.056-.045-.094-.034-.038-.034-.026-.052-.065-.02-.037-.027-.068-.081-.103-.054-.035-.054.005-.102.046-.05.041-.057.037-.093.037-.034 0-.042.027-.098.054-.059.027-.065.038-.135.098-.069.062-.057.032-.107.055-.05.022-.056.015-.124.064-.07.05-.093.03-.177.095-.085.064-.11.05-.165.114-.052.064-.056.057-.067.114-.012.056 0 .016 0 .045 0 .031-.033.039-.062.1-.027.06-.037.034-.02.09.02.057-.024.027-.071.066-.022.02-.05.025-.062.102-.011.076-.026.053-.042.122-.014.069 0 .036-.01.056-.012.02-.009.02-.016.054-.007.034.012.019-.011.054-.023.033-.038.038-.042.08-.005.04-.012.052-.023.072-.012.018-.02.022-.02.06 0 .039.008.053 0 .08a.228.228 0 0 0 0 .101c.008.027-.003.059-.003.096 0 .037-.004.05-.004.05s-.007.022 0 .04c.007.02.03.012.034.028.004.015.011.06.004.08-.007.018-.03.035-.061.06-.03.027-.069.095-.092.133-.022.038-.041.065-.072.138-.03.072-.058.087-.065.117-.007.03 0 .034-.034.064-.034.031-.033.023-.06.039-.028.015-.02.03-.058.064-.039.034-.042.046-.06.099-.02.053-.047.083-.065.121-.02.038-.027.038-.039.092-.011.052-.03.05-.073.079-.042.03-.034.027-.071.061-.04.034-.016-.042-.016-.096 0-.053-.01-.049-.003-.095.007-.044-.011-.044-.024-.08-.01-.034.008-.059-.016-.09-.024-.03 0-.038.012-.034.017.003.021-.031.021-.031l-.005-.05s-.02-.05-.024-.072A.251.251 0 0 1 11.967 9c.014-.031.018-.054 0-.087-.014-.035-.007-.038.014-.087.019-.05.005-.08.005-.117 0-.043-.004-.06.004-.085.009-.032.018-.07.01-.087-.008-.019-.004-.034-.01-.088-.008-.054-.002-.062.003-.114.01-.08-.011-.078.011-.136.023-.057 0-.038.02-.15.018-.11.003-.063.046-.094.043-.029.052-.075.106-.135.054-.062.03-.07.058-.085.027-.015.041-.034.083-.083.042-.05.038-.035.065-.058.026-.021.038-.03.046-.065.008-.033.03-.082.04-.124a.338.338 0 0 1 .055-.106c.023-.034.035-.06.027-.092a.213.213 0 0 1 .008-.11c.011-.042.019-.045.011-.084-.007-.038-.004-.052.008-.102.012-.049.003-.057.012-.098.006-.043.022-.05.017-.074-.004-.02 0-.054-.004-.105-.004-.05.017-.064.009-.11-.009-.046 0-.065.004-.11.005-.046-.01-.069-.013-.118-.004-.05-.022-.08-.037-.11-.014-.03-.03-.076-.042-.094a.311.311 0 0 1-.034-.089c-.004-.025-.004-.026-.022-.069-.02-.042-.047-.064-.073-.116-.026-.055-.016-.071-.046-.1-.03-.03-.043-.033-.058-.072-.015-.039-.056-.072-.08-.102-.022-.031-.016-.05-.05-.066-.034-.015-.038-.068-.042-.099-.003-.03-.052-.086-.088-.113a.283.283 0 0 1-.065-.07c-.014-.024-.014-.043-.007-.082.007-.038-.021-.069-.04-.111-.018-.042-.062-.002-.089.012-.027.015-.048.05-.065.076-.014.025 0 .05-.004.091-.004.042-.025.06-.046.083l-.045.06s-.038.054-.057.089a.173.173 0 0 1-.073.071c-.028.016 0 .023-.045.08-.047.056-.05.08-.084.134-.034.052-.07.105-.089.14-.017.033-.03.098-.044.128a.306.306 0 0 1-.054.066l-.03.053-.011.084s-.038.094-.067.155c-.032.061-.009.036-.009.036s-.003.038-.023.08c-.02.041-.014.049-.022.102a.473.473 0 0 0-.003.135c.006.043-.004.057-.021.118-.015.06-.009.04.008.067.012.027.009.02.012.042.002.023.019.06.025.084a.343.343 0 0 0 .034.094c.009.02.005.04.006.076.003.036-.005.044.028.066.033.023.002.039.002.081 0 .04-.006.038 0 .076.007.04.018.03.041.06.027.03.028.02.028.045 0 .024-.007.022.007.055.015.033.024.044.044.08.02.035.027.058.046.087.02.03.033.004.048.03.013.024.044.041.079.072.036.03.048.027.08.03.033.003.052.013.083.01.028-.002.053-.013.084-.022.028-.008-.005-.059-.024-.094a.541.541 0 0 1-.042-.079c-.022-.035-.013-.049-.03-.06-.016-.011-.031.016-.038.002-.006-.013-.021-.026-.048-.045-.024-.02-.045-.04-.076-.05-.03-.012-.044-.052-.062-.075-.02-.021-.008-.041-.012-.065-.002-.025-.008-.044-.011-.08-.003-.036 0-.051-.014-.063-.015-.01-.017-.041-.044-.073-.028-.033-.038-.023-.024-.05.012-.027.014-.05.013-.108-.003-.058-.02-.061-.03-.107-.012-.046-.029-.02-.054-.07-.024-.053.01-.062.025-.147.018-.085-.002-.033.018-.074a.268.268 0 0 1 .052-.088c.028-.038.02-.052.04-.105.023-.052.028-.084.047-.134.02-.049.025-.033 0-.068-.024-.037.023-.037.06-.044.034-.01.034-.031.045-.071.012-.042.03-.056.057-.112.027-.054.03-.054.042-.095.014-.04.04-.062.08-.098.041-.037.03-.039.035-.059.003-.018-.005-.024.02-.054.028-.03.023-.032.05-.065.026-.028.042-.05.09-.103.05-.052.033-.024.035-.002.01.021.01.033.03.076.025.044.023.03.035.055.012.025.029.05.03.075.004.024.02.058.036.077.017.02.046.065.06.085.017.017.027.024.031.042l.03.089c.016.047.042.057.06.128.013.072.038.075.065.123.027.05.021.066.03.133.008.07.01.075.02.135.008.06.02.03.024.07.003.041 0 .072.011.113.011.04.006.057 0 .121-.006.063.017.059.025.09a.38.38 0 0 1 0 .139c-.008.032-.016.032-.023.07a.2.2 0 0 0 .007.116c.016.038.008.036-.025.063-.033.027-.038.03-.074.065a.329.329 0 0 0-.067.083c-.023.035-.043.053-.057.068-.018.017-.033.013-.071.061-.04.05-.034-.01-.04-.052-.006-.04-.013-.03-.033-.06-.018-.031.004-.015-.025-.033-.026-.02-.018-.031-.039-.061-.019-.03-.014-.027-.023-.065-.004-.04-.017-.048-.023-.059-.01-.01-.011-.027.006-.06.021-.034.01-.027.01-.066.003-.038.003-.028-.012-.048-.007-.023-.028-.037-.05-.06-.015-.021-.022-.021-.01-.06.015-.038.015-.06.02-.092.006-.034.007-.042.02-.061a.053.053 0 0 0 0-.06c-.009-.015-.016-.034-.034-.065-.01-.03-.014-.032-.04-.01-.021.022-.031.038-.036.085-.004.047-.004.04-.028.071-.023.03-.025.052-.046.099-.022.046-.012.043-.012.099 0 .055 0 .043-.003.09-.002.046.005.044.01.08.007.035.018.019.023.06.006.042.013.052.013.088 0 .035.015.044.032.104.016.061.02.072.036.121.012.05.021.124.031.168.008.044.017.054.02.09 0 .035-.008.03-.02.077-.017.047 0 .038.002.077.004.038.015.021.015.063 0 .042-.017.017-.04.074-.023.057-.002.04-.002.085 0 .045-.003.234-.005.263-.003.042.017.114.005.135a.986.986 0 0 0-.021.238c.004.04-.014.122-.01.155a.114.114 0 0 1-.008.071c-.01.027-.005.033-.007.068-.003.037.007.168.002.193-.005.025-.01.025-.002.056.005.03.001.027-.018.062-.02.036.008.033.018.077.008.044.001.058-.013.11-.014.053.02.064.024.105.001.041.024.057.017.103-.007.047 0 .064-.012.096-.01.034.054.017.057.058.004.043.018.063.023.107.006.044.02.042.066.058.046.017.025.01.025.051 0 .042.002.042.013.095.008.052.009.02.023.057.015.035.012.039.023.07.01.029.053.035.078.09.023.054.02.034.054.06.033.023.033.027.048.076.013.05.033.06.069.058.034-.002.05-.016.043.06-.009.077-.013.062-.049.137-.036.077-.032.069-.038.118-.006.05.017.056.057.13.038.073.015.058.01.117-.008.062-.015.054.005.1.018.043.01.033-.013.096-.02.063-.011.055-.007.111.002.06.015.04-.004.117-.015.077-.015.074-.035.13-.02.055.008.018.026.055.015.035-.013.051-.023.123-.01.072-.016.066-.02.132-.002.065.013.048.006.108-.006.062-.017.075-.024.128a.434.434 0 0 0-.006.145c.006.077-.006.074-.014.122-.008.051-.004.035.014.073.02.038.02.046.006.115-.014.068-.006.057-.01.099-.001.04.009.033-.007.1-.012.065.008.068.003.106-.005.04-.005.039.005.106.011.07.008.086-.01.136-.016.048-.004.035.01.12.015.086-.014.203-.01.339.002.133 0 .117-.004.197-.002.078 0 .052-.006.093-.009.04.006.033.023.061.018.027.012.041.006.096-.005.053 0 .034-.013.083-.014.046.014.021.028.076.015.055.005.068.019.128.013.06.013.047.025.072.011.024.004.026-.018.06-.018.034-.002.03.037.067.038.034.023.03.053.064.03.035.011.022 0 .036-.012.014-.033.014-.015.035.02.023.028.028.052.057.032-.022.055-.012.07-.012.019 0 .043 0 .085.028.04.029.042.011.088.024a.44.44 0 0 1 .12.062c.02.017.092.017.148.027.054.01.041-.024.017-.079-.024-.054.003-.068-.004-.123-.007-.054-.02-.057-.052-.106-.036-.047-.032-.051-.032-.081 0-.031 0-.037-.024-.073-.024-.033-.024-.058-.053-.092-.028-.034-.028-.075-.064-.126-.039-.052-.029-.055-.035-.1-.006-.045 0-.061 0-.134 0-.07-.01-.14.006-.188.02-.047.008-.06-.012-.078-.022-.017-.022-.058-.035-.123-.014-.065-.021-.07-.037-.146-.018-.075-.014-.058-.018-.11a.398.398 0 0 0-.027-.136c-.017-.052-.015-.079-.027-.13-.014-.052.008-.061.035-.093.026-.03.007-.052.003-.1-.003-.048 0-.085-.003-.135a.37.37 0 0 1 0-.093.5.5 0 0 0 0-.096.424.424 0 0 1 0-.1c.003-.05-.004-.044.003-.099.008-.054.01-.071.027-.125.017-.056.008-.07-.004-.146-.009-.073.009-.088.024-.108.018-.021.025-.021.018-.08-.008-.057.01-.061.007-.1-.003-.035.017-.053.01-.121-.006-.07.018-.072.053-.12.034-.048.03-.058.016-.076-.012-.016-.013-.037-.016-.082-.003-.045.017-.045.006-.092-.009-.05 0-.051 0-.104 0-.051.008-.037.013-.102.008-.065-.002-.075 0-.119.004-.046.01-.066.04-.096.026-.03 0-.051-.022-.107-.02-.054-.02-.075-.044-.136-.024-.061 0-.072-.008-.12-.006-.048-.019-.043-.043-.096-.025-.05-.034-.026.009-.071.047-.045.055-.075.086-.124.032-.046.01-.03.018-.057.007-.028.037-.037.069-.062.03-.025.037-.051.054-.099.018-.046.028-.046.076-.071.047-.024.058-.011.113-.011s.088.003.127.036c.037.03.048.011.09-.005.041-.018.066-.014.104.004a.216.216 0 0 0 .11.017c.052 0 .05.02.081.006.03-.014.12.02.161.034.042.015.028.017.018.064-.012.05.01.063.012.098.004.033.02.046.014.086-.002.043.036.056.056.073.02.016.053.044.053.086 0 .041.043.065.064.098.02.035.09.081.134.135.044.054.083.064.116.101.035.04.062.041.097.06.034.016.069.058.113.073.044.018.086.029.126.041.041.016.135.043.18.05a.883.883 0 0 1 .102.02c.025.007.076.014.096.033.02.02.437.01.49.018.057.007.145-.015.173-.008.027.008.109-.02.134-.032a.415.415 0 0 1 .178-.046c.05.008.046-.007.069-.027.025-.02.03.003.038-.034.007-.038-.013-.058-.057-.088-.048-.032 0-.028-.022-.056-.021-.027-.01-.033-.014-.07-.002-.039 0-.05.004-.104.004-.054-.006-.048-.037-.075a.296.296 0 0 1-.06-.07c-.023-.033 0-.036-.006-.091-.007-.055-.03-.058-.065-.092-.034-.034-.034-.048-.083-.093a1.045 1.045 0 0 0-.147-.119c-.026-.015-.023-.069-.075-.086-.051-.018-.155-.089-.182-.106-.028-.018-.16-.06-.202-.09-.042-.026-.203-.023-.251-.029-.047-.007-.205-.034-.271-.025-.065.01-.08.008-.127.017-.048.01-.106.003-.171.03-.066.028-.136-.004-.212.007-.072.01-.152.004-.188.01a.371.371 0 0 1-.127-.006c-.03-.006-.078-.03-.133-.024-.055.008-.108-.02-.128-.02-.018 0-.061-.01-.076-.01-.013 0 .027-.027-.085-.017-.113.01-.131-.01-.092-.031.037-.021.04-.064.086-.096a.861.861 0 0 0 .128-.102c.042-.046.052-.065.08-.089a.849.849 0 0 0 .09-.088c.006-.014.006-.044.046-.08.036-.033.107-.075.143-.102.033-.027.067-.074.105-.088a.213.213 0 0 0 .084-.052.673.673 0 0 1 .201-.113c.138-.061.103-.031.142.023.038.055.068.024.113.055.044.031.087.063.137.083.05.02.092.065.144.089.052.024.125.007.191-.007a.484.484 0 0 0 .133-.041c.055-.023.067.024.124.024.053 0 .1.033.138.03.036-.002.112.011.166.015.056.003.087-.017.12-.014.029.002.145-.01.19-.047.043-.04.032-.028.102-.055.072-.028.084-.049.158-.09.076-.04.158-.046.234-.078.077-.03.084-.068.144-.07.063-.004.079-.056.168-.121.09-.064.252-.232.3-.267.047-.033.087-.054.143-.085.056-.031.066-.052.094-.094.027-.04-.01-.046-.028-.088m-4.06-.285c.018-.05.029-.039.029-.108 0-.068 0-.064.008-.127.009-.063-.011-.034.02-.09.032-.054.032-.071.067-.094.035-.023.05-.043.055-.067.006-.023.016-.04.06-.062.041-.024.056.001.09-.05.03-.052.029-.042.069-.088.039-.05.046-.039.059-.068.009-.028.007.015.053-.019.046-.036.053-.044.082-.073.027-.029.054-.017.106-.09a.42.42 0 0 1 .163-.135c.057-.028.069-.02.119-.073.045-.051.057-.018.106-.058.05-.041.06-.125.078-.062.018.063.02.05.043.102.024.051.032.069.026.091-.006.024-.012.04.009.07.02.028-.017-.015 0 .063s-.02.03.061.121c.028.031-.015.104-.03.14-.014.039-.017.08-.031.12-.015.039.017.02-.004.061-.02.045-.023.048-.045.083-.023.034-.039.057-.043.088-.007.032-.052.08-.062.116-.008.035.004.038-.025.078-.028.04-.003-.003-.052.037a.262.262 0 0 0-.088.1c-.029.051-.046.059-.072.093-.026.035-.026.045-.04.065-.016.015-.016.036-.056.074-.039.038-.054.005-.088.042-.037.04-.027.06-.07.07-.044.012-.049.026-.074.055-.028.03-.028.03-.058.044a.512.512 0 0 0-.067.035c-.015.007-.019.028-.039.01-.02-.016-.026-.002-.053-.023-.025-.018-.011-.033 0-.07.012-.039.01-.059.036-.075.027-.018.028-.027.053-.061.022-.035.034-.052.048-.052.015 0 .017-.012.022-.037a.326.326 0 0 1 .013-.078c.007-.016.007-.007.045-.023.037-.018.06-.027.065-.044.007-.017 0-.026.007-.046.004-.02.049-.052.057-.078.009-.025.009-.022.034-.046.027-.023.052-.044.067-.078a.251.251 0 0 1 .054-.083c.03-.038.054-.046.076-.069.018-.024.025-.016.036-.062.01-.045.035-.086-.028-.058-.064.03-.08.06-.114.087-.037.026-.093.08-.123.091a.241.241 0 0 0-.08.065c-.038.04-.062.058-.105.093-.043.035-.05.06-.07.074-.027.015-.038.03-.057.081a.767.767 0 0 1-.093.165c-.035.046-.04.074-.048.098-.01.023-.016.042-.068.08-.052.038-.09.088-.12.06-.007-.032-.01-.04-.014-.074-.003-.035.004-.05.01-.075.005-.025.004-.02.005-.084.004-.064-.005-.06-.018-.094-.011-.036-.014-.03.003-.078m1.035 2.242c.033-.012.054.008.09.008a.29.29 0 0 1 .097.01c.03.008.045.021.093.046a.53.53 0 0 0 .11.046c.036.012.066.03.094.05.027.022.055.041.075.08.023.038.069.019.1.038.03.022.066.066.1.093.032.027.057.031.087.06.03.031.056.034.071.051.017.018.052.01.086.018.033.01.053.021.087.003.034-.018-.006-.063-.03-.06-.023.002-.03 0-.046-.042-.014-.041-.02-.038-.06-.041-.039-.004-.075-.06-.108-.085a3.954 3.954 0 0 1-.127-.099c-.038-.034-.06-.066-.084-.069-.024-.003-.033-.034-.037-.054-.003-.02-.04-.045-.078-.05-.035-.008-.091-.055-.166-.08-.076-.022-.112-.056-.051-.065.061-.008.106.007.133.011.027.008.042-.013.09-.02a.2.2 0 0 0 .09-.026.051.051 0 0 1 .07.011c.011.016.058.006.094.009.037.003.07.018.102.013a.226.226 0 0 1 .126.021c.04.017.07.017.116.039.044.02.083.056.123.075.04.017.009.032.004.056-.007.025.008.016.042.037.032.02.054.054.068.069.015.015.019.018.019.048 0 .03.037.018.048.026.012.009.022.037.022.037s.026.021.03.042c.003.02.02.02.04.047.024.03.026.046.043.074.018.027.04.042.05.066.01.025.025.05.025.087 0 .036.033.01.013.043-.02.034-.029.013-.07.02-.046.008-.053-.003-.07.024-.017.026-.022.017-.047.03-.024.014-.044.043-.071.034-.027-.007-.027-.013-.056.003-.028.019-.02.019-.062.025-.04.006-.074-.015-.123 0-.047.013-.119-.01-.183-.025-.065-.011-.17-.003-.228 0-.058.006-.123-.046-.164-.064-.04-.017-.04-.04-.105-.09-.065-.05-.113-.073-.169-.11a.954.954 0 0 1-.13-.098c-.02-.024-.032-.059-.056-.105-.024-.048-.048-.068-.065-.098-.018-.032-.041-.052-.059-.08-.015-.026 0-.06.009-.088m2.545-1.814c-.046.053-.07.084-.116.122-.046.038-.106.099-.135.121-.03.022-.043.057-.053.077-.008.02-.025.009-.069.034-.042.026-.073.038-.112.068-.04.027-.061.045-.095.068-.032.024-.023.026-.09.029-.067.002-.101-.003-.163.015-.061.017-.048.02-.11.005-.058-.014-.157.007-.162.041-.001.035-.019.037-.044.032-.027-.007-.116-.011-.154-.021a.101.101 0 0 0-.084.014c-.02.014-.057.01-.093.007-.034-.003-.028.003-.054-.021-.029-.023-.076-.003-.11 0-.035.004-.024-.02-.082-.017a.35.35 0 0 1-.144-.014c-.037-.014-.054-.046-.105-.041-.048.006-.034-.008-.056-.03-.025-.02-.036.007-.056-.024-.02-.033-.035-.052-.024-.077.013-.028.054-.022.097-.047.042-.027.106-.036.135-.066.03-.027.07-.02.098-.055.03-.034.037-.038.037-.038s.004-.008.047.004c.043.01.104.03.148.01.042-.02.087-.008.134-.005.045.002.126.014.169.005.044-.008.157.011.199.006.046-.006.096 0 .136-.023.042-.024.055-.017.092-.03.039-.01.06-.019.1-.034.042-.013.055.012.08-.032.02-.044-.01-.063-.1-.059-.091.002-.128.014-.163-.013-.034-.025-.034-.002-.1-.012-.067-.007-.103-.007-.177-.01s-.125-.003-.183-.012c-.057-.008-.096-.014-.122.003-.03.017-.06.011-.079.009-.015-.003-.002-.042-.056-.024-.053.018-.048.021-.088.024-.042.003-.063.005-.089.035-.02.029-.028.056-.057.039-.028-.017-.121.04-.078-.02.018-.022.03-.039.073-.068.043-.03.08-.047.124-.098.044-.052.078-.062.133-.091.056-.029.056-.035.095-.062.04-.03.056-.019.108-.037.053-.02.047 0 .1-.027.055-.027.072-.046.108-.027.038.021.097.02.142.013.047-.006.099.006.147-.02.05-.028.112-.03.125 0 .011.028.078.026.145.007.067-.016.126.013.177.036.048.022.156.05.202.074.046.024.088.022.12.038.03.017 0 .024.043.066.043.044.109.058.138.078.03.02 0 .022-.046.074"/><path fill="#BDF" d="M16.512 14.422c-.089.005-.17.002-.224.002a.344.344 0 0 0-.119.014c-.034.01-.034-.014-.047-.024a.256.256 0 0 0-.118-.002c-.032.008-.049.008-.087.008-.038 0-.1-.006-.146-.003-.042.002-.058-.005-.113.008a.514.514 0 0 1-.147.008c-.036-.002-.05-.016-.082-.01-.03.004-.125.004-.15.004-.028 0-.085-.007-.12-.003-.035.007-.042.003-.03-.029.01-.032.003-.015.005-.092.002-.078.005-.05 0-.12-.004-.069 0-.061.01-.103.011-.042.01-.045-.002-.103-.01-.058.02-.05.048-.057.03-.008.037-.01.065-.013.03-.002.034-.014.058-.014s.039.02.056-.006c.019-.027.032-.036.058-.036.027 0 .076-.018.1-.018.023 0 .052-.006.069-.027.018-.022.047-.03.08-.023.033.004.046-.032.077-.065.028-.03.022-.041.015-.074a.326.326 0 0 0-.062-.101c-.041-.047-.013-.061-.013-.111s.01-.03 0-.073c-.007-.046-.013-.051-.037-.077-.023-.027.016-.012.012-.036-.003-.023-.003-.043-.025-.079-.022-.037-.026-.037-.039-.055-.013-.02.005-.016.007-.049.003-.032-.01-.034-.027-.063-.015-.028.017-.023-.013-.048-.027-.026-.016-.04-.013-.061.003-.022-.003-.038-.009-.062-.006-.023-.025-.069-.042-.077-.02-.007-.03.013-.062.023-.033.012-.056 0-.092.012-.034.01-.021.021-.034.023-.014.004-.027 0-.046.013-.018.016-.038-.009-.052.012-.018.021-.033.018-.055.021-.021.003-.027-.034-.042-.016-.016.019-.034.017-.069.022-.036.005-.029-.032-.037-.064-.01-.032-.016-.056-.029-.092-.013-.039-.04-.046-.06-.077-.024-.033-.047-.067-.082-.105-.035-.036-.023-.043-.052-.063-.03-.023.062-.092.04-.11-.043-.033-.055-.012-.11-.058-.024-.023-.059-.025-.08-.026-.023-.002-.03.014-.019-.009.015-.02.023-.052.052-.052.03 0 .057-.054.094-.07.037-.016.048-.04.05-.103.003-.063-.014-.061-.037-.094-.021-.036-.02-.046-.031-.083-.014-.037-.025-.043-.048-.055-.024-.01-.03-.031-.059-.057-.03-.027-.057-.035-.083-.056-.022-.021-.042-.027-.078-.02-.033.01-.021-.016-.048-.022-.026-.008-.072-.017-.082.013-.012.03-.038.027-.075.058-.039.032-.024.027-.04.072-.016.046-.046.038-.074.056-.03.019-.031.017-.04.061-.012.043-.019.028-.034.073-.018.05-.02.052-.018.105.004.053.018.019.021.068.002.052.017.058.025.096.009.04.024.045.058.061.035.02-.033.02-.054.038-.021.019-.021.024-.021.052 0 .03-.008.03-.032.046-.025.016-.025.016-.046.05-.02.034-.037.029-.063.066-.027.038-.04.03-.064.046s-.029.035-.037.063c-.004.028.01.021-.004.064-.013.042-.035.045-.064.11-.03.063-.034.125-.048.17-.015.044-.021.042-.028.077-.01.034.018.017.03.05.014.03-.017.028-.03.03-.016.005-.031 0-.064.03a.128.128 0 0 1-.098.027c-.018-.007-.05.004-.073.02-.023.018-.044.03-.077.022-.033-.01-.047.015-.073.073-.028.056-.01.053-.006.096.004.042.033.033.07.04.038.005.066.023.106.033.038.011.152-.01.184-.008a.15.15 0 0 0 .097-.038c.022-.02.018-.005.041.026.023.03.013-.028.04-.02.029.008.018.015.029.06.013.045-.006.033-.014.073-.007.04-.017.036-.025.068-.01.032-.022.023 0 .067.023.046-.003.013.004.06.004.029-.002.042-.019.073-.02.035-.02.05-.022.1-.003.05-.004.036-.008.08-.004.042-.024.06-.045.095-.018.034-.025.022 0 .062.03.04-.009.037-.016.074a.548.548 0 0 0 0 .155c-.037.013-.048.009-.085.035-.037.024-.073.002-.101-.007-.03-.008-.034-.028-.055-.016-.02.01-.039.013-.05.008-.014-.005-.057.008-.083.012-.027.003-.025.015-.028.052-.008.037.019.037.03.054.014.018.03.034.051.065.025.03.025.036.04.057.017.02.003.033.003.048 0 .014.002.02.02.034l.008.012s.071-.018.09-.01c.015.01.017.024.047 0 .028-.022.036-.016.085-.01.048.005.065-.012.117-.023.05-.011.184-.008.234-.008.052 0 .074-.003.142-.012.069-.008.13-.014.162-.014s.026.011.066.02c.04.009.049-.004.117.007.067.007.136.01.21 0 .074-.013.136.013.187.002.05-.013.022.005.056.019.033.014.054-.02.105-.022.05-.003.125-.01.17.003a.966.966 0 0 0 .167.016c.055.003.074 0 .117.006.043.005.034.017.068.02.036.002.033-.017.062-.02.031-.003.03.003.057.003.028 0 .082-.018.112-.006.026.011.056.003.098.008.042.006.12.01.163.003a.646.646 0 0 1 .186.023c.053.014.168.018.217.028.048.01.05-.005.043-.025-.008-.017-.004-.027.002-.043.009-.015.024-.013.05-.034.027-.023.032-.027.04-.043a.105.105 0 0 1 .03-.048c.01-.009.033-.03.067-.043.035-.014.027-.018.032-.046.004-.027.015-.045.034-.086.018-.039-.044-.051-.098-.03-.058.02-.134-.011-.222-.006Zm-2.276-2.466c.01-.009.03-.017.035-.023a.637.637 0 0 0 .033-.045.134.134 0 0 1 .023-.031.072.072 0 0 0 .018-.037c.004-.016-.002-.032.012-.03.013.004.02.014.041.006.022-.01.028-.013.042-.01.016.002.021.006.034.023.014.016.015.023.015.037a.11.11 0 0 0 .019.052c.015.019.015.047.035.044.019-.002.02-.004.03.022.008.027.005.032.005.052 0 .024-.003.037-.016.047-.012.01-.023.015-.028.035-.01.02-.01.038-.019.053-.01.015-.009.027-.027.023-.02-.004-.037.002-.046.017-.008.014-.012.03-.035.015-.024-.015-.035-.03-.05-.046a.133.133 0 0 0-.052-.035c-.017-.008-.034-.005-.027-.025.005-.023.006-.027-.012-.043-.021-.017-.008-.025-.023-.034-.008-.01-.013-.014-.015-.032-.004-.017-.004-.028.008-.036m.607 2.335c-.011.032 0 .046-.01.082-.007.037-.005.058-.028.09-.023.035-.775-.046-.797-.046a.59.59 0 0 0 .027-.148c0-.026-.004-.04.004-.106.008-.07.008-.064-.002-.115-.012-.05-.005-.056-.017-.099-.012-.042-.004-.065.005-.1.01-.033.02-.03.017-.052-.003-.023.003-.038.021-.073a.182.182 0 0 0 .019-.1c-.003-.04 0-.04.026-.081.025-.042.013-.065.03-.101.017-.037-.007-.047-.034-.077-.03-.032-.035-.069-.059-.09-.023-.023-.013-.04-.013-.04l-.012-.045-.012-.061c-.002-.015-.017-.036-.01-.052.004-.017.022-.023.024-.051.003-.027.003-.054.017-.081.014-.03.006-.035.014-.081.01-.045-.008-.035-.002-.08a.257.257 0 0 0 0-.095c-.006-.037.002-.034.034-.042.031-.008.04-.031.07-.053.03-.023.03-.029.063-.043.03-.013.027-.037.07-.048.04-.011.045-.026.086-.028.04-.004.06-.016.11-.014.053.002.056.028.071.045.014.016.046.033.074.049.029.013.033.046.042.095.003.048.013.058.024.104.012.046.025.054.03.096a.22.22 0 0 0 .032.1c.023.039.023.022 0 .034-.022.01-.045.002-.099.028-.055.024-.057.019-.085.047-.027.029-.05.034-.091.042-.04.01-.023.018-.056.049-.033.031-.055.026-.063.065-.007.04.042.025.058.05.013.027-.009.054-.012.104-.004.046.009.018.025.04.018.023.022.035.023.077.003.042.01.03.029.054.019.025.019.018.021.054.003.037.013.03.02.054.01.022-.003.04.024.088.028.047.014.072.022.128.006.058.015.06.018.114.008.054.025.04.041.07.018.032-.006.034.021.068.025.034.008.058.025.09.018.035.026.012.05.004.027-.01.05-.029.11-.043.06-.014.035 0 .021.045-.016.045 0 .047-.016.079Zm-.02-.421c-.028-.06-.192-.501-.227-.565.027-.018.259-.135.273-.118.01.018.032.31.078.346.044.036.086.079.132.04.046-.04.053-.021.071-.055.018-.032.034-.054.037-.083.002-.03-.108-.358-.09-.355.017.002.041.022.074.015.034-.01.043.008.073-.018.03-.028.055-.018.09-.028.037-.009.225.56.217.575"/><path fill="#C93" d="M4.198 18.6H6.74v-2.534H4.198M16.917 18.6h2.543v-2.534h-2.543M4.197 5.932h2.544V3.399H4.198m12.719 2.533h2.543V3.399h-2.543M11.827.336l1.797 1.79-1.797 1.793-1.795-1.792m1.794 15.954 1.798 1.79-1.797 1.793-1.795-1.793M2.927 9.213l1.798 1.79-1.797 1.792-1.794-1.792m19.595-1.79 1.797 1.79-1.797 1.792-1.795-1.792"/></g></svg>