<svg xmlns="http://www.w3.org/2000/svg" width="1308" height="666" viewBox="0 0 1308 666"><title>Lines Color Examples</title><g fill="none" fill-rule="evenodd"><path fill="#FF5A3A" d="M0 0h436v222H0z"/><path fill="#FFF" fill-rule="nonzero" d="M107.96 86.96V152H90.44V69.44l17.52 17.52zm32.64 32.64V152h-17.52v-49.92l17.52 17.52zM173 152l-17.52-17.52V89.96H173v7.8c1.84-2.88 4.42-5.14 7.74-6.78 3.32-1.64 6.98-2.46 10.98-2.46 4.4 0 8.36 1.02 11.88 3.06 3.52 2.04 6.26 4.88 8.22 8.52 1.96 3.64 2.94 7.78 2.94 12.42V152h-16.92v-35.76c0-3.84-1.08-6.96-3.24-9.36-2.16-2.4-5-3.6-8.52-3.6-3.68 0-6.76 1.16-9.24 3.48-2.48 2.32-3.72 5.16-3.72 8.52l-.12-.36V152zm85.8-14.04c2.48 0 5.06-.52 7.74-1.56 2.68-1.04 4.86-2.36 6.54-3.96l11.16 11.4c-2.72 2.88-6.46 5.2-11.22 6.96-4.76 1.76-9.46 2.64-14.1 2.64-6.08 0-11.64-1.4-16.68-4.2-5.04-2.8-9-6.68-11.88-11.64-2.88-4.96-4.32-10.56-4.32-16.8 0-6.16 1.4-11.7 4.2-16.62 2.8-4.92 6.62-8.76 11.46-11.52 4.84-2.76 10.26-4.14 16.26-4.14 6.4 0 11.92 1.54 16.56 4.62 4.64 3.08 8.18 7.5 10.62 13.26 2.44 5.76 3.66 12.52 3.66 20.28h-44.76c1.04 3.44 2.86 6.18 5.46 8.22 2.6 2.04 5.7 3.06 9.3 3.06zm-.12-33.96c-3.28 0-6.22.9-8.82 2.7-2.6 1.8-4.46 4.26-5.58 7.38H272c-.88-3.12-2.46-5.58-4.74-7.38-2.28-1.8-5.14-2.7-8.58-2.7zm65.28 49.44c-5.04 0-10.04-.82-15-2.46-4.96-1.64-9.28-3.94-12.96-6.9l7.56-12.12c6.48 4.64 13.4 6.96 20.76 6.96 2.32 0 4.24-.44 5.76-1.32 1.52-.88 2.28-2 2.28-3.36 0-1.76-.84-3.06-2.52-3.9-1.68-.84-4.48-1.78-8.4-2.82-5.04-1.2-9.14-2.48-12.3-3.84-3.16-1.36-5.68-3.26-7.56-5.7-1.88-2.44-2.82-5.62-2.82-9.54 0-3.84 1.02-7.28 3.06-10.32s4.88-5.4 8.52-7.08c3.64-1.68 7.86-2.52 12.66-2.52 4.32 0 8.6.68 12.84 2.04 4.24 1.36 8.12 3.24 11.64 5.64l-7.08 12.48a37.47 37.47 0 0 0-8.82-4.08c-3.08-.96-5.94-1.44-8.58-1.44-2.16 0-3.92.34-5.28 1.02-1.36.68-2.04 1.58-2.04 2.7 0 1.6.7 2.8 2.1 3.6 1.4.8 4.34 1.8 8.82 3 4.64 1.2 8.5 2.46 11.58 3.78 3.08 1.32 5.68 3.28 7.8 5.88s3.18 6.02 3.18 10.26c0 6.08-2.3 10.94-6.9 14.58-4.6 3.64-10.7 5.46-18.3 5.46z"/><path fill="#FF6A3A" d="M0 0h436v222H0z"/><path fill="#FFF" fill-rule="nonzero" d="M107.96 86.96V152H90.44V69.44l17.52 17.52zm32.64 32.64V152h-17.52v-49.92l17.52 17.52zM173 152l-17.52-17.52V89.96H173v7.8c1.84-2.88 4.42-5.14 7.74-6.78 3.32-1.64 6.98-2.46 10.98-2.46 4.4 0 8.36 1.02 11.88 3.06 3.52 2.04 6.26 4.88 8.22 8.52 1.96 3.64 2.94 7.78 2.94 12.42V152h-16.92v-35.76c0-3.84-1.08-6.96-3.24-9.36-2.16-2.4-5-3.6-8.52-3.6-3.68 0-6.76 1.16-9.24 3.48-2.48 2.32-3.72 5.16-3.72 8.52l-.12-.36V152zm85.8-14.04c2.48 0 5.06-.52 7.74-1.56 2.68-1.04 4.86-2.36 6.54-3.96l11.16 11.4c-2.72 2.88-6.46 5.2-11.22 6.96-4.76 1.76-9.46 2.64-14.1 2.64-6.08 0-11.64-1.4-16.68-4.2-5.04-2.8-9-6.68-11.88-11.64-2.88-4.96-4.32-10.56-4.32-16.8 0-6.16 1.4-11.7 4.2-16.62 2.8-4.92 6.62-8.76 11.46-11.52 4.84-2.76 10.26-4.14 16.26-4.14 6.4 0 11.92 1.54 16.56 4.62 4.64 3.08 8.18 7.5 10.62 13.26 2.44 5.76 3.66 12.52 3.66 20.28h-44.76c1.04 3.44 2.86 6.18 5.46 8.22 2.6 2.04 5.7 3.06 9.3 3.06zm-.12-33.96c-3.28 0-6.22.9-8.82 2.7-2.6 1.8-4.46 4.26-5.58 7.38H272c-.88-3.12-2.46-5.58-4.74-7.38-2.28-1.8-5.14-2.7-8.58-2.7zm65.28 49.44c-5.04 0-10.04-.82-15-2.46-4.96-1.64-9.28-3.94-12.96-6.9l7.56-12.12c6.48 4.64 13.4 6.96 20.76 6.96 2.32 0 4.24-.44 5.76-1.32 1.52-.88 2.28-2 2.28-3.36 0-1.76-.84-3.06-2.52-3.9-1.68-.84-4.48-1.78-8.4-2.82-5.04-1.2-9.14-2.48-12.3-3.84-3.16-1.36-5.68-3.26-7.56-5.7-1.88-2.44-2.82-5.62-2.82-9.54 0-3.84 1.02-7.28 3.06-10.32s4.88-5.4 8.52-7.08c3.64-1.68 7.86-2.52 12.66-2.52 4.32 0 8.6.68 12.84 2.04 4.24 1.36 8.12 3.24 11.64 5.64l-7.08 12.48a37.47 37.47 0 0 0-8.82-4.08c-3.08-.96-5.94-1.44-8.58-1.44-2.16 0-3.92.34-5.28 1.02-1.36.68-2.04 1.58-2.04 2.7 0 1.6.7 2.8 2.1 3.6 1.4.8 4.34 1.8 8.82 3 4.64 1.2 8.5 2.46 11.58 3.78 3.08 1.32 5.68 3.28 7.8 5.88s3.18 6.02 3.18 10.26c0 6.08-2.3 10.94-6.9 14.58-4.6 3.64-10.7 5.46-18.3 5.46z"/><path fill="#FFCD00" fill-rule="nonzero" d="M131.96 92.92c-2.72 0-5-.94-6.84-2.82-1.84-1.88-2.76-4.14-2.76-6.78 0-2.48.94-4.66 2.82-6.54s4.14-2.82 6.78-2.82c2.56 0 4.76.94 6.6 2.82 1.84 1.88 2.76 4.06 2.76 6.54 0 2.64-.92 4.9-2.76 6.78-1.84 1.88-4.04 2.82-6.6 2.82z"/><path fill="#003272" d="M0 222h436v222H0z"/><path fill="#B0C3FA" fill-rule="nonzero" d="M107.96 308.96V374H90.44v-82.56l17.52 17.52zm32.64 32.64V374h-17.52v-49.92l17.52 17.52zM173 374l-17.52-17.52v-44.52H173v7.8c1.84-2.88 4.42-5.14 7.74-6.78 3.32-1.64 6.98-2.46 10.98-2.46 4.4 0 8.36 1.02 11.88 3.06 3.52 2.04 6.26 4.88 8.22 8.52 1.96 3.64 2.94 7.78 2.94 12.42V374h-16.92v-35.76c0-3.84-1.08-6.96-3.24-9.36-2.16-2.4-5-3.6-8.52-3.6-3.68 0-6.76 1.16-9.24 3.48-2.48 2.32-3.72 5.16-3.72 8.52l-.12-.36V374zm85.8-14.04c2.48 0 5.06-.52 7.74-1.56 2.68-1.04 4.86-2.36 6.54-3.96l11.16 11.4c-2.72 2.88-6.46 5.2-11.22 6.96-4.76 1.76-9.46 2.64-14.1 2.64-6.08 0-11.64-1.4-16.68-4.2-5.04-2.8-9-6.68-11.88-11.64-2.88-4.96-4.32-10.56-4.32-16.8 0-6.16 1.4-11.7 4.2-16.62 2.8-4.92 6.62-8.76 11.46-11.52 4.84-2.76 10.26-4.14 16.26-4.14 6.4 0 11.92 1.54 16.56 4.62 4.64 3.08 8.18 7.5 10.62 13.26 2.44 5.76 3.66 12.52 3.66 20.28h-44.76c1.04 3.44 2.86 6.18 5.46 8.22 2.6 2.04 5.7 3.06 9.3 3.06zm-.12-33.96c-3.28 0-6.22.9-8.82 2.7-2.6 1.8-4.46 4.26-5.58 7.38H272c-.88-3.12-2.46-5.58-4.74-7.38-2.28-1.8-5.14-2.7-8.58-2.7zm65.28 49.44c-5.04 0-10.04-.82-15-2.46-4.96-1.64-9.28-3.94-12.96-6.9l7.56-12.12c6.48 4.64 13.4 6.96 20.76 6.96 2.32 0 4.24-.44 5.76-1.32 1.52-.88 2.28-2 2.28-3.36 0-1.76-.84-3.06-2.52-3.9-1.68-.84-4.48-1.78-8.4-2.82-5.04-1.2-9.14-2.48-12.3-3.84-3.16-1.36-5.68-3.26-7.56-5.7-1.88-2.44-2.82-5.62-2.82-9.54 0-3.84 1.02-7.28 3.06-10.32s4.88-5.4 8.52-7.08c3.64-1.68 7.86-2.52 12.66-2.52 4.32 0 8.6.68 12.84 2.04 4.24 1.36 8.12 3.24 11.64 5.64l-7.08 12.48a37.47 37.47 0 0 0-8.82-4.08c-3.08-.96-5.94-1.44-8.58-1.44-2.16 0-3.92.34-5.28 1.02-1.36.68-2.04 1.58-2.04 2.7 0 1.6.7 2.8 2.1 3.6 1.4.8 4.34 1.8 8.82 3 4.64 1.2 8.5 2.46 11.58 3.78 3.08 1.32 5.68 3.28 7.8 5.88s3.18 6.02 3.18 10.26c0 6.08-2.3 10.94-6.9 14.58-4.6 3.64-10.7 5.46-18.3 5.46z"/><path fill="#FF5A3A" fill-rule="nonzero" d="M131.96 314.92c-2.72 0-5-.94-6.84-2.82-1.84-1.88-2.76-4.14-2.76-6.78 0-2.48.94-4.66 2.82-6.54s4.14-2.82 6.78-2.82c2.56 0 4.76.94 6.6 2.82 1.84 1.88 2.76 4.06 2.76 6.54 0 2.64-.92 4.9-2.76 6.78-1.84 1.88-4.04 2.82-6.6 2.82z"/><path fill="#223B33" d="M0 444h436v222H0z"/><path fill="#FFC599" fill-rule="nonzero" d="M107.96 530.96V596H90.44v-82.56l17.52 17.52zm32.64 32.64V596h-17.52v-49.92l17.52 17.52zM173 596l-17.52-17.52v-44.52H173v7.8c1.84-2.88 4.42-5.14 7.74-6.78 3.32-1.64 6.98-2.46 10.98-2.46 4.4 0 8.36 1.02 11.88 3.06 3.52 2.04 6.26 4.88 8.22 8.52 1.96 3.64 2.94 7.78 2.94 12.42V596h-16.92v-35.76c0-3.84-1.08-6.96-3.24-9.36-2.16-2.4-5-3.6-8.52-3.6-3.68 0-6.76 1.16-9.24 3.48-2.48 2.32-3.72 5.16-3.72 8.52l-.12-.36V596zm85.8-14.04c2.48 0 5.06-.52 7.74-1.56 2.68-1.04 4.86-2.36 6.54-3.96l11.16 11.4c-2.72 2.88-6.46 5.2-11.22 6.96-4.76 1.76-9.46 2.64-14.1 2.64-6.08 0-11.64-1.4-16.68-4.2-5.04-2.8-9-6.68-11.88-11.64-2.88-4.96-4.32-10.56-4.32-16.8 0-6.16 1.4-11.7 4.2-16.62 2.8-4.92 6.62-8.76 11.46-11.52 4.84-2.76 10.26-4.14 16.26-4.14 6.4 0 11.92 1.54 16.56 4.62 4.64 3.08 8.18 7.5 10.62 13.26 2.44 5.76 3.66 12.52 3.66 20.28h-44.76c1.04 3.44 2.86 6.18 5.46 8.22 2.6 2.04 5.7 3.06 9.3 3.06zm-.12-33.96c-3.28 0-6.22.9-8.82 2.7-2.6 1.8-4.46 4.26-5.58 7.38H272c-.88-3.12-2.46-5.58-4.74-7.38-2.28-1.8-5.14-2.7-8.58-2.7zm65.28 49.44c-5.04 0-10.04-.82-15-2.46-4.96-1.64-9.28-3.94-12.96-6.9l7.56-12.12c6.48 4.64 13.4 6.96 20.76 6.96 2.32 0 4.24-.44 5.76-1.32 1.52-.88 2.28-2 2.28-3.36 0-1.76-.84-3.06-2.52-3.9-1.68-.84-4.48-1.78-8.4-2.82-5.04-1.2-9.14-2.48-12.3-3.84-3.16-1.36-5.68-3.26-7.56-5.7-1.88-2.44-2.82-5.62-2.82-9.54 0-3.84 1.02-7.28 3.06-10.32s4.88-5.4 8.52-7.08c3.64-1.68 7.86-2.52 12.66-2.52 4.32 0 8.6.68 12.84 2.04 4.24 1.36 8.12 3.24 11.64 5.64l-7.08 12.48a37.47 37.47 0 0 0-8.82-4.08c-3.08-.96-5.94-1.44-8.58-1.44-2.16 0-3.92.34-5.28 1.02-1.36.68-2.04 1.58-2.04 2.7 0 1.6.7 2.8 2.1 3.6 1.4.8 4.34 1.8 8.82 3 4.64 1.2 8.5 2.46 11.58 3.78 3.08 1.32 5.68 3.28 7.8 5.88s3.18 6.02 3.18 10.26c0 6.08-2.3 10.94-6.9 14.58-4.6 3.64-10.7 5.46-18.3 5.46zm-192-60.52c-2.72 0-5-.94-6.84-2.82-1.84-1.88-2.76-4.14-2.76-6.78 0-2.48.94-4.66 2.82-6.54s4.14-2.82 6.78-2.82c2.56 0 4.76.94 6.6 2.82 1.84 1.88 2.76 4.06 2.76 6.54 0 2.64-.92 4.9-2.76 6.78-1.84 1.88-4.04 2.82-6.6 2.82z"/><path fill="#2F6E46" d="M436 444h436v222H436z"/><g fill-rule="nonzero"><path fill="#B8E986" d="M543.96 530.96V596h-17.52v-82.56l17.52 17.52zm32.64 32.64V596h-17.52v-49.92l17.52 17.52zM609 596l-17.52-17.52v-44.52H609v7.8c1.84-2.88 4.42-5.14 7.74-6.78 3.32-1.64 6.98-2.46 10.98-2.46 4.4 0 8.36 1.02 11.88 3.06 3.52 2.04 6.26 4.88 8.22 8.52 1.96 3.64 2.94 7.78 2.94 12.42V596h-16.92v-35.76c0-3.84-1.08-6.96-3.24-9.36-2.16-2.4-5-3.6-8.52-3.6-3.68 0-6.76 1.16-9.24 3.48-2.48 2.32-3.72 5.16-3.72 8.52l-.12-.36V596zm85.8-14.04c2.48 0 5.06-.52 7.74-1.56 2.68-1.04 4.86-2.36 6.54-3.96l11.16 11.4c-2.72 2.88-6.46 5.2-11.22 6.96-4.76 1.76-9.46 2.64-14.1 2.64-6.08 0-11.64-1.4-16.68-4.2-5.04-2.8-9-6.68-11.88-11.64-2.88-4.96-4.32-10.56-4.32-16.8 0-6.16 1.4-11.7 4.2-16.62 2.8-4.92 6.62-8.76 11.46-11.52 4.84-2.76 10.26-4.14 16.26-4.14 6.4 0 11.92 1.54 16.56 4.62 4.64 3.08 8.18 7.5 10.62 13.26 2.44 5.76 3.66 12.52 3.66 20.28h-44.76c1.04 3.44 2.86 6.18 5.46 8.22 2.6 2.04 5.7 3.06 9.3 3.06zm-.12-33.96c-3.28 0-6.22.9-8.82 2.7-2.6 1.8-4.46 4.26-5.58 7.38H708c-.88-3.12-2.46-5.58-4.74-7.38-2.28-1.8-5.14-2.7-8.58-2.7zm65.28 49.44c-5.04 0-10.04-.82-15-2.46-4.96-1.64-9.28-3.94-12.96-6.9l7.56-12.12c6.48 4.64 13.4 6.96 20.76 6.96 2.32 0 4.24-.44 5.76-1.32 1.52-.88 2.28-2 2.28-3.36 0-1.76-.84-3.06-2.52-3.9-1.68-.84-4.48-1.78-8.4-2.82-5.04-1.2-9.14-2.48-12.3-3.84-3.16-1.36-5.68-3.26-7.56-5.7-1.88-2.44-2.82-5.62-2.82-9.54 0-3.84 1.02-7.28 3.06-10.32s4.88-5.4 8.52-7.08c3.64-1.68 7.86-2.52 12.66-2.52 4.32 0 8.6.68 12.84 2.04 4.24 1.36 8.12 3.24 11.64 5.64l-7.08 12.48a37.47 37.47 0 0 0-8.82-4.08c-3.08-.96-5.94-1.44-8.58-1.44-2.16 0-3.92.34-5.28 1.02-1.36.68-2.04 1.58-2.04 2.7 0 1.6.7 2.8 2.1 3.6 1.4.8 4.34 1.8 8.82 3 4.64 1.2 8.5 2.46 11.58 3.78 3.08 1.32 5.68 3.28 7.8 5.88s3.18 6.02 3.18 10.26c0 6.08-2.3 10.94-6.9 14.58-4.6 3.64-10.7 5.46-18.3 5.46z"/><path fill="#A9C548" d="M567.96 536.92c-2.72 0-5-.94-6.84-2.82-1.84-1.88-2.76-4.14-2.76-6.78 0-2.48.94-4.66 2.82-6.54s4.14-2.82 6.78-2.82c2.56 0 4.76.94 6.6 2.82 1.84 1.88 2.76 4.06 2.76 6.54 0 2.64-.92 4.9-2.76 6.78-1.84 1.88-4.04 2.82-6.6 2.82z"/></g><path fill="#B91DFF" d="M872 444h436v222H872z"/><path fill="#FFF" fill-rule="nonzero" d="M979.96 530.96V596h-17.52v-82.56l17.52 17.52zm32.64 32.64V596h-17.52v-49.92l17.52 17.52zM1045 596l-17.52-17.52v-44.52H1045v7.8c1.84-2.88 4.42-5.14 7.74-6.78 3.32-1.64 6.98-2.46 10.98-2.46 4.4 0 8.36 1.02 11.88 3.06 3.52 2.04 6.26 4.88 8.22 8.52 1.96 3.64 2.94 7.78 2.94 12.42V596h-16.92v-35.76c0-3.84-1.08-6.96-3.24-9.36-2.16-2.4-5-3.6-8.52-3.6-3.68 0-6.76 1.16-9.24 3.48-2.48 2.32-3.72 5.16-3.72 8.52l-.12-.36V596zm85.8-14.04c2.48 0 5.06-.52 7.74-1.56 2.68-1.04 4.86-2.36 6.54-3.96l11.16 11.4c-2.72 2.88-6.46 5.2-11.22 6.96-4.76 1.76-9.46 2.64-14.1 2.64-6.08 0-11.64-1.4-16.68-4.2-5.04-2.8-9-6.68-11.88-11.64-2.88-4.96-4.32-10.56-4.32-16.8 0-6.16 1.4-11.7 4.2-16.62 2.8-4.92 6.62-8.76 11.46-11.52 4.84-2.76 10.26-4.14 16.26-4.14 6.4 0 11.92 1.54 16.56 4.62 4.64 3.08 8.18 7.5 10.62 13.26 2.44 5.76 3.66 12.52 3.66 20.28h-44.76c1.04 3.44 2.86 6.18 5.46 8.22 2.6 2.04 5.7 3.06 9.3 3.06zm-.12-33.96c-3.28 0-6.22.9-8.82 2.7-2.6 1.8-4.46 4.26-5.58 7.38H1144c-.88-3.12-2.46-5.58-4.74-7.38-2.28-1.8-5.14-2.7-8.58-2.7zm65.28 49.44c-5.04 0-10.04-.82-15-2.46-4.96-1.64-9.28-3.94-12.96-6.9l7.56-12.12c6.48 4.64 13.4 6.96 20.76 6.96 2.32 0 4.24-.44 5.76-1.32 1.52-.88 2.28-2 2.28-3.36 0-1.76-.84-3.06-2.52-3.9-1.68-.84-4.48-1.78-8.4-2.82-5.04-1.2-9.14-2.48-12.3-3.84-3.16-1.36-5.68-3.26-7.56-5.7-1.88-2.44-2.82-5.62-2.82-9.54 0-3.84 1.02-7.28 3.06-10.32s4.88-5.4 8.52-7.08c3.64-1.68 7.86-2.52 12.66-2.52 4.32 0 8.6.68 12.84 2.04 4.24 1.36 8.12 3.24 11.64 5.64l-7.08 12.48a37.47 37.47 0 0 0-8.82-4.08c-3.08-.96-5.94-1.44-8.58-1.44-2.16 0-3.92.34-5.28 1.02-1.36.68-2.04 1.58-2.04 2.7 0 1.6.7 2.8 2.1 3.6 1.4.8 4.34 1.8 8.82 3 4.64 1.2 8.5 2.46 11.58 3.78 3.08 1.32 5.68 3.28 7.8 5.88s3.18 6.02 3.18 10.26c0 6.08-2.3 10.94-6.9 14.58-4.6 3.64-10.7 5.46-18.3 5.46zm-192-60.52c-2.72 0-5-.94-6.84-2.82-1.84-1.88-2.76-4.14-2.76-6.78 0-2.48.94-4.66 2.82-6.54s4.14-2.82 6.78-2.82c2.56 0 4.76.94 6.6 2.82 1.84 1.88 2.76 4.06 2.76 6.54 0 2.64-.92 4.9-2.76 6.78-1.84 1.88-4.04 2.82-6.6 2.82z"/><path fill="#3478F6" d="M872 222h436v222H872z"/><path fill="#FFF" fill-rule="nonzero" d="M979.96 308.96V374h-17.52v-82.56l17.52 17.52zm32.64 32.64V374h-17.52v-49.92l17.52 17.52zM1045 374l-17.52-17.52v-44.52H1045v7.8c1.84-2.88 4.42-5.14 7.74-6.78 3.32-1.64 6.98-2.46 10.98-2.46 4.4 0 8.36 1.02 11.88 3.06 3.52 2.04 6.26 4.88 8.22 8.52 1.96 3.64 2.94 7.78 2.94 12.42V374h-16.92v-35.76c0-3.84-1.08-6.96-3.24-9.36-2.16-2.4-5-3.6-8.52-3.6-3.68 0-6.76 1.16-9.24 3.48-2.48 2.32-3.72 5.16-3.72 8.52l-.12-.36V374zm85.8-14.04c2.48 0 5.06-.52 7.74-1.56 2.68-1.04 4.86-2.36 6.54-3.96l11.16 11.4c-2.72 2.88-6.46 5.2-11.22 6.96-4.76 1.76-9.46 2.64-14.1 2.64-6.08 0-11.64-1.4-16.68-4.2-5.04-2.8-9-6.68-11.88-11.64-2.88-4.96-4.32-10.56-4.32-16.8 0-6.16 1.4-11.7 4.2-16.62 2.8-4.92 6.62-8.76 11.46-11.52 4.84-2.76 10.26-4.14 16.26-4.14 6.4 0 11.92 1.54 16.56 4.62 4.64 3.08 8.18 7.5 10.62 13.26 2.44 5.76 3.66 12.52 3.66 20.28h-44.76c1.04 3.44 2.86 6.18 5.46 8.22 2.6 2.04 5.7 3.06 9.3 3.06zm-.12-33.96c-3.28 0-6.22.9-8.82 2.7-2.6 1.8-4.46 4.26-5.58 7.38H1144c-.88-3.12-2.46-5.58-4.74-7.38-2.28-1.8-5.14-2.7-8.58-2.7zm65.28 49.44c-5.04 0-10.04-.82-15-2.46-4.96-1.64-9.28-3.94-12.96-6.9l7.56-12.12c6.48 4.64 13.4 6.96 20.76 6.96 2.32 0 4.24-.44 5.76-1.32 1.52-.88 2.28-2 2.28-3.36 0-1.76-.84-3.06-2.52-3.9-1.68-.84-4.48-1.78-8.4-2.82-5.04-1.2-9.14-2.48-12.3-3.84-3.16-1.36-5.68-3.26-7.56-5.7-1.88-2.44-2.82-5.62-2.82-9.54 0-3.84 1.02-7.28 3.06-10.32s4.88-5.4 8.52-7.08c3.64-1.68 7.86-2.52 12.66-2.52 4.32 0 8.6.68 12.84 2.04 4.24 1.36 8.12 3.24 11.64 5.64l-7.08 12.48a37.47 37.47 0 0 0-8.82-4.08c-3.08-.96-5.94-1.44-8.58-1.44-2.16 0-3.92.34-5.28 1.02-1.36.68-2.04 1.58-2.04 2.7 0 1.6.7 2.8 2.1 3.6 1.4.8 4.34 1.8 8.82 3 4.64 1.2 8.5 2.46 11.58 3.78 3.08 1.32 5.68 3.28 7.8 5.88s3.18 6.02 3.18 10.26c0 6.08-2.3 10.94-6.9 14.58-4.6 3.64-10.7 5.46-18.3 5.46zm-192-60.52c-2.72 0-5-.94-6.84-2.82-1.84-1.88-2.76-4.14-2.76-6.78 0-2.48.94-4.66 2.82-6.54s4.14-2.82 6.78-2.82c2.56 0 4.76.94 6.6 2.82 1.84 1.88 2.76 4.06 2.76 6.54 0 2.64-.92 4.9-2.76 6.78-1.84 1.88-4.04 2.82-6.6 2.82z"/><path fill="#FFB900" d="M436 0h436v222H436z"/><g fill-rule="nonzero"><path fill="#272727" d="M545.9 87.4v65.04h-17.52V69.88L545.9 87.4zm32.64 32.64v32.4h-17.52v-49.92l17.52 17.52zm32.4 32.4l-17.52-17.52V90.4h17.52v7.8c1.84-2.88 4.42-5.14 7.74-6.78 3.32-1.64 6.98-2.46 10.98-2.46 4.4 0 8.36 1.02 11.88 3.06 3.52 2.04 6.26 4.88 8.22 8.52 1.96 3.64 2.94 7.78 2.94 12.42v39.48h-16.92v-35.76c0-3.84-1.08-6.96-3.24-9.36-2.16-2.4-5-3.6-8.52-3.6-3.68 0-6.76 1.16-9.24 3.48-2.48 2.32-3.72 5.16-3.72 8.52l-.12-.36v37.08zm85.8-14.04c2.48 0 5.06-.52 7.74-1.56 2.68-1.04 4.86-2.36 6.54-3.96l11.16 11.4c-2.72 2.88-6.46 5.2-11.22 6.96-4.76 1.76-9.46 2.64-14.1 2.64-6.08 0-11.64-1.4-16.68-4.2-5.04-2.8-9-6.68-11.88-11.64-2.88-4.96-4.32-10.56-4.32-16.8 0-6.16 1.4-11.7 4.2-16.62 2.8-4.92 6.62-8.76 11.46-11.52 4.84-2.76 10.26-4.14 16.26-4.14 6.4 0 11.92 1.54 16.56 4.62 4.64 3.08 8.18 7.5 10.62 13.26 2.44 5.76 3.66 12.52 3.66 20.28h-44.76c1.04 3.44 2.86 6.18 5.46 8.22 2.6 2.04 5.7 3.06 9.3 3.06zm-.12-33.96c-3.28 0-6.22.9-8.82 2.7-2.6 1.8-4.46 4.26-5.58 7.38h27.72c-.88-3.12-2.46-5.58-4.74-7.38-2.28-1.8-5.14-2.7-8.58-2.7zm65.28 49.44c-5.04 0-10.04-.82-15-2.46-4.96-1.64-9.28-3.94-12.96-6.9l7.56-12.12c6.48 4.64 13.4 6.96 20.76 6.96 2.32 0 4.24-.44 5.76-1.32 1.52-.88 2.28-2 2.28-3.36 0-1.76-.84-3.06-2.52-3.9-1.68-.84-4.48-1.78-8.4-2.82-5.04-1.2-9.14-2.48-12.3-3.84-3.16-1.36-5.68-3.26-7.56-5.7-1.88-2.44-2.82-5.62-2.82-9.54 0-3.84 1.02-7.28 3.06-10.32s4.88-5.4 8.52-7.08c3.64-1.68 7.86-2.52 12.66-2.52 4.32 0 8.6.68 12.84 2.04 4.24 1.36 8.12 3.24 11.64 5.64l-7.08 12.48a37.47 37.47 0 0 0-8.82-4.08c-3.08-.96-5.94-1.44-8.58-1.44-2.16 0-3.92.34-5.28 1.02-1.36.68-2.04 1.58-2.04 2.7 0 1.6.7 2.8 2.1 3.6 1.4.8 4.34 1.8 8.82 3 4.64 1.2 8.5 2.46 11.58 3.78 3.08 1.32 5.68 3.28 7.8 5.88s3.18 6.02 3.18 10.26c0 6.08-2.3 10.94-6.9 14.58-4.6 3.64-10.7 5.46-18.3 5.46z"/><path fill="#FFF" d="M569.9 93.36c-2.72 0-5-.94-6.84-2.82-1.84-1.88-2.76-4.14-2.76-6.78 0-2.48.94-4.66 2.82-6.54s4.14-2.82 6.78-2.82c2.56 0 4.76.94 6.6 2.82 1.84 1.88 2.76 4.06 2.76 6.54 0 2.64-.92 4.9-2.76 6.78-1.84 1.88-4.04 2.82-6.6 2.82z"/></g><path fill="#FF487C" d="M872 0h436v222H872z"/><path fill="#FFF" fill-rule="nonzero" d="M981.9 88.28v65.04h-17.52V70.76l17.52 17.52zm32.64 32.64v32.4h-17.52V103.4l17.52 17.52zm32.4 32.4l-17.52-17.52V91.28h17.52v7.8c1.84-2.88 4.42-5.14 7.74-6.78 3.32-1.64 6.98-2.46 10.98-2.46 4.4 0 8.36 1.02 11.88 3.06 3.52 2.04 6.26 4.88 8.22 8.52 1.96 3.64 2.94 7.78 2.94 12.42v39.48h-16.92v-35.76c0-3.84-1.08-6.96-3.24-9.36-2.16-2.4-5-3.6-8.52-3.6-3.68 0-6.76 1.16-9.24 3.48-2.48 2.32-3.72 5.16-3.72 8.52l-.12-.36v37.08zm85.8-14.04c2.48 0 5.06-.52 7.74-1.56 2.68-1.04 4.86-2.36 6.54-3.96l11.16 11.4c-2.72 2.88-6.46 5.2-11.22 6.96-4.76 1.76-9.46 2.64-14.1 2.64-6.08 0-11.64-1.4-16.68-4.2-5.04-2.8-9-6.68-11.88-11.64-2.88-4.96-4.32-10.56-4.32-16.8 0-6.16 1.4-11.7 4.2-16.62 2.8-4.92 6.62-8.76 11.46-11.52 4.84-2.76 10.26-4.14 16.26-4.14 6.4 0 11.92 1.54 16.56 4.62 4.64 3.08 8.18 7.5 10.62 13.26 2.44 5.76 3.66 12.52 3.66 20.28h-44.76c1.04 3.44 2.86 6.18 5.46 8.22 2.6 2.04 5.7 3.06 9.3 3.06zm-.12-33.96c-3.28 0-6.22.9-8.82 2.7-2.6 1.8-4.46 4.26-5.58 7.38h27.72c-.88-3.12-2.46-5.58-4.74-7.38-2.28-1.8-5.14-2.7-8.58-2.7zm65.28 49.44c-5.04 0-10.04-.82-15-2.46-4.96-1.64-9.28-3.94-12.96-6.9l7.56-12.12c6.48 4.64 13.4 6.96 20.76 6.96 2.32 0 4.24-.44 5.76-1.32 1.52-.88 2.28-2 2.28-3.36 0-1.76-.84-3.06-2.52-3.9-1.68-.84-4.48-1.78-8.4-2.82-5.04-1.2-9.14-2.48-12.3-3.84-3.16-1.36-5.68-3.26-7.56-5.7-1.88-2.44-2.82-5.62-2.82-9.54 0-3.84 1.02-7.28 3.06-10.32s4.88-5.4 8.52-7.08c3.64-1.68 7.86-2.52 12.66-2.52 4.32 0 8.6.68 12.84 2.04 4.24 1.36 8.12 3.24 11.64 5.64l-7.08 12.48a37.47 37.47 0 0 0-8.82-4.08c-3.08-.96-5.94-1.44-8.58-1.44-2.16 0-3.92.34-5.28 1.02-1.36.68-2.04 1.58-2.04 2.7 0 1.6.7 2.8 2.1 3.6 1.4.8 4.34 1.8 8.82 3 4.64 1.2 8.5 2.46 11.58 3.78 3.08 1.32 5.68 3.28 7.8 5.88s3.18 6.02 3.18 10.26c0 6.08-2.3 10.94-6.9 14.58-4.6 3.64-10.7 5.46-18.3 5.46zm-192-60.52c-2.72 0-5-.94-6.84-2.82-1.84-1.88-2.76-4.14-2.76-6.78 0-2.48.94-4.66 2.82-6.54s4.14-2.82 6.78-2.82c2.56 0 4.76.94 6.6 2.82 1.84 1.88 2.76 4.06 2.76 6.54 0 2.64-.92 4.9-2.76 6.78-1.84 1.88-4.04 2.82-6.6 2.82z"/><path fill="#A9C548" d="M436 222h436v222H436z"/><path fill="#2F6E46" fill-rule="nonzero" d="M543.96 308.96V374h-17.52v-82.56l17.52 17.52zm32.64 32.64V374h-17.52v-49.92l17.52 17.52zM609 374l-17.52-17.52v-44.52H609v7.8c1.84-2.88 4.42-5.14 7.74-6.78 3.32-1.64 6.98-2.46 10.98-2.46 4.4 0 8.36 1.02 11.88 3.06 3.52 2.04 6.26 4.88 8.22 8.52 1.96 3.64 2.94 7.78 2.94 12.42V374h-16.92v-35.76c0-3.84-1.08-6.96-3.24-9.36-2.16-2.4-5-3.6-8.52-3.6-3.68 0-6.76 1.16-9.24 3.48-2.48 2.32-3.72 5.16-3.72 8.52l-.12-.36V374zm85.8-14.04c2.48 0 5.06-.52 7.74-1.56 2.68-1.04 4.86-2.36 6.54-3.96l11.16 11.4c-2.72 2.88-6.46 5.2-11.22 6.96-4.76 1.76-9.46 2.64-14.1 2.64-6.08 0-11.64-1.4-16.68-4.2-5.04-2.8-9-6.68-11.88-11.64-2.88-4.96-4.32-10.56-4.32-16.8 0-6.16 1.4-11.7 4.2-16.62 2.8-4.92 6.62-8.76 11.46-11.52 4.84-2.76 10.26-4.14 16.26-4.14 6.4 0 11.92 1.54 16.56 4.62 4.64 3.08 8.18 7.5 10.62 13.26 2.44 5.76 3.66 12.52 3.66 20.28h-44.76c1.04 3.44 2.86 6.18 5.46 8.22 2.6 2.04 5.7 3.06 9.3 3.06zm-.12-33.96c-3.28 0-6.22.9-8.82 2.7-2.6 1.8-4.46 4.26-5.58 7.38H708c-.88-3.12-2.46-5.58-4.74-7.38-2.28-1.8-5.14-2.7-8.58-2.7zm65.28 49.44c-5.04 0-10.04-.82-15-2.46-4.96-1.64-9.28-3.94-12.96-6.9l7.56-12.12c6.48 4.64 13.4 6.96 20.76 6.96 2.32 0 4.24-.44 5.76-1.32 1.52-.88 2.28-2 2.28-3.36 0-1.76-.84-3.06-2.52-3.9-1.68-.84-4.48-1.78-8.4-2.82-5.04-1.2-9.14-2.48-12.3-3.84-3.16-1.36-5.68-3.26-7.56-5.7-1.88-2.44-2.82-5.62-2.82-9.54 0-3.84 1.02-7.28 3.06-10.32s4.88-5.4 8.52-7.08c3.64-1.68 7.86-2.52 12.66-2.52 4.32 0 8.6.68 12.84 2.04 4.24 1.36 8.12 3.24 11.64 5.64l-7.08 12.48a37.47 37.47 0 0 0-8.82-4.08c-3.08-.96-5.94-1.44-8.58-1.44-2.16 0-3.92.34-5.28 1.02-1.36.68-2.04 1.58-2.04 2.7 0 1.6.7 2.8 2.1 3.6 1.4.8 4.34 1.8 8.82 3 4.64 1.2 8.5 2.46 11.58 3.78 3.08 1.32 5.68 3.28 7.8 5.88s3.18 6.02 3.18 10.26c0 6.08-2.3 10.94-6.9 14.58-4.6 3.64-10.7 5.46-18.3 5.46zm-192-60.52c-2.72 0-5-.94-6.84-2.82-1.84-1.88-2.76-4.14-2.76-6.78 0-2.48.94-4.66 2.82-6.54s4.14-2.82 6.78-2.82c2.56 0 4.76.94 6.6 2.82 1.84 1.88 2.76 4.06 2.76 6.54 0 2.64-.92 4.9-2.76 6.78-1.84 1.88-4.04 2.82-6.6 2.82z"/></g></svg>