<?xml version="1.0" encoding="UTF-8"?>
<svg width="297px" height="92px" viewBox="0 0 297 92" version="1.1" xmlns="http://www.w3.org/2000/svg" xmlns:xlink="http://www.w3.org/1999/xlink">
    <!-- Generator: Sketch Beta 62 (91388) - https://sketch.com -->
    <title>Artboard Copy 4</title>
    <desc>Created with Sketch Beta.</desc>
    <g id="Artboard-Copy-4" stroke="none" stroke-width="1" fill="none" fill-rule="evenodd">
        <path d="M205.38,26.4776298 C224.82,26.4776298 236.22,41.2376298 236.22,64.6376298 L236.22,64.6376298 L191.46,64.6376298 C193.5,71.3576298 198.9,75.9176298 206.22,75.9176298 C211.14,75.9176298 217.14,73.6376298 220.5,70.3976298 L220.5,70.3976298 L231.66,81.7976298 C226.14,87.5576298 215.46,91.3976298 206.34,91.3976298 C187.86,91.3976298 173.46,77.8376298 173.46,58.7576298 C173.46,40.0376298 187.26,26.4776298 205.38,26.4776298 Z M270.42,26.4776298 C279.3,26.4776298 288.06,29.5976298 294.9,34.1576298 L294.9,34.1576298 L287.82,46.6376298 C282.18,43.1576298 275.7,41.1176298 270.42,41.1176298 C266.1,41.1176298 263.1,42.6776298 263.1,44.8376298 C263.1,48.1976298 265.62,49.1576298 274.02,51.4376298 C284.7,54.1976298 296.58,57.7976298 296.58,71.3576298 C296.58,83.5976298 286.62,91.3976298 271.38,91.3976298 C261.42,91.3976298 250.86,88.0376298 243.42,82.0376298 L243.42,82.0376298 L250.98,69.9176298 C256.5,73.8776298 263.46,76.8776298 271.74,76.8776298 C276.42,76.8776298 279.78,74.9576298 279.78,72.1976298 C279.78,68.3576298 275.22,67.1576298 268.86,65.4776298 C256.14,62.3576298 246.3,58.8776298 246.18,46.6376298 C246.06,34.8776298 255.78,26.4776298 270.42,26.4776298 Z M0.9,7.52862979 L18.66,25.2896298 L18.66,73.9976298 L43.783,73.9976298 L59.7,89.9136298 L59.7,89.9576298 L0.9,89.9576298 L0.9,7.52862979 Z M70.521,27.9176298 L88.02,45.4176298 L88.02,89.9576298 L70.5,89.9576298 L70.5,27.9176298 L70.521,27.9176298 Z M139.14,26.4776298 C152.58,26.4776298 162.18,36.4376298 162.18,50.4776298 L162.18,50.4776298 L162.18,89.9576298 L145.26,89.9576298 L145.26,54.1976298 C145.26,46.5176298 140.46,41.2376298 133.5,41.2376298 C126.18,41.2376298 120.54,46.5176298 120.54,53.2376298 L120.54,53.2376298 L120.42,52.8776298 L120.42,89.9576298 L102.9,89.9576298 L102.9,27.9176298 L120.42,27.9176298 L120.42,35.7176298 C124.14,30.0776298 131.1,26.4776298 139.14,26.4776298 Z M206.1,41.9576298 C199.5,41.9576298 193.98,45.7976298 191.7,52.0376298 L191.7,52.0376298 L219.42,52.0376298 C217.74,45.9176298 213.18,41.9576298 206.1,41.9576298 Z M79.38,0.437629791 C84.54,0.437629791 88.74,4.87762979 88.74,9.79762979 C88.74,15.0776298 84.54,19.3976298 79.38,19.3976298 C73.98,19.3976298 69.78,15.0776298 69.78,9.79762979 C69.78,4.87762979 73.98,0.437629791 79.38,0.437629791 Z" id="Combined-Shape" fill="#FFFFFF" fill-rule="nonzero"></path>
    </g>
</svg>