<svg xmlns="http://www.w3.org/2000/svg" width="301" height="85" viewBox="0 0 301 85"><title>Lines V2</title><path fill="#FFF" fill-rule="nonzero" d="M9.33.08l19.896 19.895.001 61.374 9.375-.351c15.117-.645 20.508-4.688 23.672-20.332h2.754l-.762 24.023H.516v-2.871c6.621-1.23 7.91-2.637 7.91-7.91V10.86c0-5.274-1.23-6.68-7.91-7.91V.08H9.33zm86.694 25.605v49.688c0 4.218 1.055 5.449 6.738 6.445v2.871H70.008v-2.871c5.684-.996 6.739-2.227 6.739-6.445V38.224c0-3.808-.47-4.629-3.75-5.742l-2.989-.938V28.85l26.016-3.164zm37.617 0v10.899c2.327-5.305 7.388-9.28 14.363-10.691l25.715 25.716v23.764c0 4.218.996 5.449 6.797 6.445v2.871h-31.875v-2.871c4.98-.879 5.86-1.992 5.86-6.094V45.138c0-7.851-3.868-11.777-10.489-11.777-4.804 0-8.496 2.226-10.254 5.508v36.855c0 4.102.762 5.156 5.86 6.094v2.871h-31.875v-2.871c5.683-.996 6.738-2.227 6.738-6.445V38.224c0-3.808-.469-4.629-3.75-5.742l-2.988-.938V28.85l25.898-3.164zm83.52-1.523c16.23 0 25.957 10.02 25.957 24.55 0 1.524-.176 3.047-.293 4.043h-36.387c1.582 15.235 10.196 23.848 21.973 23.848 5.742 0 10.664-2.168 13.594-5.156l.058 2.87c-4.277 6.446-13.183 10.372-24.082 10.372-17.46 0-31.23-11.543-31.23-30.176 0-2.89.32-5.642.933-8.224l.256-.257-.155-.156c3.293-13.096 14.22-21.714 29.376-21.714zm61.265.117c3.966 0 7.603.397 10.66 1.012l7.592 7.594.147 8.445h-2.754c-1.992-8.614-7.793-13.243-15.41-13.243-6.621 0-10.547 3.106-10.547 7.793 0 4.512 3.398 6.856 10.195 8.907l4.922 1.464C294.598 49.71 300.4 55.51 300.4 65.236c0 12.187-11.367 19.453-27.07 19.453-8.496 0-16.582-2.05-21.446-4.805l-.586-15h2.754c2.344 9.434 9.61 15.938 18.926 15.938 7.149 0 11.192-3.457 11.192-8.38 0-4.628-2.872-7.323-9.903-9.491l-4.922-1.465c-10.84-3.281-17.46-8.79-17.46-18.164 0-11.602 9.902-19.043 26.542-19.043zm-61.265 3.75c-6.973 0-10.957 7.031-10.957 19.57v1.817l19.922-.235c.059-1.113.059-2.344.059-4.043 0-10.43-2.813-17.11-9.024-17.11zM79.297 2.58l12.466 12.464c-1.636 1.623-3.933 2.613-6.462 2.613-4.98 0-8.964-3.75-8.964-8.614 0-2.631 1.139-4.911 2.96-6.463z"/></svg>