<?xml version="1.0" encoding="UTF-8"?>
<svg width="1308px" height="666px" viewBox="0 0 1308 666" version="1.1" xmlns="http://www.w3.org/2000/svg" xmlns:xlink="http://www.w3.org/1999/xlink">
    <!-- Generator: Sketch Beta 62 (91388) - https://sketch.com -->
    <title>Lines Color Examples</title>
    <desc>Created with Sketch Beta.</desc>
    <g id="Lines-Color-Examples" stroke="none" stroke-width="1" fill="none" fill-rule="evenodd">
        <rect id="Rectangle" fill="#FF5A3A" x="0" y="0" width="436" height="222"></rect>
        <path d="M107.96,86.9600068 L107.96,152 L90.44,152 L90.44,69.4400068 L107.96,86.9600068 L107.96,86.9600068 Z M140.6,119.600007 L140.6,152 L123.08,152 L123.08,102.080007 L140.6,119.600007 L140.6,119.600007 Z M172.999993,152 L155.48,134.480007 L155.48,89.96 L173,89.96 L173,97.76 C174.840009,94.8799856 177.419983,92.6200082 180.74,90.98 C184.060017,89.3399918 187.71998,88.52 191.72,88.52 C196.120022,88.52 200.079982,89.5399898 203.6,91.58 C207.120018,93.6200102 209.85999,96.4599818 211.82,100.1 C213.78001,103.740018 214.76,107.879977 214.76,112.52 L214.76,152 L197.84,152 L197.84,116.24 C197.84,112.399981 196.760011,109.280012 194.6,106.88 C192.439989,104.479988 189.600018,103.28 186.08,103.28 C182.399982,103.28 179.320012,104.439988 176.84,106.76 C174.359988,109.080012 173.12,111.919983 173.12,115.28 L173,114.92 L173,152 L172.999993,152 Z M258.8,137.96 C261.280012,137.96 263.859987,137.440005 266.54,136.4 C269.220013,135.359995 271.399992,134.040008 273.08,132.44 L284.24,143.84 C281.519986,146.720014 277.780024,149.039991 273.02,150.8 C268.259976,152.560009 263.560023,153.44 258.92,153.44 C252.83997,153.44 247.280025,152.040014 242.24,149.24 C237.199975,146.439986 233.240014,142.560025 230.36,137.6 C227.479986,132.639975 226.04,127.040031 226.04,120.8 C226.04,114.639969 227.439986,109.100025 230.24,104.18 C233.040014,99.2599754 236.859976,95.4200138 241.7,92.66 C246.540024,89.8999862 251.95997,88.52 257.96,88.52 C264.360032,88.52 269.879977,90.0599846 274.52,93.14 C279.160023,96.2200154 282.699988,100.639971 285.14,106.4 C287.580012,112.160029 288.8,118.919961 288.8,126.68 L244.04,126.68 C245.080005,130.120017 246.899987,132.85999 249.5,134.9 C252.100013,136.94001 255.199982,137.96 258.8,137.96 Z M258.68,104 C255.399984,104 252.460013,104.899991 249.86,106.7 C247.259987,108.5 245.400006,110.959984 244.28,114.08 L272,114.08 C271.119996,110.959984 269.540011,108.5 267.26,106.7 C264.979989,104.899991 262.120017,104 258.68,104 Z M323.96,153.44 C318.919975,153.44 313.920025,152.620008 308.96,150.98 C303.999975,149.339992 299.680018,147.040015 296,144.08 L303.56,131.96 C310.040032,136.600023 316.959963,138.92 324.32,138.92 C326.640012,138.92 328.559992,138.480004 330.08,137.6 C331.600008,136.719996 332.36,135.600007 332.36,134.24 C332.36,132.479991 331.520008,131.180004 329.84,130.34 C328.159992,129.499996 325.36002,128.560005 321.44,127.52 C316.399975,126.319994 312.300016,125.040007 309.14,123.68 C305.979984,122.319993 303.460009,120.420012 301.58,117.98 C299.699991,115.539988 298.76,112.36002 298.76,108.44 C298.76,104.599981 299.77999,101.160015 301.82,98.12 C303.86001,95.0799848 306.699982,92.7200084 310.34,91.04 C313.980018,89.3599916 318.199976,88.52 323,88.52 C327.320022,88.52 331.599979,89.1999932 335.84,90.56 C340.080021,91.9200068 343.959982,93.799988 347.48,96.2 L340.4,108.68 C337.599986,106.919991 334.660015,105.560005 331.58,104.6 C328.499985,103.639995 325.640013,103.16 323,103.16 C320.839989,103.16 319.080007,103.499997 317.72,104.18 C316.359993,104.860003 315.68,105.759994 315.68,106.88 C315.68,108.480008 316.379993,109.679996 317.78,110.48 C319.180007,111.280004 322.119978,112.279994 326.6,113.48 C331.240023,114.680006 335.099985,115.939993 338.18,117.26 C341.260015,118.580007 343.859989,120.539987 345.98,123.14 C348.100011,125.740013 349.16,129.159979 349.16,133.4 C349.16,139.48003 346.860023,144.339982 342.26,147.98 C337.659977,151.620018 331.560038,153.44 323.96,153.44 Z" id="Shape" fill="#FFFFFF" fill-rule="nonzero"></path>
        <rect id="Rectangle" fill="#FF6A3A" x="0" y="0" width="436" height="222"></rect>
        <path d="M107.96,86.9600068 L107.96,152 L90.44,152 L90.44,69.4400068 L107.96,86.9600068 L107.96,86.9600068 Z M140.6,119.600007 L140.6,152 L123.08,152 L123.08,102.080007 L140.6,119.600007 L140.6,119.600007 Z M172.999993,152 L155.48,134.480007 L155.48,89.96 L173,89.96 L173,97.76 C174.840009,94.8799856 177.419983,92.6200082 180.74,90.98 C184.060017,89.3399918 187.71998,88.52 191.72,88.52 C196.120022,88.52 200.079982,89.5399898 203.6,91.58 C207.120018,93.6200102 209.85999,96.4599818 211.82,100.1 C213.78001,103.740018 214.76,107.879977 214.76,112.52 L214.76,152 L197.84,152 L197.84,116.24 C197.84,112.399981 196.760011,109.280012 194.6,106.88 C192.439989,104.479988 189.600018,103.28 186.08,103.28 C182.399982,103.28 179.320012,104.439988 176.84,106.76 C174.359988,109.080012 173.12,111.919983 173.12,115.28 L173,114.92 L173,152 L172.999993,152 Z M258.8,137.96 C261.280012,137.96 263.859987,137.440005 266.54,136.4 C269.220013,135.359995 271.399992,134.040008 273.08,132.44 L284.24,143.84 C281.519986,146.720014 277.780024,149.039991 273.02,150.8 C268.259976,152.560009 263.560023,153.44 258.92,153.44 C252.83997,153.44 247.280025,152.040014 242.24,149.24 C237.199975,146.439986 233.240014,142.560025 230.36,137.6 C227.479986,132.639975 226.04,127.040031 226.04,120.8 C226.04,114.639969 227.439986,109.100025 230.24,104.18 C233.040014,99.2599754 236.859976,95.4200138 241.7,92.66 C246.540024,89.8999862 251.95997,88.52 257.96,88.52 C264.360032,88.52 269.879977,90.0599846 274.52,93.14 C279.160023,96.2200154 282.699988,100.639971 285.14,106.4 C287.580012,112.160029 288.8,118.919961 288.8,126.68 L244.04,126.68 C245.080005,130.120017 246.899987,132.85999 249.5,134.9 C252.100013,136.94001 255.199982,137.96 258.8,137.96 Z M258.68,104 C255.399984,104 252.460013,104.899991 249.86,106.7 C247.259987,108.5 245.400006,110.959984 244.28,114.08 L272,114.08 C271.119996,110.959984 269.540011,108.5 267.26,106.7 C264.979989,104.899991 262.120017,104 258.68,104 Z M323.96,153.44 C318.919975,153.44 313.920025,152.620008 308.96,150.98 C303.999975,149.339992 299.680018,147.040015 296,144.08 L303.56,131.96 C310.040032,136.600023 316.959963,138.92 324.32,138.92 C326.640012,138.92 328.559992,138.480004 330.08,137.6 C331.600008,136.719996 332.36,135.600007 332.36,134.24 C332.36,132.479991 331.520008,131.180004 329.84,130.34 C328.159992,129.499996 325.36002,128.560005 321.44,127.52 C316.399975,126.319994 312.300016,125.040007 309.14,123.68 C305.979984,122.319993 303.460009,120.420012 301.58,117.98 C299.699991,115.539988 298.76,112.36002 298.76,108.44 C298.76,104.599981 299.77999,101.160015 301.82,98.12 C303.86001,95.0799848 306.699982,92.7200084 310.34,91.04 C313.980018,89.3599916 318.199976,88.52 323,88.52 C327.320022,88.52 331.599979,89.1999932 335.84,90.56 C340.080021,91.9200068 343.959982,93.799988 347.48,96.2 L340.4,108.68 C337.599986,106.919991 334.660015,105.560005 331.58,104.6 C328.499985,103.639995 325.640013,103.16 323,103.16 C320.839989,103.16 319.080007,103.499997 317.72,104.18 C316.359993,104.860003 315.68,105.759994 315.68,106.88 C315.68,108.480008 316.379993,109.679996 317.78,110.48 C319.180007,111.280004 322.119978,112.279994 326.6,113.48 C331.240023,114.680006 335.099985,115.939993 338.18,117.26 C341.260015,118.580007 343.859989,120.539987 345.98,123.14 C348.100011,125.740013 349.16,129.159979 349.16,133.4 C349.16,139.48003 346.860023,144.339982 342.26,147.98 C337.659977,151.620018 331.560038,153.44 323.96,153.44 Z" id="Shape" fill="#FFFFFF" fill-rule="nonzero"></path>
        <path d="M131.96,92.92 C129.239986,92.92 126.960009,91.9800094 125.12,90.1 C123.279991,88.2199906 122.36,85.9600132 122.36,83.32 C122.36,80.8399876 123.299991,78.6600094 125.18,76.78 C127.060009,74.8999906 129.319987,73.96 131.96,73.96 C134.520013,73.96 136.719991,74.8999906 138.56,76.78 C140.400009,78.6600094 141.32,80.8399876 141.32,83.32 C141.32,85.9600132 140.400009,88.2199906 138.56,90.1 C136.719991,91.9800094 134.520013,92.92 131.96,92.92 Z" id="Path" fill="#FFCD00" fill-rule="nonzero"></path>
        <rect id="Rectangle" fill="#003272" x="0" y="222" width="436" height="222"></rect>
        <path d="M107.96,308.960007 L107.96,374 L90.44,374 L90.44,291.440007 L107.96,308.960007 L107.96,308.960007 Z M140.6,341.600007 L140.6,374 L123.08,374 L123.08,324.080007 L140.6,341.600007 L140.6,341.600007 Z M172.999993,374 L155.48,356.480007 L155.48,311.96 L173,311.96 L173,319.76 C174.840009,316.879986 177.419983,314.620008 180.74,312.98 C184.060017,311.339992 187.71998,310.52 191.72,310.52 C196.120022,310.52 200.079982,311.53999 203.6,313.58 C207.120018,315.62001 209.85999,318.459982 211.82,322.1 C213.78001,325.740018 214.76,329.879977 214.76,334.52 L214.76,374 L197.84,374 L197.84,338.24 C197.84,334.399981 196.760011,331.280012 194.6,328.88 C192.439989,326.479988 189.600018,325.28 186.08,325.28 C182.399982,325.28 179.320012,326.439988 176.84,328.76 C174.359988,331.080012 173.12,333.919983 173.12,337.28 L173,336.92 L173,374 L172.999993,374 Z M258.8,359.96 C261.280012,359.96 263.859987,359.440005 266.54,358.4 C269.220013,357.359995 271.399992,356.040008 273.08,354.44 L284.24,365.84 C281.519986,368.720014 277.780024,371.039991 273.02,372.8 C268.259976,374.560009 263.560023,375.44 258.92,375.44 C252.83997,375.44 247.280025,374.040014 242.24,371.24 C237.199975,368.439986 233.240014,364.560025 230.36,359.6 C227.479986,354.639975 226.04,349.040031 226.04,342.8 C226.04,336.639969 227.439986,331.100025 230.24,326.18 C233.040014,321.259975 236.859976,317.420014 241.7,314.66 C246.540024,311.899986 251.95997,310.52 257.96,310.52 C264.360032,310.52 269.879977,312.059985 274.52,315.14 C279.160023,318.220015 282.699988,322.639971 285.14,328.4 C287.580012,334.160029 288.8,340.919961 288.8,348.68 L244.04,348.68 C245.080005,352.120017 246.899987,354.85999 249.5,356.9 C252.100013,358.94001 255.199982,359.96 258.8,359.96 Z M258.68,326 C255.399984,326 252.460013,326.899991 249.86,328.7 C247.259987,330.5 245.400006,332.959984 244.28,336.08 L272,336.08 C271.119996,332.959984 269.540011,330.5 267.26,328.7 C264.979989,326.899991 262.120017,326 258.68,326 Z M323.96,375.44 C318.919975,375.44 313.920025,374.620008 308.96,372.98 C303.999975,371.339992 299.680018,369.040015 296,366.08 L303.56,353.96 C310.040032,358.600023 316.959963,360.92 324.32,360.92 C326.640012,360.92 328.559992,360.480004 330.08,359.6 C331.600008,358.719996 332.36,357.600007 332.36,356.24 C332.36,354.479991 331.520008,353.180004 329.84,352.34 C328.159992,351.499996 325.36002,350.560005 321.44,349.52 C316.399975,348.319994 312.300016,347.040007 309.14,345.68 C305.979984,344.319993 303.460009,342.420012 301.58,339.98 C299.699991,337.539988 298.76,334.36002 298.76,330.44 C298.76,326.599981 299.77999,323.160015 301.82,320.12 C303.86001,317.079985 306.699982,314.720008 310.34,313.04 C313.980018,311.359992 318.199976,310.52 323,310.52 C327.320022,310.52 331.599979,311.199993 335.84,312.56 C340.080021,313.920007 343.959982,315.799988 347.48,318.2 L340.4,330.68 C337.599986,328.919991 334.660015,327.560005 331.58,326.6 C328.499985,325.639995 325.640013,325.16 323,325.16 C320.839989,325.16 319.080007,325.499997 317.72,326.18 C316.359993,326.860003 315.68,327.759994 315.68,328.88 C315.68,330.480008 316.379993,331.679996 317.78,332.48 C319.180007,333.280004 322.119978,334.279994 326.6,335.48 C331.240023,336.680006 335.099985,337.939993 338.18,339.26 C341.260015,340.580007 343.859989,342.539987 345.98,345.14 C348.100011,347.740013 349.16,351.159979 349.16,355.4 C349.16,361.48003 346.860023,366.339982 342.26,369.98 C337.659977,373.620018 331.560038,375.44 323.96,375.44 Z" id="Shape" fill="#B0C3FA" fill-rule="nonzero"></path>
        <path d="M131.96,314.92 C129.239986,314.92 126.960009,313.980009 125.12,312.1 C123.279991,310.219991 122.36,307.960013 122.36,305.32 C122.36,302.839988 123.299991,300.660009 125.18,298.78 C127.060009,296.899991 129.319987,295.96 131.96,295.96 C134.520013,295.96 136.719991,296.899991 138.56,298.78 C140.400009,300.660009 141.32,302.839988 141.32,305.32 C141.32,307.960013 140.400009,310.219991 138.56,312.1 C136.719991,313.980009 134.520013,314.92 131.96,314.92 Z" id="Path" fill="#FF5A3A" fill-rule="nonzero"></path>
        <rect id="Rectangle" fill="#223B33" x="0" y="444" width="436" height="222"></rect>
        <g id="Group" transform="translate(90.440000, 513.440007)" fill="#FFC599" fill-rule="nonzero">
            <path d="M17.52,17.52 L17.52,82.5599932 L0,82.5599932 L0,1.20792265e-13 L17.52,17.52 L17.52,17.52 Z M50.16,50.16 L50.16,82.5599932 L32.64,82.5599932 L32.64,32.64 L50.16,50.16 L50.16,50.16 Z M82.5599932,82.5599932 L65.04,65.04 L65.04,20.5199932 L82.56,20.5199932 L82.56,28.3199932 C84.4000092,25.4399788 86.9799834,23.1800014 90.3,21.5399932 C93.6200166,19.899985 97.27998,19.0799932 101.28,19.0799932 C105.680022,19.0799932 109.639982,20.099983 113.16,22.1399932 C116.680018,24.1800034 119.41999,27.019975 121.38,30.6599932 C123.34001,34.3000114 124.32,38.43997 124.32,43.0799932 L124.32,82.5599932 L107.4,82.5599932 L107.4,46.7999932 C107.4,42.959974 106.320011,39.8400052 104.16,37.4399932 C101.999989,35.0399812 99.1600176,33.8399932 95.64,33.8399932 C91.9599816,33.8399932 88.8800124,34.9999816 86.4,37.3199932 C83.9199876,39.6400048 82.68,42.4799764 82.68,45.8399932 L82.56,45.4799932 L82.56,82.5599932 L82.5599932,82.5599932 Z M168.36,68.5199932 C170.840012,68.5199932 173.419987,67.9999984 176.1,66.9599932 C178.780013,65.919988 180.959992,64.6000012 182.64,62.9999932 L193.8,74.3999932 C191.079986,77.2800076 187.340024,79.5999844 182.58,81.3599932 C177.819976,83.120002 173.120023,83.9999932 168.48,83.9999932 C162.39997,83.9999932 156.840025,82.6000072 151.8,79.7999932 C146.759975,76.9999792 142.800014,73.120018 139.92,68.1599932 C137.039986,63.1999684 135.6,57.6000244 135.6,51.3599932 C135.6,45.1999624 136.999986,39.6600178 139.8,34.7399932 C142.600014,29.8199686 146.419976,25.980007 151.26,23.2199932 C156.100024,20.4599794 161.51997,19.0799932 167.52,19.0799932 C173.920032,19.0799932 179.439977,20.6199778 184.08,23.6999932 C188.720023,26.7800086 192.259988,31.1999644 194.7,36.9599932 C197.140012,42.720022 198.36,49.4799544 198.36,57.2399932 L153.6,57.2399932 C154.640005,60.6800104 156.459987,63.419983 159.06,65.4599932 C161.660013,67.5000034 164.759982,68.5199932 168.36,68.5199932 Z M168.24,34.5599932 C164.959984,34.5599932 162.020013,35.4599842 159.42,37.2599932 C156.819987,39.0599932 154.960006,41.5199776 153.84,44.6399932 L181.56,44.6399932 C180.679996,41.5199776 179.100011,39.0599932 176.82,37.2599932 C174.539989,35.4599842 171.680017,34.5599932 168.24,34.5599932 Z M233.52,83.9999932 C228.479975,83.9999932 223.480025,83.1800014 218.52,81.5399932 C213.559975,79.899985 209.240018,77.600008 205.56,74.6399932 L213.12,62.5199932 C219.600032,67.1600164 226.519963,69.4799932 233.88,69.4799932 C236.200012,69.4799932 238.119992,69.0399976 239.64,68.1599932 C241.160008,67.2799888 241.92,66.16 241.92,64.7999932 C241.92,63.0399844 241.080008,61.7399974 239.4,60.8999932 C237.719992,60.059989 234.92002,59.1199984 231,58.0799932 C225.959975,56.8799872 221.860016,55.6 218.7,54.2399932 C215.539984,52.8799864 213.020009,50.9800054 211.14,48.5399932 C209.259991,46.099981 208.32,42.9200128 208.32,38.9999932 C208.32,35.159974 209.33999,31.7200084 211.38,28.6799932 C213.42001,25.639978 216.259982,23.2800016 219.9,21.5999932 C223.540018,19.9199848 227.759976,19.0799932 232.56,19.0799932 C236.880022,19.0799932 241.159979,19.7599864 245.4,21.1199932 C249.640021,22.48 253.519982,24.3599812 257.04,26.7599932 L249.96,39.2399932 C247.159986,37.4799844 244.220015,36.119998 241.14,35.1599932 C238.059985,34.1999884 235.200013,33.7199932 232.56,33.7199932 C230.399989,33.7199932 228.640007,34.0599898 227.28,34.7399932 C225.919993,35.4199966 225.24,36.3199876 225.24,37.4399932 C225.24,39.0400012 225.939993,40.2399892 227.34,41.0399932 C228.740007,41.8399972 231.679978,42.8399872 236.16,44.0399932 C240.800023,45.2399992 244.659985,46.4999866 247.74,47.8199932 C250.820015,49.1399998 253.419989,51.0999802 255.54,53.6999932 C257.660011,56.3000062 258.72,59.719972 258.72,63.9599932 C258.72,70.0400236 256.420023,74.899975 251.82,78.5399932 C247.219977,82.1800114 241.120038,83.9999932 233.52,83.9999932 Z" id="Shape"></path>
            <path d="M41.52,23.4799932 C38.7999864,23.4799932 36.5200092,22.5400026 34.68,20.6599932 C32.8399908,18.7799838 31.92,16.5200064 31.92,13.8799932 C31.92,11.3999808 32.8599906,9.22000261 34.74,7.33999321 C36.6200094,5.45998381 38.8799868,4.51999321 41.52,4.51999321 C44.0800128,4.51999321 46.2799908,5.45998381 48.12,7.33999321 C49.9600092,9.22000261 50.88,11.3999808 50.88,13.8799932 C50.88,16.5200064 49.9600092,18.7799838 48.12,20.6599932 C46.2799908,22.5400026 44.0800128,23.4799932 41.52,23.4799932 Z" id="Path"></path>
        </g>
        <rect id="Rectangle" fill="#2F6E46" x="436" y="444" width="436" height="222"></rect>
        <g id="Group" transform="translate(526.440000, 513.440007)" fill-rule="nonzero">
            <path d="M17.52,17.52 L17.52,82.5599932 L0,82.5599932 L0,1.20792265e-13 L17.52,17.52 L17.52,17.52 Z M50.16,50.16 L50.16,82.5599932 L32.64,82.5599932 L32.64,32.64 L50.16,50.16 L50.16,50.16 Z M82.5599932,82.5599932 L65.04,65.04 L65.04,20.5199932 L82.56,20.5199932 L82.56,28.3199932 C84.4000092,25.4399788 86.9799834,23.1800014 90.3,21.5399932 C93.6200166,19.899985 97.27998,19.0799932 101.28,19.0799932 C105.680022,19.0799932 109.639982,20.099983 113.16,22.1399932 C116.680018,24.1800034 119.41999,27.019975 121.38,30.6599932 C123.34001,34.3000114 124.32,38.43997 124.32,43.0799932 L124.32,82.5599932 L107.4,82.5599932 L107.4,46.7999932 C107.4,42.959974 106.320011,39.8400052 104.16,37.4399932 C101.999989,35.0399812 99.1600176,33.8399932 95.64,33.8399932 C91.9599816,33.8399932 88.8800124,34.9999816 86.4,37.3199932 C83.9199876,39.6400048 82.68,42.4799764 82.68,45.8399932 L82.56,45.4799932 L82.56,82.5599932 L82.5599932,82.5599932 Z M168.36,68.5199932 C170.840012,68.5199932 173.419987,67.9999984 176.1,66.9599932 C178.780013,65.919988 180.959992,64.6000012 182.64,62.9999932 L193.8,74.3999932 C191.079986,77.2800076 187.340024,79.5999844 182.58,81.3599932 C177.819976,83.120002 173.120023,83.9999932 168.48,83.9999932 C162.39997,83.9999932 156.840025,82.6000072 151.8,79.7999932 C146.759975,76.9999792 142.800014,73.120018 139.92,68.1599932 C137.039986,63.1999684 135.6,57.6000244 135.6,51.3599932 C135.6,45.1999624 136.999986,39.6600178 139.8,34.7399932 C142.600014,29.8199686 146.419976,25.980007 151.26,23.2199932 C156.100024,20.4599794 161.51997,19.0799932 167.52,19.0799932 C173.920032,19.0799932 179.439977,20.6199778 184.08,23.6999932 C188.720023,26.7800086 192.259988,31.1999644 194.7,36.9599932 C197.140012,42.720022 198.36,49.4799544 198.36,57.2399932 L153.6,57.2399932 C154.640005,60.6800104 156.459987,63.419983 159.06,65.4599932 C161.660013,67.5000034 164.759982,68.5199932 168.36,68.5199932 Z M168.24,34.5599932 C164.959984,34.5599932 162.020013,35.4599842 159.42,37.2599932 C156.819987,39.0599932 154.960006,41.5199776 153.84,44.6399932 L181.56,44.6399932 C180.679996,41.5199776 179.100011,39.0599932 176.82,37.2599932 C174.539989,35.4599842 171.680017,34.5599932 168.24,34.5599932 Z M233.52,83.9999932 C228.479975,83.9999932 223.480025,83.1800014 218.52,81.5399932 C213.559975,79.899985 209.240018,77.600008 205.56,74.6399932 L213.12,62.5199932 C219.600032,67.1600164 226.519963,69.4799932 233.88,69.4799932 C236.200012,69.4799932 238.119992,69.0399976 239.64,68.1599932 C241.160008,67.2799888 241.92,66.16 241.92,64.7999932 C241.92,63.0399844 241.080008,61.7399974 239.4,60.8999932 C237.719992,60.059989 234.92002,59.1199984 231,58.0799932 C225.959975,56.8799872 221.860016,55.6 218.7,54.2399932 C215.539984,52.8799864 213.020009,50.9800054 211.14,48.5399932 C209.259991,46.099981 208.32,42.9200128 208.32,38.9999932 C208.32,35.159974 209.33999,31.7200084 211.38,28.6799932 C213.42001,25.639978 216.259982,23.2800016 219.9,21.5999932 C223.540018,19.9199848 227.759976,19.0799932 232.56,19.0799932 C236.880022,19.0799932 241.159979,19.7599864 245.4,21.1199932 C249.640021,22.48 253.519982,24.3599812 257.04,26.7599932 L249.96,39.2399932 C247.159986,37.4799844 244.220015,36.119998 241.14,35.1599932 C238.059985,34.1999884 235.200013,33.7199932 232.56,33.7199932 C230.399989,33.7199932 228.640007,34.0599898 227.28,34.7399932 C225.919993,35.4199966 225.24,36.3199876 225.24,37.4399932 C225.24,39.0400012 225.939993,40.2399892 227.34,41.0399932 C228.740007,41.8399972 231.679978,42.8399872 236.16,44.0399932 C240.800023,45.2399992 244.659985,46.4999866 247.74,47.8199932 C250.820015,49.1399998 253.419989,51.0999802 255.54,53.6999932 C257.660011,56.3000062 258.72,59.719972 258.72,63.9599932 C258.72,70.0400236 256.420023,74.899975 251.82,78.5399932 C247.219977,82.1800114 241.120038,83.9999932 233.52,83.9999932 Z" id="Shape" fill="#B8E986"></path>
            <path d="M41.52,23.4799932 C38.7999864,23.4799932 36.5200092,22.5400026 34.68,20.6599932 C32.8399908,18.7799838 31.92,16.5200064 31.92,13.8799932 C31.92,11.3999808 32.8599906,9.22000261 34.74,7.33999321 C36.6200094,5.45998381 38.8799868,4.51999321 41.52,4.51999321 C44.0800128,4.51999321 46.2799908,5.45998381 48.12,7.33999321 C49.9600092,9.22000261 50.88,11.3999808 50.88,13.8799932 C50.88,16.5200064 49.9600092,18.7799838 48.12,20.6599932 C46.2799908,22.5400026 44.0800128,23.4799932 41.52,23.4799932 Z" id="Path" fill="#A9C548"></path>
        </g>
        <rect id="Rectangle" fill="#B91DFF" x="872" y="444" width="436" height="222"></rect>
        <g id="Group" transform="translate(962.440000, 513.440007)" fill="#FFFFFF" fill-rule="nonzero">
            <path d="M17.52,17.52 L17.52,82.5599932 L0,82.5599932 L0,1.20792265e-13 L17.52,17.52 L17.52,17.52 Z M50.16,50.16 L50.16,82.5599932 L32.64,82.5599932 L32.64,32.64 L50.16,50.16 L50.16,50.16 Z M82.5599932,82.5599932 L65.04,65.04 L65.04,20.5199932 L82.56,20.5199932 L82.56,28.3199932 C84.4000092,25.4399788 86.9799834,23.1800014 90.3,21.5399932 C93.6200166,19.899985 97.27998,19.0799932 101.28,19.0799932 C105.680022,19.0799932 109.639982,20.099983 113.16,22.1399932 C116.680018,24.1800034 119.41999,27.019975 121.38,30.6599932 C123.34001,34.3000114 124.32,38.43997 124.32,43.0799932 L124.32,82.5599932 L107.4,82.5599932 L107.4,46.7999932 C107.4,42.959974 106.320011,39.8400052 104.16,37.4399932 C101.999989,35.0399812 99.1600176,33.8399932 95.64,33.8399932 C91.9599816,33.8399932 88.8800124,34.9999816 86.4,37.3199932 C83.9199876,39.6400048 82.68,42.4799764 82.68,45.8399932 L82.56,45.4799932 L82.56,82.5599932 L82.5599932,82.5599932 Z M168.36,68.5199932 C170.840012,68.5199932 173.419987,67.9999984 176.1,66.9599932 C178.780013,65.919988 180.959992,64.6000012 182.64,62.9999932 L193.8,74.3999932 C191.079986,77.2800076 187.340024,79.5999844 182.58,81.3599932 C177.819976,83.120002 173.120023,83.9999932 168.48,83.9999932 C162.39997,83.9999932 156.840025,82.6000072 151.8,79.7999932 C146.759975,76.9999792 142.800014,73.120018 139.92,68.1599932 C137.039986,63.1999684 135.6,57.6000244 135.6,51.3599932 C135.6,45.1999624 136.999986,39.6600178 139.8,34.7399932 C142.600014,29.8199686 146.419976,25.980007 151.26,23.2199932 C156.100024,20.4599794 161.51997,19.0799932 167.52,19.0799932 C173.920032,19.0799932 179.439977,20.6199778 184.08,23.6999932 C188.720023,26.7800086 192.259988,31.1999644 194.7,36.9599932 C197.140012,42.720022 198.36,49.4799544 198.36,57.2399932 L153.6,57.2399932 C154.640005,60.6800104 156.459987,63.419983 159.06,65.4599932 C161.660013,67.5000034 164.759982,68.5199932 168.36,68.5199932 Z M168.24,34.5599932 C164.959984,34.5599932 162.020013,35.4599842 159.42,37.2599932 C156.819987,39.0599932 154.960006,41.5199776 153.84,44.6399932 L181.56,44.6399932 C180.679996,41.5199776 179.100011,39.0599932 176.82,37.2599932 C174.539989,35.4599842 171.680017,34.5599932 168.24,34.5599932 Z M233.52,83.9999932 C228.479975,83.9999932 223.480025,83.1800014 218.52,81.5399932 C213.559975,79.899985 209.240018,77.600008 205.56,74.6399932 L213.12,62.5199932 C219.600032,67.1600164 226.519963,69.4799932 233.88,69.4799932 C236.200012,69.4799932 238.119992,69.0399976 239.64,68.1599932 C241.160008,67.2799888 241.92,66.16 241.92,64.7999932 C241.92,63.0399844 241.080008,61.7399974 239.4,60.8999932 C237.719992,60.059989 234.92002,59.1199984 231,58.0799932 C225.959975,56.8799872 221.860016,55.6 218.7,54.2399932 C215.539984,52.8799864 213.020009,50.9800054 211.14,48.5399932 C209.259991,46.099981 208.32,42.9200128 208.32,38.9999932 C208.32,35.159974 209.33999,31.7200084 211.38,28.6799932 C213.42001,25.639978 216.259982,23.2800016 219.9,21.5999932 C223.540018,19.9199848 227.759976,19.0799932 232.56,19.0799932 C236.880022,19.0799932 241.159979,19.7599864 245.4,21.1199932 C249.640021,22.48 253.519982,24.3599812 257.04,26.7599932 L249.96,39.2399932 C247.159986,37.4799844 244.220015,36.119998 241.14,35.1599932 C238.059985,34.1999884 235.200013,33.7199932 232.56,33.7199932 C230.399989,33.7199932 228.640007,34.0599898 227.28,34.7399932 C225.919993,35.4199966 225.24,36.3199876 225.24,37.4399932 C225.24,39.0400012 225.939993,40.2399892 227.34,41.0399932 C228.740007,41.8399972 231.679978,42.8399872 236.16,44.0399932 C240.800023,45.2399992 244.659985,46.4999866 247.74,47.8199932 C250.820015,49.1399998 253.419989,51.0999802 255.54,53.6999932 C257.660011,56.3000062 258.72,59.719972 258.72,63.9599932 C258.72,70.0400236 256.420023,74.899975 251.82,78.5399932 C247.219977,82.1800114 241.120038,83.9999932 233.52,83.9999932 Z" id="Shape"></path>
            <path d="M41.52,23.4799932 C38.7999864,23.4799932 36.5200092,22.5400026 34.68,20.6599932 C32.8399908,18.7799838 31.92,16.5200064 31.92,13.8799932 C31.92,11.3999808 32.8599906,9.22000261 34.74,7.33999321 C36.6200094,5.45998381 38.8799868,4.51999321 41.52,4.51999321 C44.0800128,4.51999321 46.2799908,5.45998381 48.12,7.33999321 C49.9600092,9.22000261 50.88,11.3999808 50.88,13.8799932 C50.88,16.5200064 49.9600092,18.7799838 48.12,20.6599932 C46.2799908,22.5400026 44.0800128,23.4799932 41.52,23.4799932 Z" id="Path"></path>
        </g>
        <rect id="Rectangle" fill="#3478F6" x="872" y="222" width="436" height="222"></rect>
        <g id="Group" transform="translate(962.440000, 291.440007)" fill="#FFFFFF" fill-rule="nonzero">
            <path d="M17.52,17.52 L17.52,82.5599932 L0,82.5599932 L0,1.20792265e-13 L17.52,17.52 L17.52,17.52 Z M50.16,50.16 L50.16,82.5599932 L32.64,82.5599932 L32.64,32.64 L50.16,50.16 L50.16,50.16 Z M82.5599932,82.5599932 L65.04,65.04 L65.04,20.5199932 L82.56,20.5199932 L82.56,28.3199932 C84.4000092,25.4399788 86.9799834,23.1800014 90.3,21.5399932 C93.6200166,19.899985 97.27998,19.0799932 101.28,19.0799932 C105.680022,19.0799932 109.639982,20.099983 113.16,22.1399932 C116.680018,24.1800034 119.41999,27.019975 121.38,30.6599932 C123.34001,34.3000114 124.32,38.43997 124.32,43.0799932 L124.32,82.5599932 L107.4,82.5599932 L107.4,46.7999932 C107.4,42.959974 106.320011,39.8400052 104.16,37.4399932 C101.999989,35.0399812 99.1600176,33.8399932 95.64,33.8399932 C91.9599816,33.8399932 88.8800124,34.9999816 86.4,37.3199932 C83.9199876,39.6400048 82.68,42.4799764 82.68,45.8399932 L82.56,45.4799932 L82.56,82.5599932 L82.5599932,82.5599932 Z M168.36,68.5199932 C170.840012,68.5199932 173.419987,67.9999984 176.1,66.9599932 C178.780013,65.919988 180.959992,64.6000012 182.64,62.9999932 L193.8,74.3999932 C191.079986,77.2800076 187.340024,79.5999844 182.58,81.3599932 C177.819976,83.120002 173.120023,83.9999932 168.48,83.9999932 C162.39997,83.9999932 156.840025,82.6000072 151.8,79.7999932 C146.759975,76.9999792 142.800014,73.120018 139.92,68.1599932 C137.039986,63.1999684 135.6,57.6000244 135.6,51.3599932 C135.6,45.1999624 136.999986,39.6600178 139.8,34.7399932 C142.600014,29.8199686 146.419976,25.980007 151.26,23.2199932 C156.100024,20.4599794 161.51997,19.0799932 167.52,19.0799932 C173.920032,19.0799932 179.439977,20.6199778 184.08,23.6999932 C188.720023,26.7800086 192.259988,31.1999644 194.7,36.9599932 C197.140012,42.720022 198.36,49.4799544 198.36,57.2399932 L153.6,57.2399932 C154.640005,60.6800104 156.459987,63.419983 159.06,65.4599932 C161.660013,67.5000034 164.759982,68.5199932 168.36,68.5199932 Z M168.24,34.5599932 C164.959984,34.5599932 162.020013,35.4599842 159.42,37.2599932 C156.819987,39.0599932 154.960006,41.5199776 153.84,44.6399932 L181.56,44.6399932 C180.679996,41.5199776 179.100011,39.0599932 176.82,37.2599932 C174.539989,35.4599842 171.680017,34.5599932 168.24,34.5599932 Z M233.52,83.9999932 C228.479975,83.9999932 223.480025,83.1800014 218.52,81.5399932 C213.559975,79.899985 209.240018,77.600008 205.56,74.6399932 L213.12,62.5199932 C219.600032,67.1600164 226.519963,69.4799932 233.88,69.4799932 C236.200012,69.4799932 238.119992,69.0399976 239.64,68.1599932 C241.160008,67.2799888 241.92,66.16 241.92,64.7999932 C241.92,63.0399844 241.080008,61.7399974 239.4,60.8999932 C237.719992,60.059989 234.92002,59.1199984 231,58.0799932 C225.959975,56.8799872 221.860016,55.6 218.7,54.2399932 C215.539984,52.8799864 213.020009,50.9800054 211.14,48.5399932 C209.259991,46.099981 208.32,42.9200128 208.32,38.9999932 C208.32,35.159974 209.33999,31.7200084 211.38,28.6799932 C213.42001,25.639978 216.259982,23.2800016 219.9,21.5999932 C223.540018,19.9199848 227.759976,19.0799932 232.56,19.0799932 C236.880022,19.0799932 241.159979,19.7599864 245.4,21.1199932 C249.640021,22.48 253.519982,24.3599812 257.04,26.7599932 L249.96,39.2399932 C247.159986,37.4799844 244.220015,36.119998 241.14,35.1599932 C238.059985,34.1999884 235.200013,33.7199932 232.56,33.7199932 C230.399989,33.7199932 228.640007,34.0599898 227.28,34.7399932 C225.919993,35.4199966 225.24,36.3199876 225.24,37.4399932 C225.24,39.0400012 225.939993,40.2399892 227.34,41.0399932 C228.740007,41.8399972 231.679978,42.8399872 236.16,44.0399932 C240.800023,45.2399992 244.659985,46.4999866 247.74,47.8199932 C250.820015,49.1399998 253.419989,51.0999802 255.54,53.6999932 C257.660011,56.3000062 258.72,59.719972 258.72,63.9599932 C258.72,70.0400236 256.420023,74.899975 251.82,78.5399932 C247.219977,82.1800114 241.120038,83.9999932 233.52,83.9999932 Z" id="Shape"></path>
            <path d="M41.52,23.4799932 C38.7999864,23.4799932 36.5200092,22.5400026 34.68,20.6599932 C32.8399908,18.7799838 31.92,16.5200064 31.92,13.8799932 C31.92,11.3999808 32.8599906,9.22000261 34.74,7.33999321 C36.6200094,5.45998381 38.8799868,4.51999321 41.52,4.51999321 C44.0800128,4.51999321 46.2799908,5.45998381 48.12,7.33999321 C49.9600092,9.22000261 50.88,11.3999808 50.88,13.8799932 C50.88,16.5200064 49.9600092,18.7799838 48.12,20.6599932 C46.2799908,22.5400026 44.0800128,23.4799932 41.52,23.4799932 Z" id="Path"></path>
        </g>
        <rect id="Rectangle" fill="#FFB900" x="436" y="0" width="436" height="222"></rect>
        <g id="Group-2" transform="translate(528.380000, 69.880010)" fill-rule="nonzero">
            <path d="M17.52,17.52 L17.52,82.5599932 L0,82.5599932 L0,1.20792265e-13 L17.52,17.52 L17.52,17.52 Z M50.16,50.16 L50.16,82.5599932 L32.64,82.5599932 L32.64,32.64 L50.16,50.16 L50.16,50.16 Z M82.5599932,82.5599932 L65.04,65.04 L65.04,20.5199932 L82.56,20.5199932 L82.56,28.3199932 C84.4000092,25.4399788 86.9799834,23.1800014 90.3,21.5399932 C93.6200166,19.899985 97.27998,19.0799932 101.28,19.0799932 C105.680022,19.0799932 109.639982,20.099983 113.16,22.1399932 C116.680018,24.1800034 119.41999,27.019975 121.38,30.6599932 C123.34001,34.3000114 124.32,38.43997 124.32,43.0799932 L124.32,82.5599932 L107.4,82.5599932 L107.4,46.7999932 C107.4,42.959974 106.320011,39.8400052 104.16,37.4399932 C101.999989,35.0399812 99.1600176,33.8399932 95.64,33.8399932 C91.9599816,33.8399932 88.8800124,34.9999816 86.4,37.3199932 C83.9199876,39.6400048 82.68,42.4799764 82.68,45.8399932 L82.56,45.4799932 L82.56,82.5599932 L82.5599932,82.5599932 Z M168.36,68.5199932 C170.840012,68.5199932 173.419987,67.9999984 176.1,66.9599932 C178.780013,65.919988 180.959992,64.6000012 182.64,62.9999932 L193.8,74.3999932 C191.079986,77.2800076 187.340024,79.5999844 182.58,81.3599932 C177.819976,83.120002 173.120023,83.9999932 168.48,83.9999932 C162.39997,83.9999932 156.840025,82.6000072 151.8,79.7999932 C146.759975,76.9999792 142.800014,73.120018 139.92,68.1599932 C137.039986,63.1999684 135.6,57.6000244 135.6,51.3599932 C135.6,45.1999624 136.999986,39.6600178 139.8,34.7399932 C142.600014,29.8199686 146.419976,25.980007 151.26,23.2199932 C156.100024,20.4599794 161.51997,19.0799932 167.52,19.0799932 C173.920032,19.0799932 179.439977,20.6199778 184.08,23.6999932 C188.720023,26.7800086 192.259988,31.1999644 194.7,36.9599932 C197.140012,42.720022 198.36,49.4799544 198.36,57.2399932 L153.6,57.2399932 C154.640005,60.6800104 156.459987,63.419983 159.06,65.4599932 C161.660013,67.5000034 164.759982,68.5199932 168.36,68.5199932 Z M168.24,34.5599932 C164.959984,34.5599932 162.020013,35.4599842 159.42,37.2599932 C156.819987,39.0599932 154.960006,41.5199776 153.84,44.6399932 L181.56,44.6399932 C180.679996,41.5199776 179.100011,39.0599932 176.82,37.2599932 C174.539989,35.4599842 171.680017,34.5599932 168.24,34.5599932 Z M233.52,83.9999932 C228.479975,83.9999932 223.480025,83.1800014 218.52,81.5399932 C213.559975,79.899985 209.240018,77.600008 205.56,74.6399932 L213.12,62.5199932 C219.600032,67.1600164 226.519963,69.4799932 233.88,69.4799932 C236.200012,69.4799932 238.119992,69.0399976 239.64,68.1599932 C241.160008,67.2799888 241.92,66.16 241.92,64.7999932 C241.92,63.0399844 241.080008,61.7399974 239.4,60.8999932 C237.719992,60.059989 234.92002,59.1199984 231,58.0799932 C225.959975,56.8799872 221.860016,55.6 218.7,54.2399932 C215.539984,52.8799864 213.020009,50.9800054 211.14,48.5399932 C209.259991,46.099981 208.32,42.9200128 208.32,38.9999932 C208.32,35.159974 209.33999,31.7200084 211.38,28.6799932 C213.42001,25.639978 216.259982,23.2800016 219.9,21.5999932 C223.540018,19.9199848 227.759976,19.0799932 232.56,19.0799932 C236.880022,19.0799932 241.159979,19.7599864 245.4,21.1199932 C249.640021,22.48 253.519982,24.3599812 257.04,26.7599932 L249.96,39.2399932 C247.159986,37.4799844 244.220015,36.119998 241.14,35.1599932 C238.059985,34.1999884 235.200013,33.7199932 232.56,33.7199932 C230.399989,33.7199932 228.640007,34.0599898 227.28,34.7399932 C225.919993,35.4199966 225.24,36.3199876 225.24,37.4399932 C225.24,39.0400012 225.939993,40.2399892 227.34,41.0399932 C228.740007,41.8399972 231.679978,42.8399872 236.16,44.0399932 C240.800023,45.2399992 244.659985,46.4999866 247.74,47.8199932 C250.820015,49.1399998 253.419989,51.0999802 255.54,53.6999932 C257.660011,56.3000062 258.72,59.719972 258.72,63.9599932 C258.72,70.0400236 256.420023,74.899975 251.82,78.5399932 C247.219977,82.1800114 241.120038,83.9999932 233.52,83.9999932 Z" id="Shape" fill="#272727"></path>
            <path d="M41.52,23.4799932 C38.7999864,23.4799932 36.5200092,22.5400026 34.68,20.6599932 C32.8399908,18.7799838 31.92,16.5200064 31.92,13.8799932 C31.92,11.3999808 32.8599906,9.22000261 34.74,7.33999321 C36.6200094,5.45998381 38.8799868,4.51999321 41.52,4.51999321 C44.0800128,4.51999321 46.2799908,5.45998381 48.12,7.33999321 C49.9600092,9.22000261 50.88,11.3999808 50.88,13.8799932 C50.88,16.5200064 49.9600092,18.7799838 48.12,20.6599932 C46.2799908,22.5400026 44.0800128,23.4799932 41.52,23.4799932 Z" id="Path" fill="#FFFFFF"></path>
        </g>
        <rect id="Rectangle" fill="#FF487C" x="872" y="0" width="436" height="222"></rect>
        <g id="Group" transform="translate(964.380000, 70.760020)" fill="#FFFFFF" fill-rule="nonzero">
            <path d="M17.52,17.52 L17.52,82.5599932 L0,82.5599932 L0,1.20792265e-13 L17.52,17.52 L17.52,17.52 Z M50.16,50.16 L50.16,82.5599932 L32.64,82.5599932 L32.64,32.64 L50.16,50.16 L50.16,50.16 Z M82.5599932,82.5599932 L65.04,65.04 L65.04,20.5199932 L82.56,20.5199932 L82.56,28.3199932 C84.4000092,25.4399788 86.9799834,23.1800014 90.3,21.5399932 C93.6200166,19.899985 97.27998,19.0799932 101.28,19.0799932 C105.680022,19.0799932 109.639982,20.099983 113.16,22.1399932 C116.680018,24.1800034 119.41999,27.019975 121.38,30.6599932 C123.34001,34.3000114 124.32,38.43997 124.32,43.0799932 L124.32,82.5599932 L107.4,82.5599932 L107.4,46.7999932 C107.4,42.959974 106.320011,39.8400052 104.16,37.4399932 C101.999989,35.0399812 99.1600176,33.8399932 95.64,33.8399932 C91.9599816,33.8399932 88.8800124,34.9999816 86.4,37.3199932 C83.9199876,39.6400048 82.68,42.4799764 82.68,45.8399932 L82.56,45.4799932 L82.56,82.5599932 L82.5599932,82.5599932 Z M168.36,68.5199932 C170.840012,68.5199932 173.419987,67.9999984 176.1,66.9599932 C178.780013,65.919988 180.959992,64.6000012 182.64,62.9999932 L193.8,74.3999932 C191.079986,77.2800076 187.340024,79.5999844 182.58,81.3599932 C177.819976,83.120002 173.120023,83.9999932 168.48,83.9999932 C162.39997,83.9999932 156.840025,82.6000072 151.8,79.7999932 C146.759975,76.9999792 142.800014,73.120018 139.92,68.1599932 C137.039986,63.1999684 135.6,57.6000244 135.6,51.3599932 C135.6,45.1999624 136.999986,39.6600178 139.8,34.7399932 C142.600014,29.8199686 146.419976,25.980007 151.26,23.2199932 C156.100024,20.4599794 161.51997,19.0799932 167.52,19.0799932 C173.920032,19.0799932 179.439977,20.6199778 184.08,23.6999932 C188.720023,26.7800086 192.259988,31.1999644 194.7,36.9599932 C197.140012,42.720022 198.36,49.4799544 198.36,57.2399932 L153.6,57.2399932 C154.640005,60.6800104 156.459987,63.419983 159.06,65.4599932 C161.660013,67.5000034 164.759982,68.5199932 168.36,68.5199932 Z M168.24,34.5599932 C164.959984,34.5599932 162.020013,35.4599842 159.42,37.2599932 C156.819987,39.0599932 154.960006,41.5199776 153.84,44.6399932 L181.56,44.6399932 C180.679996,41.5199776 179.100011,39.0599932 176.82,37.2599932 C174.539989,35.4599842 171.680017,34.5599932 168.24,34.5599932 Z M233.52,83.9999932 C228.479975,83.9999932 223.480025,83.1800014 218.52,81.5399932 C213.559975,79.899985 209.240018,77.600008 205.56,74.6399932 L213.12,62.5199932 C219.600032,67.1600164 226.519963,69.4799932 233.88,69.4799932 C236.200012,69.4799932 238.119992,69.0399976 239.64,68.1599932 C241.160008,67.2799888 241.92,66.16 241.92,64.7999932 C241.92,63.0399844 241.080008,61.7399974 239.4,60.8999932 C237.719992,60.059989 234.92002,59.1199984 231,58.0799932 C225.959975,56.8799872 221.860016,55.6 218.7,54.2399932 C215.539984,52.8799864 213.020009,50.9800054 211.14,48.5399932 C209.259991,46.099981 208.32,42.9200128 208.32,38.9999932 C208.32,35.159974 209.33999,31.7200084 211.38,28.6799932 C213.42001,25.639978 216.259982,23.2800016 219.9,21.5999932 C223.540018,19.9199848 227.759976,19.0799932 232.56,19.0799932 C236.880022,19.0799932 241.159979,19.7599864 245.4,21.1199932 C249.640021,22.48 253.519982,24.3599812 257.04,26.7599932 L249.96,39.2399932 C247.159986,37.4799844 244.220015,36.119998 241.14,35.1599932 C238.059985,34.1999884 235.200013,33.7199932 232.56,33.7199932 C230.399989,33.7199932 228.640007,34.0599898 227.28,34.7399932 C225.919993,35.4199966 225.24,36.3199876 225.24,37.4399932 C225.24,39.0400012 225.939993,40.2399892 227.34,41.0399932 C228.740007,41.8399972 231.679978,42.8399872 236.16,44.0399932 C240.800023,45.2399992 244.659985,46.4999866 247.74,47.8199932 C250.820015,49.1399998 253.419989,51.0999802 255.54,53.6999932 C257.660011,56.3000062 258.72,59.719972 258.72,63.9599932 C258.72,70.0400236 256.420023,74.899975 251.82,78.5399932 C247.219977,82.1800114 241.120038,83.9999932 233.52,83.9999932 Z" id="Shape"></path>
            <path d="M41.52,23.4799932 C38.7999864,23.4799932 36.5200092,22.5400026 34.68,20.6599932 C32.8399908,18.7799838 31.92,16.5200064 31.92,13.8799932 C31.92,11.3999808 32.8599906,9.22000261 34.74,7.33999321 C36.6200094,5.45998381 38.8799868,4.51999321 41.52,4.51999321 C44.0800128,4.51999321 46.2799908,5.45998381 48.12,7.33999321 C49.9600092,9.22000261 50.88,11.3999808 50.88,13.8799932 C50.88,16.5200064 49.9600092,18.7799838 48.12,20.6599932 C46.2799908,22.5400026 44.0800128,23.4799932 41.52,23.4799932 Z" id="Path"></path>
        </g>
        <rect id="Rectangle" fill="#A9C548" x="436" y="222" width="436" height="222"></rect>
        <g id="Group" transform="translate(526.440000, 291.440007)" fill="#2F6E46" fill-rule="nonzero">
            <path d="M17.52,17.52 L17.52,82.5599932 L0,82.5599932 L0,1.20792265e-13 L17.52,17.52 L17.52,17.52 Z M50.16,50.16 L50.16,82.5599932 L32.64,82.5599932 L32.64,32.64 L50.16,50.16 L50.16,50.16 Z M82.5599932,82.5599932 L65.04,65.04 L65.04,20.5199932 L82.56,20.5199932 L82.56,28.3199932 C84.4000092,25.4399788 86.9799834,23.1800014 90.3,21.5399932 C93.6200166,19.899985 97.27998,19.0799932 101.28,19.0799932 C105.680022,19.0799932 109.639982,20.099983 113.16,22.1399932 C116.680018,24.1800034 119.41999,27.019975 121.38,30.6599932 C123.34001,34.3000114 124.32,38.43997 124.32,43.0799932 L124.32,82.5599932 L107.4,82.5599932 L107.4,46.7999932 C107.4,42.959974 106.320011,39.8400052 104.16,37.4399932 C101.999989,35.0399812 99.1600176,33.8399932 95.64,33.8399932 C91.9599816,33.8399932 88.8800124,34.9999816 86.4,37.3199932 C83.9199876,39.6400048 82.68,42.4799764 82.68,45.8399932 L82.56,45.4799932 L82.56,82.5599932 L82.5599932,82.5599932 Z M168.36,68.5199932 C170.840012,68.5199932 173.419987,67.9999984 176.1,66.9599932 C178.780013,65.919988 180.959992,64.6000012 182.64,62.9999932 L193.8,74.3999932 C191.079986,77.2800076 187.340024,79.5999844 182.58,81.3599932 C177.819976,83.120002 173.120023,83.9999932 168.48,83.9999932 C162.39997,83.9999932 156.840025,82.6000072 151.8,79.7999932 C146.759975,76.9999792 142.800014,73.120018 139.92,68.1599932 C137.039986,63.1999684 135.6,57.6000244 135.6,51.3599932 C135.6,45.1999624 136.999986,39.6600178 139.8,34.7399932 C142.600014,29.8199686 146.419976,25.980007 151.26,23.2199932 C156.100024,20.4599794 161.51997,19.0799932 167.52,19.0799932 C173.920032,19.0799932 179.439977,20.6199778 184.08,23.6999932 C188.720023,26.7800086 192.259988,31.1999644 194.7,36.9599932 C197.140012,42.720022 198.36,49.4799544 198.36,57.2399932 L153.6,57.2399932 C154.640005,60.6800104 156.459987,63.419983 159.06,65.4599932 C161.660013,67.5000034 164.759982,68.5199932 168.36,68.5199932 Z M168.24,34.5599932 C164.959984,34.5599932 162.020013,35.4599842 159.42,37.2599932 C156.819987,39.0599932 154.960006,41.5199776 153.84,44.6399932 L181.56,44.6399932 C180.679996,41.5199776 179.100011,39.0599932 176.82,37.2599932 C174.539989,35.4599842 171.680017,34.5599932 168.24,34.5599932 Z M233.52,83.9999932 C228.479975,83.9999932 223.480025,83.1800014 218.52,81.5399932 C213.559975,79.899985 209.240018,77.600008 205.56,74.6399932 L213.12,62.5199932 C219.600032,67.1600164 226.519963,69.4799932 233.88,69.4799932 C236.200012,69.4799932 238.119992,69.0399976 239.64,68.1599932 C241.160008,67.2799888 241.92,66.16 241.92,64.7999932 C241.92,63.0399844 241.080008,61.7399974 239.4,60.8999932 C237.719992,60.059989 234.92002,59.1199984 231,58.0799932 C225.959975,56.8799872 221.860016,55.6 218.7,54.2399932 C215.539984,52.8799864 213.020009,50.9800054 211.14,48.5399932 C209.259991,46.099981 208.32,42.9200128 208.32,38.9999932 C208.32,35.159974 209.33999,31.7200084 211.38,28.6799932 C213.42001,25.639978 216.259982,23.2800016 219.9,21.5999932 C223.540018,19.9199848 227.759976,19.0799932 232.56,19.0799932 C236.880022,19.0799932 241.159979,19.7599864 245.4,21.1199932 C249.640021,22.48 253.519982,24.3599812 257.04,26.7599932 L249.96,39.2399932 C247.159986,37.4799844 244.220015,36.119998 241.14,35.1599932 C238.059985,34.1999884 235.200013,33.7199932 232.56,33.7199932 C230.399989,33.7199932 228.640007,34.0599898 227.28,34.7399932 C225.919993,35.4199966 225.24,36.3199876 225.24,37.4399932 C225.24,39.0400012 225.939993,40.2399892 227.34,41.0399932 C228.740007,41.8399972 231.679978,42.8399872 236.16,44.0399932 C240.800023,45.2399992 244.659985,46.4999866 247.74,47.8199932 C250.820015,49.1399998 253.419989,51.0999802 255.54,53.6999932 C257.660011,56.3000062 258.72,59.719972 258.72,63.9599932 C258.72,70.0400236 256.420023,74.899975 251.82,78.5399932 C247.219977,82.1800114 241.120038,83.9999932 233.52,83.9999932 Z" id="Shape"></path>
            <path d="M41.52,23.4799932 C38.7999864,23.4799932 36.5200092,22.5400026 34.68,20.6599932 C32.8399908,18.7799838 31.92,16.5200064 31.92,13.8799932 C31.92,11.3999808 32.8599906,9.22000261 34.74,7.33999321 C36.6200094,5.45998381 38.8799868,4.51999321 41.52,4.51999321 C44.0800128,4.51999321 46.2799908,5.45998381 48.12,7.33999321 C49.9600092,9.22000261 50.88,11.3999808 50.88,13.8799932 C50.88,16.5200064 49.9600092,18.7799838 48.12,20.6599932 C46.2799908,22.5400026 44.0800128,23.4799932 41.52,23.4799932 Z" id="Path"></path>
        </g>
    </g>
</svg>